<svg width="418" height="394" viewBox="0 0 418 394" fill="none" xmlns="http://www.w3.org/2000/svg">
<path d="M216.205 29.3358C174.473 24.3415 129.408 23.9174 88.9402 37.8186C44.1193 53.268 13.4921 91.5574 3.2158 137.078C2.50806 140.132 1.89233 143.2 1.36861 146.282C-7.48516 197.179 30.1699 245.85 13.1842 276.08C-3.8014 306.311 0.636102 357.94 0.636102 357.94H396.391C396.391 357.94 426.668 320.382 414.13 259.178C401.593 197.975 359.5 206.076 349.16 170.681C341.262 143.642 338.958 114.016 327.132 87.8886C312.269 55.1236 283.489 43.4597 250.219 35.401C239.01 32.7127 227.653 30.6875 216.205 29.3358Z" fill="#E3F0DB"/>
<path d="M126.354 393.002C158.014 393.002 183.68 387.419 183.68 380.532C183.68 373.645 158.014 368.062 126.354 368.062C94.6933 368.062 69.0273 373.645 69.0273 380.532C69.0273 387.419 94.6933 393.002 126.354 393.002Z" fill="#E3F0DB"/>
<path d="M216.211 51.6172V226.576H325.46V51.6172H216.211ZM269.227 55.8586V94.5298H220.192V55.8586H269.227ZM220.192 136.944V98.7712H269.227V136.944H220.192ZM269.227 141.185V180.238H220.192V141.185H269.227ZM220.192 184.48H269.227V222.313H220.192V184.48ZM321.469 222.313H273.219V184.511H321.161V180.27H273.219V141.185H321.161V136.944H273.219V98.7712H321.161V94.5298H273.219V55.8586H321.469V222.313Z" fill="#92E3A9"/>
<path d="M19.707 51.6172V226.576H128.967V51.6172H19.707ZM72.7234 55.8586V94.5298H23.6987V55.8586H72.7234ZM23.6987 136.944V98.7712H72.7234V136.944H23.6987ZM72.7234 141.185V180.238H23.6987V141.185H72.7234ZM23.6987 184.511H72.7234V222.345H23.6987V184.511ZM124.975 222.345H76.7151V184.511H124.668V180.27H76.7151V141.185H124.668V136.944H76.7151V98.7712H124.668V94.5298H76.7151V55.8586H124.975V222.345Z" fill="#92E3A9"/>
<path d="M245.688 358.004H177.809V271.829C177.809 266.089 180.091 260.584 184.155 256.526C188.218 252.467 193.729 250.187 199.476 250.187H245.688V358.004Z" fill="#92E3A9"/>
<path d="M246.218 358.565H177.277V271.828C177.286 265.949 179.629 260.312 183.792 256.156C187.956 251.999 193.6 249.662 199.486 249.656H246.197L246.218 358.565ZM178.339 357.505H245.156V250.717H199.507C193.902 250.722 188.528 252.948 184.564 256.906C180.6 260.863 178.369 266.23 178.36 271.828L178.339 357.505Z" fill="#92E3A9"/>
<path opacity="0.5" d="M246.218 358.565H177.277V271.828C177.286 265.949 179.629 260.312 183.792 256.156C187.956 251.999 193.6 249.662 199.486 249.656H246.197L246.218 358.565ZM178.339 357.505H245.156V250.717H199.507C193.902 250.722 188.528 252.948 184.564 256.906C180.6 260.863 178.369 266.23 178.36 271.828L178.339 357.505Z" fill="white"/>
<path d="M218.338 249.656C212.451 249.662 206.807 251.999 202.644 256.156C198.48 260.312 196.137 265.949 196.129 271.828V358.565H265.069V249.656H218.338Z" fill="#92E3A9"/>
<path opacity="0.5" d="M218.338 249.656C212.451 249.662 206.807 251.999 202.644 256.156C198.48 260.312 196.137 265.949 196.129 271.828V358.565H265.069V249.656H218.338Z" fill="white"/>
<path d="M335.681 194.922H280.891C275.22 194.927 269.782 197.18 265.772 201.186C261.761 205.192 259.506 210.623 259.5 216.288V292.369H357.072V216.288C357.066 210.623 354.811 205.192 350.8 201.186C346.79 197.18 341.352 194.927 335.681 194.922Z" fill="#92E3A9"/>
<path opacity="0.5" d="M335.681 194.922H280.891C275.22 194.927 269.782 197.18 265.772 201.186C261.761 205.192 259.506 210.623 259.5 216.288V292.369H357.072V216.288C357.066 210.623 354.811 205.192 350.8 201.186C346.79 197.18 341.352 194.927 335.681 194.922Z" fill="white"/>
<path d="M341.793 291.852H245.293V216.291C245.293 210.767 247.49 205.47 251.4 201.565C255.31 197.659 260.613 195.465 266.143 195.465H320.964C326.49 195.471 331.788 197.667 335.694 201.572C339.599 205.477 341.793 210.771 341.793 216.291V291.852Z" fill="#92E3A9"/>
<path d="M342.346 292.369H244.785V216.288C244.791 210.625 247.045 205.195 251.053 201.19C255.061 197.184 260.496 194.93 266.166 194.922H320.966C326.635 194.93 332.07 197.184 336.079 201.19C340.087 205.195 342.341 210.625 342.346 216.288V292.369ZM245.847 291.308H341.285V216.288C341.279 210.906 339.137 205.746 335.328 201.94C331.519 198.133 326.354 195.991 320.966 195.982H266.166C260.778 195.991 255.613 198.133 251.804 201.94C247.995 205.746 245.852 210.906 245.847 216.288V291.308Z" fill="#92E3A9"/>
<path opacity="0.5" d="M342.346 292.369H244.785V216.288C244.791 210.625 247.045 205.195 251.053 201.19C255.061 197.184 260.496 194.93 266.166 194.922H320.966C326.635 194.93 332.07 197.184 336.079 201.19C340.087 205.195 342.341 210.625 342.346 216.288V292.369ZM245.847 291.308H341.285V216.288C341.279 210.906 339.137 205.746 335.328 201.94C331.519 198.133 326.354 195.991 320.966 195.982H266.166C260.778 195.991 255.613 198.133 251.804 201.94C247.995 205.746 245.852 210.906 245.847 216.288V291.308Z" fill="white"/>
<path d="M331.305 358.012H202.076V296.925C202.076 294.928 202.87 293.013 204.284 291.601C205.697 290.189 207.614 289.396 209.613 289.396H331.305V358.012Z" fill="#92E3A9"/>
<path opacity="0.5" d="M331.836 358.567H201.566V296.918C201.569 294.783 202.419 292.737 203.929 291.227C205.439 289.716 207.487 288.865 209.624 288.859H331.836V358.567ZM202.628 357.507H330.774V289.92H209.624C207.768 289.923 205.988 290.661 204.676 291.973C203.365 293.285 202.628 295.064 202.628 296.918V357.507Z" fill="white"/>
<path opacity="0.5" d="M331.305 358.016H202.076V296.929C202.076 294.932 202.87 293.017 204.284 291.605C205.697 290.193 207.614 289.4 209.613 289.4H331.305V358.016Z" fill="white"/>
<path opacity="0.5" d="M269.508 312.539H203.996V313.599H269.508V312.539Z" fill="white"/>
<path d="M337.727 358.004H269.784V271.829C269.784 266.089 272.067 260.584 276.13 256.526C280.194 252.467 285.705 250.187 291.451 250.187H337.727V358.004Z" fill="#92E3A9"/>
<path d="M338.206 358.565H269.266V271.828C269.274 265.949 271.617 260.312 275.78 256.156C279.944 251.999 285.588 249.662 291.474 249.656H338.185L338.206 358.565ZM270.327 357.505H337.144V250.717H291.496C285.891 250.722 280.517 252.948 276.552 256.906C272.588 260.863 270.357 266.23 270.348 271.828L270.327 357.505Z" fill="#92E3A9"/>
<path opacity="0.5" d="M338.206 358.565H269.266V271.828C269.274 265.949 271.617 260.312 275.78 256.156C279.944 251.999 285.588 249.662 291.474 249.656H338.185L338.206 358.565ZM270.327 357.505H337.144V250.717H291.496C285.891 250.722 280.517 252.948 276.552 256.906C272.588 260.863 270.357 266.23 270.348 271.828L270.327 357.505Z" fill="white"/>
<path d="M310.331 249.656C304.445 249.662 298.802 252 294.641 256.156C290.479 260.313 288.138 265.95 288.133 271.828V358.565H357.073V249.656H310.331Z" fill="#92E3A9"/>
<path opacity="0.5" d="M310.331 249.656C304.445 249.662 298.802 252 294.641 256.156C290.479 260.313 288.138 265.95 288.133 271.828V358.565H357.073V249.656H310.331Z" fill="white"/>
<path d="M131.744 359.629C131.744 359.629 139.504 366.338 142.965 367.091C146.426 367.844 153.316 366.943 152.817 369.604C152.318 372.266 148.634 373.846 144.929 374.747C141.224 375.648 126.065 373.421 122.88 373.464C119.695 373.506 117.572 373.803 116.51 371.174C115.448 368.544 117.168 361.63 117.168 361.63L131.744 359.629Z" fill="#152C1A"/>
<path d="M88.4844 211.707C88.4844 211.707 88.3145 237.421 88.1871 247.229C88.0597 257.037 90.5651 293.079 90.0555 294.404C89.546 295.73 86.3187 319.28 87.9854 325.091C89.6521 330.902 93.5268 362.808 93.5268 362.808L105.204 361.747C105.204 361.747 107.222 316.47 108.772 313.268C110.322 310.066 110.895 294.415 111.627 289.94C112.36 285.465 115.672 257.005 115.672 257.005C115.672 257.005 119.918 291.149 119.197 299.907C118.475 308.666 114.663 316.937 115.831 324.603C116.999 332.269 117.148 361.715 117.148 361.715L131.744 359.627C131.744 359.627 133.093 344.262 133.05 341.346C133.008 338.43 132.658 332.068 133.135 328.346C133.613 324.624 140.375 295.899 140.567 287.416C140.758 278.934 140.843 213.446 140.843 213.446C140.843 213.446 112.763 220.9 88.4844 211.707Z" fill="#FF9457"/>
<path d="M141.478 149.184C141.478 149.184 150.278 152.237 151.902 154.072C153.527 155.906 150.682 180.581 150.703 182.192C150.724 183.804 153.367 202.032 152.083 204.704C150.798 207.376 144.195 210.112 141.297 209.889C138.399 209.666 138.643 191.11 139.068 183.942C139.492 176.774 141.722 166.637 141.669 162.396C141.616 158.154 140.681 149.459 141.478 149.184Z" fill="#4F9646"/>
<path d="M157.66 202.692C156.561 201.465 155.201 200.498 153.681 199.861C152.16 199.225 150.517 198.935 148.87 199.012C145.833 198.981 142.905 200.144 140.72 202.252C138.535 204.359 137.267 207.24 137.192 210.273C136.948 217.24 141.853 218.756 146.396 218.693C150.94 218.629 160.962 214.356 157.66 202.692Z" fill="#92E3A9"/>
<path d="M161.387 205.642C161.387 205.642 153.956 203.627 148.913 205.281C143.871 206.935 141.259 208.568 140.792 213.35C140.325 218.132 148.807 216.945 153.319 216.627C157.831 216.309 168.309 207.084 168.309 207.084L161.387 205.642Z" fill="#FFC3BD"/>
<path d="M156.406 209.946C155.344 207.051 158.72 204.644 158.72 204.644L156.597 200.699C156.597 200.699 158.157 198.823 159.782 201.187C161.406 203.552 162.765 205.429 163.816 204.58C164.867 203.732 162.956 200.084 162.956 200.084C163.077 199.875 163.251 199.702 163.461 199.581C163.671 199.46 163.908 199.397 164.15 199.397C164.392 199.397 164.63 199.46 164.839 199.581C165.049 199.702 165.223 199.875 165.344 200.084C166.693 201.664 167.255 204.04 168.848 204.326C170.44 204.612 174.347 198.674 175.419 199.459C176.491 200.243 175.419 202.11 174.145 203.456C173.559 204.139 172.835 204.692 172.022 205.079C172.022 205.079 178.392 201.537 181.247 200.169C184.103 198.801 185.196 198.049 185.748 199.575C186.3 201.102 179.443 203.647 175.748 205.291C172.054 206.934 164.941 210.476 162.032 211.579C160.771 212.142 159.433 212.518 158.062 212.692" fill="#FFC3BD"/>
<path d="M111.254 139.355C111.254 139.355 87.1559 146.056 87.1559 148.177C87.1559 150.297 86.9117 205.977 86.9754 210.568C87.0391 215.159 93.2814 218.436 101.636 220.62C109.991 222.804 129.238 222.168 133.304 220.694C137.37 219.22 142.858 217.736 143.495 215.074C144.132 212.413 143.792 186.265 143.909 181.843C144.026 177.421 148.432 163.934 146.945 159.003C145.459 154.072 142.572 150.043 139.514 148.145C136.457 146.247 128.442 140.531 122.932 139.365C119.068 138.705 115.12 138.701 111.254 139.355Z" fill="#4F9646"/>
<path d="M128.559 154.309C128.559 154.309 131.605 171.2 130.162 179.322C129.1 184.963 130.162 203.329 131.223 207.051C132.285 210.773 133.251 217.93 130.767 218.905" stroke="#5CA552" stroke-linecap="round" stroke-linejoin="round"/>
<path d="M116.564 130.051C116.564 130.051 113.846 129.945 112.965 131.462C112.084 132.978 107.062 140.899 107.062 140.899L113.623 156.486L121.224 149.445L128.539 154.312L131.469 147.791L136.087 154.206C136.087 154.206 133.762 139.616 132.201 135.862C130.641 132.109 122.88 127.857 120.768 128.334C119.298 128.723 117.885 129.3 116.564 130.051Z" fill="#5CA552" stroke="#5CA552" stroke-linecap="round" stroke-linejoin="round"/>
<path d="M116.564 119.039C116.564 119.039 115.641 128.582 115.694 132.474C115.747 136.365 120.11 145.834 121.341 147.319C122.573 148.803 128.539 154.296 128.539 154.296C128.539 154.296 129.325 145.993 129.601 142.971C129.877 139.949 130.1 135.878 130.1 135.878C130.1 135.878 123.73 130.576 121.67 126.949C119.611 123.323 116.564 119.039 116.564 119.039Z" fill="#F9D0CC"/>
<path d="M142.36 96.826C141.235 92.2665 136.267 87.7388 130.492 85.809C123.973 83.6882 112.444 87.7282 107.529 95.7869C102.614 103.846 109.313 115.223 109.493 117.174C109.674 119.125 105.608 120.101 105.629 121.755C105.668 123.48 106.324 125.135 107.479 126.419C108.634 127.703 110.211 128.531 111.924 128.753C117.062 129.443 118.549 127.608 118.995 126.696C119.44 125.784 131.447 110.992 133.241 109.603C133.91 109.094 134.866 108.469 135.8 107.896C136.553 111.257 139.356 114.873 140.258 114.629C141.469 114.311 147.615 111.819 148.136 105.775C148.496 101.025 144.176 97.9394 142.36 96.826Z" fill="#152C1A" stroke="#263238" stroke-linecap="round" stroke-linejoin="round"/>
<path d="M141.381 112.566C141.393 112.361 141.393 112.156 141.381 111.951C141.237 109.646 140.482 107.422 139.194 105.504C136.88 102.217 132.495 101.528 130.701 103.383C128.907 105.239 126.911 112.64 121.656 114.825C116.401 117.009 113.939 113.764 113.981 116.436C114.023 119.108 115.945 127.422 119.013 130.847C122.081 134.271 126.073 138.895 128.95 139.457C131.827 140.019 136.381 139.457 136.636 138.396C136.89 137.336 139.523 128.853 140.818 124.771C142.113 120.688 141.381 112.566 141.381 112.566Z" fill="#FFC3BD"/>
<path d="M115.629 116.803C115.629 116.803 115.268 113.188 112.71 113.378C110.151 113.569 110.363 118.383 112.062 121.373C113.761 124.364 116.606 122.063 116.606 122.063" fill="#FFC3BD"/>
<path d="M129.953 115.089C129.953 115.089 126.311 114.082 124.645 116.361" stroke="#263238" stroke-linecap="round" stroke-linejoin="round"/>
<path d="M135.523 114.682C135.523 114.682 138.814 112.37 140.067 115.668L135.523 114.682Z" fill="white"/>
<path d="M135.523 114.682C135.523 114.682 138.814 112.37 140.067 115.668" stroke="#263238" stroke-linecap="round" stroke-linejoin="round"/>
<path d="M129.102 119.468C129.102 120.39 128.72 121.133 128.22 121.143C127.721 121.154 127.307 120.412 127.286 119.5C127.265 118.588 127.668 117.835 128.178 117.824C128.688 117.814 129.091 118.556 129.102 119.468Z" fill="#263238"/>
<path d="M137.699 118.745C137.699 119.657 137.317 120.41 136.817 120.41C136.318 120.41 135.894 119.689 135.883 118.766C135.872 117.844 136.265 117.102 136.764 117.102C137.263 117.102 137.688 117.865 137.699 118.745Z" fill="#263238"/>
<path d="M91.5738 148.611C90.5666 147.883 89.351 147.499 88.1078 147.516C86.8645 147.533 85.6601 147.951 84.6734 148.707C81.2551 151.411 79.4291 191.195 78.9726 196.507C78.5161 201.82 78.9719 210.337 78.9719 210.337L98.1239 199.413L99.6314 193.051C99.6314 193.051 102.551 193.051 102.254 190.93C101.956 188.809 101.776 175.83 101.712 171.324C101.648 166.817 95.1514 158.154 95.1514 158.154" fill="#4F9646"/>
<path d="M131.798 196.504C131.798 196.504 97.0726 199.907 90.7348 202.113C84.397 204.318 77.5816 210.256 78.399 212.366C79.2164 214.477 84.5881 217.849 87.2421 217.806C89.8961 217.764 93.8559 216.12 94.6734 216.11C95.4908 216.099 129.781 202.325 130.566 202.092C131.352 201.858 136.66 201.201 139.059 200.109C141.458 199.017 144.972 195.517 144.972 195.517C144.972 195.517 158.147 195.517 159.474 194.924C160.801 194.33 161.82 192.803 157.297 191.859C152.775 190.915 150.705 189.06 147.743 189.102C144.781 189.145 131.798 196.504 131.798 196.504Z" fill="#FFC3BD"/>
<path d="M206.528 197.435L133.02 198.473L133.057 201.123L206.566 200.085L206.528 197.435Z" fill="white" stroke="#263238" stroke-linecap="round" stroke-linejoin="round"/>
<path d="M215.834 161.25L175.769 161.823L166.215 199.603L206.28 199.041L215.834 161.25Z" fill="white" stroke="#152C1A" stroke-linecap="round" stroke-linejoin="round"/>
<path d="M93.5266 362.806C93.5266 362.806 92.1996 371.745 91.8493 376.273C91.499 380.8 88.0594 385.752 90.6815 387.937C93.3037 390.121 100.905 389.792 105.183 388.541C109.461 387.29 106.404 378.839 106.457 376.188C106.434 372.836 106.136 369.492 105.565 366.189C105.077 363.792 105.204 361.746 105.204 361.746L93.5266 362.806Z" fill="#152C1A"/>
<path d="M96.7102 386.652C94.3682 386.791 92.0189 386.566 89.7461 385.984C89.7623 386.351 89.8547 386.71 90.0173 387.038C90.18 387.367 90.4094 387.658 90.6909 387.893C93.3025 390.014 100.914 389.749 105.192 388.497C106.7 388.052 107.316 386.695 107.422 385.02C105.479 386.027 102.241 386.568 96.7102 386.652Z" fill="#152C1A"/>
<path d="M273.3 51.6219C274.296 46.3263 273.704 40.855 271.599 35.8939C269.494 30.9328 265.97 26.7026 261.469 23.7337C256.967 20.7648 251.688 19.1892 246.293 19.2044C240.899 19.2197 235.629 20.8251 231.144 23.8194C227.879 15.9269 221.975 9.40914 214.438 5.37626C206.901 1.34338 198.198 0.0447467 189.811 1.70154C181.423 3.35833 173.87 7.86809 168.437 14.4627C163.005 21.0574 160.029 29.3291 160.017 37.8691C160.017 38.325 160.017 38.7704 160.017 39.2263C154.702 40.7316 150.068 44.0179 146.893 48.5332C143.719 53.0485 142.196 58.5177 142.582 64.0218C142.968 69.526 145.239 74.7297 149.013 78.7588C152.788 82.7878 157.835 85.3967 163.308 86.1471V86.4016H272.122C276.637 86.392 280.972 84.6332 284.214 81.4956C287.457 78.358 289.354 74.0862 289.507 69.5794C289.659 65.0727 288.055 60.6825 285.033 57.3331C282.01 53.9837 277.804 51.9363 273.3 51.6219Z" fill="#92E3A9" stroke="white" stroke-miterlimit="10"/>
<path d="M198.796 13.8867H177.691L187.904 20.6836L198.796 13.8867Z" fill="white"/>
<path d="M187.882 22.2384L176.332 14.5508V29.0352H199.454V15.0173L187.882 22.2384Z" fill="white"/>
<path d="M238.361 28.6514V43.9099C237.734 43.5761 237.033 43.4047 236.323 43.4115C234.337 43.4115 232.734 44.6521 232.734 46.1684C232.734 47.6847 234.337 48.936 236.323 48.936C239.656 48.936 239.9 46.6562 239.9 46.6562V33.2215L249.402 31.8643V42.1179C248.772 41.7894 248.073 41.6184 247.363 41.6195C245.378 41.6195 243.775 42.8601 243.775 44.387C243.775 45.914 245.378 47.144 247.363 47.144C248.117 47.2043 248.87 47.0147 249.505 46.6045C250.141 46.1943 250.623 45.5863 250.877 44.8748L250.941 31.6522V26.8594L238.361 28.6514Z" fill="white"/>
<path d="M184.603 41.8445C185.456 41.8445 186.289 41.592 186.998 41.1189C187.706 40.6459 188.259 39.9735 188.585 39.1869C188.911 38.4002 188.997 37.5346 188.83 36.6995C188.664 35.8644 188.254 35.0974 187.651 34.4953C187.048 33.8932 186.28 33.4832 185.444 33.3171C184.608 33.151 183.741 33.2362 182.954 33.5621C182.166 33.8879 181.493 34.4397 181.019 35.1477C180.546 35.8556 180.293 36.688 180.293 37.5394C180.293 38.6812 180.747 39.7762 181.555 40.5835C182.364 41.3909 183.46 41.8445 184.603 41.8445Z" fill="white"/>
<path d="M187.212 42.7539H181.989C180.545 42.7539 179.159 43.327 178.138 44.3471C177.117 45.3673 176.543 46.7509 176.543 48.1935V51.1413H192.658V48.1935C192.658 46.7509 192.084 45.3673 191.063 44.3471C190.042 43.327 188.656 42.7539 187.212 42.7539Z" fill="white"/>
<path d="M268.343 64.959C268.343 59.4239 261.867 54.9492 253.873 54.9492C245.879 54.9492 239.414 59.4239 239.414 64.959C239.414 70.1441 245.104 74.4067 252.397 74.9157L252.143 74.9687L259.85 78.8284L259.521 74.1841C264.701 72.6571 268.343 69.0838 268.343 64.959ZM260.625 65.9239H246.399V64.7681H260.625V65.9239ZM260.625 69.105H246.399V68.0234H260.625V69.105ZM260.625 62.8171H246.399V61.6613H260.625V62.8171Z" fill="white"/>
<path d="M211.014 54.5899C209.901 54.5884 208.799 54.8072 207.77 55.2337C206.742 55.6602 205.809 56.2858 205.024 57.0745C204.24 57.8632 203.619 58.7993 203.199 59.8288C202.778 60.8583 202.566 61.9608 202.574 63.0727C202.574 67.7276 211.014 76.9103 211.014 76.9103C211.014 76.9103 219.507 67.7276 219.507 63.0727C219.507 60.8229 218.612 58.6653 217.02 57.0744C215.427 55.4836 213.267 54.5899 211.014 54.5899ZM211.014 67.3141C210.177 67.3037 209.361 67.046 208.67 66.5737C207.978 66.1013 207.442 65.4353 207.129 64.6594C206.816 63.8835 206.739 63.0324 206.909 62.2132C207.079 61.394 207.487 60.6432 208.083 60.0553C208.679 59.4674 209.436 59.0687 210.258 58.9093C211.08 58.7499 211.931 58.8369 212.704 59.1595C213.477 59.482 214.137 60.0256 214.602 60.7219C215.066 61.4182 215.314 62.2361 215.314 63.0727C215.314 63.6342 215.202 64.1901 214.985 64.7081C214.769 65.2262 214.451 65.6962 214.051 66.0907C213.651 66.4853 213.177 66.7966 212.656 67.0066C212.134 67.2166 211.576 67.3211 211.014 67.3141Z" fill="white"/>
<path d="M178.147 57.5039H157.562V75.127H178.147V57.5039Z" fill="#92E3A9" stroke="white" stroke-miterlimit="10"/>
<path d="M178.147 65.9355L174.622 62.7969L170.206 69.2544L165.206 67.4942L157.562 75.1394H178.147V65.9355Z" fill="white"/>
<path d="M163.743 64.2705C165.045 64.2705 166.1 63.2166 166.1 61.9165C166.1 60.6164 165.045 59.5625 163.743 59.5625C162.442 59.5625 161.387 60.6164 161.387 61.9165C161.387 63.2166 162.442 64.2705 163.743 64.2705Z" fill="white"/>
<path d="M184.327 59.5625H163.742V77.1856H184.327V59.5625Z" fill="#92E3A9" stroke="white" stroke-miterlimit="10"/>
<path d="M184.327 67.9796L180.792 64.8516L176.386 71.3091L171.386 69.5489L163.742 77.1941H184.327V67.9796Z" fill="white"/>
<path d="M172.268 63.9723C172.276 64.4418 172.144 64.9031 171.888 65.2969C171.631 65.6906 171.263 65.9989 170.83 66.1819C170.397 66.365 169.919 66.4145 169.458 66.3241C168.997 66.2338 168.573 66.0077 168.241 65.6748C167.909 65.342 167.685 64.9177 167.597 64.4565C167.508 63.9952 167.56 63.5182 167.745 63.0866C167.931 62.655 168.241 62.2886 168.636 62.0345C169.032 61.7804 169.494 61.6502 169.964 61.6607C170.574 61.6717 171.155 61.9191 171.585 62.3505C172.015 62.782 172.26 63.3636 172.268 63.9723Z" fill="white"/>
<path d="M220.707 21.3711V25.6443H225.569L220.707 21.3711Z" fill="white"/>
<path d="M219.997 21.4258H208.871V44.5945H225.57V26.2504H219.997V21.4258ZM221.791 39.5154H212.427C212.287 39.5154 212.152 39.4596 212.052 39.3602C211.953 39.2607 211.897 39.1259 211.897 38.9853C211.897 38.8446 211.953 38.7098 212.052 38.6104C212.152 38.5109 212.287 38.4551 212.427 38.4551H221.77C221.91 38.4551 222.045 38.5109 222.145 38.6104C222.244 38.7098 222.3 38.8446 222.3 38.9853C222.3 39.1259 222.244 39.2607 222.145 39.3602C222.045 39.4596 221.91 39.5154 221.77 39.5154H221.791ZM221.791 36.3344H212.427C212.287 36.3344 212.152 36.2785 212.052 36.1791C211.953 36.0797 211.897 35.9448 211.897 35.8042C211.897 35.6636 211.953 35.5287 212.052 35.4293C212.152 35.3299 212.287 35.274 212.427 35.274H221.77C221.91 35.274 222.045 35.3299 222.145 35.4293C222.244 35.5287 222.3 35.6636 222.3 35.8042C222.3 35.9448 222.244 36.0797 222.145 36.1791C222.045 36.2785 221.91 36.3344 221.77 36.3344H221.791ZM221.791 33.1533H212.427C212.287 33.1533 212.152 33.0974 212.052 32.998C211.953 32.8986 211.897 32.7637 211.897 32.6231C211.897 32.4825 211.953 32.3477 212.052 32.2482C212.152 32.1488 212.287 32.093 212.427 32.093H221.77C221.91 32.093 222.045 32.1488 222.145 32.2482C222.244 32.3477 222.3 32.4825 222.3 32.6231C222.3 32.7637 222.244 32.8986 222.145 32.998C222.045 33.0974 221.91 33.1533 221.77 33.1533H221.791ZM221.791 28.9119C221.932 28.9119 222.067 28.9677 222.166 29.0672C222.266 29.1666 222.322 29.3015 222.322 29.4421C222.322 29.5827 222.266 29.7175 222.166 29.817C222.067 29.9164 221.932 29.9722 221.791 29.9722H212.427C212.287 29.9722 212.152 29.9164 212.052 29.817C211.953 29.7175 211.897 29.5827 211.897 29.4421C211.897 29.3015 211.953 29.1666 212.052 29.0672C212.152 28.9677 212.287 28.9119 212.427 28.9119H221.791Z" fill="white"/>
<path d="M189.762 158.196V156.605" stroke="#4F9646" stroke-miterlimit="10"/>
<path d="M189.762 153.524V93.2852" stroke="#4F9646" stroke-miterlimit="10" stroke-dasharray="2.91 2.91"/>
<path d="M189.762 91.7351V90.1445" stroke="white" stroke-miterlimit="10"/>
<path d="M192.686 92.9933H186.839L189.763 87.9296L192.686 92.9933Z" fill="#4F9646" stroke="#4F9646"/>
<path d="M233.945 90.1445V91.7351" stroke="#4F9646" stroke-miterlimit="10"/>
<path d="M233.945 94.918V176.003" stroke="#4F9646" stroke-miterlimit="10" stroke-dasharray="3 3"/>
<path d="M233.948 177.578V179.169H232.355" fill="#4F9646"/>
<path d="M233.948 177.578V179.169H232.355" stroke="#4F9646" stroke-miterlimit="10"/>
<path d="M229.305 179.172H218.625" stroke="#4F9646" stroke-miterlimit="10" stroke-dasharray="2.87 2.87"/>
<path d="M217.101 179.172H215.508" stroke="white" stroke-miterlimit="10"/>
<path d="M217.997 176.189V182.03L212.927 179.11L217.997 176.189Z" fill="#4F9646" stroke="#4F9646"/>
<path d="M68.6688 245.656C62.8345 248.649 58.3996 253.836 55.1719 259.546C51.9443 265.255 49.8944 271.526 47.8445 277.757L46.0508 309.843C52.8263 298.33 58.2616 284.8 59.73 271.526L55.2261 271.122C58.2468 270.664 60.7846 268.474 62.4008 265.88C64.0171 263.286 64.8647 260.294 65.6531 257.351L60.1538 258.168C64.4948 255.244 67.5436 250.764 68.6688 245.656Z" fill="#16D877"/>
<path d="M45.0461 317.355C45.0461 317.355 30.3419 299.799 30.5094 282.991H36.4522C36.4522 282.991 29.997 278.753 30.5094 276.38C31.0219 274.008 31.1895 265.021 31.1895 265.021L36.6099 266.374C36.6099 266.374 32.5397 264.342 32.0272 261.123C31.5147 257.904 33.2148 242.98 33.2148 242.98C33.2148 242.98 39.8375 249.93 41.8727 257.052C43.9078 264.174 49.2642 272.477 47.6874 294.178C46.1105 315.879 45.0461 317.355 45.0461 317.355Z" fill="#16D877"/>
<path d="M52.4869 318.995C52.4869 318.995 68.4181 308.393 71.9611 294.877L67.1862 293.578C67.1862 293.578 73.3015 291.585 73.4099 289.562C73.5183 287.539 75.3514 280.284 75.3514 280.284L70.6849 280.185C70.6849 280.185 74.4102 279.442 75.5239 276.962C76.6375 274.481 78.5396 262.117 78.5396 262.117C78.5396 262.117 71.695 266.261 68.497 271.538C65.2989 276.814 59.1837 282.331 55.685 300.119C52.1863 317.907 52.4869 318.995 52.4869 318.995Z" fill="#16D877"/>
<path d="M37.2461 258.305C37.2673 258.366 37.2837 258.428 37.2954 258.492C37.3299 258.625 37.3693 258.802 37.4235 259.033C37.5319 259.525 37.6896 260.224 37.8867 261.115C38.0838 262.006 38.3302 263.133 38.5864 264.428C38.8427 265.722 39.1531 267.189 39.4488 268.823C40.0795 272.081 40.7398 275.979 41.4198 280.315C42.0999 284.652 42.7454 289.436 43.3318 294.466C43.9182 299.496 44.3567 304.31 44.7017 308.685C45.0466 313.061 45.2733 317.008 45.4063 320.325C45.4852 321.984 45.5246 323.485 45.5689 324.804C45.6133 326.123 45.6379 327.265 45.6478 328.186C45.6576 329.106 45.6478 329.82 45.6478 330.322V330.878C45.6532 330.94 45.6532 331.003 45.6478 331.065C45.6426 331.003 45.6426 330.94 45.6478 330.878C45.6478 330.74 45.6478 330.558 45.6232 330.322C45.6232 329.83 45.5837 329.101 45.5492 328.186C45.5148 327.27 45.4901 326.123 45.431 324.809C45.3718 323.495 45.3226 321.989 45.2289 320.335C45.0712 317.018 44.8101 313.076 44.4701 308.705C44.1301 304.334 43.657 299.53 43.0854 294.495C42.5138 289.46 41.8387 284.691 41.1932 280.355C40.5476 276.019 39.8775 272.12 39.2714 268.857C38.9856 267.223 38.6899 265.752 38.4435 264.457C38.1971 263.163 37.9803 262.045 37.7931 261.14C37.6058 260.234 37.4728 259.535 37.3742 259.043L37.2707 258.497C37.2566 258.434 37.2483 258.369 37.2461 258.305Z" fill="#16D877"/>
<path d="M43.0061 328.121C43.0061 328.121 29.5486 312.863 25.3699 303.649L28.5236 302.305C26.2372 302.679 23.8966 301.7 22.1177 300.209C20.3388 298.717 19.0428 296.763 17.7665 294.824L21.9206 294.125C18.1046 293.034 14.8547 290.52 12.8438 287.102C17.7468 287.904 22.1817 290.596 25.8381 293.958C28.7947 296.68 31.3078 299.864 33.7224 303.073C34.8996 304.646 35.9243 306.327 36.7824 308.093C39.0393 312.764 43.016 322.52 43.0061 328.121Z" fill="#16D877"/>
<path d="M72.195 271C72.1781 271.053 72.1567 271.104 72.1309 271.153L71.9239 271.596C71.7268 271.999 71.4558 272.58 71.101 273.289C70.3816 274.766 69.3566 276.882 68.1198 279.525C66.8829 282.168 65.449 285.333 63.9165 288.877C62.384 292.42 60.7726 296.343 59.1612 300.492C57.5499 304.642 56.1159 308.638 54.8544 312.305C53.593 315.972 52.5286 319.26 51.6662 322.05C50.8039 324.841 50.1239 327.1 49.6952 328.665C49.4685 329.438 49.2911 330.043 49.163 330.472C49.1038 330.664 49.0546 330.816 49.0201 330.934C49.0082 330.989 48.9883 331.042 48.9609 331.092C48.9643 331.037 48.9743 330.982 48.9905 330.929C49.025 330.811 49.0644 330.654 49.1137 330.437C49.227 330.004 49.3896 329.399 49.6065 328.621C50.0302 327.041 50.6807 324.772 51.5233 321.976C52.366 319.181 53.4205 315.868 54.6623 312.211C55.904 308.554 57.3479 304.563 58.9493 300.399C60.5508 296.235 62.1918 292.322 63.7292 288.778C65.2666 285.234 66.7203 282.08 67.9867 279.427C69.2531 276.774 70.2929 274.677 71.0419 273.225L71.9092 271.557L72.1358 271.123C72.1506 271.045 72.195 270.995 72.195 271Z" fill="#16D877"/>
<path d="M44.1483 334.657C44.1158 334.567 44.0943 334.472 44.0843 334.377C44.0498 334.165 44.0104 333.884 43.9562 333.569C43.902 333.254 43.8379 332.787 43.7492 332.29C43.6605 331.793 43.5718 331.222 43.4338 330.602C43.1924 329.351 42.8474 327.88 42.4089 326.256C41.9703 324.631 41.3938 322.874 40.7137 321.058C40.0337 319.242 39.2749 317.554 38.5456 316.043C37.8163 314.532 37.0673 313.198 36.4414 312.105C36.131 311.549 35.8206 311.067 35.5594 310.629C35.2982 310.19 35.0666 309.831 34.8695 309.531C34.6724 309.231 34.5492 309.039 34.4309 308.837C34.3753 308.759 34.329 308.675 34.293 308.586C34.3603 308.654 34.4214 308.728 34.4753 308.807L34.9681 309.477C35.175 309.767 35.4263 310.126 35.6974 310.555C35.9684 310.983 36.2936 311.46 36.6139 312.031C37.2792 313.119 38.0183 314.448 38.7722 315.969C39.5262 317.49 40.2752 319.183 40.97 321.004C41.6648 322.825 42.2068 324.602 42.6503 326.226C43.0938 327.85 43.4092 329.346 43.6359 330.602C43.764 331.227 43.8379 331.798 43.9118 332.3C43.9857 332.802 44.0449 333.235 44.0794 333.589C44.1139 333.944 44.1385 334.19 44.1631 334.406C44.1675 334.49 44.1625 334.574 44.1483 334.657Z" fill="#16D877"/>
<path d="M61.9059 331.07H32.4531V337.07H61.9059V331.07Z" fill="#E4EAE3"/>
<path d="M35.2617 337.078L38.445 357.263H56.2438L59.2152 337.078H35.2617Z" fill="#E4EAE3"/>
<path d="M60.1046 337.07C60.1046 337.139 54.5314 337.198 47.6622 337.198C40.793 337.198 35.2148 337.139 35.2148 337.07C35.2148 337.001 40.7881 336.941 47.6622 336.941C54.5363 336.941 60.1046 336.996 60.1046 337.07Z" fill="#16D877"/>
</svg>
