<svg width="546" height="301" viewBox="0 0 546 301" fill="none" xmlns="http://www.w3.org/2000/svg">
<path d="M358.385 43.6034C358.385 43.6034 314.262 -2.11071 244.401 0.0760226C174.541 2.26276 114.965 46.5364 65.6944 81.1925C16.4233 115.849 3.19341 169.698 31.8754 211.723C60.5575 253.747 106.149 236.057 164.237 263.334C222.324 290.611 233.321 306.105 298.076 299.472C362.83 292.839 412.07 224.999 404.711 152.733C397.352 80.467 358.385 43.6034 358.385 43.6034Z" fill="#FBFCFB"/>
<path d="M358.385 43.6034C358.385 43.6034 314.262 -2.11071 244.401 0.0760226C174.541 2.26276 114.965 46.5364 65.6944 81.1925C16.4233 115.849 3.19341 169.698 31.8754 211.723C60.5575 253.747 106.149 236.057 164.237 263.334C222.324 290.611 233.321 306.105 298.076 299.472C362.83 292.839 412.07 224.999 404.711 152.733C397.352 80.467 358.385 43.6034 358.385 43.6034Z" fill="#FBFCFB"/>
<path d="M473.479 286.6C473.479 290.116 375.001 292.95 253.649 292.95C132.298 292.95 33.8047 290.116 33.8047 286.6C33.8047 283.084 132.283 280.262 253.649 280.262C375.016 280.262 473.479 283.096 473.479 286.6Z" fill="#E4EAE3"/>
<path opacity="0.6" d="M473.479 286.6C473.479 290.116 375.001 292.95 253.649 292.95C132.298 292.95 33.8047 290.116 33.8047 286.6C33.8047 283.084 132.283 280.262 253.649 280.262C375.016 280.262 473.479 283.096 473.479 286.6Z" fill="white"/>
<g opacity="0.98">
<path d="M40.1533 194.383C40.1885 194.383 39.7482 192.187 39.7012 192.028C39.1962 190.462 37.2997 187.73 35.456 187.73C35.1502 187.74 34.8497 187.814 34.5742 187.947C34.2987 188.081 34.0541 188.271 33.8565 188.505C33.6589 188.739 33.5126 189.013 33.427 189.307C33.3414 189.602 33.3185 189.911 33.3598 190.215C33.4949 191.51 34.6574 192.617 35.7085 193.253C36.9415 194.024 40.1533 194.383 40.1533 194.383Z" fill="#16D877"/>
<path d="M43.7158 179.593C41.9837 180.217 41.1264 183.431 41.1793 185.08C41.1793 185.221 41.5081 187.435 41.5433 187.435H41.5785C41.4376 187.941 41.2908 188.483 41.144 189.083C40.8857 190.19 40.6038 191.438 40.3866 192.828C40.1347 194.316 39.97 195.818 39.8934 197.326C39.8027 199.015 39.8596 200.71 40.0636 202.389C40.0659 202.409 40.0659 202.428 40.0636 202.448C39.8405 201.959 39.1594 200.611 39.0948 200.511C38.1906 199.133 35.6423 196.978 33.8632 197.491C33.5716 197.581 33.3021 197.731 33.0723 197.933C32.8424 198.134 32.6573 198.381 32.5289 198.659C32.4005 198.936 32.3316 199.238 32.3268 199.544C32.322 199.849 32.3813 200.153 32.5009 200.434C32.9707 201.653 34.3799 202.407 35.5601 202.748C36.893 203.125 39.864 202.678 40.0989 202.642C40.3534 204.344 40.7182 206.028 41.191 207.682C41.467 208.647 41.7782 209.613 42.0835 210.573C41.878 210.155 41.6842 209.784 41.6549 209.737C40.7506 208.359 38.2023 206.204 36.4232 206.716C36.1316 206.806 35.8622 206.957 35.6323 207.158C35.4025 207.359 35.2173 207.607 35.0889 207.884C34.9605 208.162 34.8917 208.463 34.8868 208.769C34.882 209.075 34.9414 209.379 35.061 209.66C35.5307 210.873 36.9399 211.632 38.1201 211.968C39.3003 212.304 41.8604 211.968 42.5297 211.886C42.653 212.251 42.7764 212.621 42.9055 212.986C43.4927 214.753 44.1268 216.519 44.667 218.25C44.8608 218.839 45.0252 219.474 45.1955 220.087C45.0135 219.716 44.849 219.404 44.8197 219.363C43.9213 217.979 41.3672 215.83 39.5939 216.342C39.3018 216.432 39.0317 216.582 38.8012 216.783C38.5707 216.984 38.3849 217.231 38.2559 217.509C38.1269 217.786 38.0576 218.088 38.0524 218.394C38.0472 218.7 38.1063 219.004 38.2258 219.286C38.6955 220.499 40.1106 221.258 41.2908 221.594C42.471 221.929 44.7786 221.635 45.5771 221.523C45.7357 222.153 45.8942 222.789 46.0175 223.407C46.088 223.831 46.1878 224.231 46.2406 224.667L46.4168 225.927C46.499 226.734 46.5929 227.564 46.6516 228.353C46.6986 228.906 46.7339 229.43 46.7691 229.954C46.5871 229.365 46.1819 228.147 46.1819 228.052C45.5319 226.757 44.5615 225.65 43.3635 224.838C43.2968 224.69 43.2183 224.549 43.1287 224.414C42.9612 224.157 42.7419 223.939 42.4849 223.773C42.2279 223.606 41.9389 223.496 41.6367 223.449C41.3345 223.402 41.0257 223.419 40.7305 223.499C40.4352 223.579 40.16 223.72 39.9227 223.914C38.5311 225.12 38.8776 228.429 39.5176 229.948C39.5528 230.037 40.1047 230.967 40.4101 231.544L39.6644 230.613C39.1477 229.984 38.6192 229.371 38.0555 228.712C37.7659 228.406 37.4782 228.094 37.1924 227.776C36.9106 227.458 36.5759 227.158 36.2647 226.84C35.5249 226.127 34.7439 225.438 33.916 224.767C34.468 224.314 36.388 222.689 36.9399 221.582C37.4919 220.475 37.8853 218.927 37.3098 217.755C37.1834 217.477 36.9998 217.228 36.7712 217.025C36.5426 216.822 36.2739 216.669 35.9827 216.577C35.6914 216.485 35.3841 216.455 35.0807 216.49C34.7773 216.524 34.4845 216.623 34.2213 216.778C32.6595 217.755 32.501 221.082 32.9061 222.665C32.9061 222.766 33.3523 223.884 33.5931 224.491C33.1057 224.084 32.6243 223.684 32.1193 223.313C30.6631 222.189 29.1835 221.093 27.6568 219.993L26.2887 218.974C26.4825 218.815 28.8077 216.931 29.4301 215.689C29.982 214.588 30.3754 213.034 29.8 211.868C29.6742 211.588 29.4908 211.338 29.262 211.133C29.0332 210.929 28.7639 210.776 28.4719 210.683C28.1799 210.59 27.8717 210.56 27.5673 210.595C27.263 210.63 26.9693 210.728 26.7056 210.885C25.1496 211.868 24.9911 215.188 25.3962 216.772C25.4256 216.89 26.0304 218.491 26.2065 218.892C25.2025 218.144 24.2102 217.39 23.2707 216.607C21.9858 215.552 20.7698 214.416 19.6303 213.204C19.7184 213.134 22.1551 211.173 22.7892 209.907C23.3412 208.806 23.7346 207.252 23.1591 206.08C23.032 205.803 22.8483 205.555 22.6199 205.354C22.3914 205.152 22.1233 205 21.8329 204.909C21.5424 204.817 21.236 204.788 20.9335 204.822C20.631 204.857 20.3391 204.954 20.0765 205.109C18.5147 206.092 18.362 209.419 18.7613 210.996C18.7906 211.102 19.2486 212.327 19.4835 212.898L19.3954 212.957C18.28 211.706 17.2779 210.359 16.4009 208.93C15.9135 208.153 15.4849 207.376 15.0856 206.616C15.5788 206.298 17.8042 204.85 18.5029 203.743C19.2016 202.636 19.736 201.206 19.2897 199.981C19.1942 199.693 19.04 199.429 18.8369 199.204C18.6338 198.98 18.3864 198.8 18.1102 198.676C17.834 198.553 17.5353 198.488 17.2329 198.487C16.9305 198.485 16.6312 198.547 16.3539 198.668C14.6981 199.469 14.1755 202.789 14.4045 204.391C14.4045 204.479 14.6394 205.368 14.8155 206.01C14.6394 205.668 14.4515 205.309 14.2929 204.974C13.7058 203.72 13.2067 202.53 12.7957 201.476C12.5667 200.888 12.367 200.299 12.2085 199.804C12.5256 199.245 13.788 196.955 13.9054 195.683C14.0228 194.412 13.8349 192.863 12.8779 191.98C12.6594 191.765 12.3983 191.598 12.1115 191.491C11.8246 191.383 11.5185 191.337 11.2128 191.356C10.9072 191.375 10.6089 191.458 10.3374 191.6C10.0659 191.742 9.82716 191.94 9.63671 192.18C8.53871 193.658 9.58974 196.82 10.5409 198.162C10.6232 198.28 12.1146 199.928 12.1322 199.928V199.893C12.2966 200.393 12.4727 200.923 12.6841 201.506C13.0775 202.572 13.5296 203.773 14.1109 205.038C14.7209 206.42 15.411 207.765 16.1777 209.065C17.0328 210.524 18.0152 211.903 19.1136 213.187L19.1547 213.228C18.6967 212.945 17.3932 212.198 17.2816 212.15C15.7726 211.497 12.4669 211.132 11.2573 212.521C11.0629 212.758 10.9204 213.033 10.8391 213.329C10.7579 213.625 10.7396 213.934 10.7856 214.238C10.8316 214.541 10.9408 214.831 11.106 215.089C11.2712 215.347 11.4888 215.568 11.7446 215.736C12.8015 216.489 14.3986 216.325 15.5671 215.971C16.8882 215.553 19.0901 213.534 19.2956 213.375C20.4441 214.655 21.6759 215.856 22.983 216.972C23.7404 217.626 24.5214 218.262 25.3317 218.892C24.9265 218.662 24.5625 218.456 24.5096 218.432C23.0006 217.779 19.7007 217.414 18.4912 218.803C18.2956 219.039 18.152 219.314 18.0697 219.61C17.9875 219.905 17.9685 220.215 18.014 220.519C18.0594 220.822 18.1683 221.113 18.3335 221.371C18.4987 221.629 18.7165 221.85 18.9726 222.018C20.0354 222.771 21.6266 222.607 22.801 222.253C23.9753 221.9 25.9188 220.193 26.4297 219.739L27.3456 220.458C28.8253 221.594 30.2815 222.718 31.72 223.866C32.2191 224.273 32.6947 224.685 33.1762 225.103C32.818 224.897 32.5127 224.726 32.4598 224.702C30.9508 224.055 27.651 223.684 26.4414 225.079C26.2458 225.315 26.1022 225.59 26.02 225.886C25.9377 226.181 25.9187 226.491 25.9642 226.795C26.0096 227.098 26.1185 227.389 26.2838 227.647C26.449 227.905 26.6668 228.126 26.9229 228.294C27.9856 229.047 29.5769 228.883 30.7512 228.523C31.9255 228.164 33.687 226.628 34.2742 226.098C34.7498 226.533 35.2313 226.975 35.6775 227.422C35.9711 227.735 36.2647 228.011 36.5583 228.347L37.3979 229.306C37.9146 229.931 38.4431 230.572 38.9304 231.196C39.271 231.632 39.588 232.05 39.911 232.468C39.4178 232.062 38.4372 231.291 38.3432 231.226C36.9517 230.349 33.7457 229.489 32.3365 230.678C32.1091 230.883 31.9272 231.134 31.8027 231.414C31.6782 231.694 31.6139 231.997 31.6139 232.303C31.6139 232.61 31.6782 232.913 31.8027 233.193C31.9272 233.473 32.1091 233.723 32.3365 233.928C33.2701 234.835 34.8672 234.929 36.0827 234.741C37.4155 234.535 39.8347 232.974 40.1341 232.757C40.6626 233.451 41.1675 234.134 41.6372 234.782C43.2637 237.037 44.532 238.98 45.401 240.345L45.4891 240.487L46.6164 239.939L46.4403 239.668C45.5302 238.308 44.209 236.377 42.5121 234.134C41.9837 233.422 41.3965 232.68 40.7917 231.915C41.4199 231.227 42.008 230.504 42.5532 229.748C43.845 230.254 46.5401 230.272 46.8865 230.272C46.9452 231.149 46.9922 231.997 47.0216 232.798C47.139 235.582 47.1273 237.902 47.1038 239.521C47.1038 239.586 47.1038 239.645 47.1038 239.71L48.3427 239.121C48.3427 237.508 48.2781 235.329 48.1196 232.751C48.0609 231.868 47.9845 230.92 47.9023 229.948C48.2429 229.866 51.0437 229.142 52.1006 228.294C53.0635 227.528 54.0734 226.28 54.0382 224.979C54.0406 224.673 53.9785 224.369 53.856 224.088C53.7336 223.807 53.5536 223.555 53.3276 223.348C53.1016 223.142 52.8348 222.985 52.5444 222.889C52.2541 222.792 51.9468 222.758 51.6426 222.789C49.8106 223.025 48.284 225.974 47.9845 227.599C47.9845 227.693 47.8847 228.777 47.8495 229.418C47.8142 229.024 47.779 228.641 47.7379 228.241C47.6557 227.434 47.55 226.634 47.4443 225.768C47.3739 225.356 47.3034 224.932 47.2388 224.508C47.1742 224.084 47.0627 223.649 46.9746 223.219C46.7515 222.212 46.4814 221.205 46.1819 220.199C46.8865 220.128 49.3878 219.834 50.4565 219.215C51.5251 218.597 52.7053 217.526 52.8697 216.23C52.9179 215.928 52.9021 215.619 52.8233 215.323C52.7445 215.027 52.6044 214.751 52.4123 214.512C52.2201 214.274 51.9802 214.079 51.708 213.94C51.4358 213.801 51.1374 213.721 50.8323 213.705C48.9886 213.658 47.0274 216.342 46.4872 217.902C46.452 217.997 46.1878 219.157 46.0586 219.798C45.8707 219.209 45.6946 218.591 45.4714 217.985C44.8843 216.219 44.2208 214.494 43.5749 212.745L42.9877 211.138C43.2402 211.138 46.2171 210.832 47.415 210.137C48.4777 209.548 49.6638 208.447 49.8282 207.152C49.8773 206.849 49.8622 206.54 49.7838 206.243C49.7053 205.947 49.5654 205.67 49.3731 205.432C49.1807 205.194 48.9404 204.999 48.6677 204.86C48.395 204.721 48.0962 204.641 47.7907 204.626C45.947 204.579 43.9859 207.27 43.4457 208.824C43.4046 208.942 43.0288 210.59 42.9525 211.044C42.5297 209.866 42.1187 208.689 41.7782 207.511C41.2878 205.92 40.8956 204.3 40.6038 202.66C40.7213 202.66 43.8333 202.365 45.0604 201.659C46.1232 201.041 47.3093 199.963 47.4737 198.668C47.5219 198.365 47.5059 198.055 47.4267 197.759C47.3476 197.463 47.207 197.186 47.0143 196.948C46.8215 196.71 46.5808 196.515 46.3079 196.376C46.035 196.237 45.736 196.158 45.4303 196.142C43.5925 196.095 41.6314 198.786 41.0912 200.34C41.056 200.44 40.7682 201.718 40.6449 202.324H40.5393C40.2967 200.666 40.2024 198.989 40.2574 197.314C40.2574 196.396 40.3455 195.513 40.4336 194.659C41.0207 194.659 43.6923 194.659 44.8667 194.152C46.041 193.646 47.2858 192.716 47.5911 191.45C47.6726 191.154 47.6906 190.843 47.6442 190.539C47.5977 190.235 47.4877 189.944 47.3214 189.686C47.1551 189.428 46.9363 189.207 46.6792 189.04C46.4221 188.872 46.1326 188.76 45.8296 188.712C44.0035 188.465 41.7606 190.92 41.056 192.404C41.0149 192.486 40.7154 193.352 40.504 193.988C40.5451 193.599 40.5862 193.205 40.6391 192.81C40.827 191.427 41.0794 190.173 41.3143 189.06C41.4552 188.43 41.5903 187.882 41.7253 187.335C42.3125 187.04 44.6142 185.834 45.4069 184.85C46.1995 183.867 46.8924 182.46 46.5812 181.194C46.5165 180.89 46.3875 180.602 46.203 180.352C46.0184 180.101 45.7825 179.893 45.5111 179.741C45.2397 179.59 44.9391 179.498 44.6295 179.472C44.3198 179.447 44.0083 179.488 43.7158 179.593Z" fill="#16D877"/>
<path d="M10.4358 208.053C11.8743 207.994 14.7514 206.51 14.7573 206.51C14.7632 206.51 13.2072 204.909 13.0956 204.815C11.8097 203.79 8.72125 202.56 7.18875 203.584C6.93899 203.761 6.72908 203.988 6.57265 204.251C6.41623 204.515 6.31678 204.808 6.28079 205.112C6.24479 205.417 6.27305 205.725 6.36372 206.018C6.4544 206.31 6.60546 206.58 6.80709 206.811C7.635 207.817 9.22621 208.1 10.4358 208.053Z" fill="#16D877"/>
<g opacity="0.5">
<path opacity="0.5" d="M40.1533 194.383C40.1885 194.383 39.7482 192.187 39.7012 192.028C39.1962 190.462 37.2997 187.73 35.456 187.73C35.1502 187.74 34.8497 187.814 34.5742 187.947C34.2987 188.081 34.0541 188.271 33.8565 188.505C33.6589 188.739 33.5126 189.013 33.427 189.307C33.3414 189.602 33.3185 189.911 33.3598 190.215C33.4949 191.51 34.6574 192.617 35.7085 193.253C36.9415 194.024 40.1533 194.383 40.1533 194.383Z" fill="white"/>
<path opacity="0.5" d="M43.7158 179.593C41.9837 180.217 41.1264 183.431 41.1793 185.08C41.1793 185.221 41.5081 187.435 41.5433 187.435H41.5785C41.4376 187.941 41.2908 188.483 41.144 189.083C40.8857 190.19 40.6038 191.438 40.3866 192.828C40.1347 194.316 39.97 195.818 39.8934 197.326C39.8027 199.015 39.8596 200.71 40.0636 202.389C40.0659 202.409 40.0659 202.428 40.0636 202.448C39.8405 201.959 39.1594 200.611 39.0948 200.511C38.1906 199.133 35.6423 196.978 33.8632 197.491C33.5716 197.581 33.3021 197.731 33.0723 197.933C32.8424 198.134 32.6573 198.381 32.5289 198.659C32.4005 198.936 32.3316 199.238 32.3268 199.544C32.322 199.849 32.3813 200.153 32.5009 200.434C32.9707 201.653 34.3799 202.407 35.5601 202.748C36.893 203.125 39.864 202.678 40.0989 202.642C40.3534 204.344 40.7182 206.028 41.191 207.682C41.467 208.647 41.7782 209.613 42.0835 210.573C41.878 210.155 41.6842 209.784 41.6549 209.737C40.7506 208.359 38.2023 206.204 36.4232 206.716C36.1316 206.806 35.8622 206.957 35.6323 207.158C35.4025 207.359 35.2173 207.607 35.0889 207.884C34.9605 208.162 34.8917 208.463 34.8868 208.769C34.882 209.075 34.9414 209.379 35.061 209.66C35.5307 210.873 36.9399 211.632 38.1201 211.968C39.3003 212.304 41.8604 211.968 42.5297 211.886C42.653 212.251 42.7764 212.621 42.9055 212.986C43.4927 214.753 44.1268 216.519 44.667 218.25C44.8608 218.839 45.0252 219.474 45.1955 220.087C45.0135 219.716 44.849 219.404 44.8197 219.363C43.9213 217.979 41.3672 215.83 39.5939 216.342C39.3018 216.432 39.0317 216.582 38.8012 216.783C38.5707 216.984 38.3849 217.231 38.2559 217.509C38.1269 217.786 38.0576 218.088 38.0524 218.394C38.0472 218.7 38.1063 219.004 38.2258 219.286C38.6955 220.499 40.1106 221.258 41.2908 221.594C42.471 221.929 44.7786 221.635 45.5771 221.523C45.7357 222.153 45.8942 222.789 46.0175 223.407C46.088 223.831 46.1878 224.231 46.2406 224.667L46.4168 225.927C46.499 226.734 46.5929 227.564 46.6516 228.353C46.6986 228.906 46.7339 229.43 46.7691 229.954C46.5871 229.365 46.1819 228.147 46.1819 228.052C45.5319 226.757 44.5615 225.65 43.3635 224.838C43.2968 224.69 43.2183 224.549 43.1287 224.414C42.9612 224.157 42.7419 223.939 42.4849 223.773C42.2279 223.606 41.9389 223.496 41.6367 223.449C41.3345 223.402 41.0257 223.419 40.7305 223.499C40.4352 223.579 40.16 223.72 39.9227 223.914C38.5311 225.12 38.8776 228.429 39.5176 229.948C39.5528 230.037 40.1047 230.967 40.4101 231.544L39.6644 230.613C39.1477 229.984 38.6192 229.371 38.0555 228.712C37.7659 228.406 37.4782 228.094 37.1924 227.776C36.9106 227.458 36.5759 227.158 36.2647 226.84C35.5249 226.127 34.7439 225.438 33.916 224.767C34.468 224.314 36.388 222.689 36.9399 221.582C37.4919 220.475 37.8853 218.927 37.3098 217.755C37.1834 217.477 36.9998 217.228 36.7712 217.025C36.5426 216.822 36.2739 216.669 35.9827 216.577C35.6914 216.485 35.3841 216.455 35.0807 216.49C34.7773 216.524 34.4845 216.623 34.2213 216.778C32.6595 217.755 32.501 221.082 32.9061 222.665C32.9061 222.766 33.3523 223.884 33.5931 224.491C33.1057 224.084 32.6243 223.684 32.1193 223.313C30.6631 222.189 29.1835 221.093 27.6568 219.993L26.2887 218.974C26.4825 218.815 28.8077 216.931 29.4301 215.689C29.982 214.588 30.3754 213.034 29.8 211.868C29.6742 211.588 29.4908 211.338 29.262 211.133C29.0332 210.929 28.7639 210.776 28.4719 210.683C28.1799 210.59 27.8717 210.56 27.5673 210.595C27.263 210.63 26.9693 210.728 26.7056 210.885C25.1496 211.868 24.9911 215.188 25.3962 216.772C25.4256 216.89 26.0304 218.491 26.2065 218.892C25.2025 218.144 24.2102 217.39 23.2707 216.607C21.9858 215.552 20.7698 214.416 19.6303 213.204C19.7184 213.134 22.1551 211.173 22.7892 209.907C23.3412 208.806 23.7346 207.252 23.1591 206.08C23.032 205.803 22.8483 205.555 22.6199 205.354C22.3914 205.152 22.1233 205 21.8329 204.909C21.5424 204.817 21.236 204.788 20.9335 204.822C20.631 204.857 20.3391 204.954 20.0765 205.109C18.5147 206.092 18.362 209.419 18.7613 210.996C18.7906 211.102 19.2486 212.327 19.4835 212.898L19.3954 212.957C18.28 211.706 17.2779 210.359 16.4009 208.93C15.9135 208.153 15.4849 207.376 15.0856 206.616C15.5788 206.298 17.8042 204.85 18.5029 203.743C19.2016 202.636 19.736 201.206 19.2897 199.981C19.1942 199.693 19.04 199.429 18.8369 199.204C18.6338 198.98 18.3864 198.8 18.1102 198.676C17.834 198.553 17.5353 198.488 17.2329 198.487C16.9305 198.485 16.6312 198.547 16.3539 198.668C14.6981 199.469 14.1755 202.789 14.4045 204.391C14.4045 204.479 14.6394 205.368 14.8155 206.01C14.6394 205.668 14.4515 205.309 14.2929 204.974C13.7058 203.72 13.2067 202.53 12.7957 201.476C12.5667 200.888 12.367 200.299 12.2085 199.804C12.5256 199.245 13.788 196.955 13.9054 195.683C14.0228 194.412 13.8349 192.863 12.8779 191.98C12.6594 191.765 12.3983 191.598 12.1115 191.491C11.8246 191.383 11.5185 191.337 11.2128 191.356C10.9072 191.375 10.6089 191.458 10.3374 191.6C10.0659 191.742 9.82716 191.94 9.63671 192.18C8.53871 193.658 9.58974 196.82 10.5409 198.162C10.6232 198.28 12.1146 199.928 12.1322 199.928V199.893C12.2966 200.393 12.4727 200.923 12.6841 201.506C13.0775 202.572 13.5296 203.773 14.1109 205.038C14.7209 206.42 15.411 207.765 16.1777 209.065C17.0328 210.524 18.0152 211.903 19.1136 213.187L19.1547 213.228C18.6967 212.945 17.3932 212.198 17.2816 212.15C15.7726 211.497 12.4669 211.132 11.2573 212.521C11.0629 212.758 10.9204 213.033 10.8391 213.329C10.7579 213.625 10.7396 213.934 10.7856 214.238C10.8316 214.541 10.9408 214.831 11.106 215.089C11.2712 215.347 11.4888 215.568 11.7446 215.736C12.8015 216.489 14.3986 216.325 15.5671 215.971C16.8882 215.553 19.0901 213.534 19.2956 213.375C20.4441 214.655 21.6759 215.856 22.983 216.972C23.7404 217.626 24.5214 218.262 25.3317 218.892C24.9265 218.662 24.5625 218.456 24.5096 218.432C23.0006 217.779 19.7007 217.414 18.4912 218.803C18.2956 219.039 18.152 219.314 18.0697 219.61C17.9875 219.905 17.9685 220.215 18.014 220.519C18.0594 220.822 18.1683 221.113 18.3335 221.371C18.4987 221.629 18.7165 221.85 18.9726 222.018C20.0354 222.771 21.6266 222.607 22.801 222.253C23.9753 221.9 25.9188 220.193 26.4297 219.739L27.3456 220.458C28.8253 221.594 30.2815 222.718 31.72 223.866C32.2191 224.273 32.6947 224.685 33.1762 225.103C32.818 224.897 32.5127 224.726 32.4598 224.702C30.9508 224.055 27.651 223.684 26.4414 225.079C26.2458 225.315 26.1022 225.59 26.02 225.886C25.9377 226.181 25.9187 226.491 25.9642 226.795C26.0096 227.098 26.1185 227.389 26.2838 227.647C26.449 227.905 26.6668 228.126 26.9229 228.294C27.9856 229.047 29.5769 228.883 30.7512 228.523C31.9255 228.164 33.687 226.628 34.2742 226.098C34.7498 226.533 35.2313 226.975 35.6775 227.422C35.9711 227.735 36.2647 228.011 36.5583 228.347L37.3979 229.306C37.9146 229.931 38.4431 230.572 38.9304 231.196C39.271 231.632 39.588 232.05 39.911 232.468C39.4178 232.062 38.4372 231.291 38.3432 231.226C36.9517 230.349 33.7457 229.489 32.3365 230.678C32.1091 230.883 31.9272 231.134 31.8027 231.414C31.6782 231.694 31.6139 231.997 31.6139 232.303C31.6139 232.61 31.6782 232.913 31.8027 233.193C31.9272 233.473 32.1091 233.723 32.3365 233.928C33.2701 234.835 34.8672 234.929 36.0827 234.741C37.4155 234.535 39.8347 232.974 40.1341 232.757C40.6626 233.451 41.1675 234.134 41.6372 234.782C43.2637 237.037 44.532 238.98 45.401 240.345L45.4891 240.487L46.6164 239.939L46.4403 239.668C45.5302 238.308 44.209 236.377 42.5121 234.134C41.9837 233.422 41.3965 232.68 40.7917 231.915C41.4199 231.227 42.008 230.504 42.5532 229.748C43.845 230.254 46.5401 230.272 46.8865 230.272C46.9452 231.149 46.9922 231.997 47.0216 232.798C47.139 235.582 47.1273 237.902 47.1038 239.521C47.1038 239.586 47.1038 239.645 47.1038 239.71L48.3427 239.121C48.3427 237.508 48.2781 235.329 48.1196 232.751C48.0609 231.868 47.9845 230.92 47.9023 229.948C48.2429 229.866 51.0437 229.142 52.1006 228.294C53.0635 227.528 54.0734 226.28 54.0382 224.979C54.0406 224.673 53.9785 224.369 53.856 224.088C53.7336 223.807 53.5536 223.555 53.3276 223.348C53.1016 223.142 52.8348 222.985 52.5444 222.889C52.2541 222.792 51.9468 222.758 51.6426 222.789C49.8106 223.025 48.284 225.974 47.9845 227.599C47.9845 227.693 47.8847 228.777 47.8495 229.418C47.8142 229.024 47.779 228.641 47.7379 228.241C47.6557 227.434 47.55 226.634 47.4443 225.768C47.3739 225.356 47.3034 224.932 47.2388 224.508C47.1742 224.084 47.0627 223.649 46.9746 223.219C46.7515 222.212 46.4814 221.205 46.1819 220.199C46.8865 220.128 49.3878 219.834 50.4565 219.215C51.5251 218.597 52.7053 217.526 52.8697 216.23C52.9179 215.928 52.9021 215.619 52.8233 215.323C52.7445 215.027 52.6044 214.751 52.4123 214.512C52.2201 214.274 51.9802 214.079 51.708 213.94C51.4358 213.801 51.1374 213.721 50.8323 213.705C48.9886 213.658 47.0274 216.342 46.4872 217.902C46.452 217.997 46.1878 219.157 46.0586 219.798C45.8707 219.209 45.6946 218.591 45.4714 217.985C44.8843 216.219 44.2208 214.494 43.5749 212.745L42.9877 211.138C43.2402 211.138 46.2171 210.832 47.415 210.137C48.4777 209.548 49.6638 208.447 49.8282 207.152C49.8773 206.849 49.8622 206.54 49.7838 206.243C49.7053 205.947 49.5654 205.67 49.3731 205.432C49.1807 205.194 48.9404 204.999 48.6677 204.86C48.395 204.721 48.0962 204.641 47.7907 204.626C45.947 204.579 43.9859 207.27 43.4457 208.824C43.4046 208.942 43.0288 210.59 42.9525 211.044C42.5297 209.866 42.1187 208.689 41.7782 207.511C41.2878 205.92 40.8956 204.3 40.6038 202.66C40.7213 202.66 43.8333 202.365 45.0604 201.659C46.1232 201.041 47.3093 199.963 47.4737 198.668C47.5219 198.365 47.5059 198.055 47.4267 197.759C47.3476 197.463 47.207 197.186 47.0143 196.948C46.8215 196.71 46.5808 196.515 46.3079 196.376C46.035 196.237 45.736 196.158 45.4303 196.142C43.5925 196.095 41.6314 198.786 41.0912 200.34C41.056 200.44 40.7682 201.718 40.6449 202.324H40.5393C40.2967 200.666 40.2024 198.989 40.2574 197.314C40.2574 196.396 40.3455 195.513 40.4336 194.659C41.0207 194.659 43.6923 194.659 44.8667 194.152C46.041 193.646 47.2858 192.716 47.5911 191.45C47.6726 191.154 47.6906 190.843 47.6442 190.539C47.5977 190.235 47.4877 189.944 47.3214 189.686C47.1551 189.428 46.9363 189.207 46.6792 189.04C46.4221 188.872 46.1326 188.76 45.8296 188.712C44.0035 188.465 41.7606 190.92 41.056 192.404C41.0149 192.486 40.7154 193.352 40.504 193.988C40.5451 193.599 40.5862 193.205 40.6391 192.81C40.827 191.427 41.0794 190.173 41.3143 189.06C41.4552 188.43 41.5903 187.882 41.7253 187.335C42.3125 187.04 44.6142 185.834 45.4069 184.85C46.1995 183.867 46.8924 182.46 46.5812 181.194C46.5165 180.89 46.3875 180.602 46.203 180.352C46.0184 180.101 45.7825 179.893 45.5111 179.741C45.2397 179.59 44.9391 179.498 44.6295 179.472C44.3198 179.447 44.0083 179.488 43.7158 179.593Z" fill="white"/>
<path opacity="0.5" d="M10.4358 208.053C11.8743 207.994 14.7514 206.51 14.7573 206.51C14.7632 206.51 13.2072 204.909 13.0956 204.815C11.8097 203.79 8.72125 202.56 7.18875 203.584C6.93899 203.761 6.72908 203.988 6.57265 204.251C6.41623 204.515 6.31678 204.808 6.28079 205.112C6.24479 205.417 6.27305 205.725 6.36372 206.018C6.4544 206.31 6.60546 206.58 6.80709 206.811C7.635 207.817 9.22621 208.1 10.4358 208.053Z" fill="white"/>
</g>
<path d="M27.2327 244.172C27.2327 244.172 35.9639 223.072 40.8491 223.99C45.7343 224.909 32.4703 257.631 32.4703 257.631C32.4703 257.631 47.8305 228.576 58.3056 228.576C68.7806 228.576 54.4655 260.687 41.2014 271.39C41.2014 271.39 62.1456 248.759 74.3704 253.657C86.5952 258.555 49.9267 281.487 49.9267 281.487C49.9267 281.487 71.2232 274.758 68.7806 279.956C66.338 285.155 59.7206 286.073 59.7206 286.073L83.7944 287.298H0L18.8539 285.461C18.8539 285.461 -0.698728 275.676 4.52705 271.696C9.75282 267.716 21.2848 276.282 21.2848 276.282C21.2848 276.282 1.38571 254.263 5.22577 246.009C9.06584 237.755 26.1759 260.993 26.1759 260.993C26.1759 260.993 12.2072 231.332 15.0197 226.127C17.8322 220.923 27.2327 244.172 27.2327 244.172Z" fill="#16D877"/>
<path opacity="0.4" d="M27.2327 244.172C27.2327 244.172 35.9639 223.072 40.8491 223.99C45.7343 224.909 32.4703 257.631 32.4703 257.631C32.4703 257.631 47.8305 228.576 58.3056 228.576C68.7806 228.576 54.4655 260.687 41.2014 271.39C41.2014 271.39 62.1456 248.759 74.3704 253.657C86.5952 258.555 49.9267 281.487 49.9267 281.487C49.9267 281.487 71.2232 274.758 68.7806 279.956C66.338 285.155 59.7206 286.073 59.7206 286.073L83.7944 287.298H0L18.8539 285.461C18.8539 285.461 -0.698728 275.676 4.52705 271.696C9.75282 267.716 21.2848 276.282 21.2848 276.282C21.2848 276.282 1.38571 254.263 5.22577 246.009C9.06584 237.755 26.1759 260.993 26.1759 260.993C26.1759 260.993 12.2072 231.332 15.0197 226.127C17.8322 220.923 27.2327 244.172 27.2327 244.172Z" fill="white"/>
<path d="M24.4445 245.285C32.1246 268.04 32.1246 284.142 32.1246 284.142C32.1246 284.142 23.0471 284.496 13.6172 277.495" stroke="#263238" stroke-linecap="round" stroke-linejoin="round"/>
<path d="M28.2852 257.539C29.8659 250.736 31.9663 244.065 34.5678 237.586" stroke="#263238" stroke-linecap="round" stroke-linejoin="round"/>
<path d="M50.9785 244.234L31.4259 273.289C31.4259 273.289 18.156 262.103 13.6172 255.786" stroke="#263238" stroke-linecap="round" stroke-linejoin="round"/>
<path d="M31.7734 280.292C31.7734 280.292 52.3712 270.49 60.7559 264.891" stroke="#263238" stroke-linecap="round" stroke-linejoin="round"/>
</g>
<g opacity="0.98">
<path d="M502.356 194.383C502.392 194.383 501.951 192.187 501.904 192.028C501.399 190.462 499.503 187.73 497.659 187.73C497.353 187.74 497.053 187.814 496.777 187.947C496.502 188.081 496.257 188.271 496.06 188.505C495.862 188.739 495.716 189.013 495.63 189.307C495.545 189.602 495.522 189.911 495.563 190.215C495.698 191.51 496.861 192.617 497.912 193.253C499.145 194.024 502.356 194.383 502.356 194.383Z" fill="#16D877"/>
<path d="M505.919 179.593C504.187 180.217 503.33 183.431 503.382 185.08C503.382 185.221 503.711 187.435 503.746 187.435H503.782C503.641 187.941 503.494 188.483 503.347 189.083C503.089 190.19 502.807 191.438 502.59 192.828C502.338 194.316 502.173 195.818 502.096 197.326C502.006 199.015 502.063 200.71 502.267 202.389C502.269 202.409 502.269 202.428 502.267 202.448C502.044 201.959 501.363 200.611 501.298 200.511C500.394 199.133 497.845 196.978 496.066 197.491C495.775 197.581 495.505 197.731 495.275 197.933C495.046 198.134 494.86 198.381 494.732 198.659C494.604 198.936 494.535 199.238 494.53 199.544C494.525 199.849 494.584 200.153 494.704 200.434C495.174 201.653 496.583 202.407 497.763 202.748C499.096 203.125 502.067 202.678 502.302 202.642C502.557 204.344 502.921 206.028 503.394 207.682C503.67 208.647 503.981 209.613 504.287 210.573C504.081 210.155 503.887 209.784 503.858 209.737C502.954 208.359 500.405 206.204 498.626 206.716C498.335 206.806 498.065 206.957 497.835 207.158C497.606 207.359 497.42 207.607 497.292 207.884C497.164 208.162 497.095 208.463 497.09 208.769C497.085 209.075 497.144 209.379 497.264 209.66C497.734 210.873 499.143 211.632 500.323 211.968C501.503 212.304 504.063 211.968 504.733 211.886C504.856 212.251 504.979 212.621 505.109 212.986C505.696 214.753 506.33 216.519 506.87 218.25C507.064 218.839 507.228 219.474 507.399 220.087C507.217 219.716 507.052 219.404 507.023 219.363C506.124 217.979 503.57 215.83 501.797 216.342C501.505 216.432 501.235 216.582 501.004 216.783C500.774 216.984 500.588 217.231 500.459 217.509C500.33 217.786 500.261 218.088 500.256 218.394C500.25 218.7 500.309 219.004 500.429 219.286C500.899 220.499 502.314 221.258 503.494 221.594C504.674 221.929 506.982 221.635 507.78 221.523C507.939 222.153 508.097 222.789 508.221 223.407C508.291 223.831 508.391 224.231 508.444 224.667L508.62 225.927C508.702 226.734 508.796 227.564 508.855 228.353C508.902 228.906 508.937 229.43 508.972 229.954C508.79 229.365 508.385 228.147 508.385 228.052C507.735 226.757 506.765 225.65 505.567 224.838C505.5 224.69 505.421 224.549 505.332 224.414C505.164 224.157 504.945 223.939 504.688 223.773C504.431 223.606 504.142 223.496 503.84 223.449C503.538 223.402 503.229 223.419 502.934 223.499C502.638 223.579 502.363 223.72 502.126 223.914C500.734 225.12 501.081 228.429 501.721 229.948C501.756 230.037 502.308 230.967 502.613 231.544L501.867 230.613C501.351 229.984 500.822 229.371 500.259 228.712C499.969 228.406 499.681 228.094 499.396 227.776C499.114 227.458 498.779 227.158 498.468 226.84C497.728 226.127 496.947 225.438 496.119 224.767C496.671 224.314 498.591 222.689 499.143 221.582C499.695 220.475 500.088 218.927 499.513 217.755C499.386 217.477 499.203 217.228 498.974 217.025C498.746 216.822 498.477 216.669 498.186 216.577C497.895 216.485 497.587 216.455 497.284 216.49C496.98 216.524 496.688 216.623 496.424 216.778C494.863 217.755 494.704 221.082 495.109 222.665C495.109 222.766 495.555 223.884 495.796 224.491C495.309 224.084 494.827 223.684 494.322 223.313C492.866 222.189 491.387 221.093 489.86 219.993L488.492 218.974C488.686 218.815 491.011 216.931 491.633 215.689C492.185 214.588 492.579 213.034 492.003 211.868C491.877 211.588 491.694 211.338 491.465 211.133C491.236 210.929 490.967 210.776 490.675 210.683C490.383 210.59 490.075 210.56 489.77 210.595C489.466 210.63 489.172 210.728 488.909 210.885C487.353 211.868 487.194 215.188 487.599 216.772C487.629 216.89 488.234 218.491 488.41 218.892C487.406 218.144 486.413 217.39 485.474 216.607C484.189 215.552 482.973 214.416 481.833 213.204C481.921 213.134 484.358 211.173 484.992 209.907C485.544 208.806 485.938 207.252 485.362 206.08C485.235 205.803 485.051 205.555 484.823 205.354C484.595 205.152 484.326 205 484.036 204.909C483.746 204.817 483.439 204.788 483.137 204.822C482.834 204.857 482.542 204.954 482.28 205.109C480.718 206.092 480.565 209.419 480.964 210.996C480.994 211.102 481.452 212.327 481.687 212.898L481.599 212.957C480.483 211.706 479.481 210.359 478.604 208.93C478.117 208.153 477.688 207.376 477.289 206.616C477.782 206.298 480.007 204.85 480.706 203.743C481.405 202.636 481.939 201.206 481.493 199.981C481.397 199.693 481.243 199.429 481.04 199.204C480.837 198.98 480.589 198.8 480.313 198.676C480.037 198.553 479.738 198.488 479.436 198.487C479.134 198.485 478.834 198.547 478.557 198.668C476.901 199.469 476.379 202.789 476.608 204.391C476.608 204.479 476.842 205.368 477.019 206.01C476.842 205.668 476.655 205.309 476.496 204.974C475.909 203.72 475.41 202.53 474.999 201.476C474.77 200.888 474.57 200.299 474.412 199.804C474.729 199.245 475.991 196.955 476.109 195.683C476.226 194.412 476.038 192.863 475.081 191.98C474.863 191.765 474.601 191.598 474.315 191.491C474.028 191.383 473.722 191.337 473.416 191.356C473.11 191.375 472.812 191.458 472.541 191.6C472.269 191.742 472.03 191.94 471.84 192.18C470.742 193.658 471.793 196.82 472.744 198.162C472.826 198.28 474.318 199.928 474.335 199.928V199.893C474.5 200.393 474.676 200.923 474.887 201.506C475.281 202.572 475.733 203.773 476.314 205.038C476.924 206.42 477.614 207.765 478.381 209.065C479.236 210.524 480.218 211.903 481.317 213.187L481.358 213.228C480.9 212.945 479.596 212.198 479.485 212.15C477.976 211.497 474.67 211.132 473.46 212.521C473.266 212.758 473.124 213.033 473.042 213.329C472.961 213.625 472.943 213.934 472.989 214.238C473.035 214.541 473.144 214.831 473.309 215.089C473.474 215.347 473.692 215.568 473.948 215.736C475.005 216.489 476.602 216.325 477.77 215.971C479.091 215.553 481.293 213.534 481.499 213.375C482.647 214.655 483.879 215.856 485.186 216.972C485.944 217.626 486.724 218.262 487.535 218.892C487.13 218.662 486.766 218.456 486.713 218.432C485.204 217.779 481.904 217.414 480.694 218.803C480.499 219.039 480.355 219.314 480.273 219.61C480.191 219.905 480.172 220.215 480.217 220.519C480.263 220.822 480.371 221.113 480.537 221.371C480.702 221.629 480.92 221.85 481.176 222.018C482.239 222.771 483.83 222.607 485.004 222.253C486.178 221.9 488.122 220.193 488.633 219.739L489.549 220.458C491.028 221.594 492.485 222.718 493.923 223.866C494.422 224.273 494.898 224.685 495.379 225.103C495.021 224.897 494.716 224.726 494.663 224.702C493.154 224.055 489.854 223.684 488.645 225.079C488.449 225.315 488.305 225.59 488.223 225.886C488.141 226.181 488.122 226.491 488.167 226.795C488.213 227.098 488.322 227.389 488.487 227.647C488.652 227.905 488.87 228.126 489.126 228.294C490.189 229.047 491.78 228.883 492.954 228.523C494.129 228.164 495.89 226.628 496.477 226.098C496.953 226.533 497.434 226.975 497.881 227.422C498.174 227.735 498.468 228.011 498.761 228.347L499.601 229.306C500.118 229.931 500.646 230.572 501.134 231.196C501.474 231.632 501.791 232.05 502.114 232.468C501.621 232.062 500.64 231.291 500.546 231.226C499.155 230.349 495.949 229.489 494.54 230.678C494.312 230.883 494.13 231.134 494.006 231.414C493.881 231.694 493.817 231.997 493.817 232.303C493.817 232.61 493.881 232.913 494.006 233.193C494.13 233.473 494.312 233.723 494.54 233.928C495.473 234.835 497.07 234.929 498.286 234.741C499.619 234.535 502.038 232.974 502.337 232.757C502.866 233.451 503.371 234.134 503.84 234.782C505.467 237.037 506.735 238.98 507.604 240.345L507.692 240.487L508.82 239.939L508.643 239.668C507.733 238.308 506.412 236.377 504.715 234.134C504.187 233.422 503.6 232.68 502.995 231.915C503.623 231.227 504.211 230.504 504.756 229.748C506.048 230.254 508.743 230.272 509.09 230.272C509.148 231.149 509.195 231.997 509.225 232.798C509.342 235.582 509.33 237.902 509.307 239.521C509.307 239.586 509.307 239.645 509.307 239.71L510.546 239.121C510.546 237.508 510.481 235.329 510.323 232.751C510.264 231.868 510.188 230.92 510.105 229.948C510.446 229.866 513.247 229.142 514.304 228.294C515.267 227.528 516.277 226.28 516.241 224.979C516.244 224.673 516.182 224.369 516.059 224.088C515.937 223.807 515.757 223.555 515.531 223.348C515.305 223.142 515.038 222.985 514.748 222.889C514.457 222.792 514.15 222.758 513.846 222.789C512.014 223.025 510.487 225.974 510.188 227.599C510.188 227.693 510.088 228.777 510.053 229.418C510.017 229.024 509.982 228.641 509.941 228.241C509.859 227.434 509.753 226.634 509.647 225.768C509.577 225.356 509.507 224.932 509.442 224.508C509.377 224.084 509.266 223.649 509.178 223.219C508.955 222.212 508.684 221.205 508.385 220.199C509.09 220.128 511.591 219.834 512.66 219.215C513.728 218.597 514.908 217.526 515.073 216.23C515.121 215.928 515.105 215.619 515.026 215.323C514.948 215.027 514.808 214.751 514.615 214.512C514.423 214.274 514.183 214.079 513.911 213.94C513.639 213.801 513.341 213.721 513.035 213.705C511.192 213.658 509.231 216.342 508.69 217.902C508.655 217.997 508.391 219.157 508.262 219.798C508.074 219.209 507.898 218.591 507.675 217.985C507.087 216.219 506.424 214.494 505.778 212.745L505.191 211.138C505.443 211.138 508.42 210.832 509.618 210.137C510.681 209.548 511.867 208.447 512.031 207.152C512.08 206.849 512.065 206.54 511.987 206.243C511.908 205.947 511.769 205.67 511.576 205.432C511.384 205.194 511.143 204.999 510.871 204.86C510.598 204.721 510.299 204.641 509.994 204.626C508.15 204.579 506.189 207.27 505.649 208.824C505.608 208.942 505.232 210.59 505.156 211.044C504.733 209.866 504.322 208.689 503.981 207.511C503.491 205.92 503.099 204.3 502.807 202.66C502.924 202.66 506.036 202.365 507.264 201.659C508.326 201.041 509.512 199.963 509.677 198.668C509.725 198.365 509.709 198.055 509.63 197.759C509.551 197.463 509.41 197.186 509.217 196.948C509.025 196.71 508.784 196.515 508.511 196.376C508.238 196.237 507.939 196.158 507.633 196.142C505.796 196.095 503.835 198.786 503.294 200.34C503.259 200.44 502.971 201.718 502.848 202.324H502.742C502.5 200.666 502.406 198.989 502.461 197.314C502.461 196.396 502.549 195.513 502.637 194.659C503.224 194.659 505.895 194.659 507.07 194.152C508.244 193.646 509.489 192.716 509.794 191.45C509.876 191.154 509.894 190.843 509.847 190.539C509.801 190.235 509.691 189.944 509.525 189.686C509.358 189.428 509.139 189.207 508.882 189.04C508.625 188.872 508.336 188.76 508.033 188.712C506.207 188.465 503.964 190.92 503.259 192.404C503.218 192.486 502.919 193.352 502.707 193.988C502.748 193.599 502.789 193.205 502.842 192.81C503.03 191.427 503.283 190.173 503.517 189.06C503.658 188.43 503.793 187.882 503.928 187.335C504.516 187.04 506.817 185.834 507.61 184.85C508.403 183.867 509.096 182.46 508.784 181.194C508.72 180.89 508.591 180.602 508.406 180.352C508.222 180.101 507.986 179.893 507.714 179.741C507.443 179.59 507.142 179.498 506.833 179.472C506.523 179.447 506.211 179.488 505.919 179.593Z" fill="#16D877"/>
<path d="M472.639 208.053C474.077 207.994 476.955 206.51 476.96 206.51C476.966 206.51 475.41 204.909 475.299 204.815C474.013 203.79 470.924 202.56 469.392 203.584C469.142 203.761 468.932 203.988 468.776 204.251C468.619 204.515 468.52 204.808 468.484 205.112C468.448 205.417 468.476 205.725 468.567 206.018C468.658 206.31 468.809 206.58 469.01 206.811C469.838 207.817 471.429 208.1 472.639 208.053Z" fill="#16D877"/>
<g opacity="0.5">
<path opacity="0.5" d="M502.356 194.383C502.392 194.383 501.951 192.187 501.904 192.028C501.399 190.462 499.503 187.73 497.659 187.73C497.353 187.74 497.053 187.814 496.777 187.947C496.502 188.081 496.257 188.271 496.06 188.505C495.862 188.739 495.716 189.013 495.63 189.307C495.545 189.602 495.522 189.911 495.563 190.215C495.698 191.51 496.861 192.617 497.912 193.253C499.145 194.024 502.356 194.383 502.356 194.383Z" fill="white"/>
<path opacity="0.5" d="M505.919 179.593C504.187 180.217 503.33 183.431 503.382 185.08C503.382 185.221 503.711 187.435 503.746 187.435H503.782C503.641 187.941 503.494 188.483 503.347 189.083C503.089 190.19 502.807 191.438 502.59 192.828C502.338 194.316 502.173 195.818 502.096 197.326C502.006 199.015 502.063 200.71 502.267 202.389C502.269 202.409 502.269 202.428 502.267 202.448C502.044 201.959 501.363 200.611 501.298 200.511C500.394 199.133 497.845 196.978 496.066 197.491C495.775 197.581 495.505 197.731 495.275 197.933C495.046 198.134 494.86 198.381 494.732 198.659C494.604 198.936 494.535 199.238 494.53 199.544C494.525 199.849 494.584 200.153 494.704 200.434C495.174 201.653 496.583 202.407 497.763 202.748C499.096 203.125 502.067 202.678 502.302 202.642C502.557 204.344 502.921 206.028 503.394 207.682C503.67 208.647 503.981 209.613 504.287 210.573C504.081 210.155 503.887 209.784 503.858 209.737C502.954 208.359 500.405 206.204 498.626 206.716C498.335 206.806 498.065 206.957 497.835 207.158C497.606 207.359 497.42 207.607 497.292 207.884C497.164 208.162 497.095 208.463 497.09 208.769C497.085 209.075 497.144 209.379 497.264 209.66C497.734 210.873 499.143 211.632 500.323 211.968C501.503 212.304 504.063 211.968 504.733 211.886C504.856 212.251 504.979 212.621 505.109 212.986C505.696 214.753 506.33 216.519 506.87 218.25C507.064 218.839 507.228 219.474 507.399 220.087C507.217 219.716 507.052 219.404 507.023 219.363C506.124 217.979 503.57 215.83 501.797 216.342C501.505 216.432 501.235 216.582 501.004 216.783C500.774 216.984 500.588 217.231 500.459 217.509C500.33 217.786 500.261 218.088 500.256 218.394C500.25 218.7 500.309 219.004 500.429 219.286C500.899 220.499 502.314 221.258 503.494 221.594C504.674 221.929 506.982 221.635 507.78 221.523C507.939 222.153 508.097 222.789 508.221 223.407C508.291 223.831 508.391 224.231 508.444 224.667L508.62 225.927C508.702 226.734 508.796 227.564 508.855 228.353C508.902 228.906 508.937 229.43 508.972 229.954C508.79 229.365 508.385 228.147 508.385 228.052C507.735 226.757 506.765 225.65 505.567 224.838C505.5 224.69 505.421 224.549 505.332 224.414C505.164 224.157 504.945 223.939 504.688 223.773C504.431 223.606 504.142 223.496 503.84 223.449C503.538 223.402 503.229 223.419 502.934 223.499C502.638 223.579 502.363 223.72 502.126 223.914C500.734 225.12 501.081 228.429 501.721 229.948C501.756 230.037 502.308 230.967 502.613 231.544L501.867 230.613C501.351 229.984 500.822 229.371 500.259 228.712C499.969 228.406 499.681 228.094 499.396 227.776C499.114 227.458 498.779 227.158 498.468 226.84C497.728 226.127 496.947 225.438 496.119 224.767C496.671 224.314 498.591 222.689 499.143 221.582C499.695 220.475 500.088 218.927 499.513 217.755C499.386 217.477 499.203 217.228 498.974 217.025C498.746 216.822 498.477 216.669 498.186 216.577C497.895 216.485 497.587 216.455 497.284 216.49C496.98 216.524 496.688 216.623 496.424 216.778C494.863 217.755 494.704 221.082 495.109 222.665C495.109 222.766 495.555 223.884 495.796 224.491C495.309 224.084 494.827 223.684 494.322 223.313C492.866 222.189 491.387 221.093 489.86 219.993L488.492 218.974C488.686 218.815 491.011 216.931 491.633 215.689C492.185 214.588 492.579 213.034 492.003 211.868C491.877 211.588 491.694 211.338 491.465 211.133C491.236 210.929 490.967 210.776 490.675 210.683C490.383 210.59 490.075 210.56 489.77 210.595C489.466 210.63 489.172 210.728 488.909 210.885C487.353 211.868 487.194 215.188 487.599 216.772C487.629 216.89 488.234 218.491 488.41 218.892C487.406 218.144 486.413 217.39 485.474 216.607C484.189 215.552 482.973 214.416 481.833 213.204C481.921 213.134 484.358 211.173 484.992 209.907C485.544 208.806 485.938 207.252 485.362 206.08C485.235 205.803 485.051 205.555 484.823 205.354C484.595 205.152 484.326 205 484.036 204.909C483.746 204.817 483.439 204.788 483.137 204.822C482.834 204.857 482.542 204.954 482.28 205.109C480.718 206.092 480.565 209.419 480.964 210.996C480.994 211.102 481.452 212.327 481.687 212.898L481.599 212.957C480.483 211.706 479.481 210.359 478.604 208.93C478.117 208.153 477.688 207.376 477.289 206.616C477.782 206.298 480.007 204.85 480.706 203.743C481.405 202.636 481.939 201.206 481.493 199.981C481.397 199.693 481.243 199.429 481.04 199.204C480.837 198.98 480.589 198.8 480.313 198.676C480.037 198.553 479.738 198.488 479.436 198.487C479.134 198.485 478.834 198.547 478.557 198.668C476.901 199.469 476.379 202.789 476.608 204.391C476.608 204.479 476.842 205.368 477.019 206.01C476.842 205.668 476.655 205.309 476.496 204.974C475.909 203.72 475.41 202.53 474.999 201.476C474.77 200.888 474.57 200.299 474.412 199.804C474.729 199.245 475.991 196.955 476.109 195.683C476.226 194.412 476.038 192.863 475.081 191.98C474.863 191.765 474.601 191.598 474.315 191.491C474.028 191.383 473.722 191.337 473.416 191.356C473.11 191.375 472.812 191.458 472.541 191.6C472.269 191.742 472.03 191.94 471.84 192.18C470.742 193.658 471.793 196.82 472.744 198.162C472.826 198.28 474.318 199.928 474.335 199.928V199.893C474.5 200.393 474.676 200.923 474.887 201.506C475.281 202.572 475.733 203.773 476.314 205.038C476.924 206.42 477.614 207.765 478.381 209.065C479.236 210.524 480.218 211.903 481.317 213.187L481.358 213.228C480.9 212.945 479.596 212.198 479.485 212.15C477.976 211.497 474.67 211.132 473.46 212.521C473.266 212.758 473.124 213.033 473.042 213.329C472.961 213.625 472.943 213.934 472.989 214.238C473.035 214.541 473.144 214.831 473.309 215.089C473.474 215.347 473.692 215.568 473.948 215.736C475.005 216.489 476.602 216.325 477.77 215.971C479.091 215.553 481.293 213.534 481.499 213.375C482.647 214.655 483.879 215.856 485.186 216.972C485.944 217.626 486.724 218.262 487.535 218.892C487.13 218.662 486.766 218.456 486.713 218.432C485.204 217.779 481.904 217.414 480.694 218.803C480.499 219.039 480.355 219.314 480.273 219.61C480.191 219.905 480.172 220.215 480.217 220.519C480.263 220.822 480.371 221.113 480.537 221.371C480.702 221.629 480.92 221.85 481.176 222.018C482.239 222.771 483.83 222.607 485.004 222.253C486.178 221.9 488.122 220.193 488.633 219.739L489.549 220.458C491.028 221.594 492.485 222.718 493.923 223.866C494.422 224.273 494.898 224.685 495.379 225.103C495.021 224.897 494.716 224.726 494.663 224.702C493.154 224.055 489.854 223.684 488.645 225.079C488.449 225.315 488.305 225.59 488.223 225.886C488.141 226.181 488.122 226.491 488.167 226.795C488.213 227.098 488.322 227.389 488.487 227.647C488.652 227.905 488.87 228.126 489.126 228.294C490.189 229.047 491.78 228.883 492.954 228.523C494.129 228.164 495.89 226.628 496.477 226.098C496.953 226.533 497.434 226.975 497.881 227.422C498.174 227.735 498.468 228.011 498.761 228.347L499.601 229.306C500.118 229.931 500.646 230.572 501.134 231.196C501.474 231.632 501.791 232.05 502.114 232.468C501.621 232.062 500.64 231.291 500.546 231.226C499.155 230.349 495.949 229.489 494.54 230.678C494.312 230.883 494.13 231.134 494.006 231.414C493.881 231.694 493.817 231.997 493.817 232.303C493.817 232.61 493.881 232.913 494.006 233.193C494.13 233.473 494.312 233.723 494.54 233.928C495.473 234.835 497.07 234.929 498.286 234.741C499.619 234.535 502.038 232.974 502.337 232.757C502.866 233.451 503.371 234.134 503.84 234.782C505.467 237.037 506.735 238.98 507.604 240.345L507.692 240.487L508.82 239.939L508.643 239.668C507.733 238.308 506.412 236.377 504.715 234.134C504.187 233.422 503.6 232.68 502.995 231.915C503.623 231.227 504.211 230.504 504.756 229.748C506.048 230.254 508.743 230.272 509.09 230.272C509.148 231.149 509.195 231.997 509.225 232.798C509.342 235.582 509.33 237.902 509.307 239.521C509.307 239.586 509.307 239.645 509.307 239.71L510.546 239.121C510.546 237.508 510.481 235.329 510.323 232.751C510.264 231.868 510.188 230.92 510.105 229.948C510.446 229.866 513.247 229.142 514.304 228.294C515.267 227.528 516.277 226.28 516.241 224.979C516.244 224.673 516.182 224.369 516.059 224.088C515.937 223.807 515.757 223.555 515.531 223.348C515.305 223.142 515.038 222.985 514.748 222.889C514.457 222.792 514.15 222.758 513.846 222.789C512.014 223.025 510.487 225.974 510.188 227.599C510.188 227.693 510.088 228.777 510.053 229.418C510.017 229.024 509.982 228.641 509.941 228.241C509.859 227.434 509.753 226.634 509.647 225.768C509.577 225.356 509.507 224.932 509.442 224.508C509.377 224.084 509.266 223.649 509.178 223.219C508.955 222.212 508.684 221.205 508.385 220.199C509.09 220.128 511.591 219.834 512.66 219.215C513.728 218.597 514.908 217.526 515.073 216.23C515.121 215.928 515.105 215.619 515.026 215.323C514.948 215.027 514.808 214.751 514.615 214.512C514.423 214.274 514.183 214.079 513.911 213.94C513.639 213.801 513.341 213.721 513.035 213.705C511.192 213.658 509.231 216.342 508.69 217.902C508.655 217.997 508.391 219.157 508.262 219.798C508.074 219.209 507.898 218.591 507.675 217.985C507.087 216.219 506.424 214.494 505.778 212.745L505.191 211.138C505.443 211.138 508.42 210.832 509.618 210.137C510.681 209.548 511.867 208.447 512.031 207.152C512.08 206.849 512.065 206.54 511.987 206.243C511.908 205.947 511.769 205.67 511.576 205.432C511.384 205.194 511.143 204.999 510.871 204.86C510.598 204.721 510.299 204.641 509.994 204.626C508.15 204.579 506.189 207.27 505.649 208.824C505.608 208.942 505.232 210.59 505.156 211.044C504.733 209.866 504.322 208.689 503.981 207.511C503.491 205.92 503.099 204.3 502.807 202.66C502.924 202.66 506.036 202.365 507.264 201.659C508.326 201.041 509.512 199.963 509.677 198.668C509.725 198.365 509.709 198.055 509.63 197.759C509.551 197.463 509.41 197.186 509.217 196.948C509.025 196.71 508.784 196.515 508.511 196.376C508.238 196.237 507.939 196.158 507.633 196.142C505.796 196.095 503.835 198.786 503.294 200.34C503.259 200.44 502.971 201.718 502.848 202.324H502.742C502.5 200.666 502.406 198.989 502.461 197.314C502.461 196.396 502.549 195.513 502.637 194.659C503.224 194.659 505.895 194.659 507.07 194.152C508.244 193.646 509.489 192.716 509.794 191.45C509.876 191.154 509.894 190.843 509.847 190.539C509.801 190.235 509.691 189.944 509.525 189.686C509.358 189.428 509.139 189.207 508.882 189.04C508.625 188.872 508.336 188.76 508.033 188.712C506.207 188.465 503.964 190.92 503.259 192.404C503.218 192.486 502.919 193.352 502.707 193.988C502.748 193.599 502.789 193.205 502.842 192.81C503.03 191.427 503.283 190.173 503.517 189.06C503.658 188.43 503.793 187.882 503.928 187.335C504.516 187.04 506.817 185.834 507.61 184.85C508.403 183.867 509.096 182.46 508.784 181.194C508.72 180.89 508.591 180.602 508.406 180.352C508.222 180.101 507.986 179.893 507.714 179.741C507.443 179.59 507.142 179.498 506.833 179.472C506.523 179.447 506.211 179.488 505.919 179.593Z" fill="white"/>
<path opacity="0.5" d="M472.639 208.053C474.077 207.994 476.955 206.51 476.96 206.51C476.966 206.51 475.41 204.909 475.299 204.815C474.013 203.79 470.924 202.56 469.392 203.584C469.142 203.761 468.932 203.988 468.776 204.251C468.619 204.515 468.52 204.808 468.484 205.112C468.448 205.417 468.476 205.725 468.567 206.018C468.658 206.31 468.809 206.58 469.01 206.811C469.838 207.817 471.429 208.1 472.639 208.053Z" fill="white"/>
</g>
<path d="M489.436 244.172C489.436 244.172 498.167 223.072 503.052 223.99C507.937 224.909 494.673 257.631 494.673 257.631C494.673 257.631 510.034 228.576 520.509 228.576C530.984 228.576 516.669 260.687 503.405 271.39C503.405 271.39 524.349 248.759 536.574 253.657C548.798 258.555 512.13 281.487 512.13 281.487C512.13 281.487 533.426 274.758 530.984 279.956C528.541 285.155 521.924 286.073 521.924 286.073L545.998 287.298H462.203L481.057 285.461C481.057 285.461 461.504 275.676 466.73 271.696C471.956 267.716 483.488 276.282 483.488 276.282C483.488 276.282 463.589 254.263 467.429 246.009C471.269 237.755 488.379 260.993 488.379 260.993C488.379 260.993 474.41 231.332 477.223 226.127C480.035 220.923 489.436 244.172 489.436 244.172Z" fill="#16D877"/>
<path opacity="0.4" d="M489.436 244.172C489.436 244.172 498.167 223.072 503.052 223.99C507.937 224.909 494.673 257.631 494.673 257.631C494.673 257.631 510.034 228.576 520.509 228.576C530.984 228.576 516.669 260.687 503.405 271.39C503.405 271.39 524.349 248.759 536.574 253.657C548.798 258.555 512.13 281.487 512.13 281.487C512.13 281.487 533.426 274.758 530.984 279.956C528.541 285.155 521.924 286.073 521.924 286.073L545.998 287.298H462.203L481.057 285.461C481.057 285.461 461.504 275.676 466.73 271.696C471.956 267.716 483.488 276.282 483.488 276.282C483.488 276.282 463.589 254.263 467.429 246.009C471.269 237.755 488.379 260.993 488.379 260.993C488.379 260.993 474.41 231.332 477.223 226.127C480.035 220.923 489.436 244.172 489.436 244.172Z" fill="white"/>
<path d="M486.648 245.285C494.328 268.04 494.328 284.142 494.328 284.142C494.328 284.142 485.25 284.496 475.82 277.495" stroke="#263238" stroke-linecap="round" stroke-linejoin="round"/>
<path d="M490.488 257.539C492.069 250.736 494.169 244.065 496.771 237.586" stroke="#263238" stroke-linecap="round" stroke-linejoin="round"/>
<path d="M513.182 244.234L493.629 273.289C493.629 273.289 480.359 262.103 475.82 255.786" stroke="#263238" stroke-linecap="round" stroke-linejoin="round"/>
<path d="M493.977 280.292C493.977 280.292 514.574 270.49 522.959 264.891" stroke="#263238" stroke-linecap="round" stroke-linejoin="round"/>
</g>
<path d="M205.607 279.11C205.572 279.11 206.018 276.914 206.06 276.755C206.565 275.189 208.467 272.457 210.305 272.457C210.611 272.467 210.911 272.54 211.187 272.674C211.462 272.807 211.707 272.997 211.904 273.232C212.102 273.466 212.248 273.739 212.334 274.034C212.419 274.328 212.442 274.638 212.401 274.942C212.266 276.237 211.103 277.344 210.052 277.979C208.819 278.751 205.607 279.11 205.607 279.11Z" fill="#A4C340"/>
<path d="M185.465 28.8908L175.721 13.2969H89.8984V28.8908V34.4993V293.927H443.159V28.8908H185.465Z" fill="#E4EAE3"/>
<path d="M93.0234 287.772V36.543H440.335V287.772H93.0234Z" fill="white" stroke="#758278"/>
<path d="M440.835 36.043H92.5234V288.272H440.835V36.043Z" stroke="#758278" stroke-linecap="round" stroke-linejoin="round"/>
<path opacity="0.17" d="M273.997 59.5748H249.631C249.349 59.5748 249.07 59.5192 248.81 59.411C248.549 59.3028 248.313 59.1443 248.113 58.9444C247.914 58.7445 247.756 58.5072 247.648 58.2461C247.54 57.9849 247.484 57.705 247.484 57.4223C247.483 57.1386 247.537 56.8574 247.644 56.5949C247.752 56.3324 247.909 56.0937 248.109 55.8925C248.308 55.6914 248.546 55.5317 248.807 55.4228C249.068 55.3139 249.348 55.2578 249.631 55.2578H273.997C274.28 55.2578 274.56 55.3139 274.821 55.4228C275.082 55.5317 275.32 55.6914 275.519 55.8925C275.719 56.0937 275.876 56.3324 275.984 56.5949C276.091 56.8574 276.145 57.1386 276.144 57.4223C276.144 57.705 276.088 57.9849 275.98 58.2461C275.872 58.5072 275.714 58.7445 275.515 58.9444C275.315 59.1443 275.079 59.3028 274.818 59.411C274.558 59.5192 274.279 59.5748 273.997 59.5748Z" fill="#919D94"/>
<path opacity="0.17" d="M322.727 59.5748H298.362C297.793 59.5717 297.249 59.3439 296.847 58.9409C296.445 58.5379 296.218 57.9922 296.215 57.4223C296.215 56.8503 296.441 56.3016 296.843 55.896C297.245 55.4904 297.791 55.261 298.362 55.2578H322.727C323.3 55.2578 323.849 55.4859 324.254 55.8918C324.659 56.2977 324.886 56.8482 324.886 57.4223C324.883 57.9943 324.654 58.5418 324.249 58.9451C323.845 59.3484 323.298 59.5748 322.727 59.5748Z" fill="#919D94"/>
<path opacity="0.17" d="M371.474 59.5748H347.108C346.537 59.5748 345.99 59.3484 345.586 58.9451C345.181 58.5418 344.952 57.9943 344.949 57.4223C344.949 56.8482 345.177 56.2977 345.581 55.8918C345.986 55.4859 346.535 55.2578 347.108 55.2578H371.474C372.044 55.261 372.59 55.4904 372.992 55.896C373.395 56.3016 373.62 56.8503 373.62 57.4223C373.617 57.9922 373.39 58.5379 372.988 58.9409C372.586 59.3439 372.042 59.5717 371.474 59.5748Z" fill="#919D94"/>
<path opacity="0.17" d="M420.2 59.5748H395.834C395.552 59.5748 395.273 59.5192 395.013 59.411C394.752 59.3028 394.516 59.1443 394.316 58.9444C394.117 58.7445 393.959 58.5072 393.851 58.2461C393.743 57.9849 393.688 57.705 393.688 57.4223C393.686 57.1386 393.74 56.8574 393.847 56.5949C393.955 56.3324 394.113 56.0937 394.312 55.8925C394.512 55.6914 394.749 55.5317 395.01 55.4228C395.271 55.3139 395.551 55.2578 395.834 55.2578H420.2C420.77 55.261 421.316 55.4904 421.719 55.896C422.121 56.3016 422.347 56.8503 422.347 57.4223C422.344 57.9922 422.116 58.5379 421.714 58.9409C421.313 59.3439 420.768 59.5717 420.2 59.5748Z" fill="#919D94"/>
<path d="M125.441 162.527H162.258" stroke="#758278" stroke-width="3" stroke-linecap="round" stroke-linejoin="round"/>
<path d="M161.602 168.281H165.621" stroke="#758278" stroke-linecap="round" stroke-linejoin="round"/>
<path d="M138.547 168.281H159.168" stroke="#758278" stroke-linecap="round" stroke-linejoin="round"/>
<path d="M122.625 168.281H136.364" stroke="#758278" stroke-linecap="round" stroke-linejoin="round"/>
<path d="M148.73 174.027H165.618" stroke="#758278" stroke-linecap="round" stroke-linejoin="round"/>
<path d="M139.512 174.027H146.071" stroke="#758278" stroke-linecap="round" stroke-linejoin="round"/>
<path d="M122.625 174.027H136.603" stroke="#758278" stroke-linecap="round" stroke-linejoin="round"/>
<path d="M131.75 179.77H165.621" stroke="#758278" stroke-linecap="round" stroke-linejoin="round"/>
<path d="M122.625 179.77H128.6" stroke="#758278" stroke-linecap="round" stroke-linejoin="round"/>
<path d="M157.234 185.523H165.619" stroke="#758278" stroke-linecap="round" stroke-linejoin="round"/>
<path d="M141.219 185.523H154.314" stroke="#758278" stroke-linecap="round" stroke-linejoin="round"/>
<path d="M122.625 185.523H138.547" stroke="#758278" stroke-linecap="round" stroke-linejoin="round"/>
<path d="M136.602 191.273H165.619" stroke="#758278" stroke-linecap="round" stroke-linejoin="round"/>
<path d="M122.625 191.273H133.931" stroke="#758278" stroke-linecap="round" stroke-linejoin="round"/>
<path d="M209.402 162.527H246.219" stroke="#758278" stroke-width="3" stroke-linecap="round" stroke-linejoin="round"/>
<path d="M245.562 168.281H249.582" stroke="#758278" stroke-linecap="round" stroke-linejoin="round"/>
<path d="M222.508 168.281H243.129" stroke="#758278" stroke-linecap="round" stroke-linejoin="round"/>
<path d="M206.586 168.281H220.325" stroke="#758278" stroke-linecap="round" stroke-linejoin="round"/>
<path d="M232.691 174.027H249.579" stroke="#758278" stroke-linecap="round" stroke-linejoin="round"/>
<path d="M223.477 174.027H230.036" stroke="#758278" stroke-linecap="round" stroke-linejoin="round"/>
<path d="M206.586 174.027H220.564" stroke="#758278" stroke-linecap="round" stroke-linejoin="round"/>
<path d="M215.711 179.77H249.582" stroke="#758278" stroke-linecap="round" stroke-linejoin="round"/>
<path d="M206.586 179.77H212.561" stroke="#758278" stroke-linecap="round" stroke-linejoin="round"/>
<path d="M241.195 185.523H249.58" stroke="#758278" stroke-linecap="round" stroke-linejoin="round"/>
<path d="M225.18 185.523H238.275" stroke="#758278" stroke-linecap="round" stroke-linejoin="round"/>
<path d="M206.586 185.523H222.508" stroke="#758278" stroke-linecap="round" stroke-linejoin="round"/>
<path d="M220.566 191.273H249.583" stroke="#758278" stroke-linecap="round" stroke-linejoin="round"/>
<path d="M206.586 191.273H217.892" stroke="#758278" stroke-linecap="round" stroke-linejoin="round"/>
<path d="M293.363 162.527H330.18" stroke="#758278" stroke-width="3" stroke-linecap="round" stroke-linejoin="round"/>
<path d="M329.527 168.281H333.547" stroke="#758278" stroke-linecap="round" stroke-linejoin="round"/>
<path d="M306.469 168.281H327.09" stroke="#758278" stroke-linecap="round" stroke-linejoin="round"/>
<path d="M290.547 168.281H304.286" stroke="#758278" stroke-linecap="round" stroke-linejoin="round"/>
<path d="M316.656 174.027H333.544" stroke="#758278" stroke-linecap="round" stroke-linejoin="round"/>
<path d="M307.438 174.027H313.997" stroke="#758278" stroke-linecap="round" stroke-linejoin="round"/>
<path d="M290.547 174.027H304.525" stroke="#758278" stroke-linecap="round" stroke-linejoin="round"/>
<path d="M299.672 179.77H333.543" stroke="#758278" stroke-linecap="round" stroke-linejoin="round"/>
<path d="M290.547 179.77H296.522" stroke="#758278" stroke-linecap="round" stroke-linejoin="round"/>
<path d="M325.16 185.523H333.544" stroke="#758278" stroke-linecap="round" stroke-linejoin="round"/>
<path d="M309.145 185.523H322.24" stroke="#758278" stroke-linecap="round" stroke-linejoin="round"/>
<path d="M290.547 185.523H306.469" stroke="#758278" stroke-linecap="round" stroke-linejoin="round"/>
<path d="M304.527 191.273H333.544" stroke="#758278" stroke-linecap="round" stroke-linejoin="round"/>
<path d="M290.547 191.273H301.853" stroke="#758278" stroke-linecap="round" stroke-linejoin="round"/>
<path d="M377.328 162.527H414.145" stroke="#758278" stroke-width="3" stroke-linecap="round" stroke-linejoin="round"/>
<path d="M413.488 168.281H417.507" stroke="#758278" stroke-linecap="round" stroke-linejoin="round"/>
<path d="M390.434 168.281H411.054" stroke="#758278" stroke-linecap="round" stroke-linejoin="round"/>
<path d="M374.512 168.281H388.251" stroke="#758278" stroke-linecap="round" stroke-linejoin="round"/>
<path d="M400.617 174.027H417.505" stroke="#758278" stroke-linecap="round" stroke-linejoin="round"/>
<path d="M391.398 174.027H397.958" stroke="#758278" stroke-linecap="round" stroke-linejoin="round"/>
<path d="M374.512 174.027H388.489" stroke="#758278" stroke-linecap="round" stroke-linejoin="round"/>
<path d="M383.633 179.77H417.504" stroke="#758278" stroke-linecap="round" stroke-linejoin="round"/>
<path d="M374.512 179.77H380.487" stroke="#758278" stroke-linecap="round" stroke-linejoin="round"/>
<path d="M409.121 185.523H417.505" stroke="#758278" stroke-linecap="round" stroke-linejoin="round"/>
<path d="M393.105 185.523H406.201" stroke="#758278" stroke-linecap="round" stroke-linejoin="round"/>
<path d="M374.512 185.523H390.434" stroke="#758278" stroke-linecap="round" stroke-linejoin="round"/>
<path d="M388.488 191.273H417.505" stroke="#758278" stroke-linecap="round" stroke-linejoin="round"/>
<path d="M374.512 191.273H385.818" stroke="#758278" stroke-linecap="round" stroke-linejoin="round"/>
<path d="M428.848 144.005H104.449V76.9062H428.848V144.005Z" fill="#EFF3EE"/>
<path d="M346.258 143.505H187.098V77.4062H346.258V143.505Z" fill="#4F9646" stroke="#758278"/>
<path opacity="0.92" d="M346.758 144.005H186.598V76.9062H346.758V144.005Z" fill="#EFF3EE"/>
<path d="M314.031 96.3477H324.944" stroke="#758278" stroke-linecap="round" stroke-linejoin="round"/>
<path d="M251.562 96.3477H307.462" stroke="#758278" stroke-linecap="round" stroke-linejoin="round"/>
<path d="M208.41 96.3477H245.633" stroke="#758278" stroke-linecap="round" stroke-linejoin="round"/>
<path d="M279.184 102.102H324.945" stroke="#758278" stroke-linecap="round" stroke-linejoin="round"/>
<path d="M254.184 102.102H271.942" stroke="#758278" stroke-linecap="round" stroke-linejoin="round"/>
<path d="M208.41 102.102H246.3" stroke="#758278" stroke-linecap="round" stroke-linejoin="round"/>
<path d="M233.145 107.855H324.942" stroke="#758278" stroke-linecap="round" stroke-linejoin="round"/>
<path d="M208.41 107.855H224.594" stroke="#758278" stroke-linecap="round" stroke-linejoin="round"/>
<path d="M302.199 113.602H324.943" stroke="#758278" stroke-linecap="round" stroke-linejoin="round"/>
<path d="M258.789 113.602H294.306" stroke="#758278" stroke-linecap="round" stroke-linejoin="round"/>
<path d="M208.41 113.602H251.56" stroke="#758278" stroke-linecap="round" stroke-linejoin="round"/>
<path d="M246.301 119.344H324.944" stroke="#758278" stroke-linecap="round" stroke-linejoin="round"/>
<path d="M208.41 119.344H239.061" stroke="#758278" stroke-linecap="round" stroke-linejoin="round"/>
<path d="M428.848 287.435H104.449V220.336H428.848V287.435Z" fill="#EFF3EE"/>
<path d="M390.457 241.919C390.457 241.919 371.459 249.572 368.477 250.517C365.495 251.462 365.316 252.753 365.316 256.855C365.316 260.957 365.877 279.457 365.877 280.951C365.877 282.446 365.686 285.244 365.686 285.244H427.93C427.93 285.244 423.827 268.503 421.406 260.598C418.985 252.693 420.106 252 415.825 249.393C411.543 246.786 400.32 243.043 397.935 242.481C395.462 242.092 392.961 241.904 390.457 241.919Z" fill="#263238" stroke="#263238" stroke-linecap="round" stroke-linejoin="round"/>
<path d="M391.384 239.864C391.384 239.864 386.912 239.493 385.051 243.237C383.191 246.98 378.718 255.697 378.718 255.697L384.121 259.058L377.836 262.274C378.886 266.888 380.192 271.439 381.748 275.907C382.83 278.839 384.072 281.71 385.469 284.505C385.469 284.505 394.533 274.233 398.111 271.052C400.47 268.789 402.423 266.135 403.883 263.207L399.232 258.914L407.247 257.981C407.247 257.981 405.195 247.53 402.583 243.237C399.971 238.943 391.384 239.864 391.384 239.864Z" fill="#263238" stroke="#263238" stroke-linecap="round" stroke-linejoin="round"/>
<path d="M382.238 276.023C382.572 276.956 382.93 277.841 383.276 278.618" stroke="white" stroke-width="0.5" stroke-linecap="round" stroke-linejoin="round"/>
<path d="M382.92 247.883L378.721 255.692L384.124 259.052L378.34 262.341C378.34 262.341 379.688 268.236 381.381 273.522" stroke="white" stroke-width="0.5" stroke-linecap="round" stroke-linejoin="round"/>
<path d="M404.076 244.34L407.213 257.973L399.198 258.905L403.849 263.198C403.849 263.198 394.904 273.71 391.195 277.955" stroke="white" stroke-width="0.5" stroke-linecap="round" stroke-linejoin="round"/>
<path d="M415.789 265.262L412.438 285.998" stroke="white" stroke-width="0.5" stroke-linecap="round" stroke-linejoin="round"/>
<path d="M369.79 261.531C369.79 261.531 369.421 274.04 369.6 277.962C369.748 280.449 370.25 282.901 371.09 285.245" stroke="white" stroke-width="0.5" stroke-linecap="round" stroke-linejoin="round"/>
<path d="M404.246 270.305L407.407 266.012L410.018 270.305H404.246Z" fill="white" stroke="#263238" stroke-miterlimit="10"/>
<path d="M407.963 229.222C407.963 229.222 411.124 228.851 411.875 233.527C412.627 238.203 410.384 244.17 402.93 244.17C395.476 244.17 396.049 238.561 396.228 234.46C396.407 230.358 407.963 229.222 407.963 229.222Z" fill="#263238" stroke="#263238" stroke-miterlimit="10"/>
<path d="M389.527 236.882C389.527 236.882 389.337 242.288 388.967 248.458C388.597 254.629 385.616 263.024 385.616 270.115C385.59 274.045 385.777 277.973 386.176 281.882C386.176 281.882 392.318 269.924 395.109 263.024C397.9 256.124 401.072 236.129 401.072 236.129L389.527 236.882Z" fill="white" stroke="#263238" stroke-miterlimit="10"/>
<path d="M407.774 224.601C409.161 221.878 409.927 218.88 410.016 215.823C410.016 211.16 409.086 204.81 403.683 201.999C398.28 199.189 387.845 201.067 385.245 206.484C383.489 209.947 382.667 213.809 382.859 217.689C383.047 219.786 383.484 221.854 384.159 223.848C384.159 223.848 384.911 220.26 389.932 218.442C394.953 216.625 400.367 214.699 402.967 216.051C405.567 217.402 407.774 224.601 407.774 224.601Z" fill="#263238" stroke="#263238" stroke-linecap="round" stroke-linejoin="round"/>
<path d="M384.316 222.689C384.316 222.689 382.074 219.328 381.143 221.756C380.213 224.183 381.525 227.735 383.004 228.476C384.483 229.218 385.246 228.847 385.246 228.847L384.316 222.689Z" fill="white" stroke="#263238" stroke-linecap="round" stroke-linejoin="round"/>
<path d="M407.775 223.25C407.775 223.25 410.387 220.631 410.387 223.059C410.256 225.312 409.421 227.466 408.002 229.217C406.881 230.712 406.32 229.971 406.32 229.971L407.775 223.25Z" fill="white" stroke="#263238" stroke-linecap="round" stroke-linejoin="round"/>
<path d="M403.349 212.499L405.198 207.274C405.27 207.069 405.259 206.844 405.166 206.648C405.073 206.451 404.907 206.3 404.703 206.227C404.499 206.154 404.274 206.166 404.078 206.259C403.883 206.352 403.732 206.519 403.659 206.724L402.109 211.088C400.477 210.702 398.784 210.653 397.134 210.945C395.483 211.237 393.909 211.863 392.508 212.786C387.666 215.967 383.754 218.766 383.754 218.766C383.754 218.766 383.945 229.409 385.984 233.331C388.024 237.254 391.578 241.917 394.559 241.917C397.541 241.917 402.753 235.388 404.804 233.331C406.855 231.274 408.155 223.25 408.155 220.631C408.155 218.754 405.078 214.664 403.349 212.499Z" fill="white" stroke="#263238" stroke-miterlimit="10"/>
<path d="M396.015 260.473C392.99 260.748 389.942 260.339 387.094 259.277C386.241 262.858 385.746 266.516 385.616 270.195C385.59 274.125 385.777 278.053 386.176 281.963C386.176 281.963 392.318 270.004 395.109 263.104C395.407 262.291 395.729 261.394 396.015 260.473Z" fill="#4F9646" stroke="#263238" stroke-miterlimit="10"/>
<path d="M307.987 231.998C303.237 232.539 298.519 233.337 293.854 234.39C288.404 235.801 285.78 236.411 285.78 239.042C285.78 241.673 285.172 253.009 283.395 258.08C281.618 263.15 279.555 270.433 279.555 273.064C279.555 275.695 283.395 286.828 283.395 286.828H290.455C290.455 286.828 287.832 273.865 287.832 272.657C287.832 271.449 291.469 260.699 291.469 260.699L291.672 287.223H328.644L328.25 261.906C328.25 261.906 331.47 272.239 331.47 274.056C331.47 275.874 330.278 287.832 330.278 287.832H337.291C337.291 287.832 340.725 274.678 340.523 270.014C340.32 265.35 336.945 250.57 336.491 246.097C336.038 241.625 338.71 239.209 333.868 236.172C329.026 233.134 317.91 231.317 315.489 231.113C312.966 231.163 310.453 231.46 307.987 231.998Z" fill="#A4C340" stroke="#263238" stroke-miterlimit="10"/>
<path d="M291.431 260.76L292.039 250.631L289.809 242.941" stroke="#263238" stroke-linecap="round" stroke-linejoin="round"/>
<path d="M328.191 249.012V261.963" stroke="#263238" stroke-linecap="round" stroke-linejoin="round"/>
<path d="M328.383 252.66L331.615 247.793" stroke="#263238" stroke-linecap="round" stroke-linejoin="round"/>
<path d="M311.419 245.777L310.215 286.879" stroke="#263238" stroke-linecap="round" stroke-linejoin="round"/>
<path d="M310.813 227.144C309.016 227.243 307.307 227.956 305.971 229.165C303.752 231.198 302.941 239.091 302.941 239.091C302.941 239.091 310.014 237.07 311.218 236.699C312.423 236.329 323.145 238.72 323.145 238.72C323.145 238.72 322.143 231.641 319.316 228.603C316.49 225.566 310.813 227.144 310.813 227.144Z" fill="#263238" stroke="#263238" stroke-linecap="round" stroke-linejoin="round"/>
<path d="M307.984 220.66C307.984 220.66 309.606 223.052 309.606 230.227C309.606 237.402 310.405 244.805 311.419 245.773C312.433 246.742 316.667 236.206 316.667 231.423C316.747 228.26 317.508 225.152 318.897 222.311C318.897 222.311 313.84 218.867 311.216 218.46C310.5 218.348 309.768 218.513 309.168 218.921C308.568 219.33 308.145 219.951 307.984 220.66Z" fill="white" stroke="#263238" stroke-linecap="round" stroke-linejoin="round"/>
<path d="M309.93 238.121C310.252 242.055 310.8 245.153 311.42 245.775C312.041 246.396 313.985 242.45 315.32 238.217C313.53 238.471 311.71 238.438 309.93 238.121Z" fill="#263238" stroke="#263238" stroke-linecap="round" stroke-linejoin="round"/>
<path d="M320.309 201.23C320.309 201.23 321.501 201.637 323.743 199.604C325.986 197.571 324.936 193.732 323.946 194.546C323.314 195.063 322.767 195.676 322.324 196.363C321.933 195.178 321.212 194.13 320.246 193.342C319.28 192.554 318.11 192.059 316.874 191.915C312.64 191.508 307.583 197.38 307.583 197.38C307.583 197.38 298.304 204.268 299.306 209.733C300.308 215.198 305.567 220.053 307.989 220.663C310.41 221.273 314.858 216.824 314.047 212.974C313.236 209.123 312.64 203.407 314.047 202.845C316.102 202.189 318.193 201.65 320.309 201.23Z" fill="#263238" stroke="#263238" stroke-linecap="round" stroke-linejoin="round"/>
<path d="M307.582 217.419C307.582 217.419 304.16 215.028 303.349 216.821C302.538 218.615 304.362 221.88 306.581 222.884C308.799 223.889 310.815 220.66 310.815 220.66C310.815 220.66 317.887 226.328 322.741 226.532C327.595 226.735 327.798 222.884 326.987 215.602C326.176 208.319 323.755 202.639 321.942 200.618C320.129 198.597 313.057 200.414 310.826 202.232C308.596 204.05 307.249 205.676 309.419 206.083C311.59 206.489 313.653 207.279 311.637 209.527C309.622 211.775 308.608 210.938 309.252 212.564C309.896 214.191 312.484 215.805 310.063 216.618L307.582 217.419Z" fill="white" stroke="#263238" stroke-linecap="round" stroke-linejoin="round"/>
<path d="M218.835 228.191C218.835 228.191 193.384 231.229 192.597 233.453C191.81 235.677 182.507 257.37 183.914 259.367C185.322 261.364 188.16 261.759 190.378 261.759C191.95 261.618 193.436 260.982 194.624 259.941L188.16 287.446H235.007L236.426 268.205C236.426 268.205 241.877 270.596 245.514 270.238C249.152 269.879 248.341 266.997 247.53 261.532C246.719 256.067 246.337 242.087 244.906 239.456C243.475 236.825 226.325 229.531 226.325 229.531L218.835 228.191Z" fill="#E2F8E0" stroke="#919D94" stroke-linecap="round" stroke-linejoin="round"/>
<path d="M236.809 261.172V248.615L237.81 246.188" stroke="white" stroke-linecap="round" stroke-linejoin="round"/>
<path d="M196.008 250.637L198.035 242.134L197.63 240.316" stroke="white" stroke-linecap="round" stroke-linejoin="round"/>
<path d="M201.328 288.307C201.328 288.307 205.157 271.696 206.981 261.376C208.806 251.056 216.403 228.191 216.403 228.191L228.127 231.432C228.127 231.432 220.243 254.512 218.228 264.438C216.212 274.363 214.519 288.426 214.519 288.426L201.328 288.307Z" fill="#4F9646" stroke="#263238" stroke-miterlimit="10"/>
<path d="M218.025 225.801C218.025 225.801 214.59 225.801 213.373 228.193C212.157 230.585 210.547 239.936 210.547 239.936C210.547 239.936 217.822 236.696 218.43 236.696C219.038 236.696 221.865 236.899 223.272 238.513C224.68 240.128 227.721 243.978 227.721 243.978C227.721 243.978 232.36 236.492 231.156 231.637C230.743 230.037 229.837 228.608 228.567 227.554C227.297 226.5 225.728 225.874 224.083 225.766L218.025 225.801Z" fill="#4F9646" stroke="#263238" stroke-miterlimit="10"/>
<path d="M216.833 220.461C216.833 220.461 216.427 234.644 216.833 238.686C217.238 242.728 217.846 243.744 217.846 243.744C217.846 243.744 221.281 238.076 222.283 236.055C223.285 234.034 226.326 231.798 227.745 229.98C229.164 228.162 230.131 221.274 230.131 221.274C230.131 221.274 224.883 225.328 222.056 224.312C220.056 223.424 218.274 222.11 216.833 220.461Z" fill="white" stroke="#263238" stroke-linecap="round" stroke-linejoin="round"/>
<path d="M225.181 194.837C221.746 195.339 218.394 197.061 217.428 200.422C216.617 203.256 216.236 212.572 216.021 217.223C215.806 221.875 218.239 227.759 220.255 228.369C221.937 228.967 223.748 229.108 225.503 228.775C226.516 228.369 231.168 222.091 232.372 220.871C233.577 219.651 237.214 208.314 237.214 204.272C237.303 202.279 236.741 200.31 235.613 198.666C234.485 197.021 232.853 195.79 230.965 195.16C229.081 194.647 227.11 194.537 225.181 194.837Z" fill="white" stroke="#263238" stroke-linecap="round" stroke-linejoin="round"/>
<path d="M235.189 213.842C235.189 213.842 238.421 210.996 237.574 214.644C237.314 215.733 236.818 216.753 236.122 217.629C235.425 218.505 234.545 219.217 233.543 219.714L235.189 213.842Z" fill="white" stroke="#263238" stroke-linecap="round" stroke-linejoin="round"/>
<path d="M216.405 209.946C216.405 209.946 214.02 207.721 214.02 210.759C214.112 212.748 214.821 214.658 216.047 216.224L216.405 209.946Z" fill="white" stroke="#263238" stroke-linecap="round" stroke-linejoin="round"/>
<path d="M235.188 213.839C236.236 210.742 236.912 207.53 237.203 204.272C237.292 202.279 236.73 200.31 235.602 198.666C234.474 197.021 232.842 195.79 230.954 195.16C229.07 194.647 227.099 194.537 225.17 194.837C221.735 195.339 218.383 197.061 217.417 200.422C216.796 203.773 216.433 207.167 216.332 210.575C217.358 209.773 219.493 207.812 219.039 205.48C218.431 202.443 217.215 201.032 219.433 199.609C221.651 198.186 224.287 200.218 227.925 201.438C231.562 202.658 235.188 201.032 236.201 202.036C237.215 203.041 232.969 207.31 233.578 208.924C234.186 210.539 235.593 212.368 235.188 213.791V213.839Z" fill="#263238" stroke="#263238" stroke-linecap="round" stroke-linejoin="round"/>
<path d="M206.098 252.666C206.098 252.666 203.069 248.409 201.053 248.206C199.038 248.002 194.184 252.666 194.184 252.666H206.098Z" fill="white" stroke="#263238" stroke-linecap="round" stroke-linejoin="round"/>
<path d="M225.285 253.062H228.124L228.72 258.743L225.691 257.93L225.285 253.062Z" fill="white" stroke="#263238" stroke-linecap="round" stroke-linejoin="round"/>
<path d="M228.125 253.062L233.17 255.299L234.374 261.577L228.721 258.743L228.125 253.062Z" fill="white" stroke="#263238" stroke-linecap="round" stroke-linejoin="round"/>
<path d="M244.264 264.063L215.39 252.727C213.725 253.547 212.164 254.562 210.739 255.752C209.896 256.601 209.274 257.644 208.926 258.79C208.926 258.79 222.653 268.715 229.32 271.753C235.987 274.79 245.683 275.806 247.293 274.144C248.903 272.482 248.486 266.252 247.496 265.235C246.961 264.682 246.35 264.207 245.683 263.824" fill="#E2F8E0"/>
<path d="M244.264 264.063L215.39 252.727C213.725 253.547 212.164 254.562 210.739 255.752C209.896 256.601 209.274 257.644 208.926 258.79C208.926 258.79 222.653 268.715 229.32 271.753C235.987 274.79 245.683 275.806 247.293 274.144C248.903 272.482 248.486 266.252 247.496 265.235C246.961 264.682 246.35 264.207 245.683 263.824" stroke="#919D94" stroke-linecap="round" stroke-linejoin="round"/>
<path d="M225.288 252.106L225.694 257.978C225.694 257.978 204.488 262.833 196.617 264.256C188.745 265.679 184.5 264.651 183.295 261.016C182.091 257.38 186.122 252.908 187.934 251.903C189.747 250.899 225.288 252.106 225.288 252.106Z" fill="#E2F8E0" stroke="#919D94" stroke-linecap="round" stroke-linejoin="round"/>
<path d="M147.286 238.227C147.286 238.227 155.372 240.248 158.604 241.264C161.836 242.28 162.838 243.488 162.838 245.916C162.838 248.343 161.025 259.07 161.025 260.697V271.639C161.025 274.676 164.054 285.809 164.054 285.809H124.697C124.697 285.809 120.26 268.804 117.231 259.501C114.202 250.197 113.796 246.944 116.825 245.521C124.026 242.875 131.373 240.647 138.83 238.848C141.63 238.443 144.456 238.236 147.286 238.227Z" fill="#FF9457" stroke="#263238" stroke-miterlimit="10"/>
<path d="M159.011 251.582C159.011 251.582 161.396 262.727 160.621 266.769C159.846 270.811 154.359 286.214 154.359 286.214" stroke="#263238" stroke-linecap="round" stroke-linejoin="round"/>
<path d="M116.804 245.508C116.804 245.508 113.226 246.118 114.181 250.782C115.135 255.445 110.543 285.593 110.543 285.593H119.428C119.428 285.593 125.487 269.592 126.489 265.754C127.49 261.915 128.313 258.865 126.489 255.625" fill="#FF9457"/>
<path d="M116.804 245.508C116.804 245.508 113.226 246.118 114.181 250.782C115.135 255.445 110.543 285.593 110.543 285.593H119.428C119.428 285.593 125.487 269.592 126.489 265.754C127.49 261.915 128.313 258.865 126.489 255.625" stroke="#263238" stroke-miterlimit="10"/>
<path d="M154.431 218.508L155.755 259.753H143.816V222.059L154.431 218.508Z" fill="#263238" stroke="#263238" stroke-linecap="round" stroke-linejoin="round"/>
<path d="M139.01 248.151C139.01 248.151 142.445 263.697 143.864 268.397C145.284 273.096 145.475 283.943 145.057 285.402C144.64 286.86 150.102 285.402 150.102 285.402C150.102 285.402 151.521 274.639 152.332 268.397C153.143 262.154 150.71 250.375 150.71 250.375L148.086 240.043L138.188 241.873L139.01 248.151Z" fill="white" stroke="#263238" stroke-linecap="round" stroke-linejoin="round"/>
<path d="M147.659 231.133C147.096 234.356 147.165 237.659 147.862 240.855C149.054 245.316 152.31 253.412 149.484 255.636C146.657 257.86 142.817 256.652 140.801 252.599C138.786 248.545 136.961 238.428 136.961 230.129C136.961 221.829 137.772 220.406 140.599 220.406C143.425 220.406 147.659 231.133 147.659 231.133Z" fill="white" stroke="#263238" stroke-linecap="round" stroke-linejoin="round"/>
<path d="M141.838 227.296C140.021 228.879 137.886 230.049 135.576 230.728C132.547 231.338 130.937 223.242 130.531 215.182C130.126 207.122 132.153 202.625 136.387 200.604C140.621 198.583 150.925 199.588 154.969 201.202C159.012 202.816 163.854 205.459 163.854 209.705C163.854 213.95 158.391 217.43 156.781 218.386C155.171 219.343 151.331 220.778 148.91 223.242C146.818 225.013 144.421 226.387 141.838 227.296Z" fill="#263238" stroke="#263238" stroke-linecap="round" stroke-linejoin="round"/>
<path d="M141.836 227.293C141.836 227.293 144.221 233.368 148.706 233.559C153.19 233.751 158.247 223.442 158.402 218.982C158.557 214.521 153.953 206.832 153.953 206.832C153.953 206.832 146.082 224.853 141.836 227.293Z" fill="white" stroke="#263238" stroke-linecap="round" stroke-linejoin="round"/>
<path d="M140.631 218.185L141.025 261.917H127.5L130.529 211.094" fill="#263238"/>
<path d="M140.631 218.185L141.025 261.917H127.5L130.529 211.094" stroke="#263238" stroke-linecap="round" stroke-linejoin="round"/>
</svg>
