<svg width="60" height="60" viewBox="0 0 60 60" fill="none" xmlns="http://www.w3.org/2000/svg">
<circle cx="30" cy="30" r="30" fill="#73C5FF"/>
<path d="M37.14 37.5C38.91 35.7 40 33.22 40 30.5C40 24.98 35.52 20.5 30 20.5C24.48 20.5 20 24.98 20 30.5C20 33.22 21.08 35.68 22.84 37.49" stroke="white" stroke-width="2" stroke-miterlimit="10" stroke-linecap="round" stroke-linejoin="round"/>
<path d="M30.0011 39.4983C31.8678 39.4983 33.3811 37.985 33.3811 36.1183C33.3811 34.2516 31.8678 32.7383 30.0011 32.7383C28.1344 32.7383 26.6211 34.2516 26.6211 36.1183C26.6211 37.985 28.1344 39.4983 30.0011 39.4983Z" stroke="white" stroke-width="2" stroke-miterlimit="10" stroke-linecap="round" stroke-linejoin="round"/>
<path d="M33.25 30H34C34.82 30 35.5 29.33 35.5 28.5C35.5 27.68 34.82 27 34 27C33.18 27 32.5 27.67 32.5 28.5V29.25C32.5 29.66 32.84 30 33.25 30Z" stroke="white" stroke-width="1.5" stroke-miterlimit="10" stroke-linecap="round" stroke-linejoin="round"/>
</svg>
