<svg width="60" height="60" viewBox="0 0 60 60" fill="none" xmlns="http://www.w3.org/2000/svg">
<circle cx="30" cy="30" r="30" fill="#FF9457"/>
<path d="M36 36.8617H35.24C34.44 36.8617 33.68 37.1717 33.12 37.7317L31.41 39.4218C30.63 40.1918 29.36 40.1918 28.58 39.4218L26.87 37.7317C26.31 37.1717 25.54 36.8617 24.75 36.8617H24C22.34 36.8617 21 35.5317 21 33.8917V22.9817C21 21.3417 22.34 20.0117 24 20.0117H36C37.66 20.0117 39 21.3417 39 22.9817V33.8917C39 35.5217 37.66 36.8617 36 36.8617Z" stroke="white" stroke-width="2" stroke-miterlimit="10" stroke-linecap="round" stroke-linejoin="round"/>
<path d="M25 27.1627C25 26.2327 25.76 25.4727 26.69 25.4727C27.62 25.4727 28.38 26.2327 28.38 27.1627C28.38 29.0427 25.71 29.2427 25.12 31.0327C25 31.4027 25.31 31.7727 25.7 31.7727H28.38" stroke="white" stroke-width="1.5" stroke-linecap="round" stroke-linejoin="round"/>
<path d="M34.0417 31.7608V26.0509C34.0417 25.7909 33.8717 25.5608 33.6217 25.4908C33.3717 25.4208 33.1017 25.5208 32.9617 25.7408C32.2417 26.9008 31.4617 28.2208 30.7817 29.3808C30.6717 29.5708 30.6717 29.8208 30.7817 30.0108C30.8917 30.2008 31.1017 30.3208 31.3317 30.3208H35.0017" stroke="white" stroke-width="1.5" stroke-linecap="round" stroke-linejoin="round"/>
</svg>
