<svg width="60" height="61" viewBox="0 0 60 61" fill="none" xmlns="http://www.w3.org/2000/svg">
<circle cx="30" cy="30.5898" r="30" fill="#FF9457"/>
<path fill-rule="evenodd" clip-rule="evenodd" d="M38.8074 26.2127L38.185 25.1326C37.6584 24.2187 36.4914 23.9034 35.5763 24.4278V24.4278C35.1406 24.6845 34.6208 24.7573 34.1314 24.6302C33.6421 24.5031 33.2233 24.1866 32.9676 23.7505C32.803 23.4733 32.7146 23.1575 32.7113 22.8352V22.8352C32.7261 22.3183 32.5311 21.8175 32.1708 21.4468C31.8104 21.076 31.3153 20.867 30.7982 20.8672H29.5442C29.0377 20.8672 28.552 21.069 28.1947 21.4281C27.8374 21.7871 27.6379 22.2737 27.6403 22.7802V22.7802C27.6253 23.826 26.7732 24.6659 25.7273 24.6658C25.4049 24.6625 25.0892 24.5741 24.812 24.4095V24.4095C23.8968 23.8851 22.7298 24.2004 22.2033 25.1143L21.5351 26.2127C21.0091 27.1255 21.3201 28.2917 22.2307 28.8214V28.8214C22.8226 29.1632 23.1873 29.7947 23.1873 30.4782C23.1873 31.1616 22.8226 31.7932 22.2307 32.1349V32.1349C21.3213 32.6611 21.01 33.8244 21.5351 34.7345V34.7345L22.1667 35.8237C22.4134 36.2689 22.8273 36.5974 23.3169 36.7366C23.8065 36.8757 24.3314 36.814 24.7754 36.5651V36.5651C25.2118 36.3105 25.7319 36.2407 26.2201 36.3713C26.7082 36.5019 27.124 36.8222 27.3749 37.2608C27.5394 37.538 27.6278 37.8538 27.6312 38.1761V38.1761C27.6312 39.2327 28.4877 40.0892 29.5442 40.0892H30.7982C31.8512 40.0892 32.7062 39.2382 32.7113 38.1853V38.1853C32.7088 37.6771 32.9096 37.1891 33.2689 36.8298C33.6282 36.4705 34.1162 36.2698 34.6243 36.2722C34.9459 36.2808 35.2604 36.3689 35.5397 36.5285V36.5285C36.4524 37.0545 37.6186 36.7435 38.1484 35.8329V35.8329L38.8074 34.7345C39.0625 34.2966 39.1325 33.7751 39.0019 33.2855C38.8714 32.7958 38.551 32.3785 38.1117 32.1258V32.1258C37.6725 31.8731 37.3521 31.4557 37.2215 30.9661C37.091 30.4764 37.161 29.9549 37.4161 29.5171C37.582 29.2274 37.8221 28.9873 38.1117 28.8214V28.8214C39.0169 28.292 39.3271 27.1326 38.8074 26.2219V26.2219V26.2127Z" stroke="white" stroke-width="1.5" stroke-linecap="round" stroke-linejoin="round"/>
<circle cx="30.1752" cy="30.4799" r="2.63616" stroke="white" stroke-width="1.5" stroke-linecap="round" stroke-linejoin="round"/>
</svg>
