<svg width="52" height="150" viewBox="0 0 52 150" fill="none" xmlns="http://www.w3.org/2000/svg">
<g opacity="0.05">
<circle cx="5" cy="5" r="4" stroke="#152C1A" stroke-width="2"/>
<circle cx="25" cy="5" r="4" stroke="#152C1A" stroke-width="2"/>
<circle cx="45" cy="5" r="4" stroke="#152C1A" stroke-width="2"/>
<circle cx="5" cy="25" r="4" stroke="#152C1A" stroke-width="2"/>
<circle cx="25" cy="25" r="4" stroke="#152C1A" stroke-width="2"/>
<circle cx="45" cy="25" r="4" stroke="#152C1A" stroke-width="2"/>
<circle cx="5" cy="45" r="4" stroke="#152C1A" stroke-width="2"/>
<circle cx="25" cy="45" r="4" stroke="#152C1A" stroke-width="2"/>
<circle cx="45" cy="45" r="4" stroke="#152C1A" stroke-width="2"/>
<circle cx="5" cy="65" r="4" stroke="#152C1A" stroke-width="2"/>
<circle cx="25" cy="65" r="4" stroke="#152C1A" stroke-width="2"/>
<circle cx="45" cy="65" r="4" stroke="#152C1A" stroke-width="2"/>
<circle cx="5" cy="85" r="4" stroke="#152C1A" stroke-width="2"/>
<circle cx="25" cy="85" r="4" stroke="#152C1A" stroke-width="2"/>
<circle cx="45" cy="85" r="4" stroke="#152C1A" stroke-width="2"/>
<circle cx="5" cy="105" r="4" stroke="#152C1A" stroke-width="2"/>
<circle cx="25" cy="105" r="4" stroke="#152C1A" stroke-width="2"/>
<circle cx="45" cy="105" r="4" stroke="#152C1A" stroke-width="2"/>
<circle cx="5" cy="125" r="4" stroke="#152C1A" stroke-width="2"/>
<circle cx="25" cy="125" r="4" stroke="#152C1A" stroke-width="2"/>
<circle cx="45" cy="125" r="4" stroke="#152C1A" stroke-width="2"/>
<circle cx="5" cy="145" r="4" stroke="#152C1A" stroke-width="2"/>
<circle cx="25" cy="145" r="4" stroke="#152C1A" stroke-width="2"/>
<circle cx="45" cy="145" r="4" stroke="#152C1A" stroke-width="2"/>
</g>
</svg>
