<svg width="60" height="61" viewBox="0 0 60 61" fill="none" xmlns="http://www.w3.org/2000/svg">
<circle cx="30" cy="30.5898" r="30" fill="white"/>
<path d="M35 37.0196H31L26.55 39.9796C25.89 40.4196 25 39.9496 25 39.1496V37.0196C22 37.0196 20 35.0196 20 32.0196V26.0195C20 23.0195 22 21.0195 25 21.0195H35C38 21.0195 40 23.0195 40 26.0195V32.0196C40 35.0196 38 37.0196 35 37.0196Z" stroke="#152C1A" stroke-width="1.5" stroke-miterlimit="10" stroke-linecap="round" stroke-linejoin="round"/>
<path d="M29.9998 29.9492V29.7393C29.9998 29.0593 30.4198 28.6992 30.8398 28.4092C31.2498 28.1292 31.6598 27.7693 31.6598 27.1093C31.6598 26.1893 30.9198 25.4492 29.9998 25.4492C29.0798 25.4492 28.3398 26.1893 28.3398 27.1093" stroke="#152C1A" stroke-width="1.5" stroke-linecap="round" stroke-linejoin="round"/>
<path d="M29.9955 32.3398H30.0045" stroke="#152C1A" stroke-width="1.5" stroke-linecap="round" stroke-linejoin="round"/>
</svg>
