<svg width="60" height="61" viewBox="0 0 60 61" fill="none" xmlns="http://www.w3.org/2000/svg">
<circle cx="30" cy="30.5898" r="30" fill="#F68D8D"/>
<path d="M27 40.5898H33C38 40.5898 40 38.5898 40 33.5898V27.5898C40 22.5898 38 20.5898 33 20.5898H27C22 20.5898 20 22.5898 20 27.5898V33.5898C20 38.5898 22 40.5898 27 40.5898Z" stroke="white" stroke-width="1.5" stroke-linecap="round" stroke-linejoin="round"/>
<path d="M26.9002 35.1187C27.3802 34.5987 28.1203 34.6387 28.5403 35.2087L29.1403 36.0087C29.6103 36.6387 30.3902 36.6387 30.8602 36.0087L31.4503 35.2188C31.8703 34.6587 32.6102 34.6187 33.0902 35.1287C34.1402 36.2487 34.9902 35.8787 34.9902 34.3087V27.6787C34.9902 25.3087 34.4302 24.7188 32.2102 24.7188H27.7702C25.5502 24.7188 24.9902 25.3087 24.9902 27.6787V34.3087C25.0002 35.8587 25.8602 36.2287 26.9002 35.1187Z" stroke="white" stroke-width="1.5" stroke-linecap="round" stroke-linejoin="round"/>
</svg>
