<svg width="60" height="61" viewBox="0 0 60 61" fill="none" xmlns="http://www.w3.org/2000/svg">
<circle cx="30" cy="30.5898" r="30" fill="#B29FE7"/>
<path d="M26.5 37.5898H26C22 37.5898 20 36.5898 20 31.5898V26.5898C20 22.5898 22 20.5898 26 20.5898H34C38 20.5898 40 22.5898 40 26.5898V31.5898C40 35.5898 38 37.5898 34 37.5898H33.5C33.19 37.5898 32.89 37.7398 32.7 37.9898L31.2 39.9898C30.54 40.8698 29.46 40.8698 28.8 39.9898L27.3 37.9898C27.14 37.7698 26.77 37.5898 26.5 37.5898Z" stroke="white" stroke-width="1.5" stroke-miterlimit="10" stroke-linecap="round" stroke-linejoin="round"/>
<path d="M33.9965 29.5898H34.0054" stroke="white" stroke-width="2" stroke-linecap="round" stroke-linejoin="round"/>
<path d="M29.9945 29.5898H30.0035" stroke="white" stroke-width="2" stroke-linecap="round" stroke-linejoin="round"/>
<path d="M25.9945 29.5898H26.0035" stroke="white" stroke-width="2" stroke-linecap="round" stroke-linejoin="round"/>
</svg>
