<svg width="60" height="61" viewBox="0 0 60 61" fill="none" xmlns="http://www.w3.org/2000/svg">
<circle cx="30" cy="30.5898" r="30" fill="#FF9457"/>
<path d="M37.0703 37.6595C40.9803 33.7495 40.9803 27.4195 37.0703 23.5195" stroke="white" stroke-width="1.5" stroke-linecap="round" stroke-linejoin="round"/>
<path d="M22.9305 23.5195C19.0205 27.4295 19.0205 33.7595 22.9305 37.6595" stroke="white" stroke-width="1.5" stroke-linecap="round" stroke-linejoin="round"/>
<path d="M26.6992 40C27.7692 40.37 28.8792 40.55 29.9992 40.55C31.1192 40.54 32.2292 40.37 33.2992 40" stroke="white" stroke-width="1.5" stroke-linecap="round" stroke-linejoin="round"/>
<path d="M26.6992 21.179C27.7692 20.809 28.8792 20.6289 29.9992 20.6289C31.1192 20.6289 32.2292 20.809 33.2992 21.179" stroke="white" stroke-width="1.5" stroke-linecap="round" stroke-linejoin="round"/>
<path d="M26.7402 30.59V28.92C26.7402 26.84 28.2103 25.99 30.0103 27.03L31.4602 27.87L32.9102 28.71C34.7102 29.75 34.7102 31.45 32.9102 32.49L31.4602 33.33L30.0103 34.17C28.2103 35.21 26.7402 34.36 26.7402 32.28V30.59Z" stroke="white" stroke-width="1.5" stroke-miterlimit="10" stroke-linecap="round" stroke-linejoin="round"/>
</svg>
