<svg width="60" height="60" viewBox="0 0 60 60" fill="none" xmlns="http://www.w3.org/2000/svg">
<circle cx="30" cy="30" r="30" fill="#FF9457"/>
<path d="M39.97 36.33C39.97 36.69 39.89 37.06 39.72 37.42C39.55 37.78 39.33 38.12 39.04 38.44C38.55 38.98 38.01 39.37 37.4 39.62C36.8 39.87 36.15 40 35.45 40C34.43 40 33.34 39.76 32.19 39.27C31.04 38.78 29.89 38.12 28.75 37.29C27.6 36.45 26.51 35.52 25.47 34.49C24.44 33.45 23.51 32.36 22.68 31.22C21.86 30.08 21.2 28.94 20.72 27.81C20.24 26.67 20 25.58 20 24.54C20 23.86 20.12 23.21 20.36 22.61C20.6 22 20.98 21.44 21.51 20.94C22.15 20.31 22.85 20 23.59 20C23.87 20 24.15 20.06 24.4 20.18C24.66 20.3 24.89 20.48 25.07 20.74L27.39 24.01C27.57 24.26 27.7 24.49 27.79 24.71C27.88 24.92 27.93 25.13 27.93 25.32C27.93 25.56 27.86 25.8 27.72 26.03C27.59 26.26 27.4 26.5 27.16 26.74L26.4 27.53C26.29 27.64 26.24 27.77 26.24 27.93C26.24 28.01 26.25 28.08 26.27 28.16C26.3 28.24 26.33 28.3 26.35 28.36C26.53 28.69 26.84 29.12 27.28 29.64C27.73 30.16 28.21 30.69 28.73 31.22C29.27 31.75 29.79 32.24 30.32 32.69C30.84 33.13 31.27 33.43 31.61 33.61C31.66 33.63 31.72 33.66 31.79 33.69C31.87 33.72 31.95 33.73 32.04 33.73C32.21 33.73 32.34 33.67 32.45 33.56L33.21 32.81C33.46 32.56 33.7 32.37 33.93 32.25C34.16 32.11 34.39 32.04 34.64 32.04C34.83 32.04 35.03 32.08 35.25 32.17C35.47 32.26 35.7 32.39 35.95 32.56L39.26 34.91C39.52 35.09 39.7 35.3 39.81 35.55C39.91 35.8 39.97 36.05 39.97 36.33Z" stroke="white" stroke-width="2" stroke-miterlimit="10"/>
</svg>
