<svg width="60" height="61" viewBox="0 0 60 61" fill="none" xmlns="http://www.w3.org/2000/svg">
<circle cx="30" cy="30.3242" r="30" fill="#FF8787"/>
<g clip-path="url(#clip0)">
<path d="M36.0001 25.4842C35.9401 25.4742 35.8701 25.4742 35.8101 25.4842C34.4301 25.4342 33.3301 24.3042 33.3301 22.9042C33.3301 21.4742 34.4801 20.3242 35.9101 20.3242C37.3401 20.3242 38.4901 21.4842 38.4901 22.9042C38.4801 24.3042 37.3801 25.4342 36.0001 25.4842Z" stroke="white" stroke-width="1.5" stroke-linecap="round" stroke-linejoin="round"/>
<path d="M34.9695 32.7644C36.3395 32.9944 37.8495 32.7544 38.9095 32.0444C40.3195 31.1044 40.3195 29.5644 38.9095 28.6244C37.8395 27.9144 36.3095 27.6744 34.9395 27.9144" stroke="white" stroke-width="1.5" stroke-linecap="round" stroke-linejoin="round"/>
<path d="M23.9685 25.4842C24.0285 25.4742 24.0985 25.4742 24.1585 25.4842C25.5385 25.4342 26.6385 24.3042 26.6385 22.9042C26.6385 21.4742 25.4885 20.3242 24.0585 20.3242C22.6285 20.3242 21.4785 21.4842 21.4785 22.9042C21.4885 24.3042 22.5885 25.4342 23.9685 25.4842Z" stroke="white" stroke-width="1.5" stroke-linecap="round" stroke-linejoin="round"/>
<path d="M24.9995 32.7644C23.6295 32.9944 22.1195 32.7544 21.0595 32.0444C19.6495 31.1044 19.6495 29.5644 21.0595 28.6244C22.1295 27.9144 23.6595 27.6744 25.0295 27.9144" stroke="white" stroke-width="1.5" stroke-linecap="round" stroke-linejoin="round"/>
<path d="M30.0001 32.953C29.9401 32.943 29.8701 32.943 29.8101 32.953C28.4301 32.903 27.3301 31.773 27.3301 30.373C27.3301 28.943 28.4801 27.793 29.9101 27.793C31.3401 27.793 32.4901 28.953 32.4901 30.373C32.4801 31.773 31.3801 32.913 30.0001 32.953Z" stroke="white" stroke-width="1.5" stroke-linecap="round" stroke-linejoin="round"/>
<path d="M27.0907 36.1036C25.6807 37.0436 25.6807 38.5836 27.0907 39.5236C28.6907 40.5936 31.3107 40.5936 32.9107 39.5236C34.3207 38.5836 34.3207 37.0436 32.9107 36.1036C31.3207 35.0436 28.6907 35.0436 27.0907 36.1036Z" stroke="white" stroke-width="1.5" stroke-linecap="round" stroke-linejoin="round"/>
</g>
<defs>
<clipPath id="clip0">
<rect width="24" height="24" fill="white" transform="translate(18 18.3242)"/>
</clipPath>
</defs>
</svg>
