<svg width="22" height="22" viewBox="0 0 22 22" fill="none" xmlns="http://www.w3.org/2000/svg">
<g id="Iconly/Light/Delete">
<g id="Delete">
<path id="Stroke 1" d="M17.7145 8.67578C17.7145 8.67578 17.2167 14.8495 16.928 17.4501C16.7905 18.6922 16.0232 19.42 14.7665 19.4429C12.3749 19.486 9.98055 19.4888 7.58989 19.4384C6.3808 19.4136 5.62639 18.6766 5.49164 17.4565C5.20105 14.833 4.70605 8.67578 4.70605 8.67578" stroke="#FF4848" stroke-width="1.5" stroke-linecap="round" stroke-linejoin="round"/>
<path id="Stroke 3" d="M18.9823 5.71615H3.4375" stroke="#FF4848" stroke-width="1.5" stroke-linecap="round" stroke-linejoin="round"/>
<path id="Stroke 5" d="M15.987 5.71778C15.2675 5.71778 14.6478 5.20903 14.5066 4.50411L14.2839 3.38945C14.1464 2.8752 13.6807 2.51953 13.15 2.51953H9.2697C8.73895 2.51953 8.27328 2.8752 8.13578 3.38945L7.91303 4.50411C7.77187 5.20903 7.1522 5.71778 6.43262 5.71778" stroke="#FF4848" stroke-width="1.5" stroke-linecap="round" stroke-linejoin="round"/>
</g>
</g>
</svg>
