<svg width="60" height="60" viewBox="0 0 60 60" fill="none" xmlns="http://www.w3.org/2000/svg">
<circle cx="30" cy="30" r="30" fill="#FF965B"/>
<g clip-path="url(#clip0)">
<path d="M39.4445 33.0071V26.2222C39.443 24.9703 38.945 23.77 38.0597 22.8848C37.1745 21.9995 35.9742 21.5015 34.7223 21.5H25.2778C24.0259 21.5015 22.8256 21.9995 21.9404 22.8848C21.0551 23.77 20.5571 24.9703 20.5556 26.2222V33.0071C19.926 33.2289 19.3951 33.6663 19.0571 34.242C18.7191 34.8177 18.5957 35.4944 18.7089 36.1523C18.822 36.8102 19.1643 37.4068 19.6752 37.8365C20.186 38.2662 20.8325 38.5013 21.5001 38.5H38.5001C39.1676 38.5013 39.8141 38.2662 40.325 37.8365C40.8358 37.4068 41.1781 36.8102 41.2913 36.1523C41.4044 35.4944 41.281 34.8177 40.943 34.242C40.605 33.6663 40.0741 33.2289 39.4445 33.0071ZM25.2778 23.3889H34.7223C35.4737 23.3889 36.1944 23.6874 36.7257 24.2188C37.2571 24.7501 37.5556 25.4708 37.5556 26.2222V32.8333H33.6352C33.3605 32.8331 33.0891 32.8929 32.8399 33.0084C32.5906 33.1239 32.3696 33.2923 32.1921 33.502L31.9588 33.7778H28.0403L27.808 33.502C27.6305 33.2923 27.4095 33.1239 27.1603 33.0084C26.911 32.8929 26.6396 32.8331 26.3649 32.8333H22.4445V26.2222C22.4445 25.4708 22.743 24.7501 23.2744 24.2188C23.8057 23.6874 24.5264 23.3889 25.2778 23.3889ZM38.5001 36.6111H21.5001C21.2496 36.6111 21.0093 36.5116 20.8322 36.3345C20.6551 36.1574 20.5556 35.9171 20.5556 35.6667C20.5556 35.4162 20.6551 35.176 20.8322 34.9988C21.0093 34.8217 21.2496 34.7222 21.5001 34.7222H26.3658L26.5982 34.998C26.7755 35.2076 26.9964 35.3759 27.2455 35.4914C27.4945 35.6069 27.7658 35.6667 28.0403 35.6667H31.9588C32.2335 35.6668 32.505 35.6071 32.7542 35.4916C33.0034 35.3761 33.2245 35.2077 33.4019 34.998L33.6352 34.7222H38.5001C38.7505 34.7222 38.9908 34.8217 39.1679 34.9988C39.345 35.176 39.4445 35.4162 39.4445 35.6667C39.4445 35.9171 39.345 36.1574 39.1679 36.3345C38.9908 36.5116 38.7505 36.6111 38.5001 36.6111Z" fill="white"/>
</g>
<defs>
<clipPath id="clip0">
<rect width="22.6667" height="22.6667" fill="white" transform="translate(18.666 18.668)"/>
</clipPath>
</defs>
</svg>
