<svg width="60" height="60" viewBox="0 0 60 60" fill="none" xmlns="http://www.w3.org/2000/svg">
<circle cx="30" cy="30" r="30" fill="white"/>
<g clip-path="url(#clip0)">
<path d="M29.7367 35.0216C28.8367 35.0216 27.9261 34.7886 27.2167 34.3333L20.8426 30.1721C19.6567 29.3992 18.9473 28.0968 18.9473 26.678C18.9473 25.2592 19.6567 23.9568 20.8426 23.1839L27.2273 19.0333C28.6461 18.1121 30.859 18.1121 32.2673 19.0439L38.6096 23.2051C39.7849 23.978 40.4943 25.2804 40.4943 26.6886C40.4943 28.0968 39.7849 29.3992 38.6096 30.1721L32.2673 34.3333C31.5579 34.7992 30.6473 35.0216 29.7367 35.0216ZM29.7367 19.9333C29.1332 19.9333 28.5296 20.071 28.0955 20.3674L21.7214 24.518C20.9802 25.0051 20.5461 25.7886 20.5461 26.678C20.5461 27.5674 20.9696 28.351 21.7214 28.838L28.0955 32.9992C28.9743 33.571 30.5202 33.571 31.399 32.9992L37.7414 28.838C38.4826 28.351 38.9061 27.5674 38.9061 26.678C38.9061 25.7886 38.4826 25.0051 37.7414 24.518L31.399 20.3568C30.9543 20.0816 30.3508 19.9333 29.7367 19.9333Z" fill="#4F9646"/>
<path d="M29.7253 41.1072C29.2594 41.1072 28.7829 41.0436 28.4017 40.9166L25.0241 39.7942C23.4253 39.2648 22.1653 37.5177 22.1758 35.8342L22.1864 30.8683C22.1864 30.4342 22.5464 30.0742 22.9806 30.0742C23.4147 30.0742 23.7747 30.4342 23.7747 30.8683L23.7641 35.8342C23.7641 36.8295 24.59 37.973 25.5323 38.2907L28.91 39.413C29.3335 39.5507 30.117 39.5507 30.5406 39.413L33.9182 38.2907C34.8606 37.973 35.6864 36.8295 35.6864 35.8448V30.9319C35.6864 30.4977 36.0464 30.1377 36.4806 30.1377C36.9147 30.1377 37.2747 30.4977 37.2747 30.9319V35.8448C37.2747 37.5283 36.0253 39.2648 34.4264 39.8048L31.0488 40.9272C30.6676 41.0436 30.1911 41.1072 29.7253 41.1072Z" fill="#4F9646"/>
<path d="M40.6789 34.6951C40.2448 34.6951 39.8848 34.3351 39.8848 33.901V27.548C39.8848 27.1139 40.2448 26.7539 40.6789 26.7539C41.113 26.7539 41.473 27.1139 41.473 27.548V33.901C41.473 34.3351 41.113 34.6951 40.6789 34.6951Z" fill="#4F9646"/>
</g>
<defs>
<clipPath id="clip0">
<rect width="24" height="24" fill="white" transform="translate(17.666 17.668)"/>
</clipPath>
</defs>
</svg>
