<svg width="370" height="375" viewBox="0 0 370 375" fill="none" xmlns="http://www.w3.org/2000/svg">
<g opacity="0.3">
<path d="M370 362.723H-130V362.973H370V362.723Z" fill="#A6CDA6"/>
<path d="M9.13 374.086H-39.5V374.336H9.13V374.086Z" fill="#A6CDA6"/>
<path d="M79.6907 372.535H64.7207V372.785H79.6907V372.535Z" fill="#A6CDA6"/>
<path d="M146.659 372.535H85.4395V372.785H146.659V372.535Z" fill="#A6CDA6"/>
<path d="M290.671 374.465H233.891V374.715H290.671V374.465Z" fill="#A6CDA6"/>
<path d="M228.329 374.465H213.289V374.715H228.329V374.465Z" fill="#A6CDA6"/>
<path d="M318.56 369.953H305.67V370.203H318.56V369.953Z" fill="#A6CDA6"/>
<path d="M107.001 318.124H-86.0891C-87.6017 318.122 -89.0515 317.519 -90.1202 316.448C-91.1888 315.378 -91.7891 313.927 -91.7891 312.414V40.9842C-91.7759 39.4802 -91.1699 38.0422 -90.1026 36.9824C-89.0354 35.9227 -87.5931 35.3268 -86.0891 35.3242H107.001C108.515 35.3242 109.968 35.9258 111.039 36.9966C112.109 38.0675 112.711 39.5198 112.711 41.0342V312.414C112.711 313.929 112.109 315.381 111.039 316.452C109.968 317.523 108.515 318.124 107.001 318.124ZM-86.0891 35.5242C-87.5354 35.5269 -88.9216 36.1033 -89.9434 37.1269C-90.9652 38.1506 -91.5391 39.5379 -91.5391 40.9842V312.414C-91.5391 313.861 -90.9652 315.248 -89.9434 316.271C-88.9216 317.295 -87.5354 317.872 -86.0891 317.874H107.001C108.448 317.872 109.835 317.295 110.859 316.272C111.882 315.249 112.458 313.861 112.461 312.414V40.9842C112.458 39.5369 111.882 38.1497 110.859 37.1263C109.835 36.103 108.448 35.5269 107.001 35.5242H-86.0891Z" fill="#A6CDA6"/>
<path d="M323.31 318.124H130.21C128.696 318.122 127.246 317.519 126.175 316.449C125.105 315.379 124.503 313.928 124.5 312.414V40.9842C124.516 39.4793 125.124 38.0413 126.193 36.9818C127.262 35.9223 128.705 35.3268 130.21 35.3242H323.31C324.812 35.3294 326.252 35.9265 327.317 36.9859C328.382 38.0454 328.987 39.482 329 40.9842V312.414C329 313.925 328.401 315.374 327.335 316.445C326.268 317.515 324.821 318.119 323.31 318.124ZM130.21 35.5242C128.763 35.5269 127.375 36.103 126.352 37.1263C125.329 38.1497 124.753 39.5369 124.75 40.9842V312.414C124.753 313.861 125.329 315.249 126.352 316.272C127.375 317.295 128.763 317.872 130.21 317.874H323.31C324.757 317.872 326.145 317.295 327.168 316.272C328.191 315.249 328.767 313.861 328.77 312.414V40.9842C328.767 39.5369 328.191 38.1497 327.168 37.1263C326.145 36.103 324.757 35.5269 323.31 35.5242H130.21Z" fill="#A6CDA6"/>
<path d="M370 347.913H301.1C300.357 347.913 299.644 347.618 299.117 347.093C298.59 346.569 298.293 345.856 298.29 345.113V163.943C298.29 163.33 298.047 162.743 297.614 162.309C297.181 161.876 296.593 161.633 295.98 161.633H288.73V161.133H296C296.746 161.133 297.46 161.429 297.987 161.956C298.514 162.483 298.81 163.198 298.81 163.943V345.113C298.813 345.724 299.058 346.309 299.491 346.74C299.923 347.171 300.51 347.413 301.12 347.413H370V347.913Z" fill="#A6CDA6"/>
<path d="M370 344.266H303.44C302.695 344.266 301.98 343.97 301.453 343.443C300.927 342.916 300.63 342.201 300.63 341.456V160.326C300.63 159.715 300.388 159.129 299.957 158.696C299.526 158.263 298.941 158.018 298.33 158.016H288.73V157.516H298.33C299.074 157.518 299.786 157.815 300.311 158.342C300.836 158.869 301.13 159.582 301.13 160.326V341.456C301.133 342.067 301.377 342.653 301.81 343.086C302.243 343.519 302.829 343.763 303.44 343.766H370V344.266Z" fill="#A6CDA6"/>
<path d="M370 340.602H305.78C305.035 340.602 304.32 340.306 303.793 339.779C303.267 339.252 302.97 338.538 302.97 337.792V156.622C302.97 156.012 302.728 155.426 302.297 154.993C301.866 154.56 301.281 154.315 300.67 154.312H288.73V153.812H300.67C301.414 153.815 302.126 154.112 302.651 154.639C303.176 155.166 303.47 155.879 303.47 156.622V337.792C303.473 338.404 303.717 338.99 304.15 339.423C304.583 339.856 305.169 340.1 305.78 340.102H370V340.602Z" fill="#A6CDA6"/>
<path d="M370 336.944H308.12C307.377 336.941 306.665 336.644 306.14 336.118C305.615 335.591 305.32 334.878 305.32 334.134V152.964C305.318 152.353 305.073 151.768 304.64 151.337C304.207 150.906 303.621 150.664 303.01 150.664H288.73V150.164H303C303.744 150.164 304.457 150.459 304.984 150.984C305.511 151.508 305.808 152.221 305.81 152.964V334.134C305.81 334.745 306.052 335.331 306.483 335.764C306.915 336.197 307.5 336.441 308.11 336.444H370V336.944Z" fill="#A6CDA6"/>
<path d="M370 333.326H310.46C309.717 333.323 309.005 333.026 308.48 332.499C307.955 331.972 307.66 331.259 307.66 330.516V149.326C307.66 148.713 307.417 148.125 306.984 147.692C306.551 147.259 305.963 147.016 305.35 147.016H288.73V146.516H305.35C305.719 146.516 306.085 146.588 306.426 146.73C306.767 146.871 307.076 147.078 307.337 147.339C307.598 147.6 307.805 147.909 307.947 148.25C308.088 148.591 308.16 148.957 308.16 149.326V330.476C308.16 331.087 308.402 331.673 308.833 332.105C309.265 332.538 309.85 332.783 310.46 332.786H370V333.326Z" fill="#A6CDA6"/>
<path d="M369.999 329.624H312.809C312.064 329.624 311.349 329.328 310.822 328.801C310.296 328.274 309.999 327.559 309.999 326.814V145.654C309.999 145.041 309.756 144.454 309.323 144.02C308.89 143.587 308.302 143.344 307.689 143.344H288.689V142.844H307.689C308.435 142.844 309.149 143.14 309.676 143.667C310.203 144.194 310.499 144.908 310.499 145.654V326.814C310.498 327.117 310.557 327.418 310.673 327.699C310.788 327.98 310.958 328.235 311.173 328.45C311.388 328.665 311.643 328.835 311.924 328.951C312.205 329.066 312.506 329.125 312.809 329.124H369.999V329.624Z" fill="#A6CDA6"/>
<path d="M370 325.964H315.15C314.407 325.964 313.694 325.669 313.167 325.144C312.64 324.619 312.343 323.907 312.34 323.164V141.994C312.338 141.382 312.094 140.796 311.661 140.363C311.228 139.93 310.642 139.686 310.03 139.684H288.73V139.184H310C310.746 139.184 311.46 139.48 311.987 140.007C312.514 140.534 312.81 141.248 312.81 141.994V323.164C312.81 323.466 312.87 323.766 312.986 324.046C313.103 324.326 313.273 324.58 313.488 324.793C313.702 325.007 313.957 325.176 314.237 325.291C314.517 325.406 314.818 325.465 315.12 325.464H370V325.964Z" fill="#A6CDA6"/>
<path d="M148.839 179.344H87.0391V179.844H148.839V179.344Z" fill="#A6CDA6"/>
<path d="M148.839 175.684H87.0391V176.184H148.839V175.684Z" fill="#A6CDA6"/>
<path d="M148.839 172.023H87.0391V172.523H148.839V172.023Z" fill="#A6CDA6"/>
<path d="M148.839 168.363H87.0391V168.863H148.839V168.363Z" fill="#A6CDA6"/>
<path d="M148.839 164.715H87.0391V165.215H148.839V164.715Z" fill="#A6CDA6"/>
<path d="M148.839 161.055H87.0391V161.555H148.839V161.055Z" fill="#A6CDA6"/>
<path d="M148.839 157.395H87.0391V157.895H148.839V157.395Z" fill="#A6CDA6"/>
<path d="M148.839 303.305H87.0391V303.805H148.839V303.305Z" fill="#A6CDA6"/>
<path d="M148.839 299.645H87.0391V300.145H148.839V299.645Z" fill="#A6CDA6"/>
<path d="M148.839 295.984H87.0391V296.484H148.839V295.984Z" fill="#A6CDA6"/>
<path d="M148.839 292.324H87.0391V292.824H148.839V292.324Z" fill="#A6CDA6"/>
<path d="M148.839 288.664H87.0391V289.164H148.839V288.664Z" fill="#A6CDA6"/>
<path d="M148.839 285.016H87.0391V285.516H148.839V285.016Z" fill="#A6CDA6"/>
<path d="M148.839 281.355H87.0391V281.855H148.839V281.355Z" fill="#A6CDA6"/>
<path d="M67.3994 347.664H-34.0605V362.714H67.3994V347.664Z" fill="#EBEBEB"/>
<path d="M67.4005 362.723H87.9805V347.673H67.4005V362.723Z" fill="#A6CDA6"/>
<path d="M67.4003 81.7031H-40.9297V347.673H67.4003V81.7031Z" fill="#E2F8E0"/>
<path d="M85.7499 79.4258H-31.8301V81.6958H85.7499V79.4258Z" fill="#DCE7DC"/>
<path d="M67.3998 347.664H94.8398L94.8398 81.6941H67.3998L67.3998 347.664Z" fill="#DCE7DC"/>
<path d="M64.1708 84.8828H-37.6992V114.023H64.1708V84.8828Z" fill="#DCE7DC"/>
<path d="M64.1708 315.176H-37.6992V344.316H64.1708V315.176Z" fill="#EBEBEB"/>
<path d="M64.1708 282.273H-37.6992V311.413H64.1708V282.273Z" fill="#EBEBEB"/>
<path d="M64.1708 249.383H-37.6992V278.523H64.1708V249.383Z" fill="#EBEBEB"/>
<path d="M64.1708 216.484H-37.6992V245.624H64.1708V216.484Z" fill="#EBEBEB"/>
<path d="M64.1708 183.586H-37.6992V212.726H64.1708V183.586Z" fill="#EBEBEB"/>
<path d="M64.1708 150.684H-37.6992V179.824H64.1708V150.684Z" fill="#EBEBEB"/>
<path d="M64.1708 117.785H-37.6992V146.925H64.1708V117.785Z" fill="#DCE7DC"/>
<path opacity="0.7" d="M55.9401 89.0547H36.0801C33.7329 89.0547 31.8301 90.9575 31.8301 93.3047V105.625C31.8301 107.972 33.7329 109.875 36.0801 109.875H55.9401C58.2873 109.875 60.1901 107.972 60.1901 105.625V93.3047C60.1901 90.9575 58.2873 89.0547 55.9401 89.0547Z" fill="#ECF3EB"/>
<path d="M56.8809 100.845V98.0847C56.8809 97.3778 56.3078 96.8047 55.6009 96.8047H52.8309C52.1239 96.8047 51.5509 97.3778 51.5509 98.0847V100.845C51.5509 101.552 52.1239 102.125 52.8309 102.125H55.6009C56.3078 102.125 56.8809 101.552 56.8809 100.845Z" fill="#E2F8E0"/>
<path opacity="0.7" d="M55.9401 121.945H36.0801C33.7329 121.945 31.8301 123.848 31.8301 126.195V138.515C31.8301 140.863 33.7329 142.765 36.0801 142.765H55.9401C58.2873 142.765 60.1901 140.863 60.1901 138.515V126.195C60.1901 123.848 58.2873 121.945 55.9401 121.945Z" fill="#ECF3EB"/>
<path d="M56.8789 133.743V130.983C56.8789 130.276 56.3058 129.703 55.5989 129.703H52.8289C52.122 129.703 51.5489 130.276 51.5489 130.983V133.743C51.5489 134.45 52.122 135.023 52.8289 135.023H55.5989C56.3058 135.023 56.8789 134.45 56.8789 133.743Z" fill="#E2F8E0"/>
<path opacity="0.7" d="M55.9401 154.844H36.0801C33.7329 154.844 31.8301 156.747 31.8301 159.094V171.414C31.8301 173.761 33.7329 175.664 36.0801 175.664H55.9401C58.2873 175.664 60.1901 173.761 60.1901 171.414V159.094C60.1901 156.747 58.2873 154.844 55.9401 154.844Z" fill="#ECF3EB"/>
<path d="M56.8789 166.645V163.885C56.8789 163.179 56.3058 162.605 55.5989 162.605H52.8289C52.122 162.605 51.5489 163.179 51.5489 163.885V166.645C51.5489 167.352 52.122 167.925 52.8289 167.925H55.5989C56.3058 167.925 56.8789 167.352 56.8789 166.645Z" fill="#E2F8E0"/>
<path opacity="0.7" d="M55.9401 187.746H36.0801C33.7329 187.746 31.8301 189.649 31.8301 191.996V204.316C31.8301 206.663 33.7329 208.566 36.0801 208.566H55.9401C58.2873 208.566 60.1901 206.663 60.1901 204.316V191.996C60.1901 189.649 58.2873 187.746 55.9401 187.746Z" fill="#ECF3EB"/>
<path d="M56.8789 199.536V196.776C56.8789 196.069 56.3058 195.496 55.5989 195.496H52.8289C52.122 195.496 51.5489 196.069 51.5489 196.776V199.536C51.5489 200.243 52.122 200.816 52.8289 200.816H55.5989C56.3058 200.816 56.8789 200.243 56.8789 199.536Z" fill="#E2F8E0"/>
<path opacity="0.7" d="M55.9401 220.645H36.0801C33.7329 220.645 31.8301 222.547 31.8301 224.895V237.215C31.8301 239.562 33.7329 241.465 36.0801 241.465H55.9401C58.2873 241.465 60.1901 239.562 60.1901 237.215V224.895C60.1901 222.547 58.2873 220.645 55.9401 220.645Z" fill="#ECF3EB"/>
<path d="M56.8809 232.435V229.675C56.8809 228.968 56.3078 228.395 55.6009 228.395H52.8309C52.1239 228.395 51.5509 228.968 51.5509 229.675V232.435C51.5509 233.141 52.1239 233.715 52.8309 233.715H55.6009C56.3078 233.715 56.8809 233.141 56.8809 232.435Z" fill="#E2F8E0"/>
<path opacity="0.7" d="M55.9401 253.543H36.0801C33.7329 253.543 31.8301 255.446 31.8301 257.793V270.113C31.8301 272.46 33.7329 274.363 36.0801 274.363H55.9401C58.2873 274.363 60.1901 272.46 60.1901 270.113V257.793C60.1901 255.446 58.2873 253.543 55.9401 253.543Z" fill="#ECF3EB"/>
<path d="M56.8789 265.333V262.573C56.8789 261.866 56.3058 261.293 55.5989 261.293H52.8289C52.122 261.293 51.5489 261.866 51.5489 262.573V265.333C51.5489 266.04 52.122 266.613 52.8289 266.613H55.5989C56.3058 266.613 56.8789 266.04 56.8789 265.333Z" fill="#E2F8E0"/>
<path opacity="0.7" d="M55.9401 286.445H36.0801C33.7329 286.445 31.8301 288.348 31.8301 290.695V303.015C31.8301 305.363 33.7329 307.265 36.0801 307.265H55.9401C58.2873 307.265 60.1901 305.363 60.1901 303.015V290.695C60.1901 288.348 58.2873 286.445 55.9401 286.445Z" fill="#ECF3EB"/>
<path d="M56.8809 298.235V295.475C56.8809 294.768 56.3078 294.195 55.6008 294.195H52.8308C52.1239 294.195 51.5508 294.768 51.5508 295.475V298.235C51.5508 298.942 52.1239 299.515 52.8308 299.515H55.6008C56.3078 299.515 56.8809 298.942 56.8809 298.235Z" fill="#E2F8E0"/>
<path opacity="0.7" d="M55.9401 319.336H36.0801C33.7329 319.336 31.8301 321.239 31.8301 323.586V335.906C31.8301 338.253 33.7329 340.156 36.0801 340.156H55.9401C58.2873 340.156 60.1901 338.253 60.1901 335.906V323.586C60.1901 321.239 58.2873 319.336 55.9401 319.336Z" fill="#ECF3EB"/>
<path d="M56.8809 331.134V328.374C56.8809 327.667 56.3078 327.094 55.6009 327.094H52.8309C52.1239 327.094 51.5509 327.667 51.5509 328.374V331.134C51.5509 331.841 52.1239 332.414 52.8309 332.414H55.6009C56.3078 332.414 56.8809 331.841 56.8809 331.134Z" fill="#E2F8E0"/>
<path d="M48.6699 100.833V98.073C48.6699 97.366 48.0968 96.793 47.3899 96.793H44.6199C43.913 96.793 43.3399 97.366 43.3399 98.073V100.833C43.3399 101.54 43.913 102.113 44.6199 102.113H47.3899C48.0968 102.113 48.6699 101.54 48.6699 100.833Z" fill="#E2F8E0"/>
<path d="M48.6699 133.735V130.975C48.6699 130.268 48.0968 129.695 47.3899 129.695H44.6199C43.913 129.695 43.3399 130.268 43.3399 130.975V133.735C43.3399 134.442 43.913 135.015 44.6199 135.015H47.3899C48.0968 135.015 48.6699 134.442 48.6699 133.735Z" fill="#E2F8E0"/>
<path d="M48.6699 166.634V163.874C48.6699 163.167 48.0968 162.594 47.3899 162.594H44.6199C43.913 162.594 43.3399 163.167 43.3399 163.874V166.634C43.3399 167.341 43.913 167.914 44.6199 167.914H47.3899C48.0968 167.914 48.6699 167.341 48.6699 166.634Z" fill="#E2F8E0"/>
<path d="M48.6699 199.536V196.776C48.6699 196.069 48.0968 195.496 47.3899 195.496H44.6199C43.913 195.496 43.3399 196.069 43.3399 196.776V199.536C43.3399 200.243 43.913 200.816 44.6199 200.816H47.3899C48.0968 200.816 48.6699 200.243 48.6699 199.536Z" fill="#E2F8E0"/>
<path d="M48.6797 232.435V229.675C48.6797 228.968 48.1066 228.395 47.3997 228.395H44.6297C43.9228 228.395 43.3497 228.968 43.3497 229.675V232.435C43.3497 233.141 43.9228 233.715 44.6297 233.715H47.3997C48.1066 233.715 48.6797 233.141 48.6797 232.435Z" fill="#E2F8E0"/>
<path d="M48.6797 265.333V262.573C48.6797 261.866 48.1066 261.293 47.3997 261.293H44.6297C43.9227 261.293 43.3497 261.866 43.3497 262.573V265.333C43.3497 266.04 43.9227 266.613 44.6297 266.613H47.3997C48.1066 266.613 48.6797 266.04 48.6797 265.333Z" fill="#E2F8E0"/>
<path d="M48.6699 298.224V295.464C48.6699 294.757 48.0968 294.184 47.3899 294.184H44.6199C43.913 294.184 43.3399 294.757 43.3399 295.464V298.224C43.3399 298.931 43.913 299.504 44.6199 299.504H47.3899C48.0968 299.504 48.6699 298.931 48.6699 298.224Z" fill="#E2F8E0"/>
<path d="M48.6699 331.126V328.366C48.6699 327.659 48.0968 327.086 47.3899 327.086H44.6199C43.913 327.086 43.3399 327.659 43.3399 328.366V331.126C43.3399 331.833 43.913 332.406 44.6199 332.406H47.3899C48.0968 332.406 48.6699 331.833 48.6699 331.126Z" fill="#E2F8E0"/>
<path d="M21.6002 102.814C23.4559 102.814 24.9602 101.309 24.9602 99.4538C24.9602 97.5981 23.4559 96.0938 21.6002 96.0938C19.7446 96.0938 18.2402 97.5981 18.2402 99.4538C18.2402 101.309 19.7446 102.814 21.6002 102.814Z" fill="#E2F8E0"/>
<path d="M15.3591 99.4538C15.3611 100.121 15.1651 100.773 14.7961 101.329C14.427 101.884 13.9013 102.318 13.2857 102.574C12.6701 102.831 11.9922 102.899 11.3378 102.77C10.6835 102.641 10.082 102.321 9.60974 101.85C9.13744 101.379 8.81548 100.779 8.68463 100.125C8.55379 99.4709 8.61994 98.7928 8.87471 98.1764C9.12948 97.5601 9.56142 97.0331 10.1158 96.6624C10.6702 96.2917 11.3222 96.0938 11.9891 96.0938C12.8812 96.0937 13.7368 96.4474 14.3685 97.0773C15.0003 97.7071 15.3565 98.5617 15.3591 99.4538Z" fill="#E2F8E0"/>
<path d="M5.74976 99.4538C5.75173 100.121 5.55577 100.773 5.18668 101.329C4.81758 101.884 4.29196 102.318 3.67635 102.574C3.06074 102.831 2.38283 102.899 1.72845 102.77C1.07408 102.641 0.472669 102.321 0.000365555 101.85C-0.471938 101.379 -0.7939 100.779 -0.924744 100.125C-1.05559 99.4709 -0.989436 98.7928 -0.734666 98.1764C-0.479895 97.5601 -0.0479546 97.0331 0.506454 96.6624C1.06086 96.2917 1.71281 96.0938 2.37976 96.0938C3.27181 96.0937 4.12746 96.4474 4.75917 97.0773C5.39088 97.7071 5.74711 98.5617 5.74976 99.4538Z" fill="#E2F8E0"/>
<path d="M21.6002 135.716C23.4559 135.716 24.9602 134.212 24.9602 132.356C24.9602 130.5 23.4559 128.996 21.6002 128.996C19.7446 128.996 18.2402 130.5 18.2402 132.356C18.2402 134.212 19.7446 135.716 21.6002 135.716Z" fill="#E2F8E0"/>
<path d="M15.3591 132.325C15.3611 132.992 15.1651 133.644 14.7961 134.2C14.427 134.755 13.9013 135.189 13.2857 135.445C12.6701 135.702 11.9922 135.77 11.3378 135.641C10.6835 135.512 10.082 135.192 9.60974 134.721C9.13744 134.25 8.81548 133.65 8.68463 132.996C8.55379 132.342 8.61994 131.664 8.87471 131.048C9.12948 130.431 9.56142 129.904 10.1158 129.533C10.6702 129.163 11.3222 128.965 11.9891 128.965C12.8812 128.965 13.7368 129.319 14.3685 129.948C15.0003 130.578 15.3565 131.433 15.3591 132.325Z" fill="#E2F8E0"/>
<path d="M5.74976 132.325C5.75173 132.992 5.55577 133.644 5.18668 134.2C4.81758 134.755 4.29196 135.189 3.67635 135.445C3.06074 135.702 2.38283 135.77 1.72845 135.641C1.07408 135.512 0.472669 135.192 0.000365555 134.721C-0.471938 134.25 -0.7939 133.65 -0.924744 132.996C-1.05559 132.342 -0.989436 131.664 -0.734666 131.048C-0.479895 130.431 -0.0479546 129.904 0.506454 129.533C1.06086 129.163 1.71281 128.965 2.37976 128.965C3.27181 128.965 4.12746 129.319 4.75917 129.948C5.39088 130.578 5.74711 131.433 5.74976 132.325Z" fill="#E2F8E0"/>
<path d="M24.9998 165.255C25.0017 165.921 24.8058 166.574 24.4367 167.13C24.0676 167.685 23.542 168.119 22.9263 168.375C22.3107 168.632 21.6328 168.7 20.9785 168.571C20.3241 168.442 19.7227 168.122 19.2504 167.651C18.7781 167.18 18.4561 166.58 18.3253 165.926C18.1944 165.272 18.2606 164.594 18.5153 163.977C18.7701 163.361 19.202 162.834 19.7565 162.463C20.3109 162.092 20.9628 161.895 21.6298 161.895C22.0718 161.893 22.5098 161.979 22.9186 162.147C23.3274 162.316 23.699 162.563 24.0121 162.875C24.3252 163.187 24.5736 163.558 24.743 163.966C24.9125 164.375 24.9998 164.812 24.9998 165.255Z" fill="#E2F8E0"/>
<path d="M15.3591 165.255C15.3611 165.921 15.1651 166.574 14.7961 167.13C14.427 167.685 13.9013 168.119 13.2857 168.375C12.6701 168.632 11.9922 168.7 11.3378 168.571C10.6835 168.442 10.082 168.122 9.60974 167.651C9.13744 167.18 8.81548 166.58 8.68463 165.926C8.55379 165.272 8.61994 164.594 8.87471 163.977C9.12948 163.361 9.56142 162.834 10.1158 162.463C10.6702 162.092 11.3222 161.895 11.9891 161.895C12.4312 161.893 12.8692 161.979 13.278 162.147C13.6868 162.316 14.0584 162.563 14.3715 162.875C14.6845 163.187 14.9329 163.558 15.1024 163.966C15.2719 164.375 15.3591 164.812 15.3591 165.255Z" fill="#E2F8E0"/>
<path d="M5.74976 165.255C5.75173 165.921 5.55577 166.574 5.18668 167.13C4.81758 167.685 4.29196 168.119 3.67635 168.375C3.06074 168.632 2.38283 168.7 1.72845 168.571C1.07408 168.442 0.472669 168.122 0.000365555 167.651C-0.471938 167.18 -0.7939 166.58 -0.924744 165.926C-1.05559 165.272 -0.989436 164.594 -0.734666 163.977C-0.479895 163.361 -0.0479546 162.834 0.506454 162.463C1.06086 162.092 1.71281 161.895 2.37976 161.895C2.82184 161.893 3.25983 161.979 3.66864 162.147C4.07745 162.316 4.44903 162.563 4.7621 162.875C5.07516 163.187 5.32356 163.558 5.49304 163.966C5.66252 164.375 5.74976 164.812 5.74976 165.255Z" fill="#E2F8E0"/>
<path d="M24.9998 198.153C25.0017 198.82 24.8058 199.472 24.4367 200.028C24.0676 200.583 23.542 201.017 22.9263 201.274C22.3107 201.53 21.6328 201.598 20.9785 201.469C20.3241 201.341 19.7227 201.02 19.2504 200.549C18.7781 200.079 18.4561 199.478 18.3253 198.824C18.1944 198.17 18.2606 197.492 18.5153 196.876C18.7701 196.259 19.202 195.732 19.7565 195.362C20.3109 194.991 20.9628 194.793 21.6298 194.793C22.0718 194.792 22.5098 194.878 22.9186 195.046C23.3274 195.214 23.699 195.461 24.0121 195.774C24.3252 196.086 24.5736 196.457 24.743 196.865C24.9125 197.273 24.9998 197.711 24.9998 198.153Z" fill="#E2F8E0"/>
<path d="M15.3611 198.153C15.3631 198.82 15.1671 199.472 14.798 200.028C14.4289 200.583 13.9033 201.017 13.2877 201.274C12.6721 201.53 11.9942 201.598 11.3398 201.469C10.6854 201.341 10.084 201.02 9.61169 200.549C9.13939 200.079 8.81743 199.478 8.68658 198.824C8.55574 198.17 8.62189 197.492 8.87666 196.876C9.13143 196.259 9.56337 195.732 10.1178 195.362C10.6722 194.991 11.3241 194.793 11.9911 194.793C12.4332 194.792 12.8712 194.878 13.28 195.046C13.6888 195.214 14.0604 195.461 14.3734 195.774C14.6865 196.086 14.9349 196.457 15.1044 196.865C15.2739 197.273 15.3611 197.711 15.3611 198.153Z" fill="#E2F8E0"/>
<path d="M5.74976 198.153C5.75173 198.82 5.55577 199.472 5.18668 200.028C4.81758 200.583 4.29196 201.017 3.67635 201.274C3.06074 201.53 2.38283 201.598 1.72845 201.469C1.07408 201.341 0.472669 201.02 0.000365555 200.549C-0.471938 200.079 -0.7939 199.478 -0.924744 198.824C-1.05559 198.17 -0.989436 197.492 -0.734666 196.876C-0.479895 196.259 -0.0479546 195.732 0.506454 195.362C1.06086 194.991 1.71281 194.793 2.37976 194.793C2.82184 194.792 3.25983 194.878 3.66864 195.046C4.07745 195.214 4.44903 195.461 4.7621 195.774C5.07516 196.086 5.32356 196.457 5.49304 196.865C5.66252 197.273 5.74976 197.711 5.74976 198.153Z" fill="#E2F8E0"/>
<path d="M24.9998 231.054C24.9998 231.72 24.8021 232.372 24.4318 232.926C24.0615 233.48 23.5352 233.912 22.9194 234.167C22.3036 234.422 21.626 234.489 20.9723 234.359C20.3186 234.229 19.7181 233.908 19.2468 233.437C18.7755 232.965 18.4546 232.365 18.3245 231.711C18.1945 231.057 18.2612 230.38 18.5163 229.764C18.7714 229.148 19.2033 228.622 19.7575 228.252C20.3117 227.881 20.9632 227.684 21.6298 227.684C22.0727 227.682 22.5115 227.769 22.921 227.937C23.3304 228.106 23.7025 228.355 24.0157 228.668C24.3289 228.981 24.577 229.353 24.7459 229.762C24.9148 230.172 25.0011 230.611 24.9998 231.054Z" fill="#E2F8E0"/>
<path d="M15.3591 231.054C15.3591 231.72 15.1615 232.372 14.7912 232.926C14.4209 233.48 13.8946 233.912 13.2788 234.167C12.663 234.422 11.9854 234.489 11.3317 234.359C10.678 234.229 10.0775 233.908 9.6062 233.437C9.13489 232.965 8.81393 232.365 8.6839 231.711C8.55386 231.057 8.6206 230.38 8.87567 229.764C9.13074 229.148 9.56267 228.622 10.1169 228.252C10.6711 227.881 11.3226 227.684 11.9891 227.684C12.4321 227.682 12.8709 227.769 13.2803 227.937C13.6898 228.106 14.0618 228.355 14.375 228.668C14.6882 228.981 14.9364 229.353 15.1053 229.762C15.2742 230.172 15.3605 230.611 15.3591 231.054Z" fill="#E2F8E0"/>
<path d="M5.74977 231.054C5.74977 231.72 5.55212 232.372 5.18182 232.926C4.81152 233.48 4.2852 233.912 3.66941 234.167C3.05363 234.422 2.37603 234.489 1.72232 234.359C1.0686 234.229 0.468126 233.908 -0.00317705 233.437C-0.47448 232.965 -0.795447 232.365 -0.925479 231.711C-1.05551 231.057 -0.988774 230.38 -0.733707 229.764C-0.478639 229.148 -0.0467048 228.622 0.507489 228.252C1.06168 227.881 1.71325 227.684 2.37977 227.684C2.8227 227.682 3.26151 227.769 3.67097 227.937C4.08043 228.106 4.45247 228.355 4.76567 228.668C5.07886 228.981 5.32705 229.353 5.49594 229.762C5.66483 230.172 5.75109 230.611 5.74977 231.054Z" fill="#E2F8E0"/>
<path d="M24.9998 263.956C24.9998 264.622 24.8021 265.274 24.4318 265.828C24.0615 266.382 23.5352 266.814 22.9194 267.069C22.3036 267.324 21.626 267.391 20.9723 267.261C20.3186 267.131 19.7181 266.81 19.2468 266.339C18.7755 265.868 18.4546 265.267 18.3245 264.613C18.1945 263.96 18.2612 263.282 18.5163 262.666C18.7714 262.051 19.2033 261.524 19.7575 261.154C20.3117 260.784 20.9632 260.586 21.6298 260.586C22.5236 260.586 23.3807 260.941 24.0127 261.573C24.6447 262.205 24.9998 263.062 24.9998 263.956Z" fill="#E2F8E0"/>
<path d="M15.3611 263.956C15.3611 264.622 15.1634 265.274 14.7931 265.828C14.4228 266.382 13.8965 266.814 13.2807 267.069C12.665 267.324 11.9874 267.391 11.3336 267.261C10.6799 267.131 10.0795 266.81 9.60815 266.339C9.13685 265.868 8.81588 265.267 8.68585 264.613C8.55582 263.96 8.62255 263.282 8.87762 262.666C9.13269 262.051 9.56462 261.524 10.1188 261.154C10.673 260.784 11.3246 260.586 11.9911 260.586C12.8849 260.586 13.7421 260.941 14.3741 261.573C15.006 262.205 15.3611 263.062 15.3611 263.956Z" fill="#E2F8E0"/>
<path d="M5.74977 263.956C5.74977 264.622 5.55212 265.274 5.18182 265.828C4.81152 266.382 4.2852 266.814 3.66941 267.069C3.05363 267.324 2.37603 267.391 1.72232 267.261C1.0686 267.131 0.468126 266.81 -0.00317705 266.339C-0.47448 265.868 -0.795447 265.267 -0.925479 264.613C-1.05551 263.96 -0.988774 263.282 -0.733707 262.666C-0.478639 262.051 -0.0467048 261.524 0.507489 261.154C1.06168 260.784 1.71325 260.586 2.37977 260.586C3.27355 260.586 4.13072 260.941 4.76272 261.573C5.39472 262.205 5.74977 263.062 5.74977 263.956Z" fill="#E2F8E0"/>
<path d="M21.6002 300.204C23.4559 300.204 24.9602 298.7 24.9602 296.844C24.9602 294.989 23.4559 293.484 21.6002 293.484C19.7446 293.484 18.2402 294.989 18.2402 296.844C18.2402 298.7 19.7446 300.204 21.6002 300.204Z" fill="#E2F8E0"/>
<path d="M15.3591 296.844C15.3611 297.511 15.1651 298.164 14.7961 298.719C14.427 299.275 13.9013 299.708 13.2857 299.965C12.6701 300.222 11.9922 300.29 11.3378 300.161C10.6835 300.032 10.082 299.712 9.60974 299.241C9.13744 298.77 8.81548 298.169 8.68463 297.516C8.55379 296.862 8.61994 296.183 8.87471 295.567C9.12948 294.951 9.56142 294.424 10.1158 294.053C10.6702 293.682 11.3222 293.484 11.9891 293.484C12.8812 293.484 13.7368 293.838 14.3685 294.468C15.0003 295.098 15.3565 295.952 15.3591 296.844Z" fill="#E2F8E0"/>
<path d="M5.74976 296.844C5.75173 297.511 5.55577 298.164 5.18668 298.719C4.81758 299.275 4.29196 299.708 3.67635 299.965C3.06074 300.222 2.38283 300.29 1.72845 300.161C1.07408 300.032 0.472669 299.712 0.000365555 299.241C-0.471938 298.77 -0.7939 298.169 -0.924744 297.516C-1.05559 296.862 -0.989436 296.183 -0.734666 295.567C-0.479895 294.951 -0.0479546 294.424 0.506454 294.053C1.06086 293.682 1.71281 293.484 2.37976 293.484C3.27181 293.484 4.12746 293.838 4.75917 294.468C5.39088 295.098 5.74711 295.952 5.74976 296.844Z" fill="#E2F8E0"/>
<path d="M21.6002 333.103C23.4559 333.103 24.9602 331.599 24.9602 329.743C24.9602 327.887 23.4559 326.383 21.6002 326.383C19.7446 326.383 18.2402 327.887 18.2402 329.743C18.2402 331.599 19.7446 333.103 21.6002 333.103Z" fill="#E2F8E0"/>
<path d="M15.3611 329.743C15.3631 330.41 15.1671 331.062 14.798 331.618C14.4289 332.173 13.9033 332.607 13.2877 332.863C12.6721 333.12 11.9942 333.188 11.3398 333.059C10.6854 332.93 10.084 332.61 9.61169 332.139C9.13939 331.668 8.81743 331.068 8.68658 330.414C8.55574 329.76 8.62189 329.082 8.87666 328.465C9.13143 327.849 9.56337 327.322 10.1178 326.951C10.6722 326.581 11.3241 326.383 11.9911 326.383C12.8831 326.383 13.7388 326.736 14.3705 327.366C15.0022 327.996 15.3584 328.851 15.3611 329.743Z" fill="#E2F8E0"/>
<path d="M5.74976 329.743C5.75173 330.41 5.55577 331.062 5.18668 331.618C4.81758 332.173 4.29196 332.607 3.67635 332.863C3.06074 333.12 2.38283 333.188 1.72845 333.059C1.07408 332.93 0.472669 332.61 0.000365555 332.139C-0.471938 331.668 -0.7939 331.068 -0.924744 330.414C-1.05559 329.76 -0.989436 329.082 -0.734666 328.465C-0.479895 327.849 -0.0479546 327.322 0.506454 326.951C1.06086 326.581 1.71281 326.383 2.37976 326.383C3.27181 326.383 4.12746 326.736 4.75917 327.366C5.39088 327.996 5.74711 328.851 5.74976 329.743Z" fill="#E2F8E0"/>
<path d="M262.679 348.914H145.369V362.724H262.679V348.914Z" fill="#E2F8E0"/>
<path d="M262.681 362.723H282.221V348.913H262.681V362.723Z" fill="#A6CDA6"/>
<path d="M262.67 104.973H138.85V348.913H262.67V104.973Z" fill="#E2F8E0"/>
<path d="M280.09 102.883H147.49V104.973H280.09V102.883Z" fill="#EBEBEB"/>
<path d="M262.67 348.914H288.73L288.73 104.974H262.67V348.914Z" fill="#DCE7DC"/>
<path d="M141.919 134.625L259.609 134.625V107.895L141.919 107.895V134.625Z" fill="#DCE7DC"/>
<path d="M141.919 345.844H259.609V319.114H141.919V345.844Z" fill="#DCE7DC"/>
<path d="M141.919 315.664H259.609V288.934H141.919V315.664Z" fill="#DCE7DC"/>
<path d="M141.919 285.496H259.609V258.766H141.919V285.496Z" fill="#DCE7DC"/>
<path d="M141.919 255.313L259.609 255.312V228.583H141.919V255.313Z" fill="#DCE7DC"/>
<path d="M141.919 225.152L259.609 225.152V198.422H141.919V225.152Z" fill="#DCE7DC"/>
<path d="M141.919 194.973L259.609 194.973V168.243H141.919V194.973Z" fill="#DCE7DC"/>
<path d="M141.919 164.805L259.609 164.805V138.075H141.919V164.805Z" fill="#DCE7DC"/>
<path d="M149.659 130.805H206.309C208.502 130.805 210.279 129.027 210.279 126.835V115.685C210.279 113.492 208.502 111.715 206.309 111.715H149.659C147.467 111.715 145.689 113.492 145.689 115.685V126.835C145.689 129.027 147.467 130.805 149.659 130.805Z" fill="#A6CDA6"/>
<path d="M153.891 122.514V120.014C153.891 119.357 153.358 118.824 152.701 118.824H150.021C149.363 118.824 148.831 119.357 148.831 120.014V122.514C148.831 123.171 149.363 123.704 150.021 123.704H152.701C153.358 123.704 153.891 123.171 153.891 122.514Z" fill="#E2F8E0"/>
<path d="M149.659 160.984H206.309C208.502 160.984 210.279 159.207 210.279 157.014V145.864C210.279 143.672 208.502 141.894 206.309 141.894H149.659C147.467 141.894 145.689 143.672 145.689 145.864V157.014C145.689 159.207 147.467 160.984 149.659 160.984Z" fill="#A6CDA6"/>
<path d="M153.9 152.686V150.186C153.9 149.529 153.368 148.996 152.71 148.996H150.03C149.373 148.996 148.84 149.529 148.84 150.186V152.686C148.84 153.343 149.373 153.876 150.03 153.876H152.71C153.368 153.876 153.9 153.343 153.9 152.686Z" fill="#E2F8E0"/>
<path d="M149.659 191.152H206.309C208.502 191.152 210.279 189.375 210.279 187.182V176.032C210.279 173.84 208.502 172.062 206.309 172.062H149.659C147.467 172.062 145.689 173.84 145.689 176.032V187.182C145.689 189.375 147.467 191.152 149.659 191.152Z" fill="#A6CDA6"/>
<path d="M153.9 182.866V180.366C153.9 179.709 153.368 179.176 152.71 179.176H150.03C149.373 179.176 148.84 179.709 148.84 180.366V182.866C148.84 183.523 149.373 184.056 150.03 184.056H152.71C153.368 184.056 153.9 183.523 153.9 182.866Z" fill="#E2F8E0"/>
<path d="M149.659 221.336H206.309C208.502 221.336 210.279 219.559 210.279 217.366V206.216C210.279 204.023 208.502 202.246 206.309 202.246H149.659C147.467 202.246 145.689 204.023 145.689 206.216V217.366C145.689 219.559 147.467 221.336 149.659 221.336Z" fill="#A6CDA6"/>
<path d="M153.891 213.034V210.534C153.891 209.877 153.358 209.344 152.701 209.344H150.021C149.363 209.344 148.831 209.877 148.831 210.534V213.034C148.831 213.691 149.363 214.224 150.021 214.224H152.701C153.358 214.224 153.891 213.691 153.891 213.034Z" fill="#E2F8E0"/>
<path d="M149.659 251.504H206.309C208.502 251.504 210.279 249.726 210.279 247.534V236.384C210.279 234.191 208.502 232.414 206.309 232.414H149.659C147.467 232.414 145.689 234.191 145.689 236.384V247.534C145.689 249.726 147.467 251.504 149.659 251.504Z" fill="#A6CDA6"/>
<path d="M153.9 243.206V240.706C153.9 240.048 153.368 239.516 152.71 239.516H150.03C149.373 239.516 148.84 240.048 148.84 240.706V243.206C148.84 243.863 149.373 244.396 150.03 244.396H152.71C153.368 244.396 153.9 243.863 153.9 243.206Z" fill="#E2F8E0"/>
<path d="M149.659 281.676H206.309C208.502 281.676 210.279 279.898 210.279 277.706V266.556C210.279 264.363 208.502 262.586 206.309 262.586H149.659C147.467 262.586 145.689 264.363 145.689 266.556V277.706C145.689 279.898 147.467 281.676 149.659 281.676Z" fill="#A6CDA6"/>
<path d="M153.891 273.385V270.885C153.891 270.228 153.358 269.695 152.701 269.695H150.021C149.363 269.695 148.831 270.228 148.831 270.885V273.385C148.831 274.043 149.363 274.575 150.021 274.575H152.701C153.358 274.575 153.891 274.043 153.891 273.385Z" fill="#E2F8E0"/>
<path d="M149.659 311.855H206.309C208.502 311.855 210.279 310.078 210.279 307.885V296.735C210.279 294.543 208.502 292.765 206.309 292.765H149.659C147.467 292.765 145.689 294.543 145.689 296.735V307.885C145.689 310.078 147.467 311.855 149.659 311.855Z" fill="#A6CDA6"/>
<path d="M153.9 303.553V301.053C153.9 300.396 153.368 299.863 152.71 299.863H150.03C149.373 299.863 148.84 300.396 148.84 301.053V303.553C148.84 304.211 149.373 304.743 150.03 304.743H152.71C153.368 304.743 153.9 304.211 153.9 303.553Z" fill="#E2F8E0"/>
<path d="M149.659 342.023H206.309C208.502 342.023 210.279 340.246 210.279 338.053V326.903C210.279 324.711 208.502 322.933 206.309 322.933H149.659C147.467 322.933 145.689 324.711 145.689 326.903V338.053C145.689 340.246 147.467 342.023 149.659 342.023Z" fill="#A6CDA6"/>
<path d="M153.9 333.733V331.233C153.9 330.576 153.368 330.043 152.71 330.043H150.03C149.373 330.043 148.84 330.576 148.84 331.233V333.733C148.84 334.39 149.373 334.923 150.03 334.923H152.71C153.368 334.923 153.9 334.39 153.9 333.733Z" fill="#E2F8E0"/>
<path d="M161.68 122.514V120.014C161.68 119.357 161.147 118.824 160.49 118.824H157.81C157.152 118.824 156.62 119.357 156.62 120.014V122.514C156.62 123.171 157.152 123.704 157.81 123.704H160.49C161.147 123.704 161.68 123.171 161.68 122.514Z" fill="#E2F8E0"/>
<path d="M161.689 152.686V150.186C161.689 149.529 161.157 148.996 160.499 148.996H157.819C157.162 148.996 156.629 149.529 156.629 150.186V152.686C156.629 153.343 157.162 153.876 157.819 153.876H160.499C161.157 153.876 161.689 153.343 161.689 152.686Z" fill="#E2F8E0"/>
<path d="M161.689 182.866V180.366C161.689 179.709 161.157 179.176 160.499 179.176H157.819C157.162 179.176 156.629 179.709 156.629 180.366V182.866C156.629 183.523 157.162 184.056 157.819 184.056H160.499C161.157 184.056 161.689 183.523 161.689 182.866Z" fill="#E2F8E0"/>
<path d="M161.689 213.034V210.534C161.689 209.877 161.157 209.344 160.499 209.344H157.819C157.162 209.344 156.629 209.877 156.629 210.534V213.034C156.629 213.691 157.162 214.224 157.819 214.224H160.499C161.157 214.224 161.689 213.691 161.689 213.034Z" fill="#E2F8E0"/>
<path d="M161.689 243.206V240.706C161.689 240.048 161.157 239.516 160.499 239.516H157.819C157.162 239.516 156.629 240.048 156.629 240.706V243.206C156.629 243.863 157.162 244.396 157.819 244.396H160.499C161.157 244.396 161.689 243.863 161.689 243.206Z" fill="#E2F8E0"/>
<path d="M161.68 273.385V270.885C161.68 270.228 161.147 269.695 160.49 269.695H157.81C157.152 269.695 156.62 270.228 156.62 270.885V273.385C156.62 274.043 157.152 274.575 157.81 274.575H160.49C161.147 274.575 161.68 274.043 161.68 273.385Z" fill="#E2F8E0"/>
<path d="M161.689 303.553V301.053C161.689 300.396 161.157 299.863 160.499 299.863H157.819C157.162 299.863 156.629 300.396 156.629 301.053V303.553C156.629 304.211 157.162 304.743 157.819 304.743H160.499C161.157 304.743 161.689 304.211 161.689 303.553Z" fill="#E2F8E0"/>
<path d="M161.689 333.733V331.233C161.689 330.576 161.157 330.043 160.499 330.043H157.819C157.162 330.043 156.629 330.576 156.629 331.233V333.733C156.629 334.39 157.162 334.923 157.819 334.923H160.499C161.157 334.923 161.689 334.39 161.689 333.733Z" fill="#E2F8E0"/>
<path d="M169.471 122.514V120.014C169.471 119.357 168.938 118.824 168.281 118.824H165.601C164.943 118.824 164.411 119.357 164.411 120.014V122.514C164.411 123.171 164.943 123.704 165.601 123.704H168.281C168.938 123.704 169.471 123.171 169.471 122.514Z" fill="#E2F8E0"/>
<path d="M169.48 152.686V150.186C169.48 149.529 168.948 148.996 168.29 148.996H165.61C164.953 148.996 164.42 149.529 164.42 150.186V152.686C164.42 153.343 164.953 153.876 165.61 153.876H168.29C168.948 153.876 169.48 153.343 169.48 152.686Z" fill="#E2F8E0"/>
<path d="M169.48 182.854V180.354C169.48 179.697 168.948 179.164 168.29 179.164H165.61C164.953 179.164 164.42 179.697 164.42 180.354V182.854C164.42 183.511 164.953 184.044 165.61 184.044H168.29C168.948 184.044 169.48 183.511 169.48 182.854Z" fill="#E2F8E0"/>
<path d="M169.48 213.034V210.534C169.48 209.877 168.948 209.344 168.29 209.344H165.61C164.953 209.344 164.42 209.877 164.42 210.534V213.034C164.42 213.691 164.953 214.224 165.61 214.224H168.29C168.948 214.224 169.48 213.691 169.48 213.034Z" fill="#E2F8E0"/>
<path d="M169.48 243.206V240.706C169.48 240.048 168.948 239.516 168.29 239.516H165.61C164.953 239.516 164.42 240.048 164.42 240.706V243.206C164.42 243.863 164.953 244.396 165.61 244.396H168.29C168.948 244.396 169.48 243.863 169.48 243.206Z" fill="#E2F8E0"/>
<path d="M169.471 273.385V270.885C169.471 270.228 168.938 269.695 168.281 269.695H165.601C164.943 269.695 164.411 270.228 164.411 270.885V273.385C164.411 274.043 164.943 274.575 165.601 274.575H168.281C168.938 274.575 169.471 274.043 169.471 273.385Z" fill="#E2F8E0"/>
<path d="M169.48 303.553V301.053C169.48 300.396 168.948 299.863 168.29 299.863H165.61C164.953 299.863 164.42 300.396 164.42 301.053V303.553C164.42 304.211 164.953 304.743 165.61 304.743H168.29C168.948 304.743 169.48 304.211 169.48 303.553Z" fill="#E2F8E0"/>
<path d="M169.48 333.725V331.225C169.48 330.568 168.948 330.035 168.29 330.035H165.61C164.953 330.035 164.42 330.568 164.42 331.225V333.725C164.42 334.382 164.953 334.915 165.61 334.915H168.29C168.948 334.915 169.48 334.382 169.48 333.725Z" fill="#E2F8E0"/>
<path d="M177.27 122.514V120.014C177.27 119.357 176.737 118.824 176.08 118.824H173.4C172.742 118.824 172.21 119.357 172.21 120.014V122.514C172.21 123.171 172.742 123.704 173.4 123.704H176.08C176.737 123.704 177.27 123.171 177.27 122.514Z" fill="#E2F8E0"/>
<path d="M177.27 152.686V150.186C177.27 149.529 176.737 148.996 176.08 148.996H173.4C172.742 148.996 172.21 149.529 172.21 150.186V152.686C172.21 153.343 172.742 153.876 173.4 153.876H176.08C176.737 153.876 177.27 153.343 177.27 152.686Z" fill="#E2F8E0"/>
<path d="M177.27 182.854V180.354C177.27 179.697 176.737 179.164 176.08 179.164H173.4C172.742 179.164 172.21 179.697 172.21 180.354V182.854C172.21 183.511 172.742 184.044 173.4 184.044H176.08C176.737 184.044 177.27 183.511 177.27 182.854Z" fill="#E2F8E0"/>
<path d="M177.27 213.034V210.534C177.27 209.877 176.737 209.344 176.08 209.344H173.4C172.742 209.344 172.21 209.877 172.21 210.534V213.034C172.21 213.691 172.742 214.224 173.4 214.224H176.08C176.737 214.224 177.27 213.691 177.27 213.034Z" fill="#E2F8E0"/>
<path d="M177.27 243.206V240.706C177.27 240.048 176.737 239.516 176.08 239.516H173.4C172.742 239.516 172.21 240.048 172.21 240.706V243.206C172.21 243.863 172.742 244.396 173.4 244.396H176.08C176.737 244.396 177.27 243.863 177.27 243.206Z" fill="#E2F8E0"/>
<path d="M177.27 273.385V270.885C177.27 270.228 176.737 269.695 176.08 269.695H173.4C172.742 269.695 172.21 270.228 172.21 270.885V273.385C172.21 274.043 172.742 274.575 173.4 274.575H176.08C176.737 274.575 177.27 274.043 177.27 273.385Z" fill="#E2F8E0"/>
<path d="M177.27 303.553V301.053C177.27 300.396 176.737 299.863 176.08 299.863H173.4C172.742 299.863 172.21 300.396 172.21 301.053V303.553C172.21 304.211 172.742 304.743 173.4 304.743H176.08C176.737 304.743 177.27 304.211 177.27 303.553Z" fill="#E2F8E0"/>
<path d="M177.27 333.725V331.225C177.27 330.568 176.737 330.035 176.08 330.035H173.4C172.742 330.035 172.21 330.568 172.21 331.225V333.725C172.21 334.382 172.742 334.915 173.4 334.915H176.08C176.737 334.915 177.27 334.382 177.27 333.725Z" fill="#E2F8E0"/>
<path d="M216.801 121.262C216.779 121.9 216.948 122.529 217.286 123.069C217.624 123.61 218.116 124.037 218.698 124.296C219.28 124.555 219.927 124.635 220.555 124.524C221.183 124.413 221.763 124.117 222.222 123.674C222.68 123.232 222.996 122.662 223.129 122.038C223.261 121.415 223.205 120.766 222.966 120.175C222.728 119.583 222.318 119.077 221.789 118.72C221.261 118.364 220.638 118.173 220.001 118.172C219.588 118.165 219.177 118.238 218.792 118.389C218.408 118.54 218.056 118.766 217.759 119.053C217.462 119.34 217.224 119.683 217.06 120.062C216.895 120.441 216.807 120.849 216.801 121.262Z" fill="#E2F8E0"/>
<path d="M225.93 121.262C225.908 121.9 226.077 122.529 226.415 123.07C226.754 123.611 227.246 124.038 227.829 124.297C228.412 124.556 229.059 124.635 229.687 124.523C230.316 124.411 230.896 124.115 231.354 123.671C231.812 123.227 232.127 122.656 232.259 122.032C232.391 121.408 232.332 120.758 232.092 120.167C231.852 119.576 231.441 119.071 230.911 118.715C230.381 118.36 229.758 118.171 229.12 118.172C228.707 118.166 228.298 118.24 227.914 118.392C227.531 118.544 227.181 118.77 226.885 119.056C226.588 119.343 226.352 119.686 226.188 120.064C226.024 120.443 225.936 120.85 225.93 121.262Z" fill="#E2F8E0"/>
<path d="M235.051 121.262C235.029 121.9 235.198 122.529 235.536 123.069C235.874 123.61 236.366 124.037 236.948 124.296C237.53 124.555 238.177 124.635 238.805 124.524C239.433 124.413 240.013 124.117 240.472 123.674C240.93 123.232 241.246 122.662 241.379 122.038C241.511 121.415 241.455 120.766 241.216 120.175C240.978 119.583 240.568 119.077 240.039 118.72C239.511 118.364 238.888 118.173 238.251 118.172C237.838 118.165 237.427 118.238 237.042 118.389C236.658 118.54 236.306 118.766 236.009 119.053C235.712 119.34 235.474 119.683 235.31 120.062C235.145 120.441 235.057 120.849 235.051 121.262Z" fill="#E2F8E0"/>
<path d="M244.179 121.262C244.159 121.897 244.329 122.523 244.668 123.061C245.006 123.599 245.497 124.023 246.078 124.28C246.659 124.537 247.303 124.614 247.928 124.503C248.553 124.391 249.131 124.095 249.587 123.654C250.043 123.212 250.357 122.644 250.489 122.022C250.62 121.401 250.563 120.754 250.325 120.166C250.087 119.577 249.678 119.073 249.152 118.718C248.625 118.362 248.004 118.173 247.369 118.172C246.957 118.166 246.547 118.24 246.164 118.392C245.78 118.544 245.43 118.77 245.134 119.056C244.838 119.343 244.601 119.686 244.437 120.064C244.274 120.443 244.186 120.85 244.179 121.262Z" fill="#E2F8E0"/>
<path d="M216.8 151.435C216.782 152.071 216.955 152.699 217.295 153.236C217.636 153.774 218.129 154.199 218.712 154.455C219.295 154.711 219.941 154.787 220.567 154.674C221.194 154.561 221.773 154.263 222.229 153.82C222.686 153.376 222.999 152.806 223.13 152.183C223.261 151.56 223.203 150.912 222.964 150.322C222.725 149.732 222.315 149.227 221.787 148.871C221.259 148.515 220.637 148.325 220 148.325C219.585 148.317 219.173 148.391 218.787 148.544C218.401 148.696 218.049 148.923 217.752 149.212C217.454 149.502 217.217 149.847 217.053 150.228C216.89 150.61 216.804 151.02 216.8 151.435Z" fill="#E2F8E0"/>
<path d="M225.93 151.434C225.908 152.072 226.077 152.701 226.415 153.242C226.754 153.783 227.246 154.21 227.829 154.469C228.412 154.728 229.059 154.806 229.687 154.695C230.316 154.583 230.896 154.286 231.354 153.843C231.812 153.399 232.127 152.828 232.259 152.204C232.391 151.58 232.332 150.93 232.092 150.339C231.852 149.748 231.441 149.243 230.911 148.887C230.381 148.532 229.758 148.343 229.12 148.344C228.707 148.338 228.298 148.412 227.914 148.564C227.531 148.716 227.181 148.941 226.885 149.228C226.588 149.515 226.352 149.858 226.188 150.236C226.024 150.615 225.936 151.022 225.93 151.434Z" fill="#E2F8E0"/>
<path d="M235.051 151.434C235.029 152.071 235.198 152.701 235.536 153.241C235.874 153.782 236.366 154.209 236.948 154.468C237.53 154.727 238.177 154.806 238.805 154.696C239.433 154.585 240.013 154.289 240.472 153.846C240.93 153.403 241.246 152.834 241.379 152.21C241.511 151.587 241.455 150.938 241.216 150.347C240.978 149.755 240.568 149.249 240.039 148.892C239.511 148.535 238.888 148.345 238.251 148.344C237.838 148.336 237.427 148.41 237.042 148.561C236.658 148.712 236.306 148.938 236.009 149.225C235.712 149.512 235.474 149.855 235.31 150.234C235.145 150.613 235.057 151.021 235.051 151.434Z" fill="#E2F8E0"/>
<path d="M244.179 151.434C244.159 152.069 244.329 152.695 244.668 153.233C245.006 153.77 245.497 154.195 246.078 154.452C246.659 154.709 247.303 154.786 247.928 154.675C248.553 154.563 249.131 154.267 249.587 153.825C250.043 153.384 250.357 152.816 250.489 152.194C250.62 151.573 250.563 150.926 250.325 150.338C250.087 149.749 249.678 149.245 249.152 148.889C248.625 148.534 248.004 148.344 247.369 148.344C246.957 148.338 246.547 148.412 246.164 148.564C245.78 148.716 245.43 148.941 245.134 149.228C244.838 149.515 244.601 149.858 244.437 150.236C244.274 150.615 244.186 151.022 244.179 151.434Z" fill="#E2F8E0"/>
<path d="M216.799 181.604C216.775 182.241 216.942 182.872 217.279 183.413C217.616 183.955 218.107 184.384 218.689 184.645C219.271 184.905 219.918 184.986 220.547 184.876C221.175 184.767 221.756 184.472 222.216 184.03C222.676 183.587 222.992 183.018 223.126 182.394C223.26 181.77 223.204 181.121 222.965 180.529C222.727 179.937 222.317 179.43 221.789 179.073C221.26 178.716 220.637 178.524 219.999 178.524C219.587 178.516 219.177 178.589 218.793 178.74C218.409 178.89 218.058 179.115 217.761 179.401C217.464 179.687 217.226 180.029 217.061 180.407C216.896 180.785 216.807 181.192 216.799 181.604Z" fill="#E2F8E0"/>
<path d="M225.93 181.604C225.906 182.242 226.073 182.872 226.411 183.414C226.748 183.956 227.239 184.385 227.822 184.645C228.405 184.906 229.052 184.986 229.681 184.876C230.31 184.765 230.891 184.469 231.35 184.026C231.81 183.583 232.126 183.012 232.258 182.387C232.391 181.763 232.333 181.113 232.093 180.522C231.853 179.93 231.442 179.424 230.912 179.068C230.383 178.712 229.758 178.522 229.12 178.524C228.289 178.51 227.486 178.827 226.888 179.405C226.29 179.982 225.946 180.773 225.93 181.604Z" fill="#E2F8E0"/>
<path d="M235.049 181.604C235.025 182.241 235.192 182.872 235.529 183.413C235.866 183.955 236.357 184.384 236.939 184.645C237.521 184.905 238.168 184.986 238.797 184.876C239.425 184.767 240.006 184.472 240.466 184.03C240.926 183.587 241.242 183.018 241.376 182.394C241.51 181.77 241.454 181.121 241.215 180.529C240.977 179.937 240.567 179.43 240.039 179.073C239.51 178.716 238.887 178.524 238.249 178.524C237.837 178.516 237.427 178.589 237.043 178.74C236.659 178.89 236.308 179.115 236.011 179.401C235.714 179.687 235.476 180.029 235.311 180.407C235.146 180.785 235.057 181.192 235.049 181.604Z" fill="#E2F8E0"/>
<path d="M244.18 181.604C244.158 182.239 244.326 182.866 244.663 183.405C245 183.944 245.49 184.37 246.071 184.628C246.651 184.887 247.296 184.966 247.922 184.855C248.548 184.745 249.126 184.45 249.584 184.009C250.041 183.567 250.356 182.999 250.488 182.378C250.62 181.756 250.564 181.109 250.326 180.52C250.088 179.931 249.68 179.426 249.153 179.07C248.626 178.714 248.005 178.524 247.37 178.524C246.539 178.51 245.736 178.827 245.138 179.405C244.54 179.982 244.195 180.773 244.18 181.604Z" fill="#E2F8E0"/>
<path d="M216.801 211.786C216.779 212.423 216.948 213.052 217.286 213.593C217.624 214.133 218.116 214.56 218.698 214.82C219.28 215.079 219.927 215.158 220.555 215.047C221.183 214.936 221.763 214.641 222.222 214.198C222.68 213.755 222.996 213.185 223.129 212.562C223.261 211.938 223.205 211.289 222.966 210.698C222.728 210.107 222.318 209.601 221.789 209.244C221.261 208.887 220.638 208.696 220.001 208.696C219.588 208.688 219.177 208.762 218.792 208.913C218.408 209.064 218.056 209.289 217.759 209.577C217.462 209.864 217.224 210.207 217.06 210.586C216.895 210.965 216.807 211.373 216.801 211.786Z" fill="#E2F8E0"/>
<path d="M225.93 211.786C225.908 212.423 226.077 213.053 226.415 213.594C226.754 214.134 227.246 214.562 227.829 214.82C228.412 215.079 229.059 215.158 229.687 215.046C230.316 214.935 230.896 214.638 231.354 214.194C231.812 213.75 232.127 213.18 232.259 212.555C232.391 211.931 232.332 211.282 232.092 210.691C231.852 210.1 231.441 209.594 230.911 209.239C230.381 208.883 229.758 208.694 229.12 208.696C228.707 208.689 228.298 208.764 227.914 208.916C227.531 209.067 227.181 209.293 226.885 209.58C226.588 209.867 226.352 210.209 226.188 210.588C226.024 210.966 225.936 211.373 225.93 211.786Z" fill="#E2F8E0"/>
<path d="M235.051 211.786C235.029 212.423 235.198 213.052 235.536 213.593C235.874 214.133 236.366 214.56 236.948 214.82C237.53 215.079 238.177 215.158 238.805 215.047C239.433 214.936 240.013 214.641 240.472 214.198C240.93 213.755 241.246 213.185 241.379 212.562C241.511 211.938 241.455 211.289 241.216 210.698C240.978 210.107 240.568 209.601 240.039 209.244C239.511 208.887 238.888 208.696 238.251 208.696C237.838 208.688 237.427 208.762 237.042 208.913C236.658 209.064 236.306 209.289 236.009 209.577C235.712 209.864 235.474 210.207 235.31 210.586C235.145 210.965 235.057 211.373 235.051 211.786Z" fill="#E2F8E0"/>
<path d="M244.179 211.786C244.159 212.421 244.329 213.047 244.668 213.584C245.006 214.122 245.497 214.546 246.078 214.803C246.659 215.06 247.303 215.138 247.928 215.026C248.553 214.915 249.131 214.619 249.587 214.177C250.043 213.735 250.357 213.167 250.489 212.546C250.62 211.924 250.563 211.278 250.325 210.689C250.087 210.1 249.678 209.596 249.152 209.241C248.625 208.886 248.004 208.696 247.369 208.696C246.957 208.689 246.547 208.764 246.164 208.916C245.78 209.067 245.43 209.293 245.134 209.58C244.838 209.867 244.601 210.209 244.437 210.588C244.274 210.966 244.186 211.373 244.179 211.786Z" fill="#E2F8E0"/>
<path d="M216.799 241.956C216.775 242.593 216.942 243.223 217.279 243.765C217.616 244.307 218.107 244.735 218.689 244.996C219.271 245.257 219.918 245.338 220.547 245.228C221.175 245.118 221.756 244.824 222.216 244.381C222.676 243.939 222.992 243.369 223.126 242.745C223.26 242.122 223.204 241.472 222.965 240.88C222.727 240.289 222.317 239.782 221.789 239.424C221.26 239.067 220.637 238.876 219.999 238.876C219.587 238.868 219.177 238.941 218.793 239.091C218.409 239.242 218.058 239.467 217.761 239.753C217.464 240.039 217.226 240.38 217.061 240.758C216.896 241.136 216.807 241.543 216.799 241.956Z" fill="#E2F8E0"/>
<path d="M225.93 241.955C225.906 242.593 226.073 243.224 226.411 243.766C226.748 244.308 227.239 244.737 227.822 244.997C228.405 245.257 229.052 245.338 229.681 245.227C230.31 245.117 230.891 244.821 231.35 244.377C231.81 243.934 232.126 243.364 232.258 242.739C232.391 242.115 232.333 241.465 232.093 240.873C231.853 240.282 231.442 239.775 230.912 239.419C230.383 239.063 229.758 238.874 229.12 238.875C228.289 238.862 227.486 239.179 226.888 239.756C226.29 240.333 225.946 241.124 225.93 241.955Z" fill="#E2F8E0"/>
<path d="M235.049 241.956C235.025 242.593 235.192 243.223 235.529 243.765C235.866 244.307 236.357 244.735 236.939 244.996C237.521 245.257 238.168 245.338 238.797 245.228C239.425 245.118 240.006 244.824 240.466 244.381C240.926 243.939 241.242 243.369 241.376 242.745C241.51 242.122 241.454 241.472 241.215 240.88C240.977 240.289 240.567 239.782 240.039 239.424C239.51 239.067 238.887 238.876 238.249 238.876C237.837 238.868 237.427 238.941 237.043 239.091C236.659 239.242 236.308 239.467 236.011 239.753C235.714 240.039 235.476 240.38 235.311 240.758C235.146 241.136 235.057 241.543 235.049 241.956Z" fill="#E2F8E0"/>
<path d="M244.18 241.955C244.158 242.591 244.326 243.218 244.663 243.757C245 244.295 245.49 244.721 246.071 244.98C246.651 245.238 247.296 245.317 247.922 245.207C248.548 245.097 249.126 244.802 249.584 244.36C250.041 243.919 250.356 243.351 250.488 242.729C250.62 242.108 250.564 241.461 250.326 240.871C250.088 240.282 249.68 239.777 249.153 239.422C248.626 239.066 248.005 238.876 247.37 238.875C246.539 238.862 245.736 239.179 245.138 239.756C244.54 240.333 244.195 241.124 244.18 241.955Z" fill="#E2F8E0"/>
<path d="M216.801 272.134C216.779 272.771 216.948 273.4 217.286 273.94C217.624 274.481 218.116 274.908 218.698 275.167C219.28 275.426 219.927 275.506 220.555 275.395C221.183 275.284 221.763 274.988 222.222 274.546C222.68 274.103 222.996 273.533 223.129 272.909C223.261 272.286 223.205 271.637 222.966 271.046C222.728 270.455 222.318 269.948 221.789 269.591C221.261 269.235 220.638 269.044 220.001 269.044C219.588 269.036 219.177 269.109 218.792 269.26C218.408 269.412 218.056 269.637 217.759 269.924C217.462 270.211 217.224 270.554 217.06 270.933C216.895 271.312 216.807 271.72 216.801 272.134Z" fill="#E2F8E0"/>
<path d="M225.93 272.133C225.908 272.771 226.077 273.4 226.415 273.941C226.754 274.482 227.246 274.909 227.829 275.168C228.412 275.427 229.059 275.506 229.687 275.394C230.316 275.282 230.896 274.986 231.354 274.542C231.812 274.098 232.127 273.527 232.259 272.903C232.391 272.279 232.332 271.63 232.092 271.039C231.852 270.448 231.441 269.942 230.911 269.586C230.381 269.231 229.758 269.042 229.12 269.043C228.707 269.037 228.298 269.111 227.914 269.263C227.531 269.415 227.181 269.641 226.885 269.928C226.588 270.215 226.352 270.557 226.188 270.935C226.024 271.314 225.936 271.721 225.93 272.133Z" fill="#E2F8E0"/>
<path d="M235.051 272.134C235.029 272.771 235.198 273.4 235.536 273.94C235.874 274.481 236.366 274.908 236.948 275.167C237.53 275.426 238.177 275.506 238.805 275.395C239.433 275.284 240.013 274.988 240.472 274.546C240.93 274.103 241.246 273.533 241.379 272.909C241.511 272.286 241.455 271.637 241.216 271.046C240.978 270.455 240.568 269.948 240.039 269.591C239.511 269.235 238.888 269.044 238.251 269.044C237.838 269.036 237.427 269.109 237.042 269.26C236.658 269.412 236.306 269.637 236.009 269.924C235.712 270.211 235.474 270.554 235.31 270.933C235.145 271.312 235.057 271.72 235.051 272.134Z" fill="#E2F8E0"/>
<path d="M244.179 272.133C244.159 272.768 244.329 273.394 244.668 273.932C245.006 274.47 245.497 274.894 246.078 275.151C246.659 275.408 247.303 275.485 247.928 275.374C248.553 275.262 249.131 274.967 249.587 274.525C250.043 274.083 250.357 273.515 250.489 272.893C250.62 272.272 250.563 271.626 250.325 271.037C250.087 270.448 249.678 269.944 249.152 269.589C248.625 269.234 248.004 269.044 247.369 269.043C246.957 269.037 246.547 269.111 246.164 269.263C245.78 269.415 245.43 269.641 245.134 269.928C244.838 270.215 244.601 270.557 244.437 270.935C244.274 271.314 244.186 271.721 244.179 272.133Z" fill="#E2F8E0"/>
<path d="M216.799 302.323C216.775 302.96 216.942 303.59 217.279 304.132C217.616 304.674 218.107 305.103 218.689 305.363C219.271 305.624 219.918 305.705 220.547 305.595C221.175 305.486 221.756 305.191 222.216 304.748C222.676 304.306 222.992 303.736 223.126 303.112C223.26 302.489 223.204 301.839 222.965 301.248C222.727 300.656 222.317 300.149 221.789 299.792C221.26 299.434 220.637 299.243 219.999 299.243C219.587 299.235 219.177 299.308 218.793 299.459C218.409 299.609 218.058 299.834 217.761 300.12C217.464 300.406 217.226 300.748 217.061 301.126C216.896 301.504 216.807 301.91 216.799 302.323Z" fill="#E2F8E0"/>
<path d="M225.93 302.323C225.906 302.96 226.073 303.591 226.411 304.133C226.748 304.675 227.239 305.104 227.822 305.364C228.405 305.625 229.052 305.705 229.681 305.594C230.31 305.484 230.891 305.188 231.35 304.745C231.81 304.301 232.126 303.731 232.258 303.106C232.391 302.482 232.333 301.832 232.093 301.24C231.853 300.649 231.442 300.142 230.912 299.786C230.383 299.43 229.758 299.241 229.12 299.243C228.289 299.229 227.486 299.546 226.888 300.123C226.29 300.701 225.946 301.492 225.93 302.323Z" fill="#E2F8E0"/>
<path d="M235.049 302.323C235.025 302.96 235.192 303.59 235.529 304.132C235.866 304.674 236.357 305.103 236.939 305.363C237.521 305.624 238.168 305.705 238.797 305.595C239.425 305.486 240.006 305.191 240.466 304.748C240.926 304.306 241.242 303.736 241.376 303.112C241.51 302.489 241.454 301.839 241.215 301.248C240.977 300.656 240.567 300.149 240.039 299.792C239.51 299.434 238.887 299.243 238.249 299.243C237.837 299.235 237.427 299.308 237.043 299.459C236.659 299.609 236.308 299.834 236.011 300.12C235.714 300.406 235.476 300.748 235.311 301.126C235.146 301.504 235.057 301.91 235.049 302.323Z" fill="#E2F8E0"/>
<path d="M244.18 302.323C244.158 302.958 244.326 303.585 244.663 304.124C245 304.663 245.49 305.089 246.071 305.347C246.651 305.605 247.296 305.684 247.922 305.574C248.548 305.464 249.126 305.169 249.584 304.727C250.041 304.286 250.356 303.718 250.488 303.096C250.62 302.475 250.564 301.828 250.326 301.239C250.088 300.649 249.68 300.144 249.153 299.789C248.626 299.433 248.005 299.243 247.37 299.243C246.539 299.229 245.736 299.546 245.138 300.123C244.54 300.701 244.195 301.492 244.18 302.323Z" fill="#E2F8E0"/>
<path d="M216.799 332.475C216.775 333.113 216.942 333.743 217.279 334.284C217.616 334.826 218.107 335.255 218.689 335.516C219.271 335.776 219.918 335.857 220.547 335.748C221.175 335.638 221.756 335.343 222.216 334.901C222.676 334.458 222.992 333.889 223.126 333.265C223.26 332.641 223.204 331.992 222.965 331.4C222.727 330.808 222.317 330.301 221.789 329.944C221.26 329.587 220.637 329.396 219.999 329.395C219.587 329.387 219.177 329.461 218.793 329.611C218.409 329.761 218.058 329.986 217.761 330.272C217.464 330.558 217.226 330.9 217.061 331.278C216.896 331.656 216.807 332.063 216.799 332.475Z" fill="#E2F8E0"/>
<path d="M225.93 332.475C225.906 333.113 226.073 333.743 226.411 334.285C226.748 334.827 227.239 335.256 227.822 335.517C228.405 335.777 229.052 335.857 229.681 335.747C230.31 335.636 230.891 335.34 231.35 334.897C231.81 334.454 232.126 333.883 232.258 333.259C232.391 332.634 232.333 331.984 232.093 331.393C231.853 330.801 231.442 330.295 230.912 329.939C230.383 329.583 229.758 329.393 229.12 329.395C228.289 329.382 227.486 329.698 226.888 330.276C226.29 330.853 225.946 331.644 225.93 332.475Z" fill="#E2F8E0"/>
<path d="M235.049 332.475C235.025 333.113 235.192 333.743 235.529 334.284C235.866 334.826 236.357 335.255 236.939 335.516C237.521 335.776 238.168 335.857 238.797 335.748C239.425 335.638 240.006 335.343 240.466 334.901C240.926 334.458 241.242 333.889 241.376 333.265C241.51 332.641 241.454 331.992 241.215 331.4C240.977 330.808 240.567 330.301 240.039 329.944C239.51 329.587 238.887 329.396 238.249 329.395C237.837 329.387 237.427 329.461 237.043 329.611C236.659 329.761 236.308 329.986 236.011 330.272C235.714 330.558 235.476 330.9 235.311 331.278C235.146 331.656 235.057 332.063 235.049 332.475Z" fill="#E2F8E0"/>
<path d="M244.18 332.475C244.158 333.11 244.326 333.737 244.663 334.276C245 334.815 245.49 335.241 246.071 335.499C246.651 335.758 247.296 335.837 247.922 335.726C248.548 335.616 249.126 335.321 249.584 334.88C250.041 334.438 250.356 333.87 250.488 333.249C250.62 332.627 250.564 331.98 250.326 331.391C250.088 330.802 249.68 330.297 249.153 329.941C248.626 329.586 248.005 329.395 247.37 329.395C246.539 329.382 245.736 329.698 245.138 330.276C244.54 330.853 244.195 331.644 244.18 332.475Z" fill="#E2F8E0"/>
</g>
<path d="M159.412 28.9542C158.981 26.545 158.024 24.2606 156.608 22.264C155.192 20.2675 153.353 18.6081 151.222 17.4042C151.222 17.2742 151.222 17.1442 151.222 17.0142C151.222 12.5878 149.464 8.34259 146.334 5.21261C143.204 2.08263 138.959 0.324219 134.532 0.324219H128.132V1.59422C126.019 2.47773 124.109 3.78559 122.521 5.43687C120.934 7.08814 119.702 9.04769 118.902 11.1942C118.354 11.0992 117.799 11.0491 117.242 11.0442C115.246 11.0475 113.296 11.6483 111.644 12.7693C109.992 13.8903 108.713 15.4802 107.972 17.3342C105.682 16.7795 103.276 16.9579 101.092 17.8442C98.8863 18.7023 96.9794 20.1865 95.606 22.1142C94.2326 24.0419 93.4527 26.329 93.3622 28.6942C93.3276 30.2839 93.6108 31.8646 94.1954 33.3433C94.7799 34.8221 95.6539 36.1692 96.7661 37.3057C97.8783 38.4421 99.2063 39.3449 100.672 39.9611C102.138 40.5774 103.712 40.8946 105.302 40.8942H150.512C152.899 40.9185 155.199 40.0009 156.914 38.3405C158.629 36.68 159.62 34.4106 159.672 32.0242V31.9242C159.678 30.9283 159.591 29.934 159.412 28.9542Z" fill="#D0F0CC" fill-opacity="0.15"/>
<path d="M153.023 28.9557C152.595 26.5491 151.642 24.2665 150.232 22.2701C148.822 20.2738 146.988 18.6129 144.863 17.4057C144.863 17.2757 144.863 17.1457 144.863 17.0157C144.862 13.1032 143.486 9.31556 140.975 6.31439C138.465 3.31322 134.981 1.28928 131.13 0.596097C127.279 -0.0970852 123.308 0.584553 119.909 2.52195C116.509 4.45934 113.899 7.52934 112.533 11.1957C110.284 10.7992 107.966 11.1942 105.975 12.3137C103.985 13.4331 102.443 15.2078 101.613 17.3357C99.3229 16.781 96.9164 16.9594 94.7331 17.8457C92.5272 18.7038 90.6202 20.188 89.2468 22.1157C87.8735 24.0434 87.0935 26.3305 87.0031 28.6957C86.9671 30.2849 87.2491 31.8654 87.8325 33.3441C88.4159 34.8228 89.289 36.17 90.4004 37.3066C91.5118 38.4431 92.8391 39.3461 94.3044 39.9625C95.7697 40.5788 97.3434 40.8961 98.9331 40.8957H144.153C146.539 40.9174 148.838 39.9989 150.552 38.339C152.266 36.6791 153.258 34.4112 153.313 32.0257V31.9257C153.309 30.9288 153.212 29.9346 153.023 28.9557Z" fill="#D0F0CC" fill-opacity="0.15"/>
<path d="M62.5099 86.6445H61.6699V89.1545H62.5099V86.6445Z" fill="#90CE8A"/>
<path opacity="0.2" d="M62.5099 86.6445H61.6699V89.1545H62.5099V86.6445Z" fill="#B0D7AB"/>
<path d="M223.38 143.665H222.54V138.665H223.38V143.665ZM223.38 133.665H222.54V128.665H223.38V133.665ZM223.38 123.665H222.54V118.665H223.38V123.665ZM223.38 113.665H222.54V108.665H223.38V113.665ZM223.38 103.665H222.54V98.6653H223.38V103.665ZM223.38 93.6653H222.54V88.6653H223.38V93.6653ZM223.38 83.6653H222.54V78.6653H223.38V83.6653ZM62.5099 81.5853H61.6699V78.2153C61.6697 77.6807 61.6998 77.1465 61.7599 76.6153L62.5899 76.7153C62.5381 77.2136 62.5114 77.7143 62.5099 78.2153V81.5853ZM221.81 73.9053C221.272 72.3827 220.447 70.9773 219.38 69.7653L220 69.3253C221.142 70.618 222.025 72.1187 222.6 73.7453L221.81 73.9053ZM64.0499 72.1353L63.3199 71.7353C64.1422 70.2067 65.2487 68.8491 66.5799 67.7353L67.1199 68.3853C65.863 69.4243 64.8203 70.698 64.0499 72.1353ZM215.57 66.8953C214.145 66.1677 212.594 65.7229 211 65.5853L211.07 64.7453C212.788 64.8912 214.462 65.3665 216 66.1453L215.57 66.8953ZM71.3299 66.1253L71.0799 65.3353C72.4087 64.9114 73.7951 64.6955 75.1899 64.6953H76.1399V65.5353H75.1899C73.8807 65.5343 72.5791 65.7333 71.3299 66.1253ZM206 65.5353H201V64.6953H206V65.5353ZM196 65.5353H191V64.6953H196V65.5353ZM186 65.5353H181V64.6953H186V65.5353ZM176 65.5353H171V64.6953H176V65.5353ZM166 65.5353H161V64.6953H166V65.5353ZM156 65.5353H151V64.6953H156V65.5353ZM146 65.5353H141V64.6953H146V65.5353ZM136 65.5353H131V64.6953H136V65.5353ZM126 65.5353H121V64.6953H126V65.5353ZM116 65.5353H111V64.6953H116V65.5353ZM106 65.5353H101V64.6953H106V65.5353ZM95.9999 65.5353H90.9999V64.6953H95.9999V65.5353ZM85.9999 65.5353H80.9999V64.6953H85.9999V65.5353Z" fill="#90CE8A"/>
<path opacity="0.2" d="M223.38 143.665H222.54V138.665H223.38V143.665ZM223.38 133.665H222.54V128.665H223.38V133.665ZM223.38 123.665H222.54V118.665H223.38V123.665ZM223.38 113.665H222.54V108.665H223.38V113.665ZM223.38 103.665H222.54V98.6653H223.38V103.665ZM223.38 93.6653H222.54V88.6653H223.38V93.6653ZM223.38 83.6653H222.54V78.6653H223.38V83.6653ZM62.5099 81.5853H61.6699V78.2153C61.6697 77.6807 61.6998 77.1465 61.7599 76.6153L62.5899 76.7153C62.5381 77.2136 62.5114 77.7143 62.5099 78.2153V81.5853ZM221.81 73.9053C221.272 72.3827 220.447 70.9773 219.38 69.7653L220 69.3253C221.142 70.618 222.025 72.1187 222.6 73.7453L221.81 73.9053ZM64.0499 72.1353L63.3199 71.7353C64.1422 70.2067 65.2487 68.8491 66.5799 67.7353L67.1199 68.3853C65.863 69.4243 64.8203 70.698 64.0499 72.1353ZM215.57 66.8953C214.145 66.1677 212.594 65.7229 211 65.5853L211.07 64.7453C212.788 64.8912 214.462 65.3665 216 66.1453L215.57 66.8953ZM71.3299 66.1253L71.0799 65.3353C72.4087 64.9114 73.7951 64.6955 75.1899 64.6953H76.1399V65.5353H75.1899C73.8807 65.5343 72.5791 65.7333 71.3299 66.1253ZM206 65.5353H201V64.6953H206V65.5353ZM196 65.5353H191V64.6953H196V65.5353ZM186 65.5353H181V64.6953H186V65.5353ZM176 65.5353H171V64.6953H176V65.5353ZM166 65.5353H161V64.6953H166V65.5353ZM156 65.5353H151V64.6953H156V65.5353ZM146 65.5353H141V64.6953H146V65.5353ZM136 65.5353H131V64.6953H136V65.5353ZM126 65.5353H121V64.6953H126V65.5353ZM116 65.5353H111V64.6953H116V65.5353ZM106 65.5353H101V64.6953H106V65.5353ZM95.9999 65.5353H90.9999V64.6953H95.9999V65.5353ZM85.9999 65.5353H80.9999V64.6953H85.9999V65.5353Z" fill="#B0D7AB"/>
<path d="M223.379 148.684H222.539V151.194H223.379V148.684Z" fill="#90CE8A"/>
<path opacity="0.2" d="M223.379 148.684H222.539V151.194H223.379V148.684Z" fill="#B0D7AB"/>
</svg>
