<svg width="60" height="61" viewBox="0 0 60 61" fill="none" xmlns="http://www.w3.org/2000/svg">
<circle cx="30" cy="30.5898" r="30" fill="#A4C340"/>
<path d="M29.8801 23.0367C28.7711 23.8167 27.5142 24.7007 26.8408 26.1633C25.6711 28.7149 29.2343 31.4982 29.3866 31.6155C29.422 31.6428 29.4643 31.6563 29.5066 31.6563C29.5515 31.6563 29.5964 31.641 29.6329 31.6104C29.7036 31.5513 29.7237 31.4508 29.6812 31.3689C29.6683 31.3441 28.3893 28.8597 28.4368 27.0774C28.4537 26.4567 29.3224 25.7525 30.2421 25.0069C31.0845 24.3241 32.0393 23.5501 32.5979 22.6447C33.8244 20.6518 32.4613 18.6921 32.4473 18.6726C32.3932 18.5966 32.2933 18.569 32.2078 18.6065C32.1224 18.6441 32.0751 18.7365 32.0947 18.8277C32.0974 18.8406 32.3625 20.1365 31.6249 21.4716C31.3209 22.0233 30.6532 22.493 29.8801 23.0367Z" fill="white"/>
<path d="M34.5516 23.9164C34.6298 23.8575 34.6528 23.75 34.6054 23.6642C34.558 23.5784 34.4549 23.5406 34.3633 23.5754C34.1749 23.647 29.75 25.3525 29.75 27.4135C29.75 28.834 30.3568 29.5845 30.7999 30.1326C30.9738 30.3475 31.1238 30.5331 31.1732 30.6916C31.3124 31.1483 30.9827 31.9738 30.844 32.2533C30.804 32.3337 30.8236 32.431 30.8916 32.4897C30.9284 32.5214 30.9742 32.5375 31.0202 32.5375C31.0593 32.5375 31.0986 32.5258 31.1325 32.5022C31.2086 32.4493 32.9919 31.1884 32.672 29.6694C32.5529 29.092 32.2691 28.6701 32.0187 28.2978C31.6309 27.7211 31.3508 27.3045 31.7758 26.535C32.2738 25.6376 34.5288 23.9335 34.5516 23.9164Z" fill="white"/>
<path d="M23.0349 32.5696C22.959 32.7966 22.9948 33.0221 23.1384 33.2214C23.6181 33.8872 25.3171 34.254 27.9228 34.254C27.9229 34.254 27.923 34.254 27.9231 34.254C28.2762 34.254 28.6489 34.2471 29.0307 34.2334C33.1967 34.0842 34.7419 32.7864 34.8056 32.7312C34.8751 32.6711 34.8937 32.5709 34.8505 32.4899C34.8073 32.4089 34.7141 32.3682 34.6251 32.3927C33.158 32.7933 30.4182 32.9355 28.5179 32.9355C26.3915 32.9355 25.3086 32.7824 25.0435 32.6693C25.1795 32.4825 26.0186 32.1489 27.0583 31.9444C27.1577 31.9249 27.226 31.8332 27.2162 31.7324C27.2063 31.6316 27.1217 31.5547 27.0204 31.5547C26.4109 31.5548 23.3544 31.6037 23.0349 32.5696Z" fill="white"/>
<path d="M36.9739 31.2344C36.1147 31.2344 35.2998 31.665 35.2655 31.6833C35.1861 31.7259 35.1458 31.817 35.1676 31.9045C35.1894 31.9919 35.2681 32.0534 35.3582 32.0534C35.3765 32.0535 37.1911 32.0683 37.3555 33.1051C37.5011 33.9996 35.6385 35.4488 34.9085 35.9318C34.8297 35.984 34.7991 36.0849 34.8357 36.172C34.8667 36.2462 34.9391 36.2926 35.017 36.2926C35.0306 36.2926 35.0443 36.2912 35.058 36.2882C35.2313 36.2512 39.2958 35.3556 38.8661 32.989C38.6039 31.5387 37.6924 31.2344 36.9739 31.2344Z" fill="white"/>
<path d="M34.1881 35.6383C34.2023 35.5624 34.1707 35.4853 34.1076 35.4411L33.1331 34.7584C33.0855 34.7252 33.0255 34.7147 32.9697 34.7295C32.9596 34.7322 31.9404 35 30.4607 35.1643C29.8735 35.2302 29.2157 35.265 28.5585 35.265C27.0792 35.265 26.112 35.0911 25.9711 34.9637C25.9525 34.9279 25.9584 34.9116 25.9617 34.9025C25.9872 34.8313 26.1244 34.7467 26.2128 34.7133C26.3105 34.6772 26.3631 34.5711 26.3328 34.4715C26.3025 34.3719 26.1998 34.3132 26.0984 34.3375C25.1208 34.5735 24.6428 34.9034 24.6776 35.3181C24.7393 36.0533 26.4424 36.4307 27.8821 36.5305C28.0892 36.5447 28.3131 36.5519 28.5475 36.5519C28.5477 36.5519 28.5478 36.5519 28.5479 36.5519C30.942 36.5519 34.0112 35.8008 34.0418 35.7931C34.1168 35.7746 34.1739 35.7141 34.1881 35.6383Z" fill="white"/>
<path d="M26.8398 37.2208C26.9136 37.1727 26.9463 37.0815 26.9201 36.9975C26.894 36.9135 26.8154 36.8583 26.7271 36.8594C26.5961 36.8629 25.4451 36.9148 25.3645 37.6476C25.3401 37.8666 25.4028 38.0666 25.551 38.2422C25.9643 38.7319 27.0797 39.023 28.9607 39.1321C29.1832 39.1454 29.4092 39.1521 29.6326 39.1521C32.024 39.1521 33.6345 38.4034 33.7019 38.3715C33.7673 38.3406 33.8104 38.2764 33.8143 38.2042C33.8181 38.132 33.7821 38.0635 33.7204 38.0258L32.4888 37.2739C32.4461 37.2479 32.3949 37.2392 32.3461 37.2492C32.3383 37.2509 31.5563 37.413 30.3762 37.5733C30.1528 37.6036 29.8732 37.619 29.5451 37.619C28.3661 37.619 27.0549 37.4264 26.8034 37.3004C26.7998 37.2767 26.8044 37.2468 26.8398 37.2208Z" fill="white"/>
<path d="M28.5184 41.4097C33.9958 41.4051 36.9357 40.431 37.502 39.818C37.7025 39.6011 37.7242 39.3958 37.7071 39.2617C37.665 38.9317 37.3645 38.7297 37.3303 38.7077C37.2481 38.6548 37.1378 38.6687 37.0737 38.7427C37.0097 38.8167 37.0082 38.9247 37.0724 38.9986C37.1069 39.0431 37.1269 39.1174 37.0259 39.2186C36.7995 39.43 34.516 40.0719 30.7139 40.2646C30.1931 40.2918 29.6468 40.3055 29.0903 40.3056C25.6861 40.3056 23.1948 39.8393 22.8677 39.5675C22.9939 39.3865 23.875 39.0971 24.8122 38.9335C24.9178 38.9151 24.9892 38.8155 24.9728 38.7096C24.9565 38.6037 24.8588 38.5307 24.7521 38.5447C24.7257 38.5482 24.636 38.5537 24.5321 38.56C22.9858 38.6544 21.1988 38.8649 21.1056 39.6616C21.0773 39.9044 21.1494 40.1247 21.3201 40.3166C21.7377 40.7858 22.9381 41.4096 28.5181 41.4096C28.5183 41.4097 28.5183 41.4097 28.5184 41.4097Z" fill="white"/>
<path d="M38.578 39.9909C38.5005 39.9551 38.4091 39.9732 38.3513 40.0355C38.3432 40.0441 37.5197 40.9053 35.0436 41.411C34.0957 41.6009 32.3163 41.6972 29.7549 41.6972C27.1887 41.6972 24.7469 41.5963 24.7226 41.5952C24.6206 41.5903 24.5333 41.6644 24.5195 41.7648C24.5055 41.8652 24.5702 41.9597 24.6687 41.9832C24.6941 41.9892 27.2532 42.5888 30.7521 42.5888C32.4303 42.5888 34.0633 42.4524 35.6059 42.1834C38.4822 41.6792 38.6836 40.253 38.6907 40.1925C38.7007 40.108 38.6553 40.0267 38.578 39.9909Z" fill="white"/>
</svg>
