<svg width="60" height="60" viewBox="0 0 60 60" fill="none" xmlns="http://www.w3.org/2000/svg">
<circle cx="30" cy="30" r="30" fill="#4F9646"/>
<path d="M39.6002 28.2H30.2002V31.9H35.7002C35.6002 32.8 35.0002 34.2 33.7002 35.1C32.9002 35.7 31.7002 36.1 30.2002 36.1C27.6002 36.1 25.3002 34.4 24.5002 31.9C24.3002 31.3 24.2002 30.6 24.2002 29.9C24.2002 29.2 24.3002 28.5 24.5002 27.9C24.6002 27.7 24.6002 27.5 24.7002 27.4C25.6002 25.3 27.7002 23.8 30.2002 23.8C32.1002 23.8 33.3002 24.6 34.1002 25.3L36.9002 22.5C35.2002 21 32.9002 20 30.2002 20C26.3002 20 22.9002 22.2 21.3002 25.5C20.6002 26.9 20.2002 28.4 20.2002 30C20.2002 31.6 20.6002 33.1 21.3002 34.5C22.9002 37.8 26.3002 40 30.2002 40C32.9002 40 35.2002 39.1 36.8002 37.6C38.7002 35.9 39.8002 33.3 39.8002 30.2C39.8002 29.4 39.7002 28.8 39.6002 28.2Z" stroke="white" stroke-width="1.5" stroke-miterlimit="10" stroke-linecap="round" stroke-linejoin="round"/>
</svg>
