<svg width="60" height="60" viewBox="0 0 60 60" fill="none" xmlns="http://www.w3.org/2000/svg">
<circle cx="30" cy="30" r="30" fill="#B29FE7"/>
<g clip-path="url(#clip0)">
<path d="M27.7258 20V19H26.7258V20H27.7258ZM32.2742 20H33.2742V19H32.2742V20ZM32.2742 40V41H33.2742V40H32.2742ZM27.7258 40H26.7258V41H27.7258V40ZM20 26.9245L19.1391 26.4158L18.6201 27.2942L19.5086 27.7955L20 26.9245ZM22.2742 23.0755L22.7656 22.2045L21.9119 21.7229L21.4133 22.5668L22.2742 23.0755ZM40 33.0755L40.8609 33.5842L41.3799 32.7058L40.4913 32.2045L40 33.0755ZM37.7257 36.9245L37.2344 37.7955L38.0881 38.2771L38.5867 37.4332L37.7257 36.9245ZM37.7258 23.0755L38.5867 22.5668L38.0881 21.7229L37.2344 22.2045L37.7258 23.0755ZM40 26.9245L40.4914 27.7955L41.3799 27.2942L40.8609 26.4158L40 26.9245ZM22.2743 36.9245L21.4133 37.4332L21.9119 38.2771L22.7656 37.7955L22.2743 36.9245ZM20 33.0755L19.5087 32.2045L18.6201 32.7058L19.1391 33.5842L20 33.0755ZM27.7258 26.151L27.2344 27.022C27.544 27.1966 27.9231 27.1938 28.2301 27.0145C28.5371 26.8353 28.7258 26.5065 28.7258 26.151H27.7258ZM32.2742 26.151H31.2742C31.2742 26.5065 31.4629 26.8353 31.7699 27.0145C32.0769 27.1938 32.456 27.1966 32.7656 27.022L32.2742 26.151ZM34.5484 30L34.0571 29.1291C33.7428 29.3063 33.5484 29.6392 33.5484 30C33.5484 30.3608 33.7428 30.6937 34.0571 30.871L34.5484 30ZM25.4516 30L25.9429 30.871C26.2572 30.6937 26.4516 30.3608 26.4516 30C26.4516 29.6392 26.2572 29.3063 25.9429 29.1291L25.4516 30ZM27.7258 33.849H28.7258C28.7258 33.4935 28.5371 33.1648 28.2301 32.9855C27.9231 32.8062 27.544 32.8034 27.2344 32.9781L27.7258 33.849ZM32.2742 33.849L32.7656 32.9781C32.456 32.8034 32.0769 32.8062 31.7699 32.9855C31.4629 33.1648 31.2742 33.4935 31.2742 33.849H32.2742ZM27.7258 21H32.2742V19H27.7258V21ZM32.2742 39H27.7258V41H32.2742V39ZM20.8609 27.4332L23.1352 23.5842L21.4133 22.5668L19.1391 26.4158L20.8609 27.4332ZM39.139 32.5668L36.8648 36.4158L38.5867 37.4332L40.8609 33.5842L39.139 32.5668ZM36.8648 23.5842L39.1391 27.4332L40.8609 26.4158L38.5867 22.5668L36.8648 23.5842ZM23.1352 36.4158L20.861 32.5668L19.1391 33.5842L21.4133 37.4332L23.1352 36.4158ZM21.7829 23.9465L27.2344 27.022L28.2171 25.2801L22.7656 22.2045L21.7829 23.9465ZM28.7258 26.151V20H26.7258V26.151H28.7258ZM32.7656 27.022L38.2171 23.9465L37.2344 22.2045L31.7829 25.28L32.7656 27.022ZM31.2742 20V26.151H33.2742V20H31.2742ZM34.0571 30.871L39.5086 33.9465L40.4913 32.2045L35.0398 29.1291L34.0571 30.871ZM39.5086 26.0535L34.0571 29.1291L35.0398 30.871L40.4914 27.7955L39.5086 26.0535ZM20.4914 33.9465L25.9429 30.871L24.9602 29.1291L19.5087 32.2045L20.4914 33.9465ZM25.9429 29.1291L20.4914 26.0535L19.5086 27.7955L24.9602 30.871L25.9429 29.1291ZM27.2344 32.9781L21.7829 36.0535L22.7656 37.7955L28.2171 34.72L27.2344 32.9781ZM28.7258 40V33.849H26.7258V40H28.7258ZM38.2171 36.0535L32.7656 32.9781L31.7829 34.72L37.2344 37.7955L38.2171 36.0535ZM31.2742 33.849V40H33.2742V33.849H31.2742Z" fill="white"/>
</g>
<defs>
<clipPath id="clip0">
<rect width="22.6667" height="22.6667" fill="white" transform="translate(18.666 18.668)"/>
</clipPath>
</defs>
</svg>
