<svg width="40" height="40" viewBox="0 0 40 40" fill="none" xmlns="http://www.w3.org/2000/svg">
<circle cx="20" cy="20" r="20" fill="#78E3A2"/>
<path d="M15.5 18.5V17C15.5 14.5175 16.25 12.5 20 12.5C23.75 12.5 24.5 14.5175 24.5 17V18.5" stroke="white" stroke-width="1.5" stroke-linecap="round" stroke-linejoin="round"/>
<path d="M20 24.875C21.0355 24.875 21.875 24.0355 21.875 23C21.875 21.9645 21.0355 21.125 20 21.125C18.9645 21.125 18.125 21.9645 18.125 23C18.125 24.0355 18.9645 24.875 20 24.875Z" stroke="white" stroke-width="1.5" stroke-linecap="round" stroke-linejoin="round"/>
<path d="M23.75 27.5H16.25C13.25 27.5 12.5 26.75 12.5 23.75V22.25C12.5 19.25 13.25 18.5 16.25 18.5H23.75C26.75 18.5 27.5 19.25 27.5 22.25V23.75C27.5 26.75 26.75 27.5 23.75 27.5Z" stroke="white" stroke-width="1.5" stroke-linecap="round" stroke-linejoin="round"/>
</svg>
