<svg width="24" height="24" viewBox="0 0 24 24" fill="none" xmlns="http://www.w3.org/2000/svg">
<path fill-rule="evenodd" clip-rule="evenodd" d="M21.9 6.24074H2.1C1.49281 6.24074 1 5.73884 1 5.12037C1 4.5019 1.49281 4 2.1 4H21.9C22.5072 4.00004 23 4.50193 23 5.1204C23 5.73884 22.5072 6.24074 21.9 6.24074ZM11.3105 18.6667H21.9C22.5072 18.6667 23 19.1686 23 19.787C23 20.4055 22.5072 20.9074 21.9 20.9074H11.3105C10.7033 20.9074 10.2105 20.4055 10.2105 19.787C10.2105 19.1686 10.7033 18.6667 11.3105 18.6667ZM21.9 11.3333H2.1C1.49281 11.3333 1 11.8353 1 12.4537C1 13.0722 1.49281 13.5741 2.1 13.5741H21.9C22.5072 13.5741 23 13.0722 23 12.4537C23 11.8352 22.5072 11.3333 21.9 11.3333Z" fill="#181439"/>
</svg>
