<svg width="60" height="60" viewBox="0 0 60 60" fill="none" xmlns="http://www.w3.org/2000/svg">
<circle cx="30" cy="30" r="30" fill="#4F9646"/>
<g clip-path="url(#clip0)">
<path d="M35.1 36.75H22.9C20.58 36.75 19.25 35.42 19.25 33.1V21C19.25 20.59 19.59 20.25 20 20.25H38C38.41 20.25 38.75 20.59 38.75 21V33.1C38.75 35.42 37.42 36.75 35.1 36.75ZM20.75 21.75V33.1C20.75 34.59 21.41 35.25 22.9 35.25H35.09C36.58 35.25 37.24 34.59 37.24 33.1V21.75H20.75Z" fill="white"/>
<path d="M39 21.75H19C18.59 21.75 18.25 21.41 18.25 21C18.25 20.59 18.59 20.25 19 20.25H39C39.41 20.25 39.75 20.59 39.75 21C39.75 21.41 39.41 21.75 39 21.75Z" fill="white"/>
<path d="M25.0003 41.75C24.7203 41.75 24.4603 41.6 24.3303 41.34C24.1403 40.97 24.2903 40.52 24.6703 40.33L28.2503 38.54V36C28.2503 35.59 28.5903 35.25 29.0003 35.25C29.4103 35.25 29.7503 35.59 29.7503 36V39C29.7503 39.28 29.5903 39.54 29.3303 39.67L25.3303 41.67C25.2303 41.72 25.1103 41.75 25.0003 41.75Z" fill="white"/>
<path d="M32.9999 41.7482C32.8899 41.7482 32.77 41.7182 32.67 41.6682L28.67 39.6682C28.3 39.4782 28.1499 39.0282 28.3299 38.6582C28.5199 38.2882 28.9699 38.1382 29.3399 38.3182L33.3399 40.3182C33.7099 40.5082 33.8599 40.9582 33.6799 41.3282C33.5399 41.5982 33.2699 41.7482 32.9999 41.7482Z" fill="white"/>
<path d="M24.5009 30.7507C24.2909 30.7507 24.0709 30.6607 23.9209 30.4807C23.6509 30.1607 23.7009 29.6907 24.0209 29.4207L27.1709 26.7907C27.4609 26.5507 27.8309 26.4507 28.1809 26.5107C28.5409 26.5707 28.8509 26.7906 29.0409 27.1106L30.0909 28.8606L33.0209 26.4207C33.3409 26.1607 33.8109 26.2006 34.0809 26.5206C34.3509 26.8406 34.3009 27.3106 33.9809 27.5806L30.8309 30.2107C30.5409 30.4507 30.1709 30.5507 29.8209 30.4907C29.4609 30.4307 29.1509 30.2107 28.9609 29.8907L27.9109 28.1407L24.9809 30.5806C24.8409 30.6906 24.6709 30.7507 24.5009 30.7507Z" fill="white"/>
</g>
<defs>
<clipPath id="clip0">
<rect width="22.6667" height="22.6667" fill="white" transform="translate(17.666 19.668)"/>
</clipPath>
</defs>
</svg>
