<svg width="20" height="21" viewBox="0 0 20 21" fill="none" xmlns="http://www.w3.org/2000/svg">
<path d="M18.3096 16.0576C18.3096 16.3576 18.243 16.6659 18.1013 16.9659C17.9596 17.2659 17.7763 17.5492 17.5346 17.8159C17.1263 18.2659 16.6763 18.5909 16.168 18.7992C15.668 19.0076 15.1263 19.1159 14.543 19.1159C13.693 19.1159 12.7846 18.9159 11.8263 18.5076C10.868 18.0992 9.90964 17.5492 8.95964 16.8576C8.0013 16.1576 7.09297 15.3826 6.2263 14.5242C5.36797 13.6576 4.59297 12.7492 3.9013 11.7992C3.21797 10.8492 2.66797 9.89922 2.26797 8.95755C1.86797 8.00755 1.66797 7.09922 1.66797 6.23255C1.66797 5.66589 1.76797 5.12422 1.96797 4.62422C2.16797 4.11589 2.48464 3.64922 2.9263 3.23255C3.45964 2.70755 4.04297 2.44922 4.65964 2.44922C4.89297 2.44922 5.1263 2.49922 5.33464 2.59922C5.5513 2.69922 5.74297 2.84922 5.89297 3.06589L7.8263 5.79089C7.9763 5.99922 8.08464 6.19089 8.15964 6.37422C8.23464 6.54922 8.2763 6.72422 8.2763 6.88255C8.2763 7.08255 8.21797 7.28255 8.1013 7.47422C7.99297 7.66589 7.83464 7.86589 7.63464 8.06589L7.0013 8.72422C6.90964 8.81589 6.86797 8.92422 6.86797 9.05755C6.86797 9.12422 6.8763 9.18255 6.89297 9.24922C6.91797 9.31589 6.94297 9.36589 6.95964 9.41589C7.10964 9.69089 7.36797 10.0492 7.73464 10.4826C8.10964 10.9159 8.50964 11.3576 8.94297 11.7992C9.39297 12.2409 9.8263 12.6492 10.268 13.0242C10.7013 13.3909 11.0596 13.6409 11.343 13.7909C11.3846 13.8076 11.4346 13.8326 11.493 13.8576C11.5596 13.8826 11.6263 13.8909 11.7013 13.8909C11.843 13.8909 11.9513 13.8409 12.043 13.7492L12.6763 13.1242C12.8846 12.9159 13.0846 12.7576 13.2763 12.6576C13.468 12.5409 13.6596 12.4826 13.868 12.4826C14.0263 12.4826 14.193 12.5159 14.3763 12.5909C14.5596 12.6659 14.7513 12.7742 14.9596 12.9159L17.718 14.8742C17.9346 15.0242 18.0846 15.1992 18.1763 15.4076C18.2596 15.6159 18.3096 15.8242 18.3096 16.0576Z" stroke="#758278" stroke-width="1.5" stroke-miterlimit="10"/>
</svg>
