<svg width="40" height="40" viewBox="0 0 40 40" fill="none" xmlns="http://www.w3.org/2000/svg">
<circle cx="20" cy="20" r="20" fill="#4F9646"/>
<path d="M16.0343 12.9985C16.9445 12.9985 17.7556 13.4128 18.4733 14.2471C19.1911 15.0757 19.547 16.1731 19.547 17.5392C19.547 18.6982 18.8935 20.473 17.5922 22.8581C16.2852 25.2489 15.3166 26.4414 14.6805 26.4414C14.3246 26.4414 14.1437 26.2622 14.1437 25.9095C14.1437 25.8143 14.5171 25.0417 15.2582 23.586C16.0051 22.1303 16.3727 20.9881 16.3727 20.1707C16.3727 19.538 15.9526 19.0173 15.1065 18.6142C14.2662 18.2111 13.7002 17.7912 13.4202 17.3545C13.1401 16.9177 13 16.4418 13 15.9379C13 15.0253 13.2801 14.3031 13.8403 13.7824C14.418 13.2617 15.1415 12.9985 16.0343 12.9985Z" fill="white"/>
<path d="M24.4131 12.9985C25.3233 12.9985 26.1403 13.4128 26.8521 14.2471C27.5698 15.0757 27.9258 16.1731 27.9258 17.5392C27.9258 18.6982 27.2723 20.473 25.971 22.8581C24.6698 25.2489 23.6954 26.4414 23.0652 26.4414C22.7092 26.4414 22.5284 26.2622 22.5284 25.9095C22.5284 25.8143 22.9018 25.0417 23.6428 23.586C24.3897 22.1303 24.7573 20.9881 24.7573 20.1707C24.7573 19.538 24.3372 19.0173 23.4911 18.6142C22.6509 18.2111 22.0849 17.7912 21.8048 17.3545C21.5247 16.9177 21.3847 16.4418 21.3847 15.9379C21.3847 15.0253 21.6648 14.3031 22.2249 13.7824C22.7851 13.2617 23.5203 12.9985 24.4131 12.9985Z" fill="white"/>
</svg>
