<svg width="60" height="60" viewBox="0 0 60 60" fill="none" xmlns="http://www.w3.org/2000/svg">
<circle cx="30" cy="30" r="30" fill="#FF8787"/>
<g clip-path="url(#clip0)">
<path d="M34 35C34.2652 35 34.5196 35.1054 34.7071 35.2929C34.8946 35.4804 35 35.7348 35 36C35 36.2652 34.8946 36.5196 34.7071 36.7071C34.5196 36.8947 34.2652 37 34 37H33C32.7348 37 32.4804 36.8947 32.2929 36.7071C32.1054 36.5196 32 36.2652 32 36C32 35.7348 32.1054 35.4804 32.2929 35.2929C32.4804 35.1054 32.7348 35 33 35H34ZM32 33C31.7348 33 31.4804 32.8947 31.2929 32.7071C31.1054 32.5196 31 32.2652 31 32V31H29V32C29 32.2652 28.8946 32.5196 28.7071 32.7071C28.5196 32.8947 28.2652 33 28 33C27.7348 33 27.4804 32.8947 27.2929 32.7071C27.1054 32.5196 27 32.2652 27 32V28C27 27.2044 27.3161 26.4413 27.8787 25.8787C28.4413 25.3161 29.2044 25 30 25C30.7956 25 31.5587 25.3161 32.1213 25.8787C32.6839 26.4413 33 27.2044 33 28V32C33 32.2652 32.8946 32.5196 32.7071 32.7071C32.5196 32.8947 32.2652 33 32 33ZM31 29V28C31 27.7348 30.8946 27.4804 30.7071 27.2929C30.5196 27.1054 30.2652 27 30 27C29.7348 27 29.4804 27.1054 29.2929 27.2929C29.1054 27.4804 29 27.7348 29 28V29H31ZM29.289 34.3L27.677 35.93C27.6318 35.9754 27.571 36.0018 27.507 36.0036C27.443 36.0055 27.3807 35.9827 27.333 35.94L26.717 35.3C26.5313 35.1099 26.2778 35.0012 26.012 34.998C25.7463 34.9949 25.4902 35.0974 25.3 35.283C25.1098 35.4687 25.0012 35.7223 24.998 35.988C24.9948 36.2537 25.0973 36.5099 25.283 36.7L25.909 37.344C26.3318 37.766 26.9047 38.003 27.502 38.003C28.0993 38.003 28.6722 37.766 29.095 37.344L30.711 35.7C30.8764 35.5078 30.9627 35.2599 30.9522 35.0064C30.9417 34.753 30.8354 34.5131 30.6546 34.3351C30.4739 34.1572 30.2323 34.0546 29.9787 34.048C29.7252 34.0415 29.4786 34.1316 29.289 34.3ZM39 24.657V37C38.9984 38.3256 38.4711 39.5965 37.5338 40.5338C36.5964 41.4711 35.3256 41.9984 34 42H26C24.6744 41.9984 23.4036 41.4711 22.4662 40.5338C21.5289 39.5965 21.0016 38.3256 21 37V23C21.0016 21.6744 21.5289 20.4036 22.4662 19.4662C23.4036 18.5289 24.6744 18.0016 26 18H32.343C33 17.9983 33.6508 18.1269 34.2577 18.3784C34.8647 18.6299 35.4157 18.9992 35.879 19.465L37.535 21.121C38.0008 21.5843 38.3702 22.1354 38.6216 22.7423C38.8731 23.3493 39.0017 24 39 24.657V24.657ZM34.465 20.879C34.3229 20.7377 34.1671 20.6107 34 20.5V23H36.5C36.389 22.8329 36.2617 22.6771 36.12 22.535L34.465 20.879ZM37 25H34C33.4696 25 32.9609 24.7893 32.5858 24.4142C32.2107 24.0392 32 23.5304 32 23V20H26C25.2044 20 24.4413 20.3161 23.8787 20.8787C23.3161 21.4413 23 22.2044 23 23V37C23 37.7957 23.3161 38.5587 23.8787 39.1213C24.4413 39.6839 25.2044 40 26 40H34C34.7956 40 35.5587 39.6839 36.1213 39.1213C36.6839 38.5587 37 37.7957 37 37V25Z" fill="white"/>
</g>
<defs>
<clipPath id="clip0">
<rect width="24" height="24" fill="white" transform="translate(18 18)"/>
</clipPath>
</defs>
</svg>
