<svg width="60" height="60" viewBox="0 0 60 60" fill="none" xmlns="http://www.w3.org/2000/svg">
<circle cx="30" cy="30" r="30" fill="#73C5FF"/>
<g clip-path="url(#clip0)">
<path d="M30 26C29.2089 26 28.4355 26.2346 27.7777 26.6741C27.1199 27.1136 26.6072 27.7384 26.3045 28.4693C26.0017 29.2002 25.9225 30.0044 26.0769 30.7804C26.2312 31.5563 26.6122 32.269 27.1716 32.8284C27.731 33.3878 28.4437 33.7688 29.2196 33.9231C29.9956 34.0775 30.7998 33.9983 31.5307 33.6955C32.2616 33.3928 32.8864 32.8801 33.3259 32.2223C33.7654 31.5645 34 30.7911 34 30C34 28.9391 33.5786 27.9217 32.8284 27.1716C32.0783 26.4214 31.0609 26 30 26V26ZM30 32C29.6044 32 29.2178 31.8827 28.8889 31.6629C28.56 31.4432 28.3036 31.1308 28.1522 30.7654C28.0009 30.3999 27.9613 29.9978 28.0384 29.6098C28.1156 29.2219 28.3061 28.8655 28.5858 28.5858C28.8655 28.3061 29.2219 28.1156 29.6098 28.0384C29.9978 27.9613 30.3999 28.0009 30.7654 28.1522C31.1308 28.3036 31.4432 28.56 31.6629 28.8889C31.8827 29.2178 32 29.6044 32 30C32 30.5304 31.7893 31.0391 31.4142 31.4142C31.0391 31.7893 30.5304 32 30 32Z" fill="white"/>
<path d="M39.294 31.9L38.85 31.644C39.0499 30.5564 39.0499 29.4416 38.85 28.354L39.294 28.098C39.6355 27.901 39.9348 27.6387 40.1748 27.3261C40.4149 27.0134 40.591 26.6565 40.6932 26.2758C40.7953 25.8951 40.8215 25.498 40.7702 25.1072C40.7188 24.7163 40.591 24.3394 40.394 23.998C40.1971 23.6566 39.9348 23.3573 39.6221 23.1172C39.3095 22.8771 38.9526 22.701 38.5719 22.5989C38.1911 22.4967 37.794 22.4706 37.4032 22.5219C37.0124 22.5732 36.6355 22.701 36.294 22.898L35.849 23.155C35.0086 22.4369 34.0427 21.8802 33 21.513V21C33 20.2044 32.684 19.4413 32.1214 18.8787C31.5588 18.3161 30.7957 18 30 18C29.2044 18 28.4413 18.3161 27.8787 18.8787C27.3161 19.4413 27 20.2044 27 21V21.513C25.9574 21.8816 24.9919 22.4396 24.152 23.159L23.705 22.9C23.0155 22.5022 22.1961 22.3946 21.4272 22.6009C20.6583 22.8072 20.0029 23.3104 19.605 24C19.2072 24.6896 19.0996 25.5089 19.3059 26.2778C19.5122 27.0467 20.0155 27.7022 20.705 28.1L21.149 28.356C20.9492 29.4436 20.9492 30.5584 21.149 31.646L20.705 31.902C20.0155 32.2998 19.5122 32.9553 19.3059 33.7242C19.0996 34.4931 19.2072 35.3124 19.605 36.002C20.0029 36.6916 20.6583 37.1948 21.4272 37.4011C22.1961 37.6074 23.0155 37.4998 23.705 37.102L24.15 36.845C24.9908 37.5632 25.957 38.1199 27 38.487V39C27 39.7956 27.3161 40.5587 27.8787 41.1213C28.4413 41.6839 29.2044 42 30 42C30.7957 42 31.5588 41.6839 32.1214 41.1213C32.684 40.5587 33 39.7956 33 39V38.487C34.0427 38.1184 35.0082 37.5604 35.848 36.841L36.295 37.099C36.9846 37.4968 37.804 37.6044 38.5729 37.3981C39.3418 37.1918 39.9972 36.6886 40.395 35.999C40.7929 35.3094 40.9005 34.4901 40.6942 33.7212C40.4879 32.9523 39.9846 32.2968 39.295 31.899L39.294 31.9ZM36.746 28.124C37.0847 29.3511 37.0847 30.6469 36.746 31.874C36.6869 32.0876 36.7004 32.3147 36.7844 32.5198C36.8684 32.7249 37.0181 32.8963 37.21 33.007L38.294 33.633C38.5239 33.7656 38.6916 33.9841 38.7603 34.2403C38.829 34.4966 38.7932 34.7697 38.6605 34.9995C38.5279 35.2293 38.3095 35.397 38.0532 35.4658C37.7969 35.5345 37.5239 35.4986 37.294 35.366L36.208 34.738C36.0159 34.6267 35.7923 34.5826 35.5723 34.6124C35.3523 34.6423 35.1485 34.7445 34.993 34.903C34.103 35.8117 32.9816 36.46 31.75 36.778C31.5351 36.8333 31.3446 36.9585 31.2086 37.1339C31.0727 37.3094 30.9989 37.525 30.999 37.747V39C30.999 39.2652 30.8937 39.5196 30.7062 39.7071C30.5186 39.8946 30.2643 40 29.999 40C29.7338 40 29.4795 39.8946 29.2919 39.7071C29.1044 39.5196 28.999 39.2652 28.999 39V37.748C28.9992 37.526 28.9254 37.3104 28.7894 37.1349C28.6535 36.9595 28.463 36.8343 28.248 36.779C27.0164 36.4597 25.8954 35.81 25.006 34.9C24.8506 34.7415 24.6468 34.6393 24.4268 34.6094C24.2068 34.5796 23.9831 34.6237 23.791 34.735L22.707 35.362C22.5933 35.4287 22.4674 35.4722 22.3368 35.4901C22.2061 35.508 22.0732 35.4998 21.9457 35.4661C21.8182 35.4324 21.6986 35.3738 21.5939 35.2937C21.4891 35.2136 21.4012 35.1135 21.3353 34.9993C21.2693 34.8851 21.2266 34.759 21.2096 34.6282C21.1926 34.4974 21.2017 34.3646 21.2362 34.2373C21.2708 34.11 21.3302 33.9909 21.411 33.8866C21.4918 33.7824 21.5924 33.6952 21.707 33.63L22.791 33.004C22.983 32.8933 23.1327 32.7219 23.2167 32.5168C23.3007 32.3117 23.3142 32.0846 23.255 31.871C22.9164 30.6439 22.9164 29.3481 23.255 28.121C23.3131 27.9079 23.299 27.6815 23.2149 27.4773C23.1307 27.273 22.9814 27.1024 22.79 26.992L21.706 26.366C21.4762 26.2334 21.3085 26.0149 21.2398 25.7587C21.171 25.5024 21.2069 25.2293 21.3395 24.9995C21.4722 24.7697 21.6906 24.602 21.9469 24.5332C22.2032 24.4645 22.4762 24.5004 22.706 24.633L23.792 25.261C23.9836 25.3725 24.2068 25.4172 24.4266 25.3881C24.6463 25.3589 24.8502 25.2576 25.006 25.1C25.8961 24.1913 27.0175 23.543 28.249 23.225C28.4647 23.1696 28.6556 23.0438 28.7917 22.8675C28.9277 22.6913 29.001 22.4746 29 22.252V21C29 20.7348 29.1054 20.4804 29.2929 20.2929C29.4805 20.1054 29.7348 20 30 20C30.2653 20 30.5196 20.1054 30.7071 20.2929C30.8947 20.4804 31 20.7348 31 21V22.252C30.9999 22.474 31.0737 22.6896 31.2096 22.8651C31.3456 23.0405 31.5361 23.1657 31.751 23.221C32.9831 23.5402 34.1044 24.1899 34.994 25.1C35.1495 25.2585 35.3533 25.3607 35.5733 25.3906C35.7933 25.4204 36.0169 25.3763 36.209 25.265L37.293 24.638C37.4068 24.5713 37.5327 24.5278 37.6633 24.5099C37.794 24.492 37.9269 24.5002 38.0544 24.5339C38.1819 24.5676 38.3015 24.6262 38.4062 24.7063C38.511 24.7864 38.5989 24.8865 38.6648 25.0007C38.7307 25.1149 38.7734 25.241 38.7904 25.3718C38.8074 25.5026 38.7984 25.6354 38.7639 25.7627C38.7293 25.89 38.6699 26.0091 38.5891 26.1134C38.5083 26.2176 38.4077 26.3048 38.293 26.37L37.209 26.996C37.0181 27.1067 36.8691 27.2775 36.7854 27.4817C36.7016 27.6859 36.6878 27.9121 36.746 28.125V28.124Z" fill="white"/>
</g>
<defs>
<clipPath id="clip0">
<rect width="24" height="24" fill="white" transform="translate(18 18)"/>
</clipPath>
</defs>
</svg>
