<svg width="60" height="60" viewBox="0 0 60 60" fill="none" xmlns="http://www.w3.org/2000/svg">
<circle cx="30" cy="30" r="30" fill="#FF9457"/>
<path d="M39.0001 30.424V29C39.0001 26.6131 38.0519 24.3239 36.364 22.636C34.6762 20.9482 32.387 20 30.0001 20C27.6131 20 25.3239 20.9482 23.6361 22.636C21.9483 24.3239 21.0001 26.6131 21.0001 29V30.424C19.9512 30.8858 19.0929 31.694 18.5687 32.7131C18.0445 33.7322 17.8863 34.9004 18.1206 36.0222C18.3549 37.1441 18.9675 38.1513 19.8557 38.8755C20.744 39.5996 21.8541 39.9966 23.0001 40C23.5305 40 24.0392 39.7893 24.4143 39.4142C24.7894 39.0391 25.0001 38.5304 25.0001 38V32C25.0001 31.4696 24.7894 30.9609 24.4143 30.5858C24.0392 30.2107 23.5305 30 23.0001 30V29C23.0001 27.1435 23.7376 25.363 25.0503 24.0503C26.3631 22.7375 28.1436 22 30.0001 22C31.8566 22 33.6371 22.7375 34.9498 24.0503C36.2626 25.363 37.0001 27.1435 37.0001 29V30C36.4696 30 35.9609 30.2107 35.5859 30.5858C35.2108 30.9609 35.0001 31.4696 35.0001 32V38C35.0001 38.5304 35.2108 39.0391 35.5859 39.4142C35.9609 39.7893 36.4696 40 37.0001 40C38.1461 39.9966 39.2561 39.5996 40.1444 38.8755C41.0327 38.1513 41.6452 37.1441 41.8795 36.0222C42.1138 34.9004 41.9556 33.7322 41.4315 32.7131C40.9073 31.694 40.0489 30.8858 39.0001 30.424V30.424ZM23.0001 38C22.2044 38 21.4414 37.6839 20.8788 37.1213C20.3161 36.5587 20.0001 35.7956 20.0001 35C20.0001 34.2044 20.3161 33.4413 20.8788 32.8787C21.4414 32.3161 22.2044 32 23.0001 32V38ZM37.0001 38V32C37.7957 32 38.5588 32.3161 39.1214 32.8787C39.684 33.4413 40.0001 34.2044 40.0001 35C40.0001 35.7956 39.684 36.5587 39.1214 37.1213C38.5588 37.6839 37.7957 38 37.0001 38Z" fill="white"/>
</svg>
