<svg width="60" height="60" viewBox="0 0 60 60" fill="none" xmlns="http://www.w3.org/2000/svg">
<circle cx="30" cy="30" r="30" fill="#FF8787"/>
<g clip-path="url(#clip0)">
<path d="M35 42C33.6156 42 32.2622 41.5895 31.111 40.8203C29.9599 40.0511 29.0627 38.9579 28.5329 37.6788C28.0031 36.3997 27.8644 34.9922 28.1345 33.6344C28.4046 32.2765 29.0713 31.0292 30.0503 30.0503C31.0293 29.0713 32.2765 28.4046 33.6344 28.1345C34.9923 27.8644 36.3997 28.003 37.6788 28.5328C38.9579 29.0627 40.0512 29.9599 40.8203 31.111C41.5895 32.2622 42 33.6155 42 35C41.9979 36.8559 41.2597 38.6351 39.9474 39.9474C38.6352 41.2597 36.8559 41.9979 35 42V42ZM35 30C34.0111 30 33.0444 30.2932 32.2222 30.8427C31.3999 31.3921 30.7591 32.173 30.3806 33.0866C30.0022 34.0002 29.9032 35.0056 30.0961 35.9755C30.289 36.9454 30.7652 37.8363 31.4645 38.5355C32.1638 39.2348 33.0547 39.711 34.0246 39.9039C34.9945 40.0969 35.9998 39.9978 36.9135 39.6194C37.8271 39.241 38.608 38.6001 39.1574 37.7779C39.7068 36.9556 40 35.9889 40 35C39.9985 33.6744 39.4712 32.4036 38.5338 31.4662C37.5965 30.5289 36.3256 30.0016 35 30ZM36.707 36.707C36.8945 36.5195 36.9998 36.2652 36.9998 36C36.9998 35.7348 36.8945 35.4805 36.707 35.293L36 34.586V33C36 32.7348 35.8947 32.4804 35.7071 32.2929C35.5196 32.1054 35.2653 32 35 32C34.7348 32 34.4805 32.1054 34.2929 32.2929C34.1054 32.4804 34 32.7348 34 33V35C34.0001 35.2652 34.1055 35.5195 34.293 35.707L35.293 36.707C35.4806 36.8945 35.7349 36.9998 36 36.9998C36.2652 36.9998 36.5195 36.8945 36.707 36.707ZM20 41C20.0026 39.1626 20.6147 37.378 21.7405 35.9258C22.8664 34.4737 24.4422 33.4362 26.221 32.976C26.3492 32.947 26.4704 32.893 26.5777 32.8171C26.685 32.7413 26.7763 32.645 26.8464 32.5339C26.9166 32.4227 26.9641 32.2988 26.9863 32.1693C27.0086 32.0398 27.0051 31.9072 26.976 31.779C26.947 31.6508 26.893 31.5296 26.8172 31.4223C26.7413 31.315 26.6451 31.2237 26.5339 31.1536C26.4228 31.0835 26.2989 31.036 26.1694 31.0137C26.0398 30.9915 25.9072 30.995 25.779 31.024C23.5501 31.5709 21.5703 32.8527 20.159 34.6626C18.7477 36.4725 17.9872 38.705 18 41C18 41.2652 18.1054 41.5196 18.2929 41.7071C18.4805 41.8946 18.7348 42 19 42C19.2653 42 19.5196 41.8946 19.7071 41.7071C19.8947 41.5196 20 41.2652 20 41ZM26.474 29C25.3862 29 24.3229 28.6774 23.4184 28.0731C22.5139 27.4687 21.809 26.6098 21.3927 25.6048C20.9764 24.5998 20.8675 23.4939 21.0797 22.427C21.2919 21.3601 21.8158 20.3801 22.585 19.6109C23.3541 18.8417 24.3341 18.3179 25.401 18.1057C26.4679 17.8935 27.5738 18.0024 28.5788 18.4187C29.5838 18.8349 30.4428 19.5399 31.0471 20.4444C31.6515 21.3488 31.974 22.4122 31.974 23.5C31.9724 24.9582 31.3925 26.3562 30.3614 27.3873C29.3303 28.4184 27.9322 28.9984 26.474 29V29ZM26.474 20C25.7818 20 25.1051 20.2053 24.5295 20.5899C23.954 20.9744 23.5054 21.5211 23.2405 22.1606C22.9756 22.8002 22.9062 23.5039 23.0413 24.1828C23.1763 24.8618 23.5097 25.4854 23.9992 25.9749C24.4886 26.4644 25.1123 26.7977 25.7912 26.9328C26.4702 27.0678 27.1739 26.9985 27.8134 26.7336C28.453 26.4687 28.9996 26.0201 29.3842 25.4445C29.7688 24.8689 29.974 24.1922 29.974 23.5C29.974 22.5717 29.6053 21.6815 28.9489 21.0251C28.2925 20.3688 27.4023 20 26.474 20V20Z" fill="white"/>
</g>
<defs>
<clipPath id="clip0">
<rect width="24" height="24" fill="white" transform="translate(18 18)"/>
</clipPath>
</defs>
</svg>
