<svg width="60" height="61" viewBox="0 0 60 61" fill="none" xmlns="http://www.w3.org/2000/svg">
<circle cx="30" cy="30.7812" r="30" fill="#73C5FF"/>
<g clip-path="url(#clip0)">
<path d="M35 18.7812H25C23.6744 18.7828 22.4036 19.3101 21.4662 20.2475C20.5289 21.1848 20.0016 22.4557 20 23.7812V37.7812C20.0016 39.1068 20.5289 40.3777 21.4662 41.315C22.4036 42.2524 23.6744 42.7797 25 42.7812H35C36.3256 42.7797 37.5964 42.2524 38.5338 41.315C39.4711 40.3777 39.9984 39.1068 40 37.7812V23.7812C39.9984 22.4557 39.4711 21.1848 38.5338 20.2475C37.5964 19.3101 36.3256 18.7828 35 18.7812V18.7812ZM25 20.7812H35C35.7957 20.7812 36.5587 21.0973 37.1213 21.6599C37.6839 22.2225 38 22.9856 38 23.7812V35.7812H22V23.7812C22 22.9856 22.3161 22.2225 22.8787 21.6599C23.4413 21.0973 24.2044 20.7812 25 20.7812V20.7812ZM35 40.7812H25C24.2044 40.7812 23.4413 40.4652 22.8787 39.9026C22.3161 39.34 22 38.5769 22 37.7812H29V38.7812C29 39.0465 29.1054 39.3008 29.2929 39.4884C29.4804 39.6759 29.7348 39.7812 30 39.7812C30.2652 39.7812 30.5196 39.6759 30.7071 39.4884C30.8946 39.3008 31 39.0465 31 38.7812V37.7812H38C38 38.5769 37.6839 39.34 37.1213 39.9026C36.5587 40.4652 35.7957 40.7812 35 40.7812Z" fill="white"/>
</g>
<defs>
<clipPath id="clip0">
<rect width="24" height="24" fill="white" transform="translate(18 18.7812)"/>
</clipPath>
</defs>
</svg>
