<svg width="60" height="60" viewBox="0 0 60 60" fill="none" xmlns="http://www.w3.org/2000/svg">
<circle cx="30" cy="30" r="30" fill="white"/>
<path d="M40 33.184V26C39.9984 24.6744 39.4711 23.4036 38.5338 22.4662C37.5965 21.5289 36.3256 21.0016 35 21H25C23.6744 21.0016 22.4036 21.5289 21.4662 22.4662C20.5289 23.4036 20.0016 24.6744 20 26V33.184C19.3333 33.4188 18.7713 33.882 18.4134 34.4915C18.0555 35.1011 17.9249 35.8176 18.0446 36.5142C18.1644 37.2108 18.5269 37.8425 19.0678 38.2975C19.6087 38.7525 20.2932 39.0013 21 39H39C39.7068 39.0013 40.3913 38.7525 40.9323 38.2975C41.4732 37.8425 41.8356 37.2108 41.9554 36.5142C42.0752 35.8176 41.9446 35.1011 41.5867 34.4915C41.2288 33.882 40.6667 33.4188 40 33.184V33.184ZM25 23H35C35.7957 23 36.5587 23.3161 37.1213 23.8787C37.684 24.4413 38 25.2044 38 26V33H33.849C33.5582 32.9998 33.2708 33.0631 33.0069 33.1853C32.743 33.3076 32.5089 33.486 32.321 33.708L32.074 34H27.925L27.679 33.708C27.4911 33.486 27.2571 33.3076 26.9932 33.1853C26.7293 33.0631 26.4419 32.9998 26.151 33H22V26C22 25.2044 22.3161 24.4413 22.8787 23.8787C23.4413 23.3161 24.2044 23 25 23V23ZM39 37H21C20.7348 37 20.4804 36.8946 20.2929 36.7071C20.1054 36.5196 20 36.2652 20 36C20 35.7348 20.1054 35.4804 20.2929 35.2929C20.4804 35.1054 20.7348 35 21 35H26.152L26.398 35.292C26.5858 35.5139 26.8197 35.6922 27.0834 35.8145C27.3471 35.9367 27.6343 36 27.925 36H32.074C32.3649 36.0002 32.6523 35.9369 32.9162 35.8147C33.1801 35.6924 33.4141 35.514 33.602 35.292L33.849 35H39C39.2652 35 39.5196 35.1054 39.7071 35.2929C39.8947 35.4804 40 35.7348 40 36C40 36.2652 39.8947 36.5196 39.7071 36.7071C39.5196 36.8946 39.2652 37 39 37Z" fill="#4F9646"/>
</svg>
