<svg width="60" height="60" viewBox="0 0 60 60" fill="none" xmlns="http://www.w3.org/2000/svg">
<circle cx="30" cy="30" r="30" fill="#77D6A6"/>
<g clip-path="url(#clip0)">
<path d="M36.656 18.9281L24.464 31.1201C23.9984 31.5833 23.6292 32.1342 23.3779 32.741C23.1266 33.3477 22.9982 33.9984 23 34.6551V35.9981C23 36.2633 23.1054 36.5177 23.2929 36.7052C23.4804 36.8928 23.7348 36.9981 24 36.9981H25.343C25.9998 37 26.6504 36.8715 27.2572 36.6202C27.864 36.3689 28.4149 35.9998 28.878 35.5341L41.07 23.3421C41.6544 22.7563 41.9826 21.9626 41.9826 21.1351C41.9826 20.3076 41.6544 19.5139 41.07 18.9281C40.4757 18.36 39.6852 18.043 38.863 18.043C38.0408 18.043 37.2503 18.36 36.656 18.9281V18.9281ZM39.656 21.9281L27.464 34.1201C26.9001 34.6806 26.138 34.996 25.343 34.9981H25V34.6551C25.0021 33.8601 25.3176 33.098 25.878 32.5341L38.07 20.3421C38.2836 20.1381 38.5676 20.0242 38.863 20.0242C39.1584 20.0242 39.4424 20.1381 39.656 20.3421C39.866 20.5526 39.9839 20.8378 39.9839 21.1351C39.9839 21.4324 39.866 21.7176 39.656 21.9281V21.9281Z" fill="white"/>
<path d="M41 26.979C40.7348 26.979 40.4804 27.0844 40.2929 27.2719C40.1054 27.4594 40 27.7138 40 27.979V33H36C35.2044 33 34.4413 33.3161 33.8787 33.8787C33.3161 34.4413 33 35.2044 33 36V40H23C22.2044 40 21.4413 39.6839 20.8787 39.1213C20.3161 38.5587 20 37.7957 20 37V23C20 22.2044 20.3161 21.4413 20.8787 20.8787C21.4413 20.3161 22.2044 20 23 20H32.042C32.3072 20 32.5616 19.8946 32.7491 19.7071C32.9366 19.5196 33.042 19.2652 33.042 19C33.042 18.7348 32.9366 18.4804 32.7491 18.2929C32.5616 18.1054 32.3072 18 32.042 18H23C21.6744 18.0016 20.4036 18.5289 19.4662 19.4662C18.5289 20.4036 18.0016 21.6744 18 23V37C18.0016 38.3256 18.5289 39.5964 19.4662 40.5338C20.4036 41.4711 21.6744 41.9984 23 42H34.343C34.9999 42.0019 35.6507 41.8735 36.2576 41.6222C36.8646 41.3709 37.4157 41.0017 37.879 40.536L40.535 37.878C41.0008 37.4149 41.37 36.864 41.6215 36.2572C41.873 35.6504 42.0016 34.9998 42 34.343V27.979C42 27.7138 41.8946 27.4594 41.7071 27.2719C41.5196 27.0844 41.2652 26.979 41 26.979ZM36.465 39.122C36.063 39.523 35.5547 39.8006 35 39.922V36C35 35.7348 35.1054 35.4804 35.2929 35.2929C35.4804 35.1054 35.7348 35 36 35H39.925C39.8013 35.5535 39.524 36.0609 39.125 36.464L36.465 39.122Z" fill="white"/>
</g>
<defs>
<clipPath id="clip0">
<rect width="24" height="24" fill="white" transform="translate(18 18)"/>
</clipPath>
</defs>
</svg>
