<svg width="60" height="61" viewBox="0 0 60 61" fill="none" xmlns="http://www.w3.org/2000/svg">
<circle cx="30" cy="30.7812" r="30" fill="#FF8787"/>
<g clip-path="url(#clip0)">
<path d="M35.0002 42.7813C33.6157 42.7813 32.2623 42.3707 31.1112 41.6015C29.96 40.8324 29.0628 39.7391 28.533 38.46C28.0032 37.181 27.8646 35.7735 28.1347 34.4156C28.4048 33.0578 29.0714 31.8105 30.0504 30.8315C31.0294 29.8525 32.2767 29.1859 33.6345 28.9158C34.9924 28.6457 36.3999 28.7843 37.6789 29.3141C38.958 29.8439 40.0513 30.7411 40.8204 31.8923C41.5896 33.0434 42.0002 34.3968 42.0002 35.7813C41.998 37.6371 41.2599 39.4164 39.9476 40.7287C38.6353 42.041 36.856 42.7791 35.0002 42.7813V42.7813ZM35.0002 30.7813C34.0113 30.7813 33.0446 31.0745 32.2223 31.6239C31.4001 32.1733 30.7592 32.9542 30.3808 33.8678C30.0023 34.7815 29.9033 35.7868 30.0962 36.7567C30.2892 37.7266 30.7654 38.6175 31.4646 39.3168C32.1639 40.0161 33.0548 40.4923 34.0247 40.6852C34.9946 40.8781 35.9999 40.7791 36.9136 40.4007C37.8272 40.0222 38.6081 39.3814 39.1575 38.5591C39.7069 37.7369 40.0002 36.7702 40.0002 35.7813C39.9986 34.4557 39.4713 33.1848 38.5339 32.2475C37.5966 31.3101 36.3258 30.7828 35.0002 30.7813ZM36.7072 37.4883C36.8946 37.3007 36.9999 37.0464 36.9999 36.7813C36.9999 36.5161 36.8946 36.2618 36.7072 36.0743L36.0002 35.3673V33.7813C36.0002 33.516 35.8948 33.2617 35.7073 33.0741C35.5197 32.8866 35.2654 32.7813 35.0002 32.7813C34.7349 32.7813 34.4806 32.8866 34.2931 33.0741C34.1055 33.2617 34.0002 33.516 34.0002 33.7813V35.7813C34.0002 36.0464 34.1056 36.3008 34.2932 36.4883L35.2932 37.4883C35.4807 37.6757 35.735 37.781 36.0002 37.781C36.2653 37.781 36.5196 37.6757 36.7072 37.4883ZM20.0002 41.7813C20.0027 39.9438 20.6148 38.1592 21.7407 36.7071C22.8665 35.255 24.4423 34.2175 26.2212 33.7573C26.3493 33.7282 26.4705 33.6742 26.5778 33.5984C26.6851 33.5225 26.7765 33.4263 26.8466 33.3151C26.9167 33.204 26.9642 33.0801 26.9864 32.9506C27.0087 32.8211 27.0052 32.6884 26.9762 32.5603C26.9471 32.4321 26.8932 32.3109 26.8173 32.2036C26.7414 32.0963 26.6452 32.005 26.534 31.9348C26.4229 31.8647 26.299 31.8172 26.1695 31.795C26.04 31.7727 25.9073 31.7762 25.7792 31.8053C23.5502 32.3522 21.5704 33.634 20.1591 35.4438C18.7478 37.2537 17.9873 39.4862 18.0002 41.7813C18.0002 42.0465 18.1055 42.3008 18.2931 42.4884C18.4806 42.6759 18.7349 42.7813 19.0002 42.7813C19.2654 42.7813 19.5197 42.6759 19.7073 42.4884C19.8948 42.3008 20.0002 42.0465 20.0002 41.7813ZM26.4742 29.7813C25.3864 29.7813 24.323 29.4587 23.4185 28.8543C22.5141 28.25 21.8091 27.391 21.3928 26.386C20.9765 25.381 20.8676 24.2752 21.0798 23.2083C21.2921 22.1414 21.8159 21.1614 22.5851 20.3922C23.3543 19.623 24.3343 19.0992 25.4012 18.8869C26.4681 18.6747 27.5739 18.7836 28.5789 19.1999C29.5839 19.6162 30.4429 20.3211 31.0472 21.2256C31.6516 22.1301 31.9742 23.1935 31.9742 24.2813C31.9726 25.7395 31.3926 27.1375 30.3615 28.1686C29.3304 29.1997 27.9324 29.7797 26.4742 29.7813V29.7813ZM26.4742 20.7813C25.7819 20.7813 25.1052 20.9865 24.5297 21.3711C23.9541 21.7557 23.5055 22.3023 23.2406 22.9419C22.9757 23.5814 22.9064 24.2851 23.0414 24.9641C23.1765 25.643 23.5098 26.2666 23.9993 26.7561C24.4888 27.2456 25.1124 27.579 25.7913 27.714C26.4703 27.8491 27.174 27.7797 27.8136 27.5148C28.4531 27.2499 28.9997 26.8013 29.3843 26.2257C29.7689 25.6502 29.9742 24.9735 29.9742 24.2813C29.9742 23.353 29.6054 22.4628 28.949 21.8064C28.2927 21.15 27.4024 20.7813 26.4742 20.7813V20.7813Z" fill="white"/>
</g>
<defs>
<clipPath id="clip0">
<rect width="24" height="24" fill="white" transform="translate(18 18.7812)"/>
</clipPath>
</defs>
</svg>
