<svg width="60" height="61" viewBox="0 0 60 61" fill="none" xmlns="http://www.w3.org/2000/svg">
<circle cx="30" cy="30.7812" r="30" fill="#FF9457"/>
<path d="M39.0007 31.2052V29.7812C39.0007 27.3943 38.0525 25.1051 36.3646 23.4173C34.6768 21.7295 32.3876 20.7812 30.0007 20.7812C27.6137 20.7812 25.3245 21.7295 23.6367 23.4173C21.9489 25.1051 21.0007 27.3943 21.0007 29.7812V31.2052C19.9518 31.6671 19.0935 32.4752 18.5693 33.4943C18.0451 34.5134 17.8869 35.6817 18.1212 36.8035C18.3555 37.9253 18.9681 38.9326 19.8564 39.6567C20.7446 40.3808 21.8547 40.7778 23.0007 40.7812C23.5311 40.7812 24.0398 40.5705 24.4149 40.1955C24.79 39.8204 25.0007 39.3117 25.0007 38.7812V32.7812C25.0007 32.2508 24.79 31.7421 24.4149 31.367C24.0398 30.992 23.5311 30.7812 23.0007 30.7812V29.7812C23.0007 27.9247 23.7382 26.1443 25.0509 24.8315C26.3637 23.5187 28.1442 22.7812 30.0007 22.7812C31.8572 22.7812 33.6377 23.5187 34.9504 24.8315C36.2632 26.1443 37.0007 27.9247 37.0007 29.7812V30.7812C36.4703 30.7812 35.9615 30.992 35.5865 31.367C35.2114 31.7421 35.0007 32.2508 35.0007 32.7812V38.7812C35.0007 39.3117 35.2114 39.8204 35.5865 40.1955C35.9615 40.5705 36.4703 40.7812 37.0007 40.7812C38.1467 40.7778 39.2568 40.3808 40.145 39.6567C41.0333 38.9326 41.6458 37.9253 41.8801 36.8035C42.1144 35.6817 41.9562 34.5134 41.4321 33.4943C40.9079 32.4752 40.0495 31.6671 39.0007 31.2052V31.2052ZM23.0007 38.7812C22.205 38.7812 21.442 38.4652 20.8794 37.9026C20.3168 37.34 20.0007 36.5769 20.0007 35.7812C20.0007 34.9856 20.3168 34.2225 20.8794 33.6599C21.442 33.0973 22.205 32.7812 23.0007 32.7812V38.7812ZM37.0007 38.7812V32.7812C37.7963 32.7812 38.5594 33.0973 39.122 33.6599C39.6846 34.2225 40.0007 34.9856 40.0007 35.7812C40.0007 36.5769 39.6846 37.34 39.122 37.9026C38.5594 38.4652 37.7963 38.7812 37.0007 38.7812Z" fill="white"/>
</svg>
