<svg width="60" height="61" viewBox="0 0 60 61" fill="none" xmlns="http://www.w3.org/2000/svg">
<circle cx="30" cy="30.7812" r="30" fill="#73C5FF"/>
<g clip-path="url(#clip0)">
<path d="M30 26.7812C29.2089 26.7812 28.4355 27.0158 27.7777 27.4554C27.1199 27.8949 26.6072 28.5196 26.3045 29.2505C26.0017 29.9814 25.9225 30.7857 26.0769 31.5616C26.2312 32.3375 26.6122 33.0503 27.1716 33.6097C27.731 34.1691 28.4437 34.5501 29.2196 34.7044C29.9956 34.8587 30.7998 34.7795 31.5307 34.4768C32.2616 34.174 32.8864 33.6613 33.3259 33.0035C33.7654 32.3457 34 31.5724 34 30.7812C34 29.7204 33.5786 28.703 32.8284 27.9528C32.0783 27.2027 31.0609 26.7813 30 26.7812V26.7812ZM30 32.7812C29.6044 32.7812 29.2178 32.664 28.8889 32.4442C28.56 32.2244 28.3036 31.9121 28.1522 31.5466C28.0009 31.1812 27.9613 30.779 28.0384 30.3911C28.1156 30.0031 28.3061 29.6467 28.5858 29.367C28.8655 29.0873 29.2219 28.8968 29.6098 28.8197C29.9978 28.7425 30.3999 28.7821 30.7654 28.9335C31.1308 29.0849 31.4432 29.3412 31.6629 29.6701C31.8827 29.999 32 30.3857 32 30.7812C32 31.3117 31.7893 31.8204 31.4142 32.1955C31.0391 32.5705 30.5304 32.7812 30 32.7812Z" fill="white"/>
<path d="M39.2938 32.6812L38.8498 32.4253C39.0497 31.3377 39.0497 30.2228 38.8498 29.1353L39.2938 28.8792C39.6352 28.6823 39.9345 28.42 40.1746 28.1073C40.4147 27.7947 40.5908 27.4378 40.6929 27.0571C40.7951 26.6763 40.8212 26.2792 40.7699 25.8884C40.7186 25.4976 40.5908 25.1207 40.3938 24.7793C40.1968 24.4378 39.9345 24.1385 39.6219 23.8985C39.3092 23.6584 38.9523 23.4823 38.5716 23.3801C38.1909 23.278 37.7938 23.2518 37.403 23.3031C37.0121 23.3545 36.6352 23.4823 36.2938 23.6792L35.8488 23.9363C35.0083 23.2182 34.0425 22.6615 32.9998 22.2943V21.7812C32.9998 20.9856 32.6837 20.2225 32.1211 19.6599C31.5585 19.0973 30.7954 18.7812 29.9998 18.7812C29.2041 18.7812 28.4411 19.0973 27.8785 19.6599C27.3159 20.2225 26.9998 20.9856 26.9998 21.7812V22.2943C25.9572 22.6628 24.9916 23.2208 24.1518 23.9402L23.7048 23.6813C23.0152 23.2834 22.1959 23.1758 21.427 23.3821C20.6581 23.5884 20.0026 24.0917 19.6048 24.7812C19.207 25.4708 19.0994 26.2902 19.3057 27.0591C19.512 27.828 20.0152 28.4834 20.7048 28.8813L21.1488 29.1372C20.9489 30.2248 20.9489 31.3397 21.1488 32.4272L20.7048 32.6833C20.0152 33.0811 19.512 33.7365 19.3057 34.5054C19.0994 35.2743 19.207 36.0937 19.6048 36.7833C20.0026 37.4728 20.6581 37.9761 21.427 38.1824C22.1959 38.3887 23.0152 38.2811 23.7048 37.8832L24.1498 37.6262C24.9906 38.3444 25.9568 38.9011 26.9998 39.2682V39.7812C26.9998 40.5769 27.3159 41.34 27.8785 41.9026C28.4411 42.4652 29.2041 42.7812 29.9998 42.7812C30.7954 42.7812 31.5585 42.4652 32.1211 41.9026C32.6837 41.34 32.9998 40.5769 32.9998 39.7812V39.2682C34.0424 38.8997 35.008 38.3416 35.8478 37.6222L36.2948 37.8803C36.9844 38.2781 37.8037 38.3857 38.5726 38.1794C39.3415 37.9731 39.997 37.4698 40.3948 36.7803C40.7926 36.0907 40.9002 35.2713 40.6939 34.5024C40.4876 33.7335 39.9844 33.0781 39.2948 32.6803L39.2938 32.6812ZM36.7458 28.9052C37.0844 30.1323 37.0844 31.4282 36.7458 32.6552C36.6867 32.8688 36.7002 33.096 36.7841 33.3011C36.8681 33.5061 37.0178 33.6775 37.2098 33.7882L38.2938 34.4143C38.5236 34.5469 38.6913 34.7653 38.7601 35.0216C38.8288 35.2779 38.7929 35.5509 38.6603 35.7808C38.5277 36.0106 38.3092 36.1783 38.053 36.247C37.7967 36.3157 37.5236 36.2799 37.2938 36.1472L36.2078 35.5193C36.0157 35.408 35.792 35.3638 35.572 35.3937C35.3521 35.4236 35.1483 35.5258 34.9928 35.6842C34.1027 36.5929 32.9814 37.2412 31.7498 37.5592C31.5348 37.6145 31.3444 37.7397 31.2084 37.9152C31.0724 38.0906 30.9987 38.3063 30.9988 38.5282V39.7812C30.9988 40.0465 30.8934 40.3008 30.7059 40.4884C30.5184 40.6759 30.264 40.7812 29.9988 40.7812C29.7336 40.7812 29.4792 40.6759 29.2917 40.4884C29.1042 40.3008 28.9988 40.0465 28.9988 39.7812V38.5292C28.9989 38.3073 28.9252 38.0916 28.7892 37.9162C28.6532 37.7407 28.4628 37.6155 28.2478 37.5602C27.0161 37.2409 25.8951 36.5912 25.0058 35.6812C24.8503 35.5228 24.6465 35.4206 24.4266 35.3907C24.2066 35.3608 23.9829 35.405 23.7908 35.5163L22.7068 36.1432C22.593 36.2099 22.4672 36.2535 22.3365 36.2713C22.2059 36.2892 22.073 36.2811 21.9455 36.2473C21.818 36.2136 21.6984 36.155 21.5936 36.0749C21.4889 35.9948 21.401 35.8948 21.335 35.7806C21.2691 35.6664 21.2264 35.5402 21.2094 35.4095C21.1924 35.2787 21.2014 35.1458 21.236 35.0186C21.2705 34.8913 21.3299 34.7721 21.4107 34.6679C21.4915 34.5636 21.5922 34.4764 21.7068 34.4113L22.7908 33.7852C22.9827 33.6745 23.1325 33.5031 23.2165 33.2981C23.3004 33.093 23.3139 32.8658 23.2548 32.6523C22.9162 31.4252 22.9162 30.1293 23.2548 28.9023C23.3129 28.6891 23.2987 28.4628 23.2146 28.2585C23.1305 28.0543 22.9811 27.8837 22.7898 27.7732L21.7058 27.1473C21.476 27.0146 21.3083 26.7962 21.2395 26.5399C21.1708 26.2836 21.2067 26.0106 21.3393 25.7807C21.4719 25.5509 21.6904 25.3832 21.9466 25.3145C22.2029 25.2458 22.476 25.2816 22.7058 25.4142L23.7918 26.0423C23.9834 26.1538 24.2066 26.1985 24.4263 26.1693C24.6461 26.1402 24.8499 26.0388 25.0058 25.8812C25.8959 24.9726 27.0172 24.3243 28.2488 24.0062C28.4644 23.9508 28.6554 23.825 28.7914 23.6488C28.9275 23.4725 29.0008 23.2559 28.9998 23.0332V21.7812C28.9998 21.516 29.1052 21.2617 29.2927 21.0741C29.4802 20.8866 29.7346 20.7812 29.9998 20.7812C30.265 20.7812 30.5194 20.8866 30.7069 21.0741C30.8944 21.2617 30.9998 21.516 30.9998 21.7812V23.0332C30.9997 23.2552 31.0734 23.4709 31.2094 23.6463C31.3454 23.8218 31.5358 23.947 31.7508 24.0023C32.9828 24.3214 34.1042 24.9711 34.9938 25.8812C35.1493 26.0397 35.3531 26.1419 35.573 26.1718C35.793 26.2017 36.0167 26.1575 36.2088 26.0462L37.2928 25.4193C37.4066 25.3526 37.5324 25.309 37.6631 25.2912C37.7937 25.2733 37.9266 25.2814 38.0541 25.3152C38.1816 25.3489 38.3012 25.4075 38.406 25.4876C38.5107 25.5677 38.5986 25.6677 38.6646 25.7819C38.7305 25.8961 38.7732 26.0223 38.7902 26.153C38.8072 26.2838 38.7982 26.4167 38.7636 26.5439C38.7291 26.6712 38.6697 26.7904 38.5889 26.8946C38.5081 26.9989 38.4074 27.0861 38.2928 27.1512L37.2088 27.7773C37.0178 27.888 36.8689 28.0587 36.7851 28.2629C36.7014 28.4672 36.6876 28.6933 36.7458 28.9062V28.9052Z" fill="white"/>
</g>
<defs>
<clipPath id="clip0">
<rect width="24" height="24" fill="white" transform="translate(18 18.7812)"/>
</clipPath>
</defs>
</svg>
