<svg width="60" height="60" viewBox="0 0 60 60" fill="none" xmlns="http://www.w3.org/2000/svg">
<circle cx="30" cy="30" r="30" fill="#73C5FF"/>
<g clip-path="url(#clip0)">
<path d="M35 18H25C23.6744 18.0016 22.4036 18.5289 21.4662 19.4662C20.5289 20.4036 20.0016 21.6744 20 23V37C20.0016 38.3256 20.5289 39.5964 21.4662 40.5338C22.4036 41.4711 23.6744 41.9984 25 42H35C36.3256 41.9984 37.5964 41.4711 38.5338 40.5338C39.4711 39.5964 39.9984 38.3256 40 37V23C39.9984 21.6744 39.4711 20.4036 38.5338 19.4662C37.5964 18.5289 36.3256 18.0016 35 18V18ZM25 20H35C35.7957 20 36.5587 20.3161 37.1213 20.8787C37.6839 21.4413 38 22.2044 38 23V35H22V23C22 22.2044 22.3161 21.4413 22.8787 20.8787C23.4413 20.3161 24.2044 20 25 20V20ZM35 40H25C24.2044 40 23.4413 39.6839 22.8787 39.1213C22.3161 38.5587 22 37.7956 22 37H29V38C29 38.2652 29.1054 38.5196 29.2929 38.7071C29.4804 38.8946 29.7348 39 30 39C30.2652 39 30.5196 38.8946 30.7071 38.7071C30.8946 38.5196 31 38.2652 31 38V37H38C38 37.7956 37.6839 38.5587 37.1213 39.1213C36.5587 39.6839 35.7957 40 35 40Z" fill="white"/>
</g>
<defs>
<clipPath id="clip0">
<rect width="24" height="24" fill="white" transform="translate(18 18)"/>
</clipPath>
</defs>
</svg>
