<svg width="60" height="60" viewBox="0 0 60 60" fill="none" xmlns="http://www.w3.org/2000/svg">
<circle cx="30" cy="30" r="30" fill="#FF9457"/>
<path d="M39 33.9991V29.9991C38.9997 28.6556 38.698 27.3293 38.1172 26.1178C37.5364 24.9064 36.6912 23.8406 35.644 22.9991H38.277C38.4986 23.3767 38.8385 23.6707 39.2441 23.8356C39.6497 24.0006 40.0983 24.0272 40.5206 23.9114C40.9429 23.7957 41.3152 23.5439 41.5799 23.1952C41.8447 22.8465 41.9871 22.4202 41.9851 21.9824C41.9831 21.5445 41.8369 21.1195 41.569 20.7732C41.3011 20.4269 40.9266 20.1785 40.5033 20.0665C40.08 19.9546 39.6316 19.9852 39.2275 20.1538C38.8235 20.3224 38.4862 20.6195 38.268 20.9991H33.858C33.6397 20.1415 33.1419 19.3811 32.4433 18.838C31.7446 18.2948 30.8849 18 30 18C29.1151 18 28.2554 18.2948 27.5567 18.838C26.8581 19.3811 26.3603 20.1415 26.142 20.9991H21.723C21.5014 20.6215 21.1615 20.3274 20.7559 20.1625C20.3503 19.9975 19.9017 19.9709 19.4794 20.0867C19.0571 20.2025 18.6848 20.4542 18.4201 20.8029C18.1553 21.1517 18.0129 21.5779 18.0149 22.0158C18.0169 22.4536 18.1631 22.8786 18.431 23.2249C18.6989 23.5713 19.0734 23.8196 19.4967 23.9316C19.92 24.0436 20.3684 24.0129 20.7725 23.8443C21.1765 23.6757 21.5138 23.3787 21.732 22.9991H24.356C23.3088 23.8406 22.4636 24.9064 21.8828 26.1178C21.302 27.3293 21.0003 28.6556 21 29.9991V33.9991C20.2044 33.9991 19.4413 34.3151 18.8787 34.8777C18.3161 35.4404 18 36.2034 18 36.9991V38.9991C18 39.7947 18.3161 40.5578 18.8787 41.1204C19.4413 41.683 20.2044 41.9991 21 41.9991H23C23.7956 41.9991 24.5587 41.683 25.1213 41.1204C25.6839 40.5578 26 39.7947 26 38.9991V36.9991C26 36.2034 25.6839 35.4404 25.1213 34.8777C24.5587 34.3151 23.7956 33.9991 23 33.9991V29.9991C23.0016 28.7678 23.328 27.5587 23.9462 26.4938C24.5644 25.429 25.4525 24.546 26.521 23.9341C26.8619 24.559 27.3649 25.0806 27.9771 25.444C28.5893 25.8074 29.2881 25.9992 30 25.9992C30.7119 25.9992 31.4107 25.8074 32.0229 25.444C32.6351 25.0806 33.1381 24.559 33.479 23.9341C34.5475 24.546 35.4356 25.429 36.0538 26.4938C36.672 27.5587 36.9984 28.7678 37 29.9991V33.9991C36.2044 33.9991 35.4413 34.3151 34.8787 34.8777C34.3161 35.4404 34 36.2034 34 36.9991V38.9991C34 39.7947 34.3161 40.5578 34.8787 41.1204C35.4413 41.683 36.2044 41.9991 37 41.9991H39C39.7956 41.9991 40.5587 41.683 41.1213 41.1204C41.6839 40.5578 42 39.7947 42 38.9991V36.9991C42 36.2034 41.6839 35.4404 41.1213 34.8777C40.5587 34.3151 39.7956 33.9991 39 33.9991V33.9991ZM24 36.9991V38.9991C24 39.2643 23.8946 39.5186 23.7071 39.7062C23.5196 39.8937 23.2652 39.9991 23 39.9991H21C20.7348 39.9991 20.4804 39.8937 20.2929 39.7062C20.1054 39.5186 20 39.2643 20 38.9991V36.9991C20 36.7338 20.1054 36.4795 20.2929 36.292C20.4804 36.1044 20.7348 35.9991 21 35.9991H23C23.2652 35.9991 23.5196 36.1044 23.7071 36.292C23.8946 36.4795 24 36.7338 24 36.9991ZM30 23.9991C29.6044 23.9991 29.2178 23.8818 28.8889 23.662C28.56 23.4422 28.3036 23.1299 28.1522 22.7644C28.0009 22.399 27.9613 21.9968 28.0384 21.6089C28.1156 21.2209 28.3061 20.8646 28.5858 20.5849C28.8655 20.3051 29.2219 20.1147 29.6098 20.0375C29.9978 19.9603 30.3999 19.9999 30.7654 20.1513C31.1308 20.3027 31.4432 20.559 31.6629 20.8879C31.8827 21.2168 32 21.6035 32 21.9991C32 22.5295 31.7893 23.0382 31.4142 23.4133C31.0391 23.7884 30.5304 23.9991 30 23.9991ZM40 38.9991C40 39.2643 39.8946 39.5186 39.7071 39.7062C39.5196 39.8937 39.2652 39.9991 39 39.9991H37C36.7348 39.9991 36.4804 39.8937 36.2929 39.7062C36.1054 39.5186 36 39.2643 36 38.9991V36.9991C36 36.7338 36.1054 36.4795 36.2929 36.292C36.4804 36.1044 36.7348 35.9991 37 35.9991H39C39.2652 35.9991 39.5196 36.1044 39.7071 36.292C39.8946 36.4795 40 36.7338 40 36.9991V38.9991Z" fill="white"/>
</svg>
