<svg width="60" height="61" viewBox="0 0 60 61" fill="none" xmlns="http://www.w3.org/2000/svg">
<circle cx="30" cy="30.7812" r="30" fill="#77D6A6"/>
<g clip-path="url(#clip0)">
<path d="M36.656 19.7094L24.464 31.9014C23.9984 32.3645 23.6292 32.9154 23.3779 33.5222C23.1266 34.129 22.9982 34.7796 23 35.4364V36.7794C23 37.0446 23.1054 37.2989 23.2929 37.4865C23.4804 37.674 23.7348 37.7794 24 37.7794H25.343C25.9998 37.7812 26.6504 37.6528 27.2572 37.4015C27.864 37.1502 28.4149 36.781 28.878 36.3154L41.07 24.1234C41.6544 23.5375 41.9826 22.7438 41.9826 21.9164C41.9826 21.0889 41.6544 20.2952 41.07 19.7094C40.4757 19.1413 39.6852 18.8242 38.863 18.8242C38.0408 18.8242 37.2503 19.1413 36.656 19.7094V19.7094ZM39.656 22.7094L27.464 34.9014C26.9001 35.4618 26.138 35.7773 25.343 35.7794H25V35.4364C25.0021 34.6414 25.3176 33.8792 25.878 33.3154L38.07 21.1234C38.2836 20.9193 38.5676 20.8055 38.863 20.8055C39.1584 20.8055 39.4424 20.9193 39.656 21.1234C39.866 21.3339 39.9839 21.6191 39.9839 21.9164C39.9839 22.2137 39.866 22.4989 39.656 22.7094V22.7094Z" fill="white"/>
<path d="M41 27.7603C40.7348 27.7603 40.4804 27.8656 40.2929 28.0531C40.1054 28.2407 40 28.495 40 28.7603V33.7813H36C35.2044 33.7813 34.4413 34.0973 33.8787 34.6599C33.3161 35.2225 33 35.9856 33 36.7813V40.7813H23C22.2044 40.7813 21.4413 40.4652 20.8787 39.9026C20.3161 39.34 20 38.5769 20 37.7813V23.7813C20 22.9856 20.3161 22.2225 20.8787 21.6599C21.4413 21.0973 22.2044 20.7813 23 20.7813H32.042C32.3072 20.7813 32.5616 20.6759 32.7491 20.4884C32.9366 20.3008 33.042 20.0465 33.042 19.7813C33.042 19.516 32.9366 19.2617 32.7491 19.0741C32.5616 18.8866 32.3072 18.7812 32.042 18.7812H23C21.6744 18.7828 20.4036 19.3101 19.4662 20.2475C18.5289 21.1848 18.0016 22.4557 18 23.7813V37.7813C18.0016 39.1068 18.5289 40.3777 19.4662 41.315C20.4036 42.2524 21.6744 42.7797 23 42.7813H34.343C34.9999 42.7831 35.6507 42.6547 36.2576 42.4034C36.8646 42.1521 37.4157 41.7829 37.879 41.3173L40.535 38.6593C41.0008 38.1961 41.37 37.6452 41.6215 37.0385C41.873 36.4317 42.0016 35.7811 42 35.1243V28.7603C42 28.495 41.8946 28.2407 41.7071 28.0531C41.5196 27.8656 41.2652 27.7603 41 27.7603ZM36.465 39.9033C36.063 40.3043 35.5547 40.5819 35 40.7033V36.7813C35 36.516 35.1054 36.2617 35.2929 36.0741C35.4804 35.8866 35.7348 35.7813 36 35.7813H39.925C39.8013 36.3348 39.524 36.8422 39.125 37.2453L36.465 39.9033Z" fill="white"/>
</g>
<defs>
<clipPath id="clip0">
<rect width="24" height="24" fill="white" transform="translate(18 18.7812)"/>
</clipPath>
</defs>
</svg>
