<svg width="60" height="61" viewBox="0 0 60 61" fill="none" xmlns="http://www.w3.org/2000/svg">
<circle cx="30" cy="30.7812" r="30" fill="#FF9457"/>
<g clip-path="url(#clip0)">
<path d="M39 34.7803V30.7803C38.9997 29.4368 38.698 28.1105 38.1172 26.8991C37.5364 25.6876 36.6912 24.6219 35.644 23.7803H38.277C38.4986 24.1579 38.8385 24.452 39.2441 24.6169C39.6497 24.7818 40.0983 24.8085 40.5206 24.6927C40.9429 24.5769 41.3152 24.3252 41.5799 23.9765C41.8447 23.6277 41.9871 23.2014 41.9851 22.7636C41.9831 22.3258 41.8369 21.9008 41.569 21.5545C41.3011 21.2081 40.9266 20.9597 40.5033 20.8478C40.08 20.7358 39.6316 20.7665 39.2275 20.9351C38.8235 21.1036 38.4862 21.4007 38.268 21.7803H33.858C33.6397 20.9227 33.1419 20.1623 32.4433 19.6192C31.7446 19.0761 30.8849 18.7812 30 18.7812C29.1151 18.7812 28.2554 19.0761 27.5567 19.6192C26.8581 20.1623 26.3603 20.9227 26.142 21.7803H21.723C21.5014 21.4027 21.1615 21.1087 20.7559 20.9437C20.3503 20.7788 19.9017 20.7522 19.4794 20.8679C19.0571 20.9837 18.6848 21.2354 18.4201 21.5842C18.1553 21.9329 18.0129 22.3592 18.0149 22.797C18.0169 23.2349 18.1631 23.6598 18.431 24.0062C18.6989 24.3525 19.0734 24.6009 19.4967 24.7129C19.92 24.8248 20.3684 24.7941 20.7725 24.6256C21.1765 24.457 21.5138 24.1599 21.732 23.7803H24.356C23.3088 24.6219 22.4636 25.6876 21.8828 26.8991C21.302 28.1105 21.0003 29.4368 21 30.7803V34.7803C20.2044 34.7803 19.4413 35.0964 18.8787 35.659C18.3161 36.2216 18 36.9847 18 37.7803V39.7803C18 40.576 18.3161 41.339 18.8787 41.9016C19.4413 42.4642 20.2044 42.7803 21 42.7803H23C23.7956 42.7803 24.5587 42.4642 25.1213 41.9016C25.6839 41.339 26 40.576 26 39.7803V37.7803C26 36.9847 25.6839 36.2216 25.1213 35.659C24.5587 35.0964 23.7956 34.7803 23 34.7803V30.7803C23.0016 29.549 23.328 28.3399 23.9462 27.2751C24.5644 26.2102 25.4525 25.3273 26.521 24.7153C26.8619 25.3403 27.3649 25.8619 27.9771 26.2253C28.5893 26.5887 29.2881 26.7804 30 26.7804C30.7119 26.7804 31.4107 26.5887 32.0229 26.2253C32.6351 25.8619 33.1381 25.3403 33.479 24.7153C34.5475 25.3273 35.4356 26.2102 36.0538 27.2751C36.672 28.3399 36.9984 29.549 37 30.7803V34.7803C36.2044 34.7803 35.4413 35.0964 34.8787 35.659C34.3161 36.2216 34 36.9847 34 37.7803V39.7803C34 40.576 34.3161 41.339 34.8787 41.9016C35.4413 42.4642 36.2044 42.7803 37 42.7803H39C39.7956 42.7803 40.5587 42.4642 41.1213 41.9016C41.6839 41.339 42 40.576 42 39.7803V37.7803C42 36.9847 41.6839 36.2216 41.1213 35.659C40.5587 35.0964 39.7956 34.7803 39 34.7803V34.7803ZM24 37.7803V39.7803C24 40.0455 23.8946 40.2999 23.7071 40.4874C23.5196 40.675 23.2652 40.7803 23 40.7803H21C20.7348 40.7803 20.4804 40.675 20.2929 40.4874C20.1054 40.2999 20 40.0455 20 39.7803V37.7803C20 37.5151 20.1054 37.2607 20.2929 37.0732C20.4804 36.8857 20.7348 36.7803 21 36.7803H23C23.2652 36.7803 23.5196 36.8857 23.7071 37.0732C23.8946 37.2607 24 37.5151 24 37.7803ZM30 24.7803C29.6044 24.7803 29.2178 24.663 28.8889 24.4433C28.56 24.2235 28.3036 23.9111 28.1522 23.5457C28.0009 23.1802 27.9613 22.7781 28.0384 22.3901C28.1156 22.0022 28.3061 21.6458 28.5858 21.3661C28.8655 21.0864 29.2219 20.8959 29.6098 20.8187C29.9978 20.7416 30.3999 20.7812 30.7654 20.9326C31.1308 21.0839 31.4432 21.3403 31.6629 21.6692C31.8827 21.9981 32 22.3848 32 22.7803C32 23.3107 31.7893 23.8195 31.4142 24.1945C31.0391 24.5696 30.5304 24.7803 30 24.7803ZM40 39.7803C40 40.0455 39.8946 40.2999 39.7071 40.4874C39.5196 40.675 39.2652 40.7803 39 40.7803H37C36.7348 40.7803 36.4804 40.675 36.2929 40.4874C36.1054 40.2999 36 40.0455 36 39.7803V37.7803C36 37.5151 36.1054 37.2607 36.2929 37.0732C36.4804 36.8857 36.7348 36.7803 37 36.7803H39C39.2652 36.7803 39.5196 36.8857 39.7071 37.0732C39.8946 37.2607 40 37.5151 40 37.7803V39.7803Z" fill="white"/>
</g>
<defs>
<clipPath id="clip0">
<rect width="24" height="24" fill="white" transform="translate(18 18.7812)"/>
</clipPath>
</defs>
</svg>
