<svg width="60" height="61" viewBox="0 0 60 61" fill="none" xmlns="http://www.w3.org/2000/svg">
<circle cx="30" cy="30.7812" r="30" fill="#FF8787"/>
<g clip-path="url(#clip0)">
<path d="M34 35.7813C34.2652 35.7813 34.5196 35.8866 34.7071 36.0742C34.8946 36.2617 35 36.5161 35 36.7813C35 37.0465 34.8946 37.3008 34.7071 37.4884C34.5196 37.6759 34.2652 37.7813 34 37.7813H33C32.7348 37.7813 32.4804 37.6759 32.2929 37.4884C32.1054 37.3008 32 37.0465 32 36.7813C32 36.5161 32.1054 36.2617 32.2929 36.0742C32.4804 35.8866 32.7348 35.7813 33 35.7813H34ZM32 33.7813C31.7348 33.7813 31.4804 33.6759 31.2929 33.4884C31.1054 33.3008 31 33.0465 31 32.7813V31.7813H29V32.7813C29 33.0465 28.8946 33.3008 28.7071 33.4884C28.5196 33.6759 28.2652 33.7813 28 33.7813C27.7348 33.7813 27.4804 33.6759 27.2929 33.4884C27.1054 33.3008 27 33.0465 27 32.7813V28.7813C27 27.9856 27.3161 27.2226 27.8787 26.6599C28.4413 26.0973 29.2044 25.7813 30 25.7813C30.7956 25.7813 31.5587 26.0973 32.1213 26.6599C32.6839 27.2226 33 27.9856 33 28.7813V32.7813C33 33.0465 32.8946 33.3008 32.7071 33.4884C32.5196 33.6759 32.2652 33.7813 32 33.7813ZM31 29.7813V28.7813C31 28.516 30.8946 28.2617 30.7071 28.0742C30.5196 27.8866 30.2652 27.7813 30 27.7813C29.7348 27.7813 29.4804 27.8866 29.2929 28.0742C29.1054 28.2617 29 28.516 29 28.7813V29.7813H31ZM29.289 35.0813L27.677 36.7113C27.6318 36.7567 27.571 36.783 27.507 36.7849C27.443 36.7867 27.3807 36.764 27.333 36.7213L26.717 36.0813C26.5313 35.8911 26.2778 35.7825 26.012 35.7793C25.7463 35.7761 25.4902 35.8786 25.3 36.0643C25.1098 36.2499 25.0012 36.5035 24.998 36.7692C24.9948 37.035 25.0973 37.2911 25.283 37.4813L25.909 38.1253C26.3318 38.5472 26.9047 38.7842 27.502 38.7842C28.0993 38.7842 28.6722 38.5472 29.095 38.1253L30.711 36.4813C30.8764 36.289 30.9627 36.0411 30.9522 35.7877C30.9417 35.5343 30.8354 35.2943 30.6546 35.1164C30.4739 34.9384 30.2323 34.8358 29.9787 34.8293C29.7252 34.8228 29.4786 34.9128 29.289 35.0813ZM39 25.4383V37.7813C38.9984 39.1069 38.4711 40.3777 37.5338 41.315C36.5964 42.2524 35.3256 42.7797 34 42.7813H26C24.6744 42.7797 23.4036 42.2524 22.4662 41.315C21.5289 40.3777 21.0016 39.1069 21 37.7813V23.7813C21.0016 22.4557 21.5289 21.1848 22.4662 20.2475C23.4036 19.3101 24.6744 18.7829 26 18.7813H32.343C33 18.7796 33.6508 18.9082 34.2577 19.1596C34.8647 19.4111 35.4157 19.7804 35.879 20.2463L37.535 21.9023C38.0008 22.3655 38.3702 22.9166 38.6216 23.5236C38.8731 24.1305 39.0017 24.7813 39 25.4383V25.4383ZM34.465 21.6603C34.3229 21.5189 34.1671 21.392 34 21.2813V23.7813H36.5C36.389 23.6141 36.2617 23.4584 36.12 23.3163L34.465 21.6603ZM37 25.7813H34C33.4696 25.7813 32.9609 25.5706 32.5858 25.1955C32.2107 24.8204 32 24.3117 32 23.7813V20.7813H26C25.2044 20.7813 24.4413 21.0973 23.8787 21.6599C23.3161 22.2226 23 22.9856 23 23.7813V37.7813C23 38.5769 23.3161 39.34 23.8787 39.9026C24.4413 40.4652 25.2044 40.7813 26 40.7813H34C34.7956 40.7813 35.5587 40.4652 36.1213 39.9026C36.6839 39.34 37 38.5769 37 37.7813V25.7813Z" fill="white"/>
</g>
<defs>
<clipPath id="clip0">
<rect width="24" height="24" fill="white" transform="translate(18 18.7812)"/>
</clipPath>
</defs>
</svg>
