<svg width="373" height="242" viewBox="0 0 373 242" fill="none" xmlns="http://www.w3.org/2000/svg">
<path fill-rule="evenodd" clip-rule="evenodd" d="M332.418 42.3147C332.418 53.4364 341.434 62.4521 352.556 62.4521C363.675 62.4417 372.685 53.4302 372.694 42.3116C372.693 31.1899 363.676 22.1749 352.555 22.1758C341.433 22.1767 332.418 31.193 332.418 42.3147ZM334.602 34.8783C337.61 27.6169 344.695 22.8824 352.555 22.8824C363.282 22.8902 371.977 31.5839 371.986 42.3115C371.987 50.171 367.254 57.2571 359.993 60.2655C352.732 63.2739 344.373 61.612 338.816 56.0548C333.258 50.4976 331.595 42.1396 334.602 34.8783Z" fill="#E4EAE3"/>
<path d="M352.088 41.9607C351.893 41.9607 351.734 41.8026 351.734 41.6074V27.0042C351.734 26.8077 351.894 26.6484 352.09 26.6484C352.287 26.6484 352.446 26.8077 352.446 27.0042V41.6003C352.448 41.6961 352.411 41.7885 352.343 41.8565C352.276 41.9244 352.183 41.9621 352.088 41.9607Z" fill="#E4EAE3"/>
<path d="M358.465 51.3252C358.357 51.3243 358.255 51.2757 358.187 51.1924L351.784 43.1912C351.705 43.0925 351.685 42.9593 351.731 42.8417C351.777 42.7241 351.883 42.6401 352.008 42.6212C352.133 42.6023 352.258 42.6515 352.337 42.7502L358.74 50.749C358.824 50.8554 358.84 51.0004 358.782 51.1228C358.723 51.2452 358.6 51.3237 358.465 51.3252Z" fill="#E4EAE3"/>
<path d="M138.859 237.355C145.464 239.079 152.732 239.518 159.873 239.936C171.78 240.647 183.696 241.332 195.65 241.548L182.826 231.235C182.354 230.812 181.811 230.477 181.223 230.244C180.402 229.949 179.411 229.921 178.465 229.89C173.959 229.741 169.453 229.38 165.019 228.814C161.936 228.418 158.542 227.628 155.448 228.425C152.929 229.074 151.051 230.642 149.158 231.785C145.898 233.758 142.447 235.617 138.859 237.355Z" fill="#F5F8F5"/>
<path d="M176.712 233.394C173.11 233.23 169.477 232.976 165.915 232.647C165.424 232.62 164.937 232.534 164.466 232.391C164.324 232.338 164.194 232.279 164.063 232.22C163.931 232.154 163.793 232.098 163.653 232.052C163.283 231.957 162.903 231.906 162.522 231.9L157.648 231.629L157.686 230.918L162.56 231.188C163 231.194 163.439 231.255 163.864 231.371C164.034 231.426 164.199 231.492 164.36 231.57C164.471 231.622 164.582 231.674 164.703 231.717C165.119 231.84 165.547 231.913 165.979 231.935C169.536 232.265 173.153 232.516 176.746 232.682L176.712 233.394Z" fill="#E4EAE3"/>
<path d="M178.746 235.968L174.141 235.612C173.194 235.572 172.253 235.432 171.335 235.197C171.017 235.104 170.719 234.986 170.422 234.867C170.038 234.705 169.641 234.574 169.236 234.474C168.489 234.343 167.729 234.303 166.972 234.353C166.408 234.375 165.844 234.368 165.281 234.329C164.395 234.224 163.521 234.032 162.672 233.755C162.027 233.557 161.371 233.399 160.706 233.281C159.618 233.108 158.508 233.14 157.431 233.373L157.277 232.683C158.441 232.431 159.642 232.397 160.818 232.584C161.512 232.708 162.197 232.877 162.869 233.089C163.677 233.353 164.51 233.537 165.354 233.636C165.891 233.673 166.429 233.68 166.967 233.658C167.781 233.606 168.597 233.652 169.4 233.795C169.839 233.902 170.269 234.045 170.685 234.222C170.965 234.334 171.245 234.445 171.541 234.533C172.412 234.754 173.303 234.884 174.2 234.919L178.803 235.275L178.746 235.968Z" fill="#E4EAE3"/>
<path d="M173.057 238.559C172.491 238.529 171.932 238.417 171.397 238.227C171.231 238.175 171.068 238.125 170.909 238.082C170.041 237.845 169.045 237.817 168.082 237.788C167.774 237.788 167.468 237.772 167.164 237.755C164.371 237.618 161.745 236.937 159.206 236.28C157.307 235.75 155.38 235.328 153.434 235.016L153.531 234.305C155.504 234.619 157.458 235.046 159.384 235.583C161.888 236.233 164.477 236.904 167.209 237.039C167.508 237.053 167.809 237.063 168.11 237.072C169.116 237.101 170.155 237.131 171.103 237.388C171.269 237.433 171.44 237.485 171.613 237.537C172.324 237.75 173.036 237.971 173.574 237.75L173.842 238.405C173.593 238.507 173.326 238.559 173.057 238.559Z" fill="#E4EAE3"/>
<path d="M169.716 153.959C174.125 155.509 177.948 157.973 180.575 161.011C184.78 165.868 184.554 171.118 184.792 176.618C185.266 187.884 185.005 199.182 184.815 210.451C184.815 210.828 184.815 211.243 185.076 211.515C185.337 211.788 185.735 211.819 186.103 211.84L190.085 212.056C188.738 211.983 193.604 176.157 194.209 172.928C194.939 169.024 195.093 164.39 197.676 161.161C200.96 157.037 206.706 157.21 211.378 155.91L172.254 152.633C170.143 152.455 167.924 152.289 165.965 152.894C167.236 153.171 168.489 153.527 169.716 153.959Z" fill="#E4EAE3"/>
<path d="M128.453 68.4666C128.635 69.099 128.809 69.7417 128.975 70.3946C133.471 88.0713 132.722 107.538 134.382 125.632C134.856 130.771 135.442 136.164 139.267 140.477C142.712 144.364 148.361 146.864 154.015 148.915C164.306 152.624 174.948 155.272 185.778 156.819C193.99 158.005 202.525 158.59 210.701 157.274C218.878 155.958 226.708 152.531 230.894 147.203C235.08 141.874 234.902 134.528 229.315 129.939C226.644 127.748 223.023 126.306 220.173 124.247C215.06 120.548 212.893 115.236 210.924 110.161C206.082 97.851 202.333 85.1385 199.722 72.1708C197.587 61.5705 193.452 50.7829 185.355 43.2868C176.164 34.7734 162.936 32.3024 150.773 33.149C134.794 34.2612 124.78 42.6062 125.313 54.4776C125.529 59.3841 127.132 63.8329 128.453 68.4666Z" fill="#E4EAE3"/>
<path d="M226.884 228.536C226.613 228.535 226.353 228.431 226.156 228.244C224.022 226.266 221.812 224.293 219.564 222.382C217.904 220.959 216.244 219.617 214.29 218.55C211.951 217.279 209.167 216.415 206.511 215.704C195.88 212.785 186.94 211.891 179.178 212.967C167.345 214.613 158.072 220.907 152.381 225.896C151.941 226.283 151.271 226.239 150.885 225.799C150.498 225.359 150.542 224.689 150.982 224.303C159.455 216.873 169.1 212.227 178.877 210.869C186.926 209.747 196.146 210.662 207.064 213.66C209.843 214.423 212.755 215.32 215.293 216.695C217.427 217.86 219.179 219.289 220.927 220.774C223.199 222.704 225.433 224.699 227.591 226.703C227.908 226.998 228.013 227.457 227.857 227.861C227.7 228.265 227.313 228.533 226.879 228.538L226.884 228.536Z" fill="#E4EAE3"/>
<path d="M202.618 230.243C202.089 230.242 201.642 229.852 201.57 229.328C200.747 223.399 196.772 217.729 190.661 213.752C190.093 213.35 189.47 213.03 188.812 212.804C187.866 212.558 186.877 212.535 185.921 212.735C181.818 213.508 179.686 216.799 178.012 219.823L173.827 227.374C173.538 227.875 172.901 228.052 172.394 227.772C171.888 227.492 171.7 226.858 171.972 226.347L176.158 218.796C178.207 215.097 180.761 211.549 185.53 210.653C186.817 210.388 188.148 210.429 189.416 210.771C190.271 211.047 191.08 211.446 191.819 211.957C198.442 216.268 202.763 222.486 203.676 229.017C203.752 229.594 203.347 230.124 202.77 230.203C202.72 230.22 202.67 230.234 202.618 230.243Z" fill="#E4EAE3"/>
<path d="M152.035 232.491C154.702 232.491 156.863 230.406 156.863 227.833C156.863 225.261 154.702 223.176 152.035 223.176C149.369 223.176 147.207 225.261 147.207 227.833C147.207 230.406 149.369 232.491 152.035 232.491Z" fill="#E4EAE3"/>
<path d="M173.094 232.491C175.76 232.491 177.922 230.406 177.922 227.833C177.922 225.261 175.76 223.176 173.094 223.176C170.427 223.176 168.266 225.261 168.266 227.833C168.266 230.406 170.427 232.491 173.094 232.491Z" fill="#E4EAE3"/>
<path d="M226.711 232.491C229.378 232.491 231.539 230.406 231.539 227.833C231.539 225.261 229.378 223.176 226.711 223.176C224.044 223.176 221.883 225.261 221.883 227.833C221.883 230.406 224.044 232.491 226.711 232.491Z" fill="#E4EAE3"/>
<path d="M312.92 224.558C306.28 222.969 299.007 222.68 291.859 222.407C279.941 221.952 268.012 221.496 256.051 221.525L269.094 231.575C269.574 231.985 270.124 232.306 270.718 232.523C271.543 232.801 272.532 232.808 273.481 232.82C278.001 232.877 282.506 233.147 286.946 233.624C290.045 233.956 293.446 234.677 296.524 233.816C299.026 233.104 300.873 231.511 302.742 230.327C305.955 228.298 309.363 226.37 312.92 224.558Z" fill="#F5F8F5"/>
<path d="M294.231 231.372L289.353 231.201C288.911 231.204 288.472 231.151 288.044 231.045C287.875 230.993 287.71 230.929 287.55 230.855C287.436 230.805 287.313 230.755 287.199 230.715C286.782 230.6 286.352 230.536 285.919 230.523C282.362 230.265 278.724 230.087 275.141 229.997L275.157 229.285C278.752 229.378 282.39 229.553 285.971 229.814C286.463 229.831 286.951 229.906 287.425 230.039C287.567 230.087 287.7 230.146 287.833 230.203C287.967 230.264 288.104 230.317 288.245 230.362C288.616 230.45 288.997 230.493 289.379 230.49L294.257 230.661L294.231 231.372Z" fill="#E4EAE3"/>
<path d="M292.377 229.877C291.939 229.877 291.502 229.847 291.068 229.787C290.372 229.673 289.684 229.515 289.008 229.313C288.195 229.065 287.359 228.898 286.513 228.815C285.975 228.79 285.437 228.795 284.9 228.829C284.088 228.896 283.27 228.867 282.465 228.741C282.023 228.643 281.59 228.508 281.17 228.338C280.888 228.234 280.606 228.129 280.307 228.046C279.433 227.842 278.541 227.731 277.644 227.714L273.031 227.454L273.072 226.742L277.684 227.003C278.631 227.025 279.574 227.145 280.497 227.361C280.814 227.449 281.115 227.56 281.417 227.672C281.801 227.828 282.198 227.952 282.602 228.044C283.353 228.158 284.113 228.182 284.869 228.118C285.432 228.087 285.995 228.087 286.558 228.118C287.45 228.204 288.332 228.378 289.19 228.637C289.839 228.827 290.5 228.976 291.168 229.083C292.259 229.233 293.369 229.18 294.441 228.926L294.607 229.612C293.877 229.788 293.128 229.877 292.377 229.877Z" fill="#E4EAE3"/>
<path d="M298.304 227.892C296.324 227.617 294.361 227.23 292.426 226.732C289.909 226.135 287.306 225.518 284.583 225.437C284.284 225.437 283.983 225.426 283.682 225.423C282.677 225.423 281.636 225.407 280.682 225.167C280.514 225.127 280.343 225.077 280.17 225.03C279.459 224.828 278.747 224.624 278.204 224.856L277.922 224.209C278.688 223.875 279.582 224.126 280.362 224.349C280.528 224.396 280.692 224.441 280.853 224.482C281.726 224.7 282.724 224.719 283.699 224.719C284.005 224.719 284.311 224.719 284.612 224.733C287.408 224.816 290.047 225.445 292.599 226.047C294.508 226.538 296.444 226.921 298.397 227.195L298.304 227.892Z" fill="#E4EAE3"/>
<path d="M115.633 223.855C116.306 228.19 118.431 232.155 120.523 236C120.286 235.561 146.717 231.902 138.849 226.898C136.729 225.549 131.408 227.351 128.939 227.256C124.312 227.083 119.775 225.924 115.633 223.855Z" fill="#F5F8F5"/>
<path d="M131.082 232.483C130.272 231.893 130.016 230.799 130.48 229.91L131.096 230.256C130.809 230.826 130.972 231.52 131.483 231.902L131.082 232.483Z" fill="#E4EAE3"/>
<rect x="126.328" y="229.941" width="0.706686" height="3.68994" transform="rotate(-11.04 126.328 229.941)" fill="#E4EAE3"/>
<rect x="121.121" y="229.27" width="0.706686" height="6.51906" transform="rotate(-12.06 121.121 229.27)" fill="#E4EAE3"/>
<path fill-rule="evenodd" clip-rule="evenodd" d="M40.7367 64.5868L40.8766 64.6129L40.943 64.4801C42.4938 60.7264 43.5416 56.7841 44.059 52.7557C44.1231 52.1605 44.161 51.4775 43.8219 50.9511C43.4828 50.4246 42.8472 50.2207 42.399 50.1092C41.6346 49.9459 40.8582 49.8452 40.0774 49.8081L40.0334 49.8048C39.5349 49.7679 39.0218 49.7299 38.5265 49.6539C37.5474 49.4768 36.6033 49.1429 35.7306 48.665L35.5669 48.582L35.4887 48.748C35.4318 48.88 35.2941 49.2696 35.0862 49.8581L35.0595 49.9337L35.0496 49.9616C34.0746 52.7193 31.5208 59.9429 29.9656 60.4392C29.8545 60.4814 29.7295 60.4644 29.6336 60.3941L29.4297 60.6834C32.7876 63.0383 37.0111 63.8611 40.7367 64.5868ZM40.6613 64.2095C37.199 63.5337 33.3217 62.7606 30.1582 60.7425C31.6807 60.0856 33.7509 54.7001 35.3919 50.0497C35.5437 49.6181 35.6647 49.2743 35.7429 49.0703C36.5963 49.5203 37.5149 49.8339 38.4653 49.9999C38.9506 50.0746 39.4441 50.1126 39.9268 50.1499C39.9654 50.1528 40.0039 50.1558 40.0423 50.1588C40.804 50.1931 41.5615 50.2907 42.307 50.4505C42.926 50.6023 43.3173 50.8228 43.5307 51.1429C43.8153 51.5722 43.7702 52.1508 43.6991 52.7057C43.1936 56.6566 42.1723 60.5242 40.6613 64.2095Z" fill="#E4EAE3"/>
<path fill-rule="evenodd" clip-rule="evenodd" d="M48.3445 50.9317L48.4109 51.2779C51.9773 50.5772 55.4463 49.4498 58.7432 47.92C59.2246 47.6971 59.7321 47.4101 59.9645 46.9596C60.1969 46.509 60.1495 45.9968 60.0618 45.5059C59.4404 42.0412 57.3512 38.9963 55.5086 36.3118C55.3741 36.0813 55.1872 35.8855 54.9632 35.7403C54.4984 35.4818 53.9719 35.655 53.4976 35.8399C52.8716 36.0866 52.2076 36.2905 51.5673 36.485C49.1959 37.2154 46.9572 37.9078 47.0331 40.6112C47.0402 40.8816 47.1991 41.7685 47.4197 42.9969C47.8252 45.2545 48.7738 50.5428 48.3279 50.9317C48.3334 50.9303 48.3391 50.9303 48.3445 50.9317ZM53.618 36.1808C53.8722 36.0646 54.1454 35.9955 54.4243 35.9768C54.5473 35.9735 54.669 36.0021 54.7776 36.0598C54.9532 36.1803 55.0998 36.3382 55.2069 36.5223C57.0281 39.1759 59.0936 42.19 59.7007 45.5787C59.7766 46.008 59.8359 46.4253 59.6391 46.8071C59.4422 47.1889 59.0272 47.4047 58.5814 47.6111C55.4317 49.0717 52.1226 50.1604 48.721 50.8552C48.9226 49.9991 48.6309 47.732 47.7724 42.9417C47.7579 42.8613 47.7436 42.782 47.7295 42.7039C47.5387 41.6483 47.3906 40.8291 47.3906 40.6082C47.3172 38.1617 49.3252 37.5483 51.65 36.8381L51.6592 36.8353L51.6958 36.8241C52.334 36.6284 52.9897 36.4274 53.618 36.1808Z" fill="#E4EAE3"/>
<path fill-rule="evenodd" clip-rule="evenodd" d="M21.3264 43.3998C23.6386 44.3697 26.1262 44.6543 28.5877 44.6543C30.4185 44.6543 32.2374 44.4978 33.9519 44.3318C34.1953 44.3385 34.43 44.241 34.5969 44.0638C34.6872 43.9222 34.7341 43.7574 34.7321 43.5895L35.2728 34.7275V34.6421H35.0712V34.4737C34.9195 34.469 33.7741 34.1323 32.8539 33.8595C32.7829 33.8387 32.7131 33.8183 32.6444 33.7981C31.14 33.3572 30.2026 33.0824 29.994 33.0983C28.4207 33.141 28.0595 33.6074 27.1907 34.7295L27.1886 34.7322C26.3909 35.8052 25.6607 36.9266 25.0021 38.0902L24.9769 38.1329C23.9192 39.9241 22.9212 41.6141 21.2743 43.1057L21.0703 43.2931L21.3264 43.3998ZM33.9191 43.9965C30.0109 44.3356 25.6048 44.7174 21.7109 43.1784H21.7181C23.2792 41.7043 24.3003 39.9731 25.2827 38.3074L25.3037 38.2719C25.9538 37.1212 26.6754 36.0124 27.464 34.9519L27.4843 34.9259C28.3431 33.8249 28.6038 33.4908 29.9991 33.4531C30.203 33.4531 31.6733 33.8847 32.7476 34.2025C34.0519 34.5843 34.6257 34.7479 34.8961 34.8048L34.3767 43.5791C34.4023 43.7036 34.3604 43.8323 34.2665 43.9179C34.1726 44.0035 34.0406 44.0334 33.9191 43.9965Z" fill="#E4EAE3"/>
<path d="M32.8056 38.051C31.5735 38.0401 30.3733 37.6574 29.3623 36.953C29.2932 36.8932 29.2806 36.7907 29.3333 36.716C29.3859 36.6413 29.4867 36.6187 29.5662 36.6637C30.5169 37.328 31.6459 37.69 32.8056 37.7024C32.8953 37.7128 32.963 37.7888 32.963 37.8791C32.963 37.9694 32.8953 38.0453 32.8056 38.0557V38.051Z" fill="#E4EAE3"/>
<path d="M31.7732 39.9504C30.7181 39.9513 29.6762 39.7163 28.7235 39.2627C28.6807 39.2427 28.6476 39.2064 28.6316 39.1619C28.6156 39.1174 28.618 39.0683 28.6382 39.0256C28.6817 38.9383 28.7868 38.9015 28.8753 38.9426C30.0955 39.5233 31.4623 39.7233 32.7977 39.5165C32.8439 39.509 32.8913 39.5203 32.9291 39.5479C32.967 39.5755 32.9922 39.6171 32.9992 39.6635C33.0074 39.7098 32.9963 39.7575 32.9686 39.7956C32.9409 39.8336 32.8988 39.8587 32.8522 39.8651C32.4954 39.9219 32.1346 39.9505 31.7732 39.9504Z" fill="#E4EAE3"/>
<path d="M51.4506 42.1687C51.11 42.1697 50.7703 42.1323 50.438 42.0572C50.3431 42.0356 50.2836 41.9411 50.3052 41.8462C50.3268 41.7512 50.4213 41.6918 50.5163 41.7134C51.6883 41.9646 52.9121 41.7384 53.9169 41.085C53.9966 41.0356 54.101 41.0575 54.154 41.1348C54.2022 41.2146 54.1805 41.3181 54.1042 41.3719C53.3155 41.8888 52.3936 42.1656 51.4506 42.1687Z" fill="#E4EAE3"/>
<path d="M51.5141 46.1352C51.3196 46.1352 51.1228 46.1352 50.926 46.1115C50.8791 46.1091 50.8353 46.0878 50.8044 46.0525C50.7736 46.0171 50.7584 45.9708 50.7623 45.9241C50.7633 45.8763 50.7845 45.8312 50.8207 45.8C50.8569 45.7688 50.9046 45.7544 50.952 45.7605C52.2904 45.8601 53.631 45.5988 54.8341 45.004C54.9199 44.9711 55.0167 45.009 55.0573 45.0915C55.0979 45.174 55.069 45.2738 54.9906 45.3218C53.9099 45.8572 52.7201 46.1356 51.5141 46.1352Z" fill="#E4EAE3"/>
<path d="M40.8102 55.5243C40.7914 55.5277 40.7721 55.5277 40.7533 55.5243C39.9136 55.2247 39.1621 54.7202 38.5669 54.0564C38.5039 53.9822 38.5101 53.8716 38.5811 53.805C38.6555 53.7414 38.7671 53.7487 38.8325 53.8216C39.3862 54.4411 40.0866 54.9116 40.8695 55.1899C40.9557 55.2146 41.0094 55.3002 40.9942 55.3885C40.979 55.4768 40.8997 55.5394 40.8102 55.5338V55.5243Z" fill="#E4EAE3"/>
<path d="M39.1194 59.074C38.0742 59.0744 37.0363 58.9005 36.0484 58.5594C35.9564 58.527 35.9077 58.4265 35.9393 58.3342C35.9544 58.2896 35.9867 58.2529 36.0291 58.2324C36.0714 58.2119 36.1203 58.2092 36.1646 58.2251C37.128 58.5608 38.1419 58.7285 39.1621 58.7207C39.259 58.7207 39.3376 58.7993 39.3376 58.8962C39.3328 58.9489 39.307 58.9976 39.2659 59.031C39.2248 59.0645 39.172 59.08 39.1194 59.074Z" fill="#E4EAE3"/>
<path d="M36.8024 62.3949H36.7715L35.3487 62.1577C35.2606 62.1331 35.2056 62.0456 35.2215 61.9555C35.2374 61.8654 35.3191 61.8021 35.4103 61.8091L36.8213 62.0581C36.9119 62.0731 36.9756 62.1553 36.9675 62.2467C36.9594 62.3381 36.8823 62.4079 36.7905 62.4067L36.8024 62.3949Z" fill="#E4EAE3"/>
<path d="M106.305 91.7091L108.861 103.725L116.459 103.602L118.19 91.4648L106.305 91.7091Z" fill="#A4C340"/>
<path d="M119.318 92.4375H105.4C104.92 92.4128 104.543 92.0162 104.543 91.5351C104.543 91.0541 104.92 90.6574 105.4 90.6328H119.318C119.799 90.6574 120.175 91.0541 120.175 91.5351C120.175 92.0162 119.799 92.4128 119.318 92.4375Z" fill="#4F9646"/>
<path d="M108.494 88.0203C107.814 87.2496 107.579 86.0235 108.16 85.1746C108.696 84.3896 109.844 83.9533 109.91 83.0023C110.005 81.6079 107.655 81.008 107.728 79.6112C107.754 79.1085 108.11 78.6863 108.478 78.3401C109.156 77.7033 109.93 77.1761 110.771 76.7773C110.157 77.686 110.287 78.905 111.079 79.6634C111.587 80.1187 112.265 80.3108 112.891 80.5953C113.939 81.0696 114.878 81.902 115.25 82.9929C115.623 84.0837 115.31 85.4402 114.349 86.0757C113.979 86.3129 113.465 86.5785 113.517 87.0243C113.588 87.6385 114.722 87.8235 114.572 88.4211C114.521 88.5691 114.424 88.697 114.295 88.7863C112.488 90.2731 109.991 89.7159 108.494 88.0203Z" fill="#EFF3EE"/>
<path d="M114.319 78.6806C114.436 78.528 114.463 78.3249 114.391 78.147C114.298 77.9951 114.116 77.9233 113.945 77.9715C113.897 77.9958 113.843 78.0033 113.791 77.9929C113.744 77.9675 113.709 77.925 113.693 77.8743C113.579 77.6471 113.511 77.3998 113.492 77.1463C113.478 76.8872 113.618 76.6445 113.85 76.5273C113.5 76.544 113.17 76.6953 112.93 76.9495C112.69 77.2063 112.561 77.5469 112.569 77.898C112.569 78.0451 112.6 78.1921 112.588 78.3391C112.548 78.8347 112.003 79.3991 112.811 79.4063C113.361 79.4039 114.018 79.1573 114.319 78.6806Z" fill="#EFF3EE"/>
<path d="M106.298 83.8524C105.943 83.8459 105.611 83.6778 105.396 83.396C105.181 83.1143 105.106 82.7496 105.193 82.4058C105.252 82.1687 105.392 81.9173 105.321 81.6778C105.207 81.2984 104.69 81.2486 104.396 80.9854C104.04 80.6628 104.078 80.1032 104.147 79.6289C105.005 80.4447 106.191 80.8004 107.208 81.4075C107.389 81.5072 107.555 81.6318 107.702 81.7774C108.849 82.9702 107.453 83.8761 106.298 83.8524Z" fill="#EFF3EE"/>
<path d="M112.557 100.81C114.008 100.81 115.185 99.6334 115.185 98.1822C115.185 96.7311 114.008 95.5547 112.557 95.5547C111.106 95.5547 109.93 96.7311 109.93 98.1822C109.93 99.6334 111.106 100.81 112.557 100.81Z" fill="white"/>
<path d="M178.877 49.2971C178.804 47.7816 178.58 46.2771 178.21 44.8056C177.629 42.6429 177.129 41.3125 177.129 41.3125L193.352 48.7991C193.352 48.7991 194.016 50.2955 195.515 50.7958C197.013 51.2962 191.023 64.0237 191.023 64.0237L172.566 61.4436L178.877 49.2971Z" fill="url(#paint0_linear)"/>
<path d="M175.755 36.4049C175.12 35.8476 174.143 36.0942 173.346 36.3717C173.184 36.4162 173.035 36.4973 172.91 36.6088C172.761 36.8004 172.69 37.0408 172.71 37.2823C172.68 39.0253 173.529 40.6497 174.404 42.158C174.662 42.6062 174.942 43.0686 175.388 43.3437C176.083 43.7539 177.007 43.5524 177.652 43.071C178.298 42.5896 178.729 41.8852 179.144 41.1738L175.755 36.4049Z" fill="url(#paint1_linear)"/>
<path d="M172.22 24.0928C172.353 25.8998 173.053 27.7804 173.461 29.706C173.944 31.998 174.578 34.2558 175.358 36.4646C176.879 40.7863 179.053 44.8497 181.803 48.5138C183.7 51.0228 185.979 53.4392 188.977 54.376C189.305 54.4978 189.654 54.5495 190.004 54.5277C190.46 54.4496 190.884 54.2393 191.222 53.923C192.849 52.5642 193.608 50.4536 194.277 48.4426C196.058 43.1069 197.715 37.6503 197.974 32.03C198.046 30.838 198.002 29.6419 197.841 28.4586C197.59 26.7986 197.011 25.2216 196.371 23.6778C195.55 21.7 194.578 19.708 192.963 18.2994C191.429 16.9643 189.437 16.2695 187.442 15.864C185.56 15.4798 183.603 15.328 181.715 15.6908C179 16.2149 175.837 17.3295 173.849 19.4306C172.431 20.9127 172.092 22.4731 172.22 24.0928Z" fill="#FFCFCB"/>
<path d="M190.684 44.2112C190.523 44.2114 190.382 44.1029 190.341 43.9473C190.301 43.7916 190.37 43.6282 190.511 43.5495C191.039 43.2544 191.54 42.9115 192.007 42.5251C192.365 42.2631 192.656 41.9202 192.856 41.5243C193.193 40.7275 192.78 39.7908 192.327 38.8992L190.591 35.4487C190.143 34.5618 189.583 33.4591 189.704 32.2947C189.712 32.2005 189.758 32.1135 189.831 32.0539C189.905 31.9943 189.999 31.9674 190.093 31.9793C190.287 32.0005 190.428 32.1741 190.409 32.3683C190.309 33.3168 190.793 34.282 191.222 35.1286L192.963 38.5695C193.465 39.5632 193.966 40.7038 193.513 41.7899C193.269 42.2915 192.909 42.7274 192.462 43.061C191.962 43.4733 191.427 43.8399 190.861 44.1566C190.808 44.1906 190.747 44.2094 190.684 44.2112Z" fill="#152C1A"/>
<path d="M181.795 30.7165C183.323 31.167 185.791 29.2438 184.852 30.605C184.957 30.6667 183.531 31.971 182.346 32.0492C181.928 32.1844 180.814 32.4381 180.211 32.0042C178.936 30.9465 181.435 30.9109 181.795 30.7165Z" fill="#152C1A"/>
<path d="M192.885 26.745C193.724 26.4913 194.619 26.4913 195.458 26.745C195.569 26.7735 195.67 26.8346 195.747 26.9205C195.882 27.1007 195.716 27.3947 195.448 27.5631C195.172 27.7036 194.872 27.792 194.564 27.824C194 27.919 193.441 28.0424 192.889 28.1939C192.292 28.4311 190.947 28.7797 190.848 27.8619C190.867 27.224 192.448 26.9774 192.885 26.745Z" fill="#152C1A"/>
<path d="M184.997 33.7979C184.854 33.6777 184.654 33.6498 184.483 33.7258C184.312 33.8018 184.199 33.9686 184.192 34.1557C184.185 34.3429 184.285 34.5178 184.45 34.6066C184.56 34.6593 184.679 34.6922 184.8 34.7038C185.023 34.7661 185.261 34.737 185.462 34.6232C185.728 34.4121 185.628 33.9426 185.341 33.7624C185.032 33.6105 184.669 33.6105 184.359 33.7624" fill="#000614"/>
<path d="M193.435 30.2422C193.203 30.3442 193 30.5013 192.842 30.6999C192.685 30.9088 192.695 31.1993 192.866 31.3971C192.949 31.4677 193.052 31.5129 193.16 31.5275C193.564 31.6052 193.957 31.3463 194.045 30.9441C194.087 30.5505 193.57 30.1924 193.262 30.4343" fill="#000614"/>
<path d="M188.563 50.2284C188.406 50.2348 188.25 50.2004 188.11 50.1288C187.941 50.0306 187.883 49.814 187.982 49.645C188.08 49.4761 188.296 49.4188 188.465 49.517C188.861 49.702 191.112 48.668 191.513 48.1178C191.628 47.96 191.849 47.9255 192.007 48.0408C192.165 48.156 192.199 48.3774 192.084 48.5352C191.695 49.0664 189.665 50.2284 188.563 50.2284Z" fill="#152C1A"/>
<path fill-rule="evenodd" clip-rule="evenodd" d="M183.297 40.8236C184.021 41.4563 184.944 41.8146 185.906 41.8362C186.163 41.8375 186.42 41.8105 186.672 41.7556C189.017 41.2505 190.414 38.4593 189.783 35.533C189.515 34.1865 188.803 32.9686 187.763 32.0731C186.738 31.2241 185.538 30.8945 184.386 31.1435C182.04 31.6486 180.646 34.4397 181.277 37.3661C181.545 38.7118 182.257 39.929 183.297 40.8236ZM184.534 31.8369C184.732 31.7944 184.934 31.773 185.137 31.7729C185.939 31.7925 186.708 32.0929 187.311 32.6219C188.23 33.4165 188.856 34.4947 189.092 35.6858C189.64 38.2208 188.488 40.6444 186.524 41.0665C185.587 41.2729 184.601 40.9954 183.747 40.284C182.829 39.4894 182.202 38.4111 181.966 37.2201C181.418 34.6827 182.571 32.2614 184.534 31.8369Z" fill="#152C1A"/>
<path fill-rule="evenodd" clip-rule="evenodd" d="M193.573 37.7349C194.253 38.3876 195.152 38.7638 196.094 38.7902C196.314 38.792 196.535 38.7713 196.751 38.7285C198.93 38.2543 200.192 35.4892 199.563 32.5628C199.3 31.2338 198.628 30.0206 197.64 29.0934C196.668 28.2255 195.544 27.8769 194.465 28.1093C193.386 28.3417 192.501 29.129 191.975 30.3147C190.96 32.8839 191.59 35.8116 193.573 37.7349ZM194.621 28.7968C194.784 28.7639 194.95 28.748 195.117 28.7494C195.888 28.7762 196.622 29.089 197.175 29.6268C198.051 30.4513 198.646 31.5294 198.878 32.7096C199.426 35.2542 198.408 37.6398 196.608 38.0288C195.757 38.209 194.849 37.9173 194.052 37.2059C192.3 35.4849 191.74 32.8862 192.629 30.5967C193.063 29.6197 193.77 28.9794 194.621 28.7968Z" fill="#152C1A"/>
<path d="M189.71 34.9625L189.117 34.5783C189.94 33.3048 191.46 33.5704 192.146 33.8858L191.851 34.5285C191.792 34.4882 190.407 33.874 189.71 34.9625Z" fill="#152C1A"/>
<path d="M173.541 40.4376C172.671 40.3197 171.953 39.6993 171.71 38.8559C171.497 38.0794 171.56 37.253 171.888 36.5177C172.095 35.9442 172.472 35.4477 172.969 35.0948C174.133 34.3359 175.632 34.8577 176.725 35.2513C178.39 35.8379 180.103 36.2744 181.845 36.5556L181.734 37.2528C179.95 36.965 178.195 36.5182 176.491 35.9177C175.483 35.562 174.228 35.1185 173.356 35.6805C172.98 35.9535 172.697 36.3339 172.542 36.7714C172.275 37.3532 172.219 38.0096 172.383 38.6282C172.544 39.1981 173.02 39.6234 173.605 39.7191L173.541 40.4376Z" fill="#152C1A"/>
<path d="M235.123 218.812L235.066 226.619L241.614 229.306L240.943 218.981L235.123 218.812Z" fill="url(#paint2_linear)"/>
<path d="M206.576 107.261C210.003 107.458 209.78 118.865 213.195 118.917C220.546 119.033 231.538 120.536 238.806 121.632C244.937 122.557 251.095 123.479 257.066 125.173C262.08 126.595 269.27 128.419 271.691 133.584C273.572 137.599 272.07 142.301 270.605 146.485C263.858 165.752 252.177 183.348 247.047 203.091C242.994 218.702 245.233 221.388 239.179 220.426C231.486 219.2 232.249 218.253 233.371 208.284C234.021 202.502 233.134 196.65 233.357 190.837C233.788 179.206 235.107 167.624 237.303 156.193C237.505 155.154 238.802 144.718 239.048 144.67C219.865 148.388 200.288 149.663 180.785 148.465C179.293 148.375 177.702 148.228 176.549 147.279C175.568 146.463 175.093 145.192 174.806 143.959C173.18 136.925 165.439 110.972 171.05 106.431C178.39 100.462 197.973 106.768 206.576 107.261Z" fill="#F28244"/>
<path d="M192.308 217.047L192.258 224.854L198.217 227.54L197.605 217.215L192.308 217.047Z" fill="url(#paint3_linear)"/>
<path d="M228.817 133.139C226.398 127.972 219.208 126.146 214.192 124.725C208.218 123.032 202.06 122.117 195.932 121.185C188.671 120.089 188.858 108.853 181.146 108.784C177.731 108.751 170.624 107.084 167.197 106.887C162.561 106.622 160.811 105.175 156.412 106.079C156.706 109.823 150.232 134.621 156.08 140.464C164.38 148.764 179.982 148.776 190.819 149.042C192.377 149.08 194.566 148.726 195.998 149.217C195.847 151.416 194.841 153.578 194.426 155.743C192.23 167.173 190.912 178.754 190.482 190.385C190.267 196.198 191.149 202.05 190.497 207.832C189.375 217.792 188.614 218.74 196.307 219.974C202.359 220.936 200.12 218.25 204.175 202.638C209.302 182.896 220.984 165.3 227.733 146.035C229.198 141.849 230.697 137.147 228.817 133.139Z" fill="#FF9457"/>
<path d="M238.166 226.911C237.354 226.726 236.616 226.297 236.053 225.682C235.724 225.308 235.482 224.867 235.178 224.471C234.897 224.055 234.486 223.744 234.009 223.586C233.838 223.534 233.654 223.534 233.483 223.586C233.187 223.718 232.989 224.003 232.968 224.326C232.952 224.643 232.997 224.961 233.103 225.26C233.282 225.962 233.56 226.635 233.931 227.257C234.31 227.884 234.898 228.357 235.591 228.594C236.262 228.801 236.983 228.701 237.68 228.625C238.521 228.561 239.357 228.448 240.184 228.289C240.752 228.168 241.297 227.959 241.799 227.67C241.97 227.568 242.767 227.117 242.622 226.823C242.433 226.441 240.668 226.979 240.329 227.017C239.608 227.11 238.875 227.074 238.166 226.911Z" fill="#152C1A"/>
<path d="M229.97 230.528C229.86 231.035 229.844 231.695 230.304 231.934C230.53 232.024 230.776 232.05 231.015 232.008C234.921 231.721 238.663 233.487 242.102 235.363C245.54 237.239 249.031 239.309 252.927 239.715C254.281 239.827 255.642 239.82 256.994 239.693C257.352 239.667 257.784 239.589 257.912 239.252C257.95 239.133 257.958 239.006 257.936 238.882C258.047 239.271 258.131 239.668 258.187 240.068C258.227 240.224 258.227 240.387 258.187 240.542C258.059 240.879 257.62 240.955 257.255 240.981C255.876 241.101 254.489 241.101 253.11 240.981C249.14 240.554 245.325 239.689 241.812 237.796C240.513 237.069 239.114 236.535 237.66 236.21C235.799 235.821 233.816 235.973 231.933 235.648C231.236 235.532 229.989 235.411 229.495 234.815C228.895 234.087 229.495 232.496 229.661 231.666C229.751 231.244 229.865 230.827 229.989 230.414C229.986 230.459 229.977 230.492 229.97 230.528Z" fill="#152C1A"/>
<path d="M233.436 223.518C233.798 224.554 234.202 225.617 234.968 226.404C235.876 227.336 237.199 227.765 238.496 227.841C239.586 227.872 240.676 227.773 241.743 227.545C241.569 227.132 241.423 226.709 241.304 226.278C241.114 225.586 241.019 224.81 241.252 224.144C241.165 223.543 241.307 222.931 241.65 222.429C241.795 222.24 242.039 222.069 242.257 222.164C242.346 222.211 242.422 222.279 242.48 222.361C243.003 222.938 243.492 223.545 243.943 224.179C244.23 224.628 244.418 225.128 244.702 225.588C245.537 226.971 246.535 228.268 247.344 229.657C247.988 230.649 248.744 231.562 249.597 232.38C251.162 233.803 253.182 234.578 255.148 235.339C255.919 235.636 256.728 235.963 257.23 236.62C257.691 237.22 257.819 238.005 257.942 238.754L257.956 238.87C257.978 238.994 257.97 239.121 257.932 239.24C257.804 239.577 257.373 239.655 257.015 239.681C255.662 239.808 254.301 239.815 252.948 239.703C249.051 239.297 245.561 237.225 242.122 235.351C238.684 233.478 234.941 231.709 231.036 231.996C230.796 232.038 230.55 232.012 230.324 231.922C229.864 231.685 229.881 231.023 229.99 230.516C229.99 230.48 230.006 230.447 230.014 230.412C230.571 227.868 231.747 225.5 233.436 223.518Z" fill="#152C1A"/>
<path d="M195.643 225.036C194.83 224.85 194.093 224.421 193.53 223.805C193.203 223.43 192.958 222.992 192.657 222.596C192.376 222.179 191.964 221.867 191.486 221.711C191.314 221.659 191.131 221.659 190.959 221.711C190.664 221.844 190.466 222.128 190.445 222.451C190.428 222.768 190.475 223.086 190.582 223.385C190.761 224.086 191.039 224.758 191.41 225.38C191.785 226.006 192.368 226.48 193.058 226.719C193.729 226.926 194.448 226.826 195.145 226.748C195.985 226.686 196.822 226.574 197.649 226.414C198.217 226.291 198.763 226.082 199.266 225.792C199.435 225.69 200.234 225.242 200.087 224.946C199.9 224.564 198.133 225.104 197.796 225.142C197.078 225.233 196.349 225.197 195.643 225.036Z" fill="#152C1A"/>
<path d="M187.446 228.647C187.339 229.155 187.32 229.812 187.78 230.054C188.011 230.144 188.262 230.169 188.506 230.127C192.412 229.838 196.151 231.607 199.592 233.48C203.033 235.354 206.519 237.429 210.416 237.834C211.769 237.946 213.13 237.939 214.483 237.813C214.841 237.787 215.272 237.706 215.4 237.372C215.439 237.253 215.448 237.126 215.426 237.002C215.538 237.391 215.622 237.787 215.678 238.188C215.717 238.343 215.717 238.506 215.678 238.662C215.547 238.996 215.109 239.075 214.743 239.098C213.365 239.217 211.979 239.217 210.601 239.098C206.628 238.671 202.815 237.806 199.301 235.911C198.001 235.186 196.603 234.653 195.151 234.327C193.289 233.938 191.307 234.09 189.421 233.765C188.724 233.646 187.477 233.528 186.983 232.933C186.383 232.205 186.983 230.611 187.152 229.783C187.24 229.361 187.353 228.944 187.479 228.531C187.465 228.579 187.453 228.612 187.446 228.647Z" fill="#152C1A"/>
<path d="M190.914 221.637C191.276 222.675 191.677 223.738 192.446 224.525C193.351 225.455 194.675 225.886 195.972 225.96C197.063 225.992 198.154 225.893 199.221 225.663C199.046 225.252 198.9 224.83 198.782 224.399C198.592 223.707 198.495 222.929 198.73 222.265C198.642 221.664 198.783 221.052 199.126 220.55C199.271 220.361 199.515 220.19 199.733 220.285C199.822 220.332 199.898 220.399 199.956 220.482C200.48 221.057 200.97 221.664 201.421 222.298C201.706 222.749 201.896 223.247 202.178 223.721C203.013 225.101 204.013 226.398 204.82 227.79C205.465 228.781 206.22 229.694 207.073 230.513C208.64 231.936 210.658 232.709 212.626 233.47C213.395 233.769 214.206 234.096 214.706 234.751C215.169 235.353 215.297 236.138 215.418 236.885C215.418 236.923 215.429 236.961 215.434 237.001C215.455 237.125 215.446 237.252 215.408 237.371C215.28 237.705 214.848 237.786 214.49 237.812C213.138 237.938 211.777 237.945 210.423 237.833C206.527 237.428 203.039 235.355 199.6 233.479C196.162 231.604 192.419 229.837 188.514 230.126C188.27 230.168 188.019 230.143 187.788 230.053C187.328 229.816 187.347 229.154 187.454 228.646C187.454 228.611 187.473 228.578 187.48 228.542C188.04 225.993 189.219 223.621 190.914 221.637Z" fill="#152C1A"/>
<path d="M208.654 92.7888C207.794 89.0988 207.597 85.4872 208.33 81.764C208.856 79.0914 209.264 76.3927 209.878 73.7367C210.492 71.0807 211.737 68.7378 212.515 66.1482C213.817 61.7966 211.567 58.4149 207.919 56.0957C206.894 55.4553 205.826 54.8864 204.723 54.393C201.773 53.0508 198.711 52.235 195.844 50.8026C193.515 49.6383 196.344 58.4552 188.357 60.12C180.37 61.7847 178.042 53.1314 178.872 49.3039C172.274 48.2866 165.829 47.715 159.16 48.0945C158.786 48.0893 158.415 48.1636 158.072 48.3126C157.8 48.4777 157.563 48.6934 157.372 48.9482C154.47 52.4105 153.341 56.8308 152.561 61.18C151.541 66.7647 151.045 72.4656 151.432 78.1405C151.795 83.488 153.272 88.672 154.842 93.7706C155.629 96.3246 156.459 98.8691 157.173 101.447C157.448 102.443 157.756 106.334 159.13 106.462C173.021 107.738 187.02 108.694 188.855 108.869C192.348 109.201 204.078 109.137 211.519 107.176C213.805 106.572 210.725 100.043 210.333 98.8762C209.69 96.8653 209.13 94.8361 208.654 92.7888Z" fill="#4F9646"/>
<g opacity="0.29">
<path d="M145.294 72.1379C144.497 72.1379 143.7 72.1071 142.922 72.0407C142.795 72.0305 142.683 71.9533 142.628 71.8382C142.574 71.723 142.584 71.5875 142.657 71.4825C142.729 71.3775 142.852 71.3191 142.979 71.3293C144.241 71.4315 145.509 71.4506 146.773 71.3862C146.97 71.3764 147.137 71.5277 147.147 71.7241C147.157 71.9206 147.005 72.0878 146.809 72.0976C146.292 72.1261 145.787 72.1395 145.294 72.1379Z" fill="#BA9AFF"/>
<path d="M155.236 72.4983H155.158C154.256 72.2893 153.333 72.1772 152.407 72.1639C152.213 72.1613 152.057 72.0024 152.059 71.8082C152.057 71.7135 152.095 71.6223 152.162 71.556C152.23 71.4897 152.322 71.454 152.417 71.4572C153.389 71.4696 154.357 71.5849 155.305 71.8011C155.495 71.8458 155.614 72.0352 155.571 72.2256C155.535 72.3824 155.397 72.4947 155.236 72.4983Z" fill="#BA9AFF"/>
<path d="M206.992 74.3426C206.821 74.3414 206.675 74.218 206.646 74.0495C206.617 73.8809 206.712 73.7157 206.873 73.6572L208.296 73.1545C208.384 73.1219 208.481 73.1262 208.566 73.1664C208.651 73.2065 208.716 73.2792 208.747 73.3679C208.811 73.5519 208.715 73.7536 208.531 73.8185L207.108 74.3236C207.07 74.3364 207.031 74.3428 206.992 74.3426Z" fill="#BA9AFF"/>
<path d="M148.76 61.6292C148.592 61.6302 148.446 61.5119 148.414 61.347C148.395 61.2552 148.413 61.1596 148.465 61.0813C148.516 61.0031 148.597 60.9485 148.689 60.9297C149.607 60.7461 150.498 60.4423 151.337 60.0261C151.451 59.9653 151.589 59.9713 151.697 60.0417C151.805 60.112 151.866 60.2357 151.856 60.3642C151.847 60.4928 151.768 60.6059 151.651 60.6593C150.756 61.1034 149.808 61.4272 148.829 61.6221C148.806 61.6278 148.783 61.6302 148.76 61.6292Z" fill="#BA9AFF"/>
<path d="M155.331 60.8017C155.134 60.8155 154.964 60.6674 154.95 60.4709C154.936 60.2745 155.084 60.1041 155.281 60.0903C156.022 59.9837 156.773 59.9575 157.52 60.012C157.647 60.0214 157.759 60.0978 157.815 60.2125C157.87 60.3272 157.86 60.4628 157.788 60.5682C157.717 60.6736 157.594 60.7328 157.467 60.7235C156.771 60.6744 156.072 60.6991 155.381 60.797L155.331 60.8017Z" fill="#BA9AFF"/>
<path d="M161.004 61.3312C160.839 61.3322 160.695 61.2188 160.658 61.0581C160.62 60.8975 160.699 60.7323 160.847 60.6601C161.363 60.4077 161.954 60.3537 162.507 60.5083C162.695 60.5614 162.805 60.7567 162.752 60.9447C162.699 61.1326 162.503 61.242 162.315 61.1889C161.933 61.0821 161.524 61.1201 161.167 61.2957C161.116 61.3199 161.06 61.3321 161.004 61.3312Z" fill="#BA9AFF"/>
<path d="M166.227 62.305C166.174 62.3048 166.121 62.2927 166.073 62.2695L164.904 61.6956C164.727 61.6098 164.653 61.3969 164.739 61.2201C164.825 61.0433 165.038 60.9695 165.214 61.0553L166.383 61.6292C166.532 61.7013 166.611 61.8665 166.573 62.0272C166.536 62.1879 166.392 62.3012 166.227 62.3003V62.305Z" fill="#BA9AFF"/>
<path d="M209.263 64.4288C209.192 64.4288 209.118 64.4288 209.047 64.4288C208.852 64.4149 208.706 64.2462 208.72 64.0517C208.735 63.8576 208.902 63.7112 209.097 63.7221C209.44 63.7462 209.784 63.6977 210.107 63.5798C210.286 63.5292 210.473 63.6259 210.536 63.801C210.598 63.976 210.515 64.1696 210.344 64.2438C209.997 64.3672 209.631 64.4298 209.263 64.4288Z" fill="#BA9AFF"/>
</g>
<path d="M251.844 102.383C252.328 101.55 252.646 100.631 252.778 99.6771C252.541 99.3214 251.237 98.9348 250.788 98.7285L248.201 97.4835C246.546 96.693 244.886 95.9026 243.221 95.1121C239.901 93.5635 236.541 92.0743 233.131 90.7297C230.195 89.5748 226.894 88.7946 224.276 86.9781C222.108 85.477 220.403 83.4209 219.097 81.1539C216.922 77.3596 215.777 73.091 214.653 68.9007C214.484 68.2794 212.155 59.9983 211.522 60.0078C208.152 60.0481 207.543 64.7507 206.779 67.2075C203.604 77.4046 207.031 87.9361 209.58 97.87C209.782 98.6574 209.988 99.4447 210.189 100.241C211.299 104.619 212.642 104.062 216.965 105.018C221.288 105.973 252.773 107.406 252.773 107.406C252.773 107.406 251.025 103.815 251.844 102.383Z" fill="#A4C340"/>
<path d="M253.285 106.184C255.355 106.039 257.435 106.132 259.484 106.461C260.931 106.699 262.396 107.045 263.843 106.805C264.974 106.618 266.058 106.073 267.201 106.08C268.059 106.08 268.896 106.4 269.755 106.414C269.992 106.414 270.272 106.362 270.348 106.12C270.438 105.831 270.148 105.577 269.897 105.442C268.587 104.746 267.109 104.429 265.629 104.524C265.664 104.206 266.017 104.081 266.307 104.035C267.674 103.814 269.067 103.801 270.438 103.998C272.537 104.299 274.619 105.091 276.722 104.823C276.81 104.567 276.551 104.348 276.331 104.213C273.485 102.61 270.428 101.529 267.388 100.452C266.326 100.078 265.254 99.6981 264.127 99.6696C262.42 99.627 260.807 100.407 259.147 100.917C258.575 101.128 257.962 101.209 257.355 101.154C256.757 101.069 256.209 100.753 255.626 100.595C254.627 100.322 253.511 100.49 252.624 99.9115C252.489 99.7922 252.326 99.7104 252.149 99.6744C251.779 99.6578 251.571 100.13 251.488 100.526C251.035 102.702 251.448 104.968 252.638 106.846" fill="url(#paint4_linear)"/>
<path d="M192.802 108.057C194.965 107.905 197.139 108.002 199.281 108.346C200.794 108.583 202.326 108.958 203.836 108.707C205.022 108.51 206.151 107.941 207.346 107.948C208.242 107.948 209.117 108.282 210.016 108.299C210.253 108.299 210.554 108.242 210.635 107.99C210.73 107.687 210.429 107.421 210.161 107.279C208.788 106.554 207.24 106.225 205.691 106.33C205.729 105.998 206.096 105.856 206.402 105.818C207.831 105.586 209.287 105.573 210.72 105.78C212.916 106.093 215.091 106.921 217.289 106.641C217.382 106.373 217.111 106.136 216.879 106.003C213.908 104.329 210.713 103.198 207.533 102.074C206.423 101.682 205.292 101.286 204.128 101.256C202.342 101.213 200.644 102.026 198.925 102.557C198.326 102.78 197.685 102.866 197.049 102.811C196.428 102.719 193.032 102.114 192.107 101.512C191.967 101.39 191.796 101.308 191.614 101.274C191.227 101.256 191.009 101.749 190.921 102.164C190.449 104.438 190.88 106.807 192.124 108.768" fill="url(#paint5_linear)"/>
<path d="M163.359 67.5159C163.359 67.5159 160.276 77.3645 160.172 82.5555C160.067 87.7466 160.172 88.4201 160.172 88.4201C160.172 88.4201 177.184 93.8744 182.485 95.6672C187.785 97.46 193.296 99.2907 193.296 99.2907C193.296 99.2907 190.633 100.569 191.145 104.131C191.657 107.693 193.279 108.843 193.279 108.843C193.279 108.843 190.483 109.407 174.927 108.093C159.37 106.78 131.387 104.74 127.244 100.965C123.102 97.1896 127.806 91.7282 134.103 80.8789C140.399 70.0296 150.05 49.6733 155.457 48.6702C160.864 47.6671 162.033 47.89 168.552 48.1959C175.071 48.5018 163.359 67.5159 163.359 67.5159Z" fill="#A4C340"/>
<path d="M69.2397 230.859C69.1828 230.863 69.1258 230.863 69.069 230.859C68.2962 230.762 67.7455 230.061 67.8334 229.287C72.2799 192.383 78.2891 155.113 85.6974 118.518C85.9226 117.833 86.6243 117.425 87.3308 117.567C88.0374 117.71 88.5256 118.359 88.4672 119.077C81.0755 155.597 75.0758 192.795 70.6412 229.624C70.5477 230.328 69.9497 230.855 69.2397 230.859Z" fill="#F5F8F5"/>
<path d="M93.1261 230.859C92.4129 230.854 91.8137 230.322 91.7246 229.614C87.2876 192.781 81.2903 155.588 73.8962 119.068C73.8325 118.346 74.3216 117.691 75.032 117.548C75.7423 117.404 76.447 117.818 76.6684 118.508C84.0744 155.099 90.0859 192.368 94.53 229.277C94.618 230.05 94.0686 230.751 93.2968 230.85C93.2402 230.856 93.1832 230.859 93.1261 230.859Z" fill="#F5F8F5"/>
<path d="M317.72 230.859C317.663 230.863 317.606 230.863 317.549 230.859C316.777 230.762 316.226 230.061 316.314 229.287C320.76 192.373 326.772 155.106 334.178 118.518C334.403 117.833 335.105 117.425 335.811 117.567C336.518 117.71 337.006 118.359 336.948 119.077C329.558 155.597 323.559 192.786 319.122 229.624C319.028 230.328 318.43 230.855 317.72 230.859Z" fill="#F5F8F5"/>
<path d="M341.6 230.862C340.886 230.857 340.287 230.325 340.198 229.617C335.761 192.789 329.764 155.595 322.372 119.071C322.201 118.549 322.344 117.976 322.741 117.597C323.138 117.218 323.717 117.101 324.23 117.296C324.743 117.491 325.097 117.964 325.142 118.511C332.55 155.107 338.559 192.376 343.003 229.28C343.091 230.053 342.542 230.754 341.77 230.853C341.714 230.859 341.657 230.862 341.6 230.862Z" fill="#F5F8F5"/>
<rect x="50.7227" y="103.293" width="309.393" height="15.4285" rx="7.71426" fill="#F5F8F5"/>
<rect x="251.305" y="103.293" width="63.9764" height="3.45517" rx="1.72759" fill="#E4EAE3"/>
<path d="M314.363 103.227H271.747C270.99 103.227 270.371 102.537 270.371 101.693L284.125 72.2632C284.125 71.419 284.744 70.7266 285.501 70.7266H328.118C328.874 70.7266 329.493 71.419 329.493 72.2632L315.739 101.693C315.739 102.537 315.12 103.227 314.363 103.227Z" fill="#EFF3EE"/>
<path d="M300.587 89.872C301.536 89.8577 302.437 89.6016 303.02 89.0847C306.931 85.6105 298.647 82.0937 296.999 86.5591C296.2 88.7218 298.486 89.9028 300.587 89.872Z" fill="#E4EAE3"/>
<path fill-rule="evenodd" clip-rule="evenodd" d="M85.1824 60.9837H107.27C110.391 60.981 112.921 58.4514 112.923 55.3302V5.65349C112.919 2.53278 110.391 0.00391967 107.27 0H85.1824C82.0626 0.0052255 79.5352 2.5337 79.5312 5.65349V55.3302C79.5339 58.4505 82.062 60.9797 85.1824 60.9837ZM80.2392 5.65092C80.2418 2.92089 82.4536 0.708041 85.1836 0.70412H107.271C110.001 0.708038 112.214 2.9205 112.218 5.65092V55.3276C112.214 58.058 110.001 60.2705 107.271 60.2744H85.1836C82.4536 60.2705 80.2418 58.0576 80.2392 55.3276V5.65092Z" fill="#E4EAE3"/>
<path fill-rule="evenodd" clip-rule="evenodd" d="M94.4702 33.4972H91.6435C91.5938 33.4992 91.5456 33.4804 91.5104 33.4452C91.4753 33.4101 91.4565 33.3619 91.4585 33.3122C91.4585 33.2153 91.5371 33.1367 91.634 33.1367H94.4702C94.5675 33.1367 94.6468 33.2149 94.6481 33.3122C94.6493 33.3604 94.6312 33.4071 94.5978 33.4419C94.5644 33.4766 94.5184 33.4966 94.4702 33.4972ZM102.951 33.4979H105.778C105.875 33.4966 105.954 33.4173 105.954 33.32C105.954 33.2231 105.875 33.1445 105.778 33.1445H102.951C102.854 33.1445 102.775 33.2227 102.773 33.32C102.775 33.4177 102.854 33.4966 102.951 33.4979ZM97.2966 33.4979H100.123C100.221 33.4966 100.299 33.4173 100.299 33.32C100.299 33.2735 100.28 33.2288 100.247 33.1959C100.214 33.163 100.17 33.1445 100.123 33.1445H97.2966C97.1997 33.1445 97.1211 33.2231 97.1211 33.32C97.1211 33.4173 97.1993 33.4966 97.2966 33.4979ZM86.1091 33.4988H88.8173C88.8644 33.4988 88.9097 33.4801 88.943 33.4467C88.9764 33.4133 88.9951 33.3681 88.9951 33.3209C88.9951 33.274 88.9763 33.229 88.9429 33.196C88.9094 33.163 88.8642 33.1448 88.8173 33.1455H86.1091C86.0122 33.1455 85.9336 33.224 85.9336 33.3209C85.9336 33.4182 86.0118 33.4975 86.1091 33.4988Z" fill="#E4EAE3"/>
<path fill-rule="evenodd" clip-rule="evenodd" d="M94.4712 29.0213H91.6445C91.5472 29.02 91.469 28.9408 91.469 28.8435C91.469 28.7465 91.5476 28.668 91.6445 28.668H94.4712C94.5685 28.668 94.6478 28.7462 94.6491 28.8435C94.6478 28.9411 94.5689 29.02 94.4712 29.0213ZM102.951 29.0213H105.778C105.875 29.02 105.953 28.9408 105.953 28.8435C105.953 28.7465 105.875 28.668 105.778 28.668H102.951C102.854 28.668 102.774 28.7462 102.773 28.8435C102.774 28.9411 102.853 29.02 102.951 29.0213ZM97.2973 29.0213H100.124C100.221 29.02 100.3 28.9408 100.299 28.8435C100.299 28.7465 100.221 28.668 100.124 28.668H97.2973C97.2003 28.668 97.1218 28.7465 97.1218 28.8435C97.1218 28.9408 97.2 29.02 97.2973 29.0213ZM86.1091 29.0213H88.8173C88.9155 29.0213 88.9951 28.9417 88.9951 28.8435C88.9951 28.7965 88.9763 28.7515 88.9429 28.7185C88.9094 28.6856 88.8642 28.6674 88.8173 28.668H86.1091C86.0122 28.668 85.9336 28.7466 85.9336 28.8435C85.9336 28.9408 86.0118 29.02 86.1091 29.0213Z" fill="#E4EAE3"/>
<path fill-rule="evenodd" clip-rule="evenodd" d="M86.1091 24.5369H88.8173C88.8642 24.5376 88.9094 24.5194 88.9429 24.4864C88.9763 24.4534 88.9951 24.4084 88.9951 24.3615C88.9951 24.2632 88.9155 24.1836 88.8173 24.1836H86.1091C86.0118 24.1849 85.9336 24.2641 85.9336 24.3615C85.9336 24.4584 86.0122 24.5369 86.1091 24.5369ZM94.4712 24.5369H91.6445C91.5476 24.5369 91.469 24.4584 91.469 24.3615C91.469 24.2641 91.5472 24.1849 91.6445 24.1836H94.4712C94.5689 24.1849 94.6478 24.2638 94.6491 24.3615C94.6478 24.4588 94.5685 24.5369 94.4712 24.5369ZM97.2973 24.5369H100.124C100.171 24.5369 100.215 24.5184 100.248 24.4855C100.281 24.4526 100.299 24.408 100.299 24.3615C100.3 24.2641 100.221 24.1849 100.124 24.1836H97.2973C97.2 24.1849 97.1218 24.2641 97.1218 24.3615C97.1218 24.4584 97.2003 24.5369 97.2973 24.5369ZM102.951 24.5369H105.778C105.824 24.5369 105.869 24.5184 105.902 24.4855C105.935 24.4526 105.953 24.408 105.953 24.3615C105.953 24.2641 105.875 24.1849 105.778 24.1836H102.951C102.853 24.1849 102.774 24.2638 102.773 24.3615C102.774 24.4588 102.854 24.5369 102.951 24.5369Z" fill="#E4EAE3"/>
<path fill-rule="evenodd" clip-rule="evenodd" d="M86.1091 20.0682H88.8173C88.8642 20.0688 88.9094 20.0506 88.9429 20.0176C88.9763 19.9847 88.9951 19.9397 88.9951 19.8927C88.9951 19.7945 88.9155 19.7148 88.8173 19.7148H86.1091C86.0118 19.7161 85.9336 19.7954 85.9336 19.8927C85.9336 19.9896 86.0122 20.0682 86.1091 20.0682ZM94.4712 20.0682H91.6445C91.5476 20.0682 91.469 19.9896 91.469 19.8927C91.469 19.7954 91.5472 19.7161 91.6445 19.7148H94.4712C94.5689 19.7161 94.6478 19.795 94.6491 19.8927C94.6478 19.99 94.5685 20.0682 94.4712 20.0682ZM97.2973 20.0682H100.124C100.171 20.0682 100.215 20.0497 100.248 20.0168C100.281 19.9839 100.299 19.9392 100.299 19.8927C100.3 19.7954 100.221 19.7161 100.124 19.7148H97.2973C97.2 19.7161 97.1218 19.7954 97.1218 19.8927C97.1218 19.9896 97.2003 20.0682 97.2973 20.0682ZM102.951 20.0682H105.778C105.824 20.0682 105.869 20.0497 105.902 20.0168C105.935 19.9839 105.953 19.9392 105.953 19.8927C105.953 19.7954 105.875 19.7161 105.778 19.7148H102.951C102.853 19.7161 102.774 19.795 102.773 19.8927C102.774 19.99 102.854 20.0682 102.951 20.0682Z" fill="#E4EAE3"/>
<path fill-rule="evenodd" clip-rule="evenodd" d="M86.1091 15.5877H88.8173C88.8642 15.5884 88.9094 15.5701 88.9429 15.5372C88.9763 15.5042 88.9951 15.4592 88.9951 15.4122C88.9951 15.314 88.9155 15.2344 88.8173 15.2344H86.1091C86.0118 15.2357 85.9336 15.3149 85.9336 15.4122C85.9336 15.5092 86.0122 15.5877 86.1091 15.5877ZM94.4703 15.5879H91.6436C91.5466 15.5879 91.4681 15.5094 91.4681 15.4124C91.4681 15.3151 91.5463 15.2359 91.6436 15.2346H94.4703C94.568 15.2359 94.6469 15.3147 94.6482 15.4124C94.6469 15.5097 94.5676 15.5879 94.4703 15.5879ZM97.2963 15.5879H100.123C100.17 15.5879 100.214 15.5694 100.247 15.5365C100.28 15.5036 100.299 15.459 100.299 15.4124C100.299 15.3151 100.22 15.2359 100.123 15.2346H97.2963C97.199 15.2359 97.1208 15.3151 97.1208 15.4124C97.1208 15.5094 97.1994 15.5879 97.2963 15.5879ZM102.95 15.5879H105.777C105.823 15.5879 105.868 15.5694 105.901 15.5365C105.934 15.5036 105.952 15.459 105.952 15.4124C105.952 15.3151 105.874 15.2359 105.777 15.2346H102.95C102.852 15.2359 102.773 15.3147 102.772 15.4124C102.773 15.5097 102.853 15.5879 102.95 15.5879Z" fill="#E4EAE3"/>
<path fill-rule="evenodd" clip-rule="evenodd" d="M86.1091 11.119H88.8173C88.8642 11.1196 88.9094 11.1014 88.9429 11.0684C88.9763 11.0354 88.9951 10.9904 88.9951 10.9435C88.9951 10.8453 88.9155 10.7656 88.8173 10.7656H86.1091C86.0118 10.7669 85.9336 10.8462 85.9336 10.9435C85.9336 11.0404 86.0122 11.119 86.1091 11.119ZM94.4712 11.119H91.6445C91.5476 11.119 91.469 11.0404 91.469 10.9435C91.469 10.8462 91.5472 10.7669 91.6445 10.7656H94.4712C94.5689 10.7669 94.6478 10.8458 94.6491 10.9435C94.6478 11.0408 94.5685 11.119 94.4712 11.119ZM97.2973 11.119H100.124C100.221 11.119 100.299 11.0404 100.299 10.9435C100.3 10.8462 100.221 10.7669 100.124 10.7656H97.2973C97.2 10.7669 97.1218 10.8462 97.1218 10.9435C97.1218 11.0404 97.2003 11.119 97.2973 11.119ZM102.951 11.119H105.778C105.875 11.119 105.953 11.0404 105.953 10.9435C105.953 10.8462 105.875 10.7669 105.778 10.7656H102.951C102.853 10.7669 102.774 10.8458 102.773 10.9435C102.774 11.0408 102.854 11.119 102.951 11.119Z" fill="#E4EAE3"/>
<path fill-rule="evenodd" clip-rule="evenodd" d="M86.1091 6.6385H88.8173C88.8642 6.63913 88.9094 6.62093 88.9429 6.58795C88.9763 6.55497 88.9951 6.50997 88.9951 6.46301C88.9951 6.36479 88.9155 6.28516 88.8173 6.28516H86.1091C86.0118 6.28645 85.9336 6.3657 85.9336 6.46301C85.9336 6.55993 86.0122 6.6385 86.1091 6.6385ZM94.4703 6.6386H91.6436C91.5466 6.6386 91.4681 6.56003 91.4681 6.46311C91.4681 6.36581 91.5463 6.28655 91.6436 6.28526H94.4703C94.568 6.28653 94.6469 6.36542 94.6482 6.46311C94.6469 6.56041 94.5676 6.63861 94.4703 6.6386ZM97.2963 6.6386H100.123C100.17 6.6386 100.214 6.62011 100.247 6.5872C100.28 6.55429 100.299 6.50966 100.299 6.46311C100.299 6.36581 100.22 6.28655 100.123 6.28526H97.2963C97.199 6.28655 97.1208 6.36581 97.1208 6.46311C97.1208 6.56003 97.1994 6.6386 97.2963 6.6386ZM102.95 6.6386H105.777C105.823 6.6386 105.868 6.62011 105.901 6.5872C105.934 6.55429 105.952 6.50966 105.952 6.46311C105.952 6.36581 105.874 6.28655 105.777 6.28526H102.95C102.852 6.28653 102.773 6.36542 102.772 6.46311C102.773 6.56041 102.853 6.63861 102.95 6.6386Z" fill="#E4EAE3"/>
<path fill-rule="evenodd" clip-rule="evenodd" d="M86.1091 37.9432H88.8173C88.8642 37.9438 88.9094 37.9256 88.9429 37.8926C88.9763 37.8597 88.9951 37.8147 88.9951 37.7677C88.9951 37.6695 88.9155 37.5898 88.8173 37.5898H86.1091C86.0118 37.5911 85.9336 37.6704 85.9336 37.7677C85.9336 37.8646 86.0122 37.9432 86.1091 37.9432ZM94.4712 37.9432H91.6445C91.5476 37.9432 91.469 37.8646 91.469 37.7677C91.469 37.6704 91.5472 37.5911 91.6445 37.5898H94.4712C94.5689 37.5911 94.6478 37.67 94.6491 37.7677C94.6478 37.865 94.5685 37.9432 94.4712 37.9432ZM97.2973 37.9432H100.124C100.221 37.9432 100.299 37.8646 100.299 37.7677C100.3 37.6704 100.221 37.5911 100.124 37.5898H97.2973C97.2 37.5911 97.1218 37.6704 97.1218 37.7677C97.1218 37.8646 97.2003 37.9432 97.2973 37.9432ZM102.951 37.9432H105.778C105.875 37.9432 105.953 37.8646 105.953 37.7677C105.953 37.6704 105.875 37.5911 105.778 37.5898H102.951C102.853 37.5911 102.774 37.67 102.773 37.7677C102.774 37.865 102.854 37.9432 102.951 37.9432Z" fill="#E4EAE3"/>
<path fill-rule="evenodd" clip-rule="evenodd" d="M94.4703 42.3963H91.6436C91.5466 42.3963 91.4681 42.3177 91.4681 42.2208C91.4681 42.1235 91.5463 42.0443 91.6436 42.043H94.4703C94.568 42.0442 94.6469 42.1231 94.6482 42.2208C94.6469 42.3181 94.5676 42.3963 94.4703 42.3963ZM97.2963 42.3963H100.123C100.22 42.3963 100.299 42.3177 100.299 42.2208C100.299 42.1235 100.22 42.0443 100.123 42.043H97.2963C97.199 42.0443 97.1208 42.1235 97.1208 42.2208C97.1208 42.3177 97.1994 42.3963 97.2963 42.3963ZM102.95 42.3963H105.777C105.874 42.3963 105.952 42.3177 105.952 42.2208C105.952 42.1235 105.874 42.0443 105.777 42.043H102.95C102.852 42.0442 102.773 42.1231 102.772 42.2208C102.773 42.3181 102.853 42.3963 102.95 42.3963ZM86.1091 42.3963H88.8173C88.8642 42.397 88.9094 42.3788 88.9429 42.3458C88.9763 42.3128 88.9951 42.2678 88.9951 42.2208C88.9951 42.1226 88.9155 42.043 88.8173 42.043H86.1091C86.0118 42.0443 85.9336 42.1235 85.9336 42.2208C85.9336 42.3178 86.0122 42.3963 86.1091 42.3963Z" fill="#E4EAE3"/>
<path fill-rule="evenodd" clip-rule="evenodd" d="M86.1105 46.8506H88.8187C88.8867 46.8585 88.9532 46.8267 88.9896 46.7687C89.0261 46.7108 89.0261 46.6371 88.9896 46.5792C88.9532 46.5212 88.8867 46.4894 88.8187 46.4973H86.1105C86.0208 46.5077 85.9531 46.5837 85.9531 46.674C85.9531 46.7643 86.0208 46.8402 86.1105 46.8506ZM97.2984 46.8496H100.125C100.215 46.8392 100.283 46.7632 100.283 46.6729C100.283 46.5826 100.215 46.5067 100.125 46.4963H97.2984C97.2087 46.5067 97.1411 46.5826 97.1411 46.6729C97.1411 46.7632 97.2087 46.8392 97.2984 46.8496ZM102.953 46.8508H105.779C105.869 46.8404 105.937 46.7644 105.937 46.6741C105.937 46.5838 105.869 46.5079 105.779 46.4975H102.953C102.885 46.4896 102.818 46.5214 102.782 46.5793C102.745 46.6373 102.745 46.711 102.782 46.7689C102.818 46.8269 102.885 46.8587 102.953 46.8508ZM94.4724 46.8508H91.6457C91.556 46.8404 91.4883 46.7644 91.4883 46.6741C91.4883 46.5838 91.556 46.5079 91.6457 46.4975H94.4724C94.5404 46.4896 94.6069 46.5214 94.6434 46.5793C94.6799 46.6373 94.6799 46.711 94.6434 46.7689C94.6069 46.8269 94.5404 46.8587 94.4724 46.8508Z" fill="#E4EAE3"/>
<path d="M105.557 52.9731H86.1116C84.1601 52.9731 82.5781 51.3911 82.5781 49.4397C82.5781 47.4882 84.1601 45.9063 86.1116 45.9062H105.557C107.509 45.9063 109.091 47.4882 109.091 49.4397C109.091 51.3911 107.509 52.9731 105.557 52.9731Z" fill="#C2EBBD"/>
<path d="M113.426 66.0949H89.2655C87.4486 66.1175 85.7865 65.0749 85.0159 63.4294C84.9354 63.2513 85.0145 63.0416 85.1926 62.961C85.3707 62.8805 85.5804 62.9596 85.6609 63.1377C86.3129 64.5352 87.7236 65.4206 89.2655 65.4001H113.426C115.581 65.4001 117.336 63.7401 117.336 61.7172V9.50074C117.309 7.98588 116.358 6.64176 114.939 6.11197C114.821 6.06494 114.738 5.95889 114.72 5.83376C114.702 5.70863 114.752 5.58343 114.852 5.50532C114.951 5.42721 115.084 5.40806 115.202 5.45508C116.885 6.09587 118.007 7.69962 118.031 9.50074V61.7054C118.04 64.1266 115.97 66.0949 113.426 66.0949Z" fill="#E4EAE3"/>
<path d="M21.5876 201.306C21.7593 200.303 21.9334 199.293 22.2673 198.333C22.8299 196.71 23.8258 195.277 24.81 193.869C25.4329 192.977 26.0558 192.085 26.7463 191.246C29.3919 188.034 32.9329 185.704 36.4644 183.504C33.6613 190.66 28.2574 196.428 23.0821 202.115C22.818 202.406 21.5426 204.231 21.3282 204.136C20.8675 203.936 21.5153 201.722 21.5876 201.306Z" fill="#16D877"/>
<path d="M21.1758 199.438C22.1374 197.188 22.1552 194.675 22.3601 192.239C22.8657 186.199 24.6007 180.343 26.3866 174.554C28.1299 168.908 29.9489 163.244 32.7426 158.038C34.429 154.897 36.5382 151.865 39.5179 149.91C32.2085 166.301 28.8819 184.216 21.9278 200.758" fill="#16D877"/>
<path d="M22.1708 200.596C22.4965 199.649 22.8246 198.693 23.3172 197.819C23.9094 196.766 24.7241 195.859 25.4323 194.88C26.1903 193.829 26.8262 192.695 27.6067 191.661C29.961 188.538 33.4807 186.515 37.043 184.902C36.4674 185.163 35.7545 186.679 35.3649 187.2C34.7704 188.005 34.1703 188.808 33.5648 189.607C32.3726 191.187 31.1623 192.75 29.9338 194.298C27.4768 197.399 24.9503 200.442 22.3544 203.429C21.9186 203.93 20.8149 205.413 21.0422 203.871C21.2057 202.793 21.8156 201.629 22.1708 200.596Z" fill="#3BEA93"/>
<path d="M19.5692 200.641C19.3999 196.828 19.8878 193.018 20.4681 189.245C21.6523 181.503 23.2949 173.681 26.2556 166.471C26.4925 165.879 28.4264 165.534 28.6858 164.955C28.8599 164.567 27.3582 163.946 27.5418 163.562C28.6755 161.157 29.9969 158.844 31.4937 156.645C33.3648 153.908 35.7038 151.252 38.8623 150.25C34.0233 158.678 32.3286 168.506 28.7592 177.545C26.1123 184.249 22.3866 190.669 21.4285 197.814C21.2367 199.246 21.1585 200.688 20.9986 202.124C20.8624 203.346 19.793 204.374 19.7646 203.796C19.7125 202.741 19.6154 201.693 19.5692 200.641Z" fill="#3BEA93"/>
<path d="M25.0314 184.946C25.1794 181.524 24.7862 178.042 23.5072 174.866C21.2784 169.333 16.4158 165.072 10.8438 162.945L12.5456 169.96C15.4672 177.318 19.7827 183.988 21.4395 191.929C22.1796 196.183 21.7829 200.516 22.002 204.807L22.1204 204.369C21.8741 201.237 22.7007 198.134 23.4231 195.076C24.2083 191.743 24.881 188.367 25.0314 184.946Z" fill="#16D877"/>
<path d="M12.543 169.957L14.7813 179.18C15.2858 181.261 15.7914 183.344 16.1372 185.457C16.3871 186.99 16.5541 188.536 16.8656 190.059C18.0037 195.616 21.9994 204.804 21.9994 204.804C21.7803 200.514 22.1771 196.18 21.4369 191.927C19.7801 183.985 15.4646 177.315 12.543 169.957Z" fill="#0AC668"/>
<path d="M18.0069 198.081C16.4484 196.579 14.5453 195.488 12.6481 194.443C10.1611 193.076 7.60424 191.746 4.83185 191.148C3.22005 190.799 1.54311 190.701 0 190.117C3.23189 192.091 5.92138 194.821 8.81694 197.26C13.1975 200.943 18.0839 203.979 23.3267 206.274C23.3267 206.274 20.2997 200.294 18.0069 198.081Z" fill="#16D877"/>
<path d="M21.6405 203.307C21.5848 203.307 21.5399 203.261 21.5399 203.206C21.5509 202.256 21.63 201.309 21.7767 200.37C21.9225 199.441 22.0016 198.502 22.0136 197.561V197.499C22.0456 193.955 22.0799 190.291 22.0787 186.687C22.0787 183.963 22.0787 180.581 20.9063 177.645C20.2857 176.087 19.3407 174.649 18.5058 173.382C16.798 170.784 15.0429 168.171 13.3459 165.634C13.3306 165.612 13.3248 165.585 13.33 165.558C13.3351 165.532 13.3506 165.508 13.3731 165.493C13.4201 165.463 13.4829 165.475 13.5152 165.521C15.2123 168.053 16.9674 170.671 18.6763 173.271C19.5159 174.547 20.4681 175.994 21.0958 177.572C22.2801 180.544 22.2801 183.952 22.2801 186.691C22.2801 190.296 22.2481 193.96 22.2161 197.503V197.566C22.2056 198.516 22.1265 199.463 21.9792 200.401C21.8329 201.331 21.7537 202.27 21.7424 203.21C21.7399 203.265 21.695 203.308 21.6405 203.307Z" fill="white"/>
<path d="M23.0396 185.692C23.0275 185.693 23.0154 185.691 23.004 185.686C22.9515 185.667 22.9245 185.609 22.9436 185.556C24.469 181.37 26.0453 177.04 27.8915 172.895C28.01 172.625 28.1343 172.356 28.2551 172.086C28.7525 170.985 29.2665 169.844 29.6763 168.691C30.0244 167.724 30.3134 166.72 30.5929 165.748C30.7693 165.137 30.9482 164.505 31.1459 163.888C32.1928 160.572 33.7111 157.375 35.1784 154.296C35.1899 154.272 35.2107 154.253 35.236 154.244C35.2614 154.235 35.2892 154.237 35.3134 154.248C35.3639 154.272 35.3856 154.333 35.362 154.383C33.897 157.463 32.3823 160.644 31.3354 163.948C31.1424 164.562 30.96 165.194 30.7847 165.803C30.5041 166.778 30.2139 167.786 29.8646 168.764C29.4465 169.926 28.9302 171.069 28.4316 172.175C28.31 172.443 28.1888 172.712 28.068 172.983C26.2347 177.117 24.6585 181.442 23.1367 185.622C23.1228 185.664 23.0836 185.692 23.0396 185.692Z" fill="white"/>
<path d="M21.6414 203.307C21.6207 203.307 21.6005 203.301 21.5833 203.289C21.561 203.274 21.5456 203.251 21.5407 203.224C21.5358 203.197 21.5418 203.17 21.5573 203.147C23.3775 200.514 25.3102 198.066 27.1802 195.698C29.0502 193.331 30.9782 190.888 32.7949 188.259C32.8272 188.213 32.8904 188.201 32.937 188.233C32.9592 188.248 32.9743 188.272 32.9789 188.298C32.9836 188.325 32.9774 188.353 32.9619 188.375C31.1428 191.009 29.2089 193.458 27.3389 195.825C25.4689 198.192 23.5409 200.636 21.7254 203.263C21.7062 203.291 21.6748 203.307 21.6414 203.307Z" fill="white"/>
<path d="M23.2466 206.23C23.2272 206.23 23.2083 206.224 23.1921 206.214C19.2638 203.727 14.644 199.71 10.9313 196.487L9.74699 195.464L9.47106 195.227C8.7226 194.576 7.94926 193.901 7.06698 193.437C7.03279 193.421 7.0101 193.387 7.00798 193.35C7.00585 193.312 7.02464 193.276 7.05683 193.257C7.08902 193.237 7.12936 193.237 7.16172 193.256C8.06532 193.73 8.84813 194.414 9.60488 195.073L9.87963 195.31L11.0639 196.333C14.7707 199.552 19.3846 203.557 23.2999 206.044C23.3227 206.059 23.3387 206.082 23.3445 206.108C23.3503 206.135 23.3453 206.162 23.3306 206.185C23.312 206.213 23.2804 206.23 23.2466 206.23Z" fill="white"/>
<path d="M31.1888 201.34H11.454C11.454 201.34 7.69155 210.177 8.68161 217.446C9.67166 224.715 16.8981 223.879 16.8981 223.879H25.7411C25.7411 223.879 32.9652 224.72 33.9588 217.446C34.9524 210.172 31.1888 201.34 31.1888 201.34Z" fill="#CCE8D3"/>
<defs>
<linearGradient id="paint0_linear" x1="197.37" y1="56.5205" x2="186.779" y2="36.518" gradientUnits="userSpaceOnUse">
<stop stop-color="#FFCFCB"/>
<stop offset="1" stop-color="#D77E8E"/>
</linearGradient>
<linearGradient id="paint1_linear" x1="172.708" y1="43.5568" x2="179.144" y2="43.5568" gradientUnits="userSpaceOnUse">
<stop stop-color="#FFCFCB"/>
<stop offset="1" stop-color="#D77E8E"/>
</linearGradient>
<linearGradient id="paint2_linear" x1="236.084" y1="223.298" x2="234.81" y2="230.567" gradientUnits="userSpaceOnUse">
<stop stop-color="#FFCFCB"/>
<stop offset="1" stop-color="#D77E8E"/>
</linearGradient>
<linearGradient id="paint3_linear" x1="193.183" y1="221.509" x2="191.662" y2="228.7" gradientUnits="userSpaceOnUse">
<stop stop-color="#FFCFCB"/>
<stop offset="1" stop-color="#D77E8E"/>
</linearGradient>
<linearGradient id="paint4_linear" x1="285.398" y1="102.105" x2="284.642" y2="88.9231" gradientUnits="userSpaceOnUse">
<stop stop-color="#FFCFCB"/>
<stop offset="1" stop-color="#D77E8E"/>
</linearGradient>
<linearGradient id="paint5_linear" x1="226.384" y1="103.796" x2="225.595" y2="90.0195" gradientUnits="userSpaceOnUse">
<stop stop-color="#FFCFCB"/>
<stop offset="1" stop-color="#D77E8E"/>
</linearGradient>
</defs>
</svg>
