<svg width="150" height="30" viewBox="0 0 150 30" fill="none" xmlns="http://www.w3.org/2000/svg">
<path d="M46.4115 5.89925V18.3793C46.4115 19.4957 46.4912 20.5324 45.4944 21.29C44.5774 22.0476 43.0223 22.2868 41.3477 22.2868C38.7959 22.2868 36.0845 21.6887 36.0845 21.6887L35.4865 23.2836C35.4865 23.2836 39.2743 24.0811 42.0255 24.1209C44.3381 24.1608 46.3716 23.6425 47.488 22.3666C48.4051 21.3299 48.6842 20.1337 48.6443 18.1002V5.89925H46.4115ZM65.0319 12.7972C63.3573 11.8801 61.3238 11.4016 59.0112 11.4016C56.7384 11.4016 54.705 11.8801 52.9904 12.7972C50.8373 13.9535 49.7608 15.668 49.7608 17.8211C49.7608 19.9742 50.8373 21.6887 52.9904 22.845C54.705 23.7621 56.6986 24.2406 59.0112 24.2406C61.2839 24.2406 63.3174 23.7621 64.992 22.845C67.1451 21.6887 68.2217 19.9742 68.2217 17.8211C68.2217 15.6281 67.1451 13.9535 65.0319 12.7972ZM63.7161 21.5691C62.4003 22.3267 60.8453 22.6855 59.0112 22.6855C57.1372 22.6855 55.5423 22.3267 54.2664 21.609C52.7113 20.7318 51.9538 19.4957 51.9538 17.8211C51.9538 16.1863 52.7512 14.9104 54.2664 14.0332C55.5423 13.3155 57.1372 12.9567 59.0112 12.9567C60.8453 12.9567 62.4402 13.3155 63.756 14.0332C65.2711 14.9104 66.0686 16.1863 66.0686 17.8211C66.0287 19.416 65.2711 20.6919 63.7161 21.5691ZM84.6491 12.7972C82.9745 11.8801 80.941 11.4016 78.6284 11.4016C76.3557 11.4016 74.3222 11.8801 72.6077 12.7972C70.4546 13.9535 69.378 15.668 69.378 17.8211C69.378 19.9742 70.4546 21.6887 72.6077 22.845C74.3222 23.7621 76.3158 24.2406 78.6284 24.2406C80.9011 24.2406 82.9346 23.7621 84.6093 22.845C86.7624 21.6887 87.8389 19.9742 87.8389 17.8211C87.8389 15.6281 86.7624 13.9535 84.6491 12.7972ZM83.3333 21.5691C82.0176 22.3267 80.4625 22.6855 78.6284 22.6855C76.7544 22.6855 75.1595 22.3267 73.8836 21.609C72.3286 20.7318 71.571 19.4957 71.571 17.8211C71.571 16.1863 72.3684 14.9104 73.8836 14.0332C75.1595 13.3155 76.7544 12.9567 78.6284 12.9567C80.4625 12.9567 82.0574 13.3155 83.3732 14.0332C84.8884 14.9104 85.6858 16.1863 85.6858 17.8211C85.6459 19.416 84.8884 20.6919 83.3333 21.5691ZM111.723 12.4782C110.526 11.7605 108.971 11.4016 107.137 11.4016C104.785 11.4016 102.911 12.1193 101.475 13.5548C100.12 12.1193 98.2058 11.4016 95.8533 11.4016C93.9394 11.4016 92.3844 11.8004 91.1882 12.5579V11.5611H89.075V23.9615H91.1882V15.5085C91.3477 14.9104 91.7464 14.3522 92.3844 13.8737C93.2616 13.2756 94.378 12.9567 95.7735 12.9567C97.0096 12.9567 98.0463 13.1959 98.9235 13.7142C99.9601 14.3123 100.439 15.1098 100.439 16.2262V24.0412H102.512V16.1863C102.512 15.0699 102.99 14.2725 104.027 13.6744C104.904 13.1959 105.981 12.9168 107.217 12.9168C108.453 12.9168 109.53 13.156 110.407 13.6744C111.443 14.2725 111.922 15.0699 111.922 16.1863V24.0013H114.035V16.4654C113.995 14.7111 113.198 13.3554 111.723 12.4782ZM115.67 5.89925V24.0013H117.783V5.89925H115.67ZM141.348 5.89925V19.8945H143.461V5.89925H141.348ZM135.805 11.5611V13.6744C134.011 12.1592 131.619 11.3618 128.668 11.3618C126.316 11.3618 124.282 11.8004 122.608 12.7174C120.534 13.8737 119.458 15.5484 119.458 17.7812C119.458 19.9742 120.534 21.6887 122.687 22.8052C124.362 23.7222 126.396 24.1608 128.748 24.1608C129.904 24.1608 131.061 24.0412 132.097 23.7621C133.573 23.3634 134.809 22.8052 135.766 22.0476V23.9615H137.879V11.5611H135.805ZM121.691 17.8211C121.691 16.1863 122.488 14.9104 124.003 14.0332C125.279 13.3155 126.914 12.9567 128.788 12.9567C131.101 12.9567 132.895 13.5149 134.171 14.6313C135.287 15.6281 135.845 16.904 135.845 18.4591V19.9343C134.968 20.9311 133.652 21.6887 131.978 22.2071C130.981 22.526 129.904 22.6855 128.788 22.6855C126.874 22.6855 125.279 22.3267 124.003 21.6489C122.448 20.7318 121.691 19.4957 121.691 17.8211ZM142.424 21.6489C140.949 21.6489 140.75 22.4064 140.75 22.8849C140.75 23.3634 140.989 24.1209 142.424 24.1209C143.9 24.1209 144.099 23.3235 144.099 22.8849C144.099 22.4463 143.86 21.6489 142.424 21.6489ZM150 8.1321C150 9.36815 149.203 10.4048 147.767 10.4048C146.332 10.4048 145.534 9.36815 145.534 8.1321C145.534 6.89606 146.332 5.85938 147.767 5.85938C149.203 5.85938 150 6.89606 150 8.1321ZM146.013 8.1321C146.013 9.16879 146.651 9.96623 147.767 9.96623C148.884 9.96623 149.522 9.16879 149.522 8.1321C149.522 7.09542 148.884 6.29797 147.767 6.29797C146.651 6.29797 146.013 7.09542 146.013 8.1321ZM148.206 8.41121C149.083 8.25172 149.003 6.93593 148.006 6.93593H146.93V9.24853H147.368V8.45108H147.767L148.405 9.24853H148.884V9.16879L148.206 8.41121ZM148.006 7.33465C148.525 7.33465 148.525 8.09223 148.006 8.09223H147.368V7.33465H148.006Z" fill="#3B3A40"/>
<path d="M5.3429 15.0319L4.78469 14.4737C2.99043 12.6794 2.47209 10.1675 3.11005 7.89474C1.31579 7.49601 0 5.90112 0 3.98724C0 1.79426 1.79426 0 3.98724 0C5.98086 0 7.61563 1.43541 7.93461 3.34928C10.0877 2.83094 12.4402 3.42903 14.1148 5.10367L14.3541 5.3429L11.4035 8.29346L11.1643 8.05423C10.2073 7.09729 8.65231 7.09729 7.69538 8.05423C6.73844 9.01117 6.73844 10.5662 7.69538 11.5231L14.3142 18.142L11.3636 21.0925L8.25359 17.9825L5.3429 15.0319Z" fill="#7AC143"/>
<path d="M8.65234 11.7616L11.7624 8.6515L14.713 5.70095L15.2712 5.14273C17.0255 3.38835 19.5774 2.83013 21.8102 3.46809C22.0893 1.51434 23.764 0.0390625 25.7576 0.0390625C27.9506 0.0390625 29.7449 1.83332 29.7449 4.0263C29.7449 6.0598 28.2297 7.73444 26.276 7.97367C26.9139 10.2065 26.3557 12.7185 24.6013 14.4729L24.3621 14.7121L21.4913 11.7616L21.7305 11.5223C22.6874 10.5654 22.6874 9.01036 21.7305 8.05342C20.7736 7.09648 19.2185 7.09648 18.2616 8.05342L17.7034 8.61163L14.7528 11.5622L11.6428 14.6722L8.65234 11.7616Z" fill="#F9A541"/>
<path d="M21.9298 26.6353C19.6571 27.3132 17.1053 26.7948 15.311 25.0006L15.0718 24.7613L18.0223 21.8108L18.2616 22.05C19.2185 23.0069 20.7735 23.0069 21.7305 22.05C22.6874 21.0931 22.6874 19.538 21.7305 18.5811L21.1723 18.0229L18.2217 15.0723L15.1117 11.9623L18.0622 9.01172L24.7209 15.6704C26.3955 17.3451 26.9936 19.7374 26.4753 21.9304C28.429 22.2095 29.9043 23.8841 29.9043 25.8778C29.9043 28.0707 28.1101 29.865 25.9171 29.865C23.9235 29.8251 22.2887 28.4296 21.9298 26.6353Z" fill="#F44321"/>
<path d="M20.7735 18.3412L17.6635 21.4512L14.7129 24.4018L14.1547 24.96C12.4402 26.6745 10.0478 27.2327 7.89474 26.7144C7.49601 28.5087 5.90112 29.8244 3.98724 29.8244C1.79426 29.8244 0 28.0302 0 25.8372C0 23.9632 1.31579 22.3683 3.07018 21.9696C2.51196 19.7367 3.07018 17.3444 4.78469 15.6299L5.02392 15.3906L7.97448 18.3412L7.73525 18.5804C6.77831 19.5374 6.77831 21.0924 7.73525 22.0493C8.69219 23.0063 10.2472 23.0063 11.2041 22.0493L11.7624 21.4911L14.7129 18.5405L17.823 15.4305L20.7735 18.3412Z" fill="#5091CD"/>
</svg>
