<svg width="54" height="58" viewBox="0 0 54 58" fill="none" xmlns="http://www.w3.org/2000/svg">
<g clip-path="url(#clip0)">
<path fill-rule="evenodd" clip-rule="evenodd" d="M46.1067 1.32812H49.3853L49.2823 1.89142H48.6677C48.3604 1.89142 48.1557 1.82548 48.1557 1.82548V2.85294C48.1557 3.21713 48.0531 3.58216 48.0531 3.94635C48.0531 4.31096 47.9505 4.67557 47.9505 4.87468H47.1312V3.94635C47.1312 3.58216 47.2338 3.21713 47.2338 2.85294C47.2338 2.45514 47.3355 1.9914 47.3355 1.82548H46.926H46.5157C46.311 1.82548 46.1063 1.89142 46.1063 1.89142V1.32812H46.1067ZM49.7943 1.32812H50.9209C50.9209 1.52681 51.0235 1.72592 51.0235 1.82505C51.0235 1.99098 51.2282 2.28879 51.3308 2.6534C51.3308 2.75296 51.4333 3.01802 51.4333 3.2167C51.535 3.58131 51.7406 3.94592 51.7406 3.94592C51.7406 3.74724 51.9454 3.48218 52.0479 3.11757C52.1496 2.85252 52.3552 2.45472 52.4574 2.18966C52.5599 1.891 52.7647 1.52681 52.7647 1.32812H53.9943V2.45472C53.9943 2.85252 53.8917 3.38263 53.8917 3.74724V4.87426H53.0724V4.14503V3.2167C53.0724 2.91846 53.175 2.6534 53.175 2.45429V2.09053L52.0484 4.87468H51.2282C51.2282 4.67557 51.0235 4.31139 51.0235 4.0459C50.9209 3.58216 50.7162 3.21713 50.7162 3.118C50.7162 2.91931 50.5115 2.5547 50.4089 2.19009V3.118C50.4089 3.38305 50.3063 3.74766 50.3063 4.0459V4.87468H49.487C49.487 4.51007 49.5896 4.0459 49.5896 3.64853C49.5896 3.31711 49.6913 2.85294 49.6913 2.45514C49.6917 2.09053 49.7943 1.72592 49.7943 1.32812ZM10.3867 57.7697H8.20104L7.34754 54.7873H3.31762L2.46412 57.7697H0.346802L4.06898 44.579H6.45941L10.3867 57.7697ZM6.73251 52.6328L5.29861 47.6618L3.96641 52.6328H6.73251ZM18.241 57.7697H16.3968V56.4112C16.0895 57.0077 15.6796 57.4059 15.3039 57.5714C14.9287 57.7701 14.5184 58.0028 14.1085 58.0028C13.3571 58.0028 12.6062 57.5051 12.0596 56.6767C11.445 55.9147 11.1719 54.5895 11.1719 53.0315C11.1719 51.4411 11.4454 50.0482 11.9574 49.2198C12.5036 48.4247 13.2892 47.9277 14.2115 47.9277C14.9287 47.9277 15.68 48.4247 16.3284 49.3194V44.5795H18.241V57.7697ZM13.0503 52.7992C13.0503 53.793 13.187 54.6877 13.3576 55.086C13.6653 55.6824 14.1089 56.0798 14.6214 56.0798C15.0992 56.0798 15.4749 55.7816 15.7822 55.4174C16.0895 54.9196 16.3284 54.0913 16.3284 53.0974C16.3284 52.0363 16.1579 51.142 15.8506 50.6443C15.577 50.1473 15.0992 49.8159 14.6214 49.8159C14.2115 49.8159 13.8358 50.1473 13.4943 50.5455C13.1866 51.0425 13.0503 51.8045 13.0503 52.7992ZM19.8117 52.7992C19.8117 52.0363 19.9138 51.208 20.2215 50.446C20.563 49.6508 21.0071 49.0543 21.5533 48.6561C22.1337 48.2256 22.8509 47.9273 23.5343 47.9273C24.5929 47.9273 25.5832 48.4243 26.232 49.319C26.9492 50.3128 27.3248 51.639 27.3248 53.031C27.3248 54.4231 26.9492 55.6824 26.232 56.5776C25.4806 57.5051 24.5929 58.0028 23.5343 58.0028C22.8855 58.0028 22.2367 57.7701 21.6221 57.4064C21.0075 57.0081 20.5635 56.4117 20.222 55.6829C19.9147 54.92 19.8121 53.9262 19.8121 52.9315V52.7992H19.8117ZM21.7238 53.031C21.7238 54.0257 21.8264 54.7877 22.1337 55.2846C22.4752 55.7816 22.9876 56.0798 23.4659 56.0798C23.9095 56.0798 24.422 55.7816 24.7293 55.2846C25.0708 54.7877 25.2755 54.0257 25.2755 53.031C25.2755 52.0363 25.0708 51.208 24.7293 50.711C24.422 50.1478 23.9095 49.8159 23.4659 49.8159C22.9876 49.8159 22.5098 50.1473 22.2363 50.6443C21.929 51.2076 21.7238 52.0363 21.7238 53.031ZM28.8271 57.7697V44.579H30.7389V49.319C31.2859 48.4238 32.0711 47.9273 32.822 47.9273C33.7097 47.9273 34.4615 48.4243 35.0419 49.2194C35.6223 50.0478 35.9642 51.3075 35.9642 52.9315C35.9642 54.5227 35.6227 55.9147 35.0419 56.6767C34.4273 57.5051 33.6764 58.0028 32.9246 58.0028C32.5151 58.0028 32.0711 57.7701 31.6949 57.5714C31.2855 57.4059 30.9098 56.909 30.7042 56.4112V57.7697H28.8271ZM30.7389 52.7992C30.7389 53.793 30.9103 54.6877 31.0803 55.086C31.3876 55.6824 31.9005 56.0798 32.4467 56.0798C32.9246 56.0798 33.3002 55.7816 33.5733 55.4174C33.8806 55.0192 34.0512 54.0913 34.0512 53.0974C34.0512 52.0363 33.8806 51.142 33.5733 50.6443C33.3002 50.1473 32.8215 49.8159 32.3437 49.8159C31.9001 49.8159 31.5244 50.1473 31.2171 50.5455C30.9103 51.0425 30.7389 51.8045 30.7389 52.7992ZM41.7691 54.7877L43.6817 55.086C43.4761 56.0798 42.9983 56.909 42.5209 57.2732C41.9747 57.6714 41.2229 58.0028 40.4378 58.0028C39.277 58.0028 38.252 57.4064 37.6712 56.4117C37.1934 55.5833 36.9878 54.4231 36.9878 53.0978C36.9878 51.5398 37.2609 50.2145 37.8755 49.3194C38.4901 48.4243 39.3782 47.9277 40.3343 47.9277C41.3925 47.9277 42.2469 48.4247 42.8277 49.3194C43.4761 50.3133 43.8518 51.8049 43.8518 53.6943H38.9013C38.9013 54.5227 39.0038 55.086 39.3458 55.5165C39.6522 55.9147 40.0283 56.0798 40.4382 56.0798C40.7797 56.0798 41.087 56.0143 41.2233 55.7816C41.3934 55.5829 41.599 55.1855 41.7691 54.7877ZM41.9405 52.1359C41.9405 51.4403 41.6674 50.8106 41.4618 50.4456C41.1887 50.0473 40.7792 49.8159 40.4036 49.8159C39.9591 49.8159 39.5501 50.1473 39.3453 50.5455C39.0038 50.9429 38.9008 51.5394 38.9008 52.1359H41.9405Z" fill="black"/>
<path fill-rule="evenodd" clip-rule="evenodd" d="M0.0045166 0H16.396L0.0045166 38.7441V0ZM27.5625 0H44.1587V38.2463L27.5625 0ZM22.1671 14.8146L31.2168 38.0481H25.6162L21.7572 30.6907H15.6104L22.1671 14.8146Z" fill="#CC2229"/>
</g>
<defs>
<clipPath id="clip0">
<rect width="54" height="58" fill="white"/>
</clipPath>
</defs>
</svg>
