<svg width="110" height="28" viewBox="0 0 110 28" fill="none" xmlns="http://www.w3.org/2000/svg">
<g clip-path="url(#clip0)">
<path d="M4.32136 0.0078125V22.8864H12.4385V26.8269H0V0.0078125H4.32136ZM27.6801 11.3826V8.97066H31.7873V26.8368H27.6995V24.4149C27.135 25.3082 26.3564 26.003 25.3442 26.4993C24.332 27.0254 23.3003 27.2735 22.2784 27.2735C20.945 27.2735 19.7284 27.0254 18.6286 26.5291C17.5535 26.0539 16.5861 25.3579 15.7866 24.4844C14.994 23.6178 14.3668 22.6079 13.9374 21.5067C13.4951 20.3561 13.2737 19.1296 13.2853 17.8938C13.2853 16.6432 13.5091 15.4422 13.9471 14.3206C14.3714 13.2049 14.9988 12.1811 15.7963 11.3032C16.5885 10.425 17.5492 9.72227 18.6188 9.23865C19.7284 8.74237 20.9547 8.49423 22.2686 8.49423C23.2906 8.49423 24.3125 8.75229 25.3247 9.2585C26.3369 9.77463 27.1156 10.4694 27.6606 11.3627L27.6801 11.3826ZM27.3102 20.0874C27.5666 19.389 27.6985 18.6495 27.6995 17.9037C27.6995 17.1295 27.5633 16.4149 27.3102 15.7201C27.0771 15.0515 26.7203 14.4349 26.2591 13.9037C25.7989 13.3927 25.2429 12.9809 24.624 12.6928C23.9585 12.3814 23.2343 12.2222 22.5022 12.2263C21.7236 12.2263 21.0228 12.395 20.3999 12.7027C19.7897 12.9917 19.2409 13.3997 18.7843 13.9037C18.3242 14.4323 17.9734 15.0501 17.7526 15.7201C17.5112 16.4217 17.3894 17.1602 17.3925 17.9037C17.3925 18.668 17.5093 19.3926 17.7526 20.0874C17.9862 20.7822 18.3366 21.3777 18.7843 21.874C19.2369 22.3926 19.7861 22.8143 20.3999 23.1147C21.0228 23.4125 21.7236 23.5713 22.5022 23.5713C23.2808 23.5713 23.9913 23.4224 24.624 23.1147C25.2447 22.8209 25.8009 22.4023 26.2591 21.8839C26.7171 21.3615 27.0738 20.7553 27.3102 20.0973V20.0874ZM35.0186 26.8368V8.97066H46.1334V13.0799H39.1063V26.8269H35.0186V26.8368ZM60.9759 11.3826V8.97066H65.0637V26.8368H60.9759V24.4149C60.4309 25.3082 59.6425 26.003 58.6401 26.4993C57.6181 27.0254 56.5962 27.2735 55.5645 27.2735C54.2311 27.2735 53.0145 27.0254 51.9147 26.5291C50.8397 26.0539 49.8722 25.3579 49.0727 24.4844C48.2801 23.6178 47.653 22.6079 47.2235 21.5067C46.7846 20.3555 46.5665 19.1289 46.5811 17.8938C46.5811 16.6432 46.7952 15.4422 47.2332 14.3206C47.6575 13.2049 48.285 12.1811 49.0825 11.3032C49.8746 10.425 50.8353 9.72227 51.905 9.23865C53.0145 8.74237 54.2408 8.49423 55.5548 8.49423C56.5767 8.49423 57.5986 8.75229 58.6109 9.2585C59.6231 9.77463 60.4114 10.4694 60.9467 11.3627L60.9759 11.3826ZM60.6061 20.0874C60.8559 19.3877 60.9811 18.6483 60.9759 17.9037C60.9759 17.1295 60.8494 16.4149 60.6061 15.7201C60.3759 15.0523 60.0224 14.4357 59.5647 13.9037C59.0988 13.3905 58.536 12.9786 57.9101 12.6928C57.2775 12.395 56.567 12.2263 55.7981 12.2263C55.0195 12.2263 54.3187 12.395 53.6861 12.7027C53.0759 12.9917 52.527 13.3997 52.0704 13.9037C51.6104 14.4323 51.2595 15.0501 51.0387 15.7201C50.8006 16.4222 50.6821 17.1608 50.6884 17.9037C50.6884 18.668 50.8052 19.3926 51.0387 20.0874C51.2821 20.7822 51.6227 21.3777 52.0704 21.874C52.5231 22.3926 53.0722 22.8143 53.6861 23.1147C54.3187 23.4125 55.0195 23.5713 55.7981 23.5713C56.5767 23.5713 57.2775 23.4224 57.9198 23.1147C58.5476 22.8232 59.1105 22.4044 59.5744 21.8839C60.029 21.3607 60.3823 20.7545 60.6158 20.0973L60.6061 20.0874ZM81.4926 8.97066H85.6485L78.9329 26.8368H73.7745L67.0589 8.97066H71.1954L76.3537 22.6482L81.4926 8.98058V8.97066ZM94.5735 8.51408C100.15 8.51408 103.956 13.5563 103.236 19.4521H89.639C89.639 20.9807 91.1768 23.9584 94.7974 23.9584C97.9119 23.9584 100.004 21.1792 100.004 21.1792L102.769 23.3628C100.287 26.0427 98.2622 27.2834 95.0796 27.2834C89.4151 27.2834 85.5804 23.611 85.5804 17.8839C85.5804 12.6928 89.5514 8.49423 94.5638 8.49423L94.5735 8.51408ZM89.6585 16.3553H99.4886C99.4496 16.0079 98.9046 11.8292 94.5443 11.8292C90.1646 11.8292 89.6974 16.0179 89.6585 16.3553ZM105.912 26.807V0.0078125H110V26.8269H105.912V26.807Z" fill="#FF2D20"/>
</g>
<defs>
<clipPath id="clip0">
<rect width="110" height="28" fill="white"/>
</clipPath>
</defs>
</svg>
