<svg width="103" height="68" viewBox="0 0 103 68" fill="none" xmlns="http://www.w3.org/2000/svg">
<g clip-path="url(#clip0)">
<path d="M16.0426 52.5823C16.0426 52.5823 13.4656 54.0938 17.8833 54.6034C23.2327 55.2173 25.9707 55.1304 31.8666 54.0069C31.8666 54.0069 33.4197 54.9857 35.5882 55.8312C22.3584 61.5413 5.6543 55.5069 16.0426 52.5823ZM14.4262 45.1406C14.4262 45.1406 11.5329 47.2949 15.9506 47.7582C21.6681 48.3547 26.1835 48.4011 33.9949 46.8896C33.9949 46.8896 35.0705 47.9899 36.7731 48.598C20.7938 53.3004 2.99108 48.9628 14.4262 45.1406Z" fill="#5582A0"/>
<path d="M28.0471 32.5093C31.3085 36.2851 27.19 39.6846 27.19 39.6846C27.19 39.6846 35.4615 35.3875 31.6651 30.0017C28.1161 24.9807 25.3954 22.4905 40.1265 13.8906C40.1265 13.8848 17.0031 19.6992 28.0471 32.5093Z" fill="#F69731"/>
<path d="M45.5336 58.0931C45.5336 58.0931 47.4433 59.6799 43.4284 60.9018C35.7954 63.2299 11.6654 63.9306 4.95843 60.9945C2.54831 59.9405 7.06945 58.4753 8.49021 58.1684C9.97425 57.8441 10.8198 57.902 10.8198 57.902C8.13934 56.0025 -6.49972 61.6315 3.38236 63.2472C30.3424 67.6485 52.5224 61.2724 45.5336 58.0931ZM17.2852 37.4302C17.2852 37.4302 5.0102 40.3663 12.9366 41.4319C16.2843 41.8836 22.9567 41.7793 29.1747 41.2523C34.2538 40.8238 39.3559 39.903 39.3559 39.903C39.3559 39.903 37.567 40.679 36.267 41.5651C23.8023 44.866 -0.281716 43.3314 6.6553 39.9551C12.5167 37.1059 17.2852 37.4302 17.2852 37.4302ZM39.3041 49.8233C51.976 43.1982 46.1146 36.8279 42.0249 37.685C41.024 37.8935 40.5753 38.0788 40.5753 38.0788C40.5753 38.0788 40.9492 37.4939 41.6567 37.2391C49.7499 34.3782 55.9679 45.6826 39.0453 50.165C39.051 50.1534 39.2466 49.9797 39.3041 49.8233Z" fill="#5582A0"/>
<path d="M31.6651 0C31.6651 0 38.6826 7.07103 25.0099 17.9353C14.0465 26.6568 22.5078 31.6256 25.0042 37.3068C18.6021 31.4924 13.9084 26.373 17.0548 21.6127C21.6795 14.6169 34.4951 11.2233 31.6651 0V0Z" fill="#F69731"/>
<path d="M71.0843 57.8543C69.9397 58.8562 68.726 59.4179 67.6388 59.4179C66.0858 59.4179 65.246 58.4798 65.246 56.9798C65.246 55.3525 66.149 54.1653 69.7498 54.1653H71.0843V57.8543ZM74.248 61.4506V50.32C74.248 47.4766 72.6374 45.6002 68.7547 45.6002C66.4884 45.6002 64.504 46.162 62.8876 46.8801L63.3535 48.8491C64.6247 48.38 66.2698 47.9399 67.8862 47.9399C70.1237 47.9399 71.0843 48.8491 71.0843 50.7254V52.1327H69.9684C64.5327 52.1327 62.0823 54.2522 62.0823 57.4489C62.0823 60.1997 63.6987 61.7633 66.7415 61.7633C68.6972 61.7633 70.1583 60.9526 71.5215 59.7596L71.7688 61.4506H74.248ZM84.8146 61.4506H80.8686L76.1174 45.884H79.5629L82.5137 55.451L83.1695 58.3234C84.6593 54.1653 85.7119 49.9436 86.2411 45.884H89.5945C88.6972 51.0092 87.0809 56.6324 84.8146 61.4506ZM99.9656 57.8543C98.8151 58.8562 97.6015 59.4179 96.5143 59.4179C94.9612 59.4179 94.1214 58.4798 94.1214 56.9798C94.1214 55.3525 95.0245 54.1653 98.6253 54.1653H99.9598L99.9656 57.8543ZM103.129 61.4506V50.32C103.129 47.4766 101.513 45.6002 97.6302 45.6002C95.3639 45.6002 93.3737 46.162 91.7573 46.8801L92.2233 48.8491C93.4945 48.38 95.1453 47.9399 96.7559 47.9399C98.9935 47.9399 99.9541 48.8491 99.9541 50.7254V52.1327H98.8382C93.4024 52.1327 90.952 54.2522 90.952 57.4489C90.952 60.1997 92.5684 61.7633 95.6112 61.7633C97.5669 61.7633 99.028 60.9526 100.397 59.7596L100.644 61.4506H103.129ZM58.6081 64.0972C57.705 65.4234 56.2497 66.4773 54.6506 67.068L53.0861 65.2149C54.2997 64.5836 55.3409 63.576 55.8241 62.632C56.244 61.7923 56.4165 60.7094 56.4165 58.1265V40.3477H59.7815V57.8775C59.7815 61.3348 59.5111 62.7305 58.6081 64.0972Z" fill="#5582A0"/>
</g>
<defs>
<clipPath id="clip0">
<rect width="103" height="68" fill="white"/>
</clipPath>
</defs>
</svg>
