<svg width="104" height="30" viewBox="0 0 104 30" fill="none" xmlns="http://www.w3.org/2000/svg">
<g clip-path="url(#clip0)">
<path d="M29.7229 11.7178L29.7231 11.7165L28.8925 14.7317L29.7229 11.7178ZM33.9945 18.2636L33.0793 18.2582L33.9945 18.2636ZM33.7591 22.7667H33.76L28.2767 22.7871L33.7591 22.7667ZM34.9088 18.2689L33.9932 18.2636L34.9088 18.2689ZM34.2397 22.3839L35.1948 18.6526L34.2397 22.3848V22.3839ZM54.4281 5.19987L52.6491 13.7682L54.4281 5.19987ZM49.8544 5.19987L48.5036 11.6007L49.8544 5.19922V5.19987Z" fill="#6BA0AB"/>
<path d="M54.1237 4.81272H50.3188C50.1078 4.81272 49.8983 4.98622 49.8531 5.19761L48.5023 11.5989L47.1515 18.0004C47.1068 18.2118 46.8975 18.3846 46.6865 18.3846H43.9935C41.3291 18.3846 41.6373 16.4966 42.1831 13.9108L42.1995 13.8327L42.2594 13.5068C42.263 13.4857 42.2672 13.4646 42.2705 13.4454L42.3922 12.7818L42.5225 12.0703C42.5622 11.8559 42.6223 11.5423 42.6616 11.3453L43.2756 8.27199L43.8901 5.19847C43.9325 4.98665 43.7939 4.8125 43.5829 4.8125H39.6773C39.4661 4.8125 39.257 4.98665 39.214 5.19804L38.3742 9.279L37.5347 13.3595C37.5339 13.3612 37.5337 13.364 37.5334 13.3658L37.4553 13.7451C36.488 18.2686 36.7446 22.5818 42.0011 22.7168C42.0871 22.7196 42.1537 22.7202 42.1537 22.7202H50.405C50.616 22.7202 50.8251 22.5465 50.8692 22.3347L52.6487 13.767L54.428 5.19847C54.4717 4.98622 54.3347 4.81293 54.1237 4.81272ZM69.3022 18.4292C69.5136 18.4292 69.6519 18.6031 69.6094 18.8143L69.2398 20.6645L69.3022 18.4292ZM68.871 22.5153L69.2402 20.6643L68.8708 22.5157L68.871 22.5153ZM68.4076 22.9043L68.4093 22.9039C67.2899 22.9131 63.925 22.9392 61.3959 22.9392C64.4737 22.9394 68.4074 22.9043 68.4076 22.9043ZM59.1262 16.0469C59.1228 15.8445 59.3483 15.4954 59.5595 15.4954L59.0835 15.4874C58.87 17.693 59.1262 16.0469 59.1262 16.0469Z" fill="#6BA0AB"/>
<path d="M61.7426 22.9449C61.7184 22.9449 61.6934 22.9449 61.6684 22.9453C61.6934 22.9449 61.7184 22.9449 61.7426 22.9449ZM69.3021 18.4351C69.5135 18.4351 69.6518 18.6091 69.6093 18.8203L69.2397 20.6704L69.1796 20.972L69.3021 18.4351ZM63.5442 22.94H63.5288H63.5442ZM62.6099 22.9432H62.555H62.6099ZM62.3249 22.9441C62.2942 22.9441 62.2648 22.9441 62.2352 22.9449C62.2648 22.9441 62.2942 22.9441 62.3249 22.9441ZM62.0349 22.9449H61.9563H62.0349ZM62.5554 22.9432L62.3249 22.9436L62.5554 22.9432ZM68.4102 22.91C67.5898 22.9165 65.5634 22.9324 63.5427 22.941C65.5622 22.9326 67.5892 22.9165 68.4102 22.91ZM68.8709 22.5219L69.1804 20.9722L68.8707 22.5232L68.8709 22.5219ZM62.2358 22.9449H62.0349H62.2358ZM61.6682 22.9453H61.3967H61.6682ZM61.9555 22.9449H61.7413H61.9555ZM6.3001 16.0991L6.89102 13.4154L6.21541 16.4833L5.56691 19.6083L6.13534 16.8691C6.17884 16.6568 6.25344 16.3103 6.3001 16.0991ZM13.3737 4.77344H9.19545C8.98404 4.77344 8.77327 4.94629 8.7262 5.15704L8.33008 6.94846L7.93396 8.74053C7.88731 8.95127 8.0218 9.12413 8.23341 9.12413H12.4443C12.6552 9.12413 12.8652 8.95127 12.9106 8.73988L13.2935 6.94846L13.6763 5.15833V5.1579C13.7211 4.94629 13.5853 4.77344 13.3737 4.77344ZM12.4644 10.7326V10.7322L11.2389 16.5397L12.4644 10.7326ZM0.326144 29.9759C0.326144 29.9759 2.43241 30.0036 3.77144 30.0036C2.75435 30.0036 1.07467 29.9843 0.324463 29.9754L0.326564 29.9759H0.326144ZM7.48173 10.7317L6.89018 13.4154L7.48173 10.7317Z" fill="#6BA0AB"/>
<path d="M12.1623 10.3448H7.95078C7.73959 10.3448 7.5286 10.5176 7.48195 10.729L6.8904 13.4129L6.29948 16.0968C6.25282 16.3078 6.17843 16.6548 6.13472 16.8662L5.56629 19.6054L4.99827 22.3455C4.95414 22.5563 4.86336 22.8977 4.79569 23.1035C4.79569 23.1035 4.00913 25.5015 2.68627 25.474C2.63121 25.4732 2.57615 25.4722 2.5211 25.4709C1.88037 25.458 1.37666 25.4488 1.37666 25.4488H1.37582C1.16505 25.4451 0.953013 25.6147 0.903629 25.824L0.466951 27.7045L0.0306939 29.584C-0.0182695 29.7945 0.114121 29.9671 0.324054 29.971C1.07406 29.9805 2.75394 30.0005 3.77103 30.0005C7.0749 30.0005 8.81636 28.1245 9.93285 22.7296L11.2395 16.5362L12.4651 10.7286C12.5096 10.5179 12.373 10.3448 12.1623 10.3448ZM71.9856 22.7227C71.7744 22.7227 71.6383 22.5492 71.6828 22.3373L74.8507 7.13672L71.9856 22.7227ZM76.3883 22.3369L77.6704 15.8487L76.3883 22.3369Z" fill="#6BA0AB"/>
<path d="M71.7278 22.5295C71.7019 22.4235 71.717 22.1637 71.7618 21.9517L73.2654 14.7365L71.6815 22.3364C71.637 22.5482 71.7736 22.7221 71.9839 22.7221H72.3687C72.1585 22.7221 71.7532 22.6354 71.7278 22.5295ZM76.1378 22.6354C76.0229 22.6829 75.7558 22.7217 75.5442 22.7217H75.9289C76.1401 22.7217 76.3475 22.5482 76.3887 22.3359L76.4648 21.9502C76.4236 22.1622 76.2532 22.5871 76.1378 22.6354ZM77.0297 19.0919L77.5945 16.2285C77.5943 16.2302 77.5941 16.233 77.5935 16.2341L77.0297 19.0919ZM89.53 8.15397L89.7047 8.89254C89.7528 9.10393 89.6194 9.27549 89.4086 9.27614L89.53 8.15397ZM76.4652 21.9504L77.0301 19.0921L76.4652 21.9504ZM89.3565 7.39754L89.5292 8.15419L89.3565 7.39754ZM77.595 16.2287C77.637 16.0169 77.7063 15.6735 77.7505 15.463L78.3544 12.5647L77.67 15.8481L77.595 16.2287ZM74.9015 6.88672C74.8593 7.09122 74.8057 7.34953 74.7689 7.52067L73.2666 14.7365L74.8505 7.13599L74.9015 6.88672Z" fill="#6BA0AB"/>
<path d="M89.7034 8.89603L89.5289 8.15746L89.3562 7.40081L89.2688 7.01786C88.9267 5.65653 87.9234 4.87081 85.7432 4.87081L82.3488 4.86694L79.2229 4.86328H75.7043C75.4931 4.86328 75.284 5.03614 75.2405 5.24817L75.0852 6.00116L74.9022 6.8902L74.8511 7.13926L73.2672 14.7398L71.7639 21.955C71.7191 22.1666 71.704 22.4264 71.7296 22.5325C71.7551 22.6389 72.1604 22.7254 72.3729 22.7254H75.5462C75.7576 22.7254 76.0249 22.6858 76.1399 22.6387C76.2551 22.5907 76.4249 22.166 76.4675 21.9535L77.0324 19.0952L77.597 16.2378C77.5972 16.2365 77.5974 16.2339 77.5981 16.2331L77.6733 15.8518L78.3575 12.5691L78.9619 9.66904C79.0067 9.4583 79.2147 9.28609 79.4255 9.28544L89.411 9.28049C89.6182 9.2792 89.7517 9.10742 89.7034 8.89603Z" fill="#6BA0AB"/>
<path d="M102.558 2.2142C102.346 2.21571 102.001 2.217 101.789 2.217H98.5929C98.3818 2.217 98.1111 2.36338 97.9928 2.54205L90.9257 13.1479C90.8061 13.327 90.6691 13.3003 90.6233 13.0895L90.1032 10.7529C90.0553 10.5417 89.8447 10.3693 89.6337 10.3693H85.0904C84.8788 10.3693 84.7533 10.5391 84.8113 10.7473L86.8472 18.0529C86.9044 18.261 86.9094 18.6039 86.8571 18.8123L85.969 22.3485C85.9161 22.5583 86.0463 22.7297 86.2575 22.7297H90.7479C90.9591 22.7297 91.1749 22.5581 91.2274 22.3485L92.1151 18.8123C92.1674 18.6027 92.3143 18.2894 92.4425 18.1168L103.916 2.5188C104.043 2.34594 103.974 2.20516 103.763 2.20667L102.558 2.2142ZM66.4625 11.364L66.4621 11.3595C66.4356 11.5943 66.2231 11.7667 66.0121 11.7667H60.2529C60.0537 11.7667 59.9514 11.6279 59.9817 11.457C59.9833 11.452 59.9844 11.4477 59.9863 11.4434C59.9863 11.4434 59.9844 11.4438 59.9819 11.4454C59.9838 11.4385 59.9838 11.4322 59.9859 11.4255C59.9859 11.4255 59.9976 11.384 60.0119 11.3252C60.5621 9.827 61.6828 8.84368 63.7894 8.84368C66.1607 8.84325 66.6236 10.0298 66.4625 11.364ZM64.7725 4.55326C57.3786 4.55326 55.6269 9.15043 54.644 13.7904C53.6605 18.52 53.7457 22.9417 61.3965 22.9417H61.668C61.6922 22.9413 61.717 22.9413 61.7414 22.9413H62.2359C62.2663 22.9404 62.2945 22.9404 62.3254 22.9404L62.5567 22.94H62.611C62.9131 22.9396 63.221 22.9378 63.5287 22.9368H63.544C65.5641 22.9286 67.5911 22.9133 68.4115 22.9062C68.6213 22.9021 68.8274 22.7297 68.8707 22.5194L69.1805 20.9684L69.2408 20.667L69.6102 18.8171C69.6529 18.6054 69.5146 18.4315 69.3032 18.4315H62.4254C59.6893 18.4315 58.8769 17.6869 59.1762 15.4977H70.1715L70.1704 15.499C70.1732 15.499 70.1755 15.4977 70.178 15.4977C70.3526 15.4936 70.5142 15.3711 70.5783 15.2062C70.5905 15.1748 70.6002 15.1416 70.605 15.1076L70.6038 15.1089C72.2349 8.8017 71.7663 4.55347 64.7725 4.55326ZM29.8269 11.3399L29.7229 11.7172L29.7227 11.7185L28.8924 14.7324L28.0626 17.7459C28.0052 17.9541 27.7856 18.1248 27.5738 18.1248H23.1793C19.846 18.1248 19.0344 15.4542 19.846 11.5149C20.6573 7.48601 22.2488 4.9812 25.5293 4.72784C30.0127 4.38126 30.9096 7.61151 29.8269 11.3399ZM32.8408 17.8927C32.8408 17.8927 34.9126 12.7397 35.3831 9.76285C36.0274 5.77854 34.0798 0 26.5575 0C19.0777 0 15.8299 5.51699 14.5905 11.5145C13.3513 17.5554 14.9749 22.8528 22.4118 22.81L28.2786 22.7876L33.7621 22.7669C33.9733 22.7652 34.1891 22.5934 34.2431 22.3846L35.1982 18.6524C35.2514 18.4429 35.1221 18.2707 34.9111 18.2699L33.9958 18.2649L33.0806 18.26C32.9011 18.258 32.7982 18.1392 32.82 17.9816C32.8237 17.9515 32.8312 17.922 32.8423 17.8938H32.8408V17.8927Z" fill="#6BA0AB"/>
<path d="M69.8667 14.4452C69.8667 14.5877 69.7538 14.7037 69.6145 14.7037C69.4754 14.7037 69.3625 14.5877 69.3625 14.4452C69.3625 14.3027 69.4754 14.1875 69.6145 14.1875C69.7538 14.1873 69.8667 14.3025 69.8667 14.4452Z" fill="#6BA0AB"/>
</g>
<defs>
<clipPath id="clip0">
<rect width="104" height="30" fill="white"/>
</clipPath>
</defs>
</svg>
