<svg width="144" height="34" viewBox="0 0 144 34" fill="none" xmlns="http://www.w3.org/2000/svg">
<path d="M35.8447 25.1018V2.91797H48.9604V5.72013H38.5691V12.5309H47.8707V15.3331H38.5691V22.3385H49.6999V25.1407H35.8447V25.1018Z" fill="#E43225"/>
<path d="M63.5163 25.1009L59.0017 19.1852L54.4871 25.1009H51.2957L57.4449 17.2003L50.9844 9.02734H54.526L59.0017 15.1376L63.4774 9.02734H67.019L60.8698 17.1614L66.7076 25.062H63.5163V25.1009Z" fill="#E43225"/>
<path d="M71.105 22.6904V33.6266H68.3418V17.2417C68.3418 13.0774 71.5331 8.64062 76.5148 8.64062C81.5353 8.64062 85.3494 11.832 85.3494 17.0471C85.3494 22.1844 81.5353 25.6482 77.1375 25.6482C74.958 25.6871 72.1169 24.7531 71.105 22.6904ZM82.4304 17.0471C82.4304 13.5055 80.1342 11.326 76.0088 11.5206C74.0629 11.5985 70.9883 13.0385 71.2607 18.1758C71.3386 19.8104 73.051 22.9628 76.7872 22.9628C80.0564 23.0017 82.4304 21.0947 82.4304 17.0471Z" fill="#E43225"/>
<path d="M87.6465 25.1035V9.02996H90.3319V10.7424C91.6551 9.26347 93.6789 8.67969 95.8973 8.67969V11.5986C95.5859 11.5597 92.3557 11.1705 90.3319 15.3737V25.1035H87.6465Z" fill="#E43225"/>
<path d="M96.6748 17.0471C96.6748 12.3768 99.9829 8.64062 104.575 8.64062C110.258 8.64062 112.398 12.4158 112.398 17.2417V18.526H99.6326C99.8272 21.5617 102.552 23.1574 105.042 23.0795C106.91 23.0406 108.156 22.4568 109.479 21.1336L111.23 23.0017C109.596 24.5974 107.455 25.6482 104.848 25.6482C100.1 25.6871 96.6748 22.1066 96.6748 17.0471ZM104.381 11.365C101.773 11.365 99.7883 13.6222 99.6716 16.0352H109.557C109.479 13.6612 107.806 11.365 104.381 11.365Z" fill="#E43225"/>
<path d="M113.761 22.8438L115.746 21.0925C115.707 21.1314 116.757 22.1433 116.874 22.26C117.341 22.6492 117.847 22.9216 118.392 23.0384C120.143 23.5054 123.257 23.3498 123.452 21.0146C123.568 19.6914 122.556 18.9519 121.428 18.5238C119.949 17.9789 118.353 17.7844 116.913 17.1227C115.279 16.3833 114.228 15.0989 114.228 13.2698C114.228 8.44381 121.078 7.62652 124.23 9.88381C124.386 10.0006 125.903 11.3627 125.865 11.4406L123.841 12.9973C122.868 11.8298 121.895 11.2071 119.793 11.2071C118.742 11.2071 117.302 11.6352 116.991 12.8027C116.563 14.3984 118.392 14.9822 119.56 15.2935C121.155 15.7216 122.868 15.9162 124.269 16.8114C126.176 18.0179 126.643 20.5865 125.903 22.5714C125.086 24.7508 122.751 25.607 120.61 25.6849C118.081 25.8016 115.901 24.9843 114.111 23.233C114.072 23.1941 113.761 22.8438 113.761 22.8438Z" fill="#E43225"/>
<path d="M127.732 22.8438L129.717 21.0925C129.678 21.1314 130.729 22.1433 130.846 22.26C131.313 22.6492 131.819 22.9216 132.364 23.0384C134.115 23.5054 137.229 23.3498 137.423 21.0146C137.54 19.6914 136.528 18.9519 135.399 18.5238C133.921 17.9789 132.325 17.7844 130.885 17.1227C129.25 16.3833 128.199 15.0989 128.199 13.2698C128.199 8.44381 135.049 7.62652 138.202 9.88381C138.357 10.0006 139.875 11.3627 139.836 11.4406L137.812 12.9973C136.839 11.8298 135.866 11.2071 133.765 11.2071C132.714 11.2071 131.274 11.6352 130.963 12.8027C130.535 14.3984 132.364 14.9822 133.531 15.2935C135.127 15.7216 136.839 15.9162 138.241 16.8114C140.148 18.0179 140.615 20.5865 139.875 22.5714C139.058 24.7508 136.723 25.607 134.582 25.6849C132.052 25.8016 129.873 24.9843 128.083 23.233C128.083 23.1941 127.732 22.8438 127.732 22.8438Z" fill="#E43225"/>
<path d="M140.692 9.02755V7.31511H140.069V6.96484H141.665V7.2762H141.042V8.98863H140.692V9.02755Z" fill="#E43225"/>
<path d="M143.65 9.02755V7.47079L143.027 9.02755H142.871L142.249 7.47079V9.02755H141.898V6.96484H142.404L142.949 8.36593L143.494 6.96484H144V8.98863H143.65V9.02755Z" fill="#E43225"/>
<path d="M17.4746 25.1018L15.5287 19.8088H4.78703L2.84108 25.1018H0L8.60108 2.91797H11.7146L20.3157 25.1018H17.4746ZM9.96324 6.0704L5.9546 17.0455H14.3611L9.96324 6.0704Z" fill="#F7971D"/>
<path d="M21.9502 25.1018V2.91797H24.7134V25.1018H21.9502Z" fill="#F7971D"/>
<path d="M28.917 25.1022V9.37891H31.6802V25.1022H28.917Z" fill="#F7971D"/>
<path d="M34.3656 4.24215C34.3656 4.20324 34.3656 4.16432 34.3656 4.08648C34.3656 4.00864 34.3656 4.00864 34.3656 3.9308C32.2251 3.85296 30.5127 2.14054 30.4738 0C30.4348 0 30.357 0 30.3181 0C30.2792 0 30.2013 0 30.1624 0C30.0846 2.14054 28.3721 3.85296 26.2705 3.9308C26.2705 3.96972 26.2705 4.00864 26.2705 4.08648C26.2705 4.16432 26.2705 4.16432 26.2705 4.24215C28.411 4.31999 30.1235 6.03242 30.1624 8.17296C30.2013 8.17296 30.2792 8.17296 30.3181 8.17296C30.357 8.17296 30.4348 8.17296 30.4738 8.17296C30.5127 6.07134 32.2251 4.35891 34.3656 4.24215Z" fill="#F7971D"/>
</svg>
