<svg width="148" height="30" viewBox="0 0 148 30" fill="none" xmlns="http://www.w3.org/2000/svg">
<path d="M57.7604 22.9435C52.3604 26.9666 44.5204 29.0988 37.7604 29.0988C28.2804 29.0988 19.7604 25.5585 13.3204 19.725C12.8004 19.2824 13.2804 18.6387 13.8804 19.0008C20.8404 23.0642 29.4404 25.5183 38.3204 25.5183C44.3204 25.5183 50.9204 24.2711 56.9604 21.6963C57.8804 21.2538 58.6404 22.2595 57.7604 22.9435Z" fill="#FF9900"/>
<path d="M59.9999 20.3287C59.3199 19.4436 55.4399 19.9264 53.6799 20.1275C53.1599 20.208 53.0799 19.7252 53.5599 19.4034C56.6399 17.2309 61.7199 17.8344 62.3199 18.5988C62.9199 19.3229 62.1599 24.4323 59.2799 26.8864C58.8399 27.2485 58.3999 27.0473 58.5999 26.5646C59.2399 24.9151 60.6799 21.254 59.9999 20.3287Z" fill="#FF9900"/>
<path d="M53.7993 3.95214V1.81988C53.7993 1.49803 54.0393 1.29688 54.3193 1.29688H63.7993C64.1193 1.29688 64.3593 1.49803 64.3593 1.81988V3.63029C64.3593 3.95214 64.1193 4.35445 63.6393 4.95792L58.7193 11.9984C60.5593 11.9581 62.4793 12.2398 64.1193 13.1651C64.4793 13.3662 64.5993 13.6881 64.6393 14.0099V16.2629C64.6393 16.5847 64.2793 16.9468 63.9593 16.7457C61.0393 15.2169 57.1593 15.0559 53.9593 16.7457C53.6393 16.9066 53.2793 16.5847 53.2793 16.2629V14.0904C53.2793 13.7283 53.2793 13.1651 53.6393 12.6421L59.3193 4.43491H54.3593C54.0393 4.47514 53.7993 4.27399 53.7993 3.95214Z" fill="#221F1F"/>
<path d="M19.2799 17.2288H16.3999C16.1199 17.1886 15.9199 16.9874 15.8799 16.746V1.86048C15.8799 1.57886 16.1199 1.33748 16.4399 1.33748H19.1199C19.3999 1.33748 19.6399 1.57886 19.6399 1.82025V3.75135H19.6799C20.3999 1.86048 21.6799 1.01562 23.4799 1.01562C25.2799 1.01562 26.3999 1.90071 27.2399 3.75135C27.9199 1.86048 29.5199 1.01562 31.1999 1.01562C32.3999 1.01562 33.7199 1.4984 34.5199 2.62487C35.4399 3.87204 35.2399 5.68244 35.2399 7.29169V16.6656C35.2399 16.9472 34.9999 17.1886 34.6799 17.1886H31.7999C31.5199 17.1483 31.2799 16.9472 31.2799 16.6656V8.78025C31.2799 8.13655 31.3199 6.56753 31.1999 6.00429C30.9999 4.99851 30.3599 4.7169 29.5199 4.7169C28.8399 4.7169 28.0799 5.19967 27.7999 5.92383C27.5199 6.68822 27.5199 7.93539 27.5199 8.78025V16.6656C27.5199 16.9472 27.2799 17.1886 26.9599 17.1886H24.0799C23.7999 17.1483 23.5599 16.9472 23.5599 16.6656V8.78025C23.5599 7.13077 23.8399 4.67666 21.7999 4.67666C19.7199 4.67666 19.7999 7.05031 19.7999 8.78025V16.6656C19.7999 16.9874 19.5599 17.2288 19.2799 17.2288Z" fill="#221F1F"/>
<path d="M72.52 1.01562C76.8 1.01562 79.12 4.7169 79.12 9.38373C79.12 13.9299 76.56 17.5104 72.52 17.5104C68.32 17.5104 66.04 13.8092 66.04 9.2228C66.04 4.5962 68.36 1.01562 72.52 1.01562ZM72.52 4.03297C70.4 4.03297 70.28 6.92962 70.28 8.74003C70.28 10.5504 70.24 14.4529 72.52 14.4529C74.76 14.4529 74.84 11.3148 74.84 9.42396C74.84 8.17679 74.8 6.68823 74.4 5.48129C74.08 4.43528 73.44 4.03297 72.52 4.03297Z" fill="#221F1F"/>
<path d="M84.6402 17.2288H81.7602C81.4802 17.1886 81.2402 16.9874 81.2402 16.7058V1.82025C81.2802 1.53863 81.5202 1.33748 81.8002 1.33748H84.4802C84.7202 1.33748 84.9202 1.53863 85.0002 1.73979V4.03296H85.0402C85.8402 1.98117 86.9602 1.01562 88.9602 1.01562C90.2402 1.01562 91.5202 1.4984 92.3202 2.78579C93.0802 3.99273 93.0802 5.96406 93.0802 7.41238V16.7863C93.0402 17.0276 92.8002 17.269 92.5202 17.269H89.6402C89.3602 17.2288 89.1602 17.0679 89.1202 16.7863V8.69978C89.1202 7.09053 89.3202 4.67666 87.3202 4.67666C86.6002 4.67666 85.9602 5.15943 85.6402 5.8836C85.2402 6.80891 85.2002 7.694 85.2002 8.69978V16.7058C85.2002 16.9874 84.9602 17.2288 84.6402 17.2288Z" fill="#221F1F"/>
<path d="M94.8799 16.0241C94.8799 15.2597 95.5199 14.6562 96.2799 14.6562C97.0799 14.6562 97.6799 15.2597 97.6799 16.0241C97.6799 16.7885 97.0399 17.392 96.2799 17.392C95.5199 17.392 94.8799 16.7885 94.8799 16.0241Z" fill="#221F1F"/>
<path d="M125.44 17.2312C125.16 17.2312 124.92 16.9898 124.92 16.7081V1.82259C124.92 1.54097 125.16 1.33981 125.44 1.33981H126.48C126.76 1.33981 127 1.54097 127.04 1.82259V3.99507C127.8 2.26513 129.2 0.9375 130.96 0.9375H131.08H131.2C133.08 0.9375 134.44 2.34559 134.96 4.35716C135.76 2.34559 137.24 0.9375 139.24 0.9375H139.36H139.48C140.88 0.9375 142.24 1.82259 142.92 3.23068C143.6 4.55831 143.56 6.28825 143.56 7.77681V16.7081C143.56 16.9898 143.32 17.2312 143.04 17.2312H141.76C141.48 17.2312 141.28 17.03 141.24 16.7484V7.73658C141.24 6.69057 141.28 5.52386 140.88 4.55831C140.44 3.55253 139.6 2.94906 138.72 2.90883C137.72 2.94906 136.8 3.71345 136.2 4.679C135.44 5.9664 135.44 7.13311 135.44 8.62166V16.7484C135.4 16.9898 135.2 17.1909 134.92 17.1909H133.68C133.4 17.1909 133.16 16.9495 133.16 16.6679V7.13311C133.16 6.24802 133.12 5.24224 132.72 4.43762C132.24 3.55253 131.4 2.94906 130.56 2.90883C129.64 2.94906 128.72 3.67322 128.2 4.47784C127.48 5.52386 127.36 6.81126 127.36 8.09866V16.6679C127.36 16.9495 127.12 17.1909 126.84 17.1909H125.44" fill="#221F1F"/>
<path d="M116.76 17.553C112.68 17.553 110.84 13.369 110.84 9.1849C110.84 4.75947 113 0.9375 117.12 0.9375H117.24H117.36C121.36 0.9375 123.36 5.00086 123.36 9.1849C123.36 13.6103 121.16 17.553 117 17.553H116.88H116.76ZM117.04 15.5012C118.4 15.461 119.44 14.6161 120.08 13.208C120.64 11.9609 120.76 10.5125 120.76 9.14467C120.76 7.65611 120.6 6.0871 119.88 4.7997C119.24 3.67322 118.16 2.94906 117.04 2.90883C115.76 2.94906 114.64 3.83415 114.04 5.16178C113.52 6.32849 113.36 7.85727 113.36 9.14467C113.36 10.593 113.56 12.2425 114.12 13.4896C114.72 14.6966 115.84 15.461 117.04 15.5012Z" fill="#221F1F"/>
<path d="M103.96 15.4192C105.8 15.3789 106.76 13.8904 107.16 11.9593C107.24 11.7179 107.44 11.5167 107.68 11.5167H108.88C109.16 11.5167 109.44 11.7581 109.4 11.9995C108.84 15.2583 106.88 17.471 104.08 17.471H104H103.88C99.8001 17.471 98.0801 13.3674 98.0801 9.22357C98.0801 5.07975 99.8401 0.855469 103.92 0.855469H104.04H104.16C107 0.855469 109 3.02796 109.44 6.28669C109.44 6.52807 109.2 6.72923 108.96 6.76946H107.68C107.4 6.72923 107.24 6.48784 107.2 6.24646C106.88 4.43605 105.84 2.98773 104.12 2.90726C101.36 2.98773 100.56 6.40738 100.56 9.02241C100.56 11.6374 101.2 15.3387 103.96 15.4192Z" fill="#221F1F"/>
<path d="M51.3998 14.4939C50.8798 13.7697 50.3198 13.1662 50.3198 11.7984V7.29246C50.3198 5.36136 50.4398 3.63142 49.0398 2.30379C47.9198 1.21755 46.1198 0.855469 44.7198 0.855469C41.9998 0.855469 38.9198 1.90148 38.2798 5.2809C38.1998 5.64298 38.4798 5.84414 38.7198 5.88437L41.5198 6.16599C41.7998 6.16599 41.9598 5.88437 42.0398 5.64299C42.2798 4.47628 43.2398 3.91304 44.3598 3.91304C44.9598 3.91304 45.6398 4.1142 45.9598 4.67743C46.3598 5.2809 46.3198 6.08553 46.3198 6.76946V7.13154C44.6398 7.3327 42.4798 7.45339 40.9198 8.13732C39.1198 8.90171 37.8398 10.511 37.8398 12.8846C37.8398 15.9019 39.7198 17.3905 42.1598 17.3905C44.1998 17.3905 45.3198 16.9077 46.9198 15.2985C47.4398 16.0629 47.5998 16.425 48.5598 17.2296C48.7598 17.3503 49.0398 17.3503 49.2398 17.1491C49.7998 16.6261 50.8798 15.7008 51.4398 15.218C51.5998 15.0571 51.5598 14.7755 51.3998 14.4939ZM45.7198 13.2065C45.2798 14.0111 44.5198 14.5341 43.7198 14.5341C42.5998 14.5341 41.9598 13.6892 41.9598 12.4421C41.9598 9.98796 44.1598 9.50518 46.2398 9.50518V10.1489C46.2798 11.2351 46.2798 12.2007 45.7198 13.2065Z" fill="#221F1F"/>
<path d="M13.6 14.4938C13.08 13.7697 12.52 13.1662 12.52 11.7984V7.29246C12.52 5.36136 12.64 3.63142 11.24 2.30379C10.12 1.21755 8.32 0.855469 6.92 0.855469C4.2 0.855469 1.12 1.90148 0.479999 5.2809C0.399999 5.64298 0.680001 5.84414 0.920001 5.88437L3.72 6.16599C3.96 6.16599 4.16 5.88437 4.2 5.64299C4.44 4.47628 5.4 3.91304 6.52 3.91304C7.12 3.91304 7.8 4.1142 8.12 4.67743C8.52 5.2809 8.48 6.08553 8.48 6.76946V7.13154C6.8 7.33269 4.64 7.45339 3.08 8.13732C1.28 8.94194 0 10.5512 0 12.9248C0 15.9422 1.88 17.4307 4.32 17.4307C6.36 17.4307 7.48 16.9479 9.08 15.3387C9.6 16.1031 9.76 16.4652 10.72 17.2698C10.92 17.3905 11.2 17.3905 11.4 17.1893C11.96 16.6663 13.04 15.741 13.6 15.2582C13.84 15.0571 13.8 14.7755 13.6 14.4938ZM7.96 13.2065C7.52 14.0111 6.76 14.5341 5.96 14.5341C4.84 14.5341 4.2 13.6892 4.2 12.4421C4.2 9.98795 6.4 9.50518 8.48 9.50518V10.1489C8.48 11.2351 8.52 12.2007 7.96 13.2065Z" fill="#221F1F"/>
<path d="M146.48 1.4992C147.16 1.4992 147.76 2.06244 147.76 2.7866C147.76 3.47053 147.2 4.074 146.48 4.074C145.8 4.074 145.2 3.51077 145.2 2.7866C145.24 2.06244 145.8 1.4992 146.48 1.4992ZM146.48 1.25781C145.68 1.25781 144.96 1.90151 144.96 2.7866C144.96 3.63146 145.64 4.31539 146.48 4.31539C147.32 4.31539 148 3.63146 148 2.7866C148 1.90151 147.32 1.25781 146.48 1.25781ZM145.92 3.63146H146.24V2.94753H146.52C146.64 2.94753 146.68 2.98776 146.68 3.10845C146.68 3.14868 146.72 3.551 146.76 3.63146H147.12C147.08 3.551 147.04 3.30961 147.04 3.18891C147 2.98776 147 2.82683 146.76 2.7866C146.88 2.74637 147.08 2.66591 147.08 2.38429C147.08 1.94175 146.68 1.94175 146.48 1.94175H145.92V3.63146ZM146.24 2.18313H146.52C146.6 2.18313 146.76 2.18314 146.76 2.42452C146.76 2.50499 146.72 2.66591 146.52 2.66591H146.24V2.18313Z" fill="#221F1F"/>
</svg>
