<svg width="186" height="42" viewBox="0 0 186 42" fill="none" xmlns="http://www.w3.org/2000/svg">
<path d="M107.973 18.082H100.698V18.8573C102.974 18.8573 103.339 19.3485 103.339 22.2425V27.4576C103.339 30.3517 102.974 30.8814 100.698 30.8814C98.9505 30.6358 97.7741 29.6968 96.1463 27.9055L94.2785 25.8685C96.7994 25.4207 98.1391 23.8316 98.1391 22.0355C98.1391 19.7963 96.228 18.082 92.6507 18.082H85.4961V18.8573C87.7721 18.8573 88.137 19.3485 88.137 22.2425V27.4576C88.137 30.3517 87.7721 30.8814 85.4961 30.8814V31.6567H93.5822V30.8814C91.3062 30.8814 90.9413 30.3517 90.9413 27.4576V25.9889H91.6327L96.1415 31.6519H107.968C113.778 31.6519 116.299 28.5555 116.299 24.8477C116.304 21.1398 113.783 18.082 107.973 18.082ZM90.9413 24.7273V19.3051H92.6075C94.4369 19.3051 95.2484 20.5668 95.2484 22.0355C95.2484 23.4608 94.4369 24.7273 92.6075 24.7273H90.9413ZM108.093 30.3902H107.81C106.345 30.3902 106.144 30.0242 106.144 28.1462V19.3051C106.144 19.3051 107.93 19.3051 108.093 19.3051C112.319 19.3051 113.092 22.4015 113.092 24.8092C113.092 27.2939 112.319 30.3902 108.093 30.3902Z" fill="black"/>
<path d="M3.78906 20.9988C3.78906 28.1304 7.91856 34.2942 13.9159 37.2123L5.34482 13.665C4.34606 15.9089 3.78906 18.3841 3.78906 20.9988ZM33.8767 20.0887C33.8767 17.8592 33.0796 16.3182 32.3978 15.1192C31.4855 13.6361 30.6356 12.3792 30.6356 10.8961C30.6356 9.23959 31.8888 7.69866 33.6511 7.69866C33.7327 7.69866 33.8047 7.70829 33.8815 7.71311C30.6884 4.77571 26.4292 2.98438 21.7524 2.98438C15.4765 2.98438 9.95449 6.21552 6.74213 11.1032C7.16468 11.1176 7.56323 11.1272 7.89935 11.1272C9.77683 11.1272 12.6867 10.8961 12.6867 10.8961C13.6566 10.8383 13.7671 12.2637 12.8019 12.3792C12.8019 12.3792 11.8272 12.4948 10.7468 12.5526L17.2867 32.0646L21.2194 20.2428L18.4199 12.5526C17.45 12.4948 16.5377 12.3792 16.5377 12.3792C15.5677 12.3215 15.683 10.8383 16.6529 10.8961C16.6529 10.8961 19.6204 11.1272 21.3826 11.1272C23.2601 11.1272 26.17 10.8961 26.17 10.8961C27.1399 10.8383 27.2503 12.2637 26.2852 12.3792C26.2852 12.3792 25.3104 12.4948 24.23 12.5526L30.722 31.9154L32.513 25.9105C33.4206 23.5703 33.8767 21.6296 33.8767 20.0887ZM22.0693 22.5735L16.6769 38.2813C18.2855 38.7581 19.9901 39.0133 21.7524 39.0133C23.8459 39.0133 25.853 38.6521 27.7161 37.9924C27.6681 37.9154 27.6249 37.8335 27.5865 37.742L22.0693 22.5735ZM37.5165 12.3552C37.5933 12.9282 37.6365 13.5446 37.6365 14.2091C37.6365 16.0341 37.2956 18.0903 36.268 20.6617L30.7844 36.567C36.1239 33.4467 39.7156 27.6441 39.7156 20.994C39.7156 17.864 38.9186 14.9218 37.5165 12.3552Z" fill="black"/>
<path d="M0.8125 21C0.8125 32.5811 10.2047 42 21.7529 42C33.301 42 42.6932 32.5811 42.6932 21C42.6932 9.41894 33.301 0 21.7529 0C10.2047 0 0.8125 9.41894 0.8125 21ZM1.77285 21C1.77285 9.95345 10.7377 0.963082 21.7529 0.963082C32.768 0.963082 41.7329 9.95345 41.7329 21C41.7329 32.0465 32.768 41.0369 21.7529 41.0369C10.7377 41.0369 1.77285 32.0465 1.77285 21Z" fill="black"/>
<path d="M62.8604 26.2341L65.6646 17.9179C66.4761 15.515 66.1111 14.8216 63.5086 14.8216V14.0078H71.1482V14.8216C68.5888 14.8216 67.979 15.4332 66.961 18.4091L62.3274 32.3497H61.7992L57.6553 19.5937L53.4298 32.3497H52.9016L48.3927 18.4091C47.418 15.4332 46.765 14.8216 44.4121 14.8216V14.0078H53.4346V14.8216C51.0385 14.8216 50.3855 15.3898 51.2402 17.9179L53.9628 26.2341L58.0682 14.0078H58.8413L62.8604 26.2341Z" fill="black"/>
<path d="M76.6801 32.1809C72.2097 32.1809 68.5508 28.8775 68.5508 24.8422C68.5508 20.8502 72.2097 17.5469 76.6801 17.5469C81.1505 17.5469 84.8094 20.8502 84.8094 24.8422C84.8046 28.8823 81.1505 32.1809 76.6801 32.1809ZM76.6801 18.8133C72.9396 18.8133 71.6383 22.1937 71.6383 24.847C71.6383 27.5388 72.9396 30.8807 76.6801 30.8807C80.4591 30.8807 81.7604 27.5388 81.7604 24.847C81.7604 22.1986 80.4591 18.8133 76.6801 18.8133Z" fill="black"/>
<path d="M126.339 30.8377V31.6515H117.033V30.8377C119.756 30.8377 120.246 30.1443 120.246 26.0704V19.5503C120.246 15.4765 119.756 14.8216 117.033 14.8216V14.0078H125.446C129.633 14.0078 131.947 16.1699 131.947 19.064C131.947 21.8762 129.628 24.0768 125.446 24.0768H123.131V26.0752C123.127 30.1442 123.616 30.8377 126.339 30.8377ZM125.446 15.4717H123.131V22.5648H125.446C127.722 22.5648 128.778 20.9757 128.778 19.0592C128.778 17.1041 127.722 15.4717 125.446 15.4717Z" fill="black"/>
<path d="M159.869 27.8245L159.668 28.5565C159.303 29.9 158.856 30.3911 155.97 30.3911H155.399C153.286 30.3911 152.921 29.9 152.921 27.0059V25.1327C156.09 25.1327 156.335 25.4168 156.335 27.5356H157.108V21.4634H156.335C156.335 23.5821 156.09 23.8662 152.921 23.8662V19.3012H155.154C158.04 19.3012 158.487 19.7924 158.851 21.1359L159.053 21.9112H159.701L159.418 18.0781H147.471V18.8534C149.747 18.8534 150.112 19.3446 150.112 22.2386V27.4537C150.112 30.1022 149.8 30.7667 148.009 30.863C146.305 30.603 145.133 29.6688 143.529 27.9016L141.661 25.8646C144.182 25.4168 145.522 23.8277 145.522 22.0316C145.522 19.7924 143.611 18.0781 140.033 18.0781H132.879V18.8534C135.155 18.8534 135.52 19.3446 135.52 22.2386V27.4537C135.52 30.3478 135.155 30.8775 132.879 30.8775V31.6528H140.965V30.8823C138.689 30.8823 138.324 30.3526 138.324 27.4585V25.9898H139.016L143.524 31.6528H160.23L160.474 27.8197H159.869V27.8245ZM138.329 24.7282V19.3061H139.995C141.825 19.3061 142.636 20.5677 142.636 22.0364C142.636 23.4618 141.825 24.7282 139.995 24.7282H138.329Z" fill="black"/>
<path d="M168.119 32.1809C166.492 32.1809 165.07 31.3238 164.46 30.7941C164.259 30.9963 163.894 31.6079 163.812 32.1809H163.039V26.5565H163.851C164.177 29.2483 166.045 30.8374 168.441 30.8374C169.742 30.8374 170.799 30.1055 170.799 28.8823C170.799 27.823 169.862 27.0092 168.196 26.2339L165.882 25.1311C164.254 24.3559 163.039 23.0124 163.039 21.2162C163.039 19.2612 164.869 17.5902 167.389 17.5902C168.729 17.5902 169.867 18.0814 170.559 18.6496C170.76 18.4859 170.967 18.038 171.087 17.5469H171.86V22.3575H171.005C170.722 20.4409 169.665 18.8519 167.509 18.8519C166.371 18.8519 165.315 19.5019 165.315 20.5228C165.315 21.5822 166.17 22.1504 168.119 23.0509L170.352 24.1536C172.302 25.0926 173.075 26.5998 173.075 27.823C173.075 30.3896 170.842 32.1809 168.119 32.1809Z" fill="black"/>
<path d="M180.637 32.1809C179.009 32.1809 177.588 31.3238 176.978 30.7941C176.776 30.9963 176.411 31.6079 176.33 32.1809H175.557V26.5565H176.368C176.695 29.2483 178.563 30.8374 180.959 30.8374C182.26 30.8374 183.316 30.1055 183.316 28.8823C183.316 27.823 182.38 27.0092 180.714 26.2339L178.399 25.1311C176.771 24.3559 175.557 23.0124 175.557 21.2162C175.557 19.2612 177.386 17.5902 179.907 17.5902C181.247 17.5902 182.385 18.0814 183.076 18.6496C183.278 18.4859 183.484 18.038 183.604 17.5469H184.377V22.3575H183.523C183.239 20.4409 182.183 18.8519 180.027 18.8519C178.889 18.8519 177.833 19.5019 177.833 20.5228C177.833 21.5822 178.687 22.1504 180.637 23.0509L182.87 24.1536C184.819 25.0926 185.592 26.5998 185.592 27.823C185.592 30.3896 183.359 32.1809 180.637 32.1809Z" fill="black"/>
</svg>
