<svg width="93" height="38" viewBox="0 0 93 38" fill="none" xmlns="http://www.w3.org/2000/svg">
<path d="M11.9924 8.10938C5.44665 8.10938 0 10.8938 0 19.2713C0 25.9148 3.66367 30.0914 12.1634 30.0914C22.1774 30.0914 22.8124 23.4968 22.8124 23.4968H17.952C17.952 23.4968 16.9017 27.0383 11.8459 27.0383C7.71812 27.0383 4.76277 24.2539 4.76277 20.346H23.3009V17.9036C23.3253 14.0445 20.8829 8.10938 11.9924 8.10938ZM11.8214 11.2357C15.7293 11.2357 18.416 13.6293 18.416 17.2441H4.90931C4.90931 13.4095 8.40201 11.2357 11.8214 11.2357Z" fill="#E53238"/>
<path d="M23.3252 0V25.8899C23.3252 27.3554 23.2275 29.4315 23.2275 29.4315H27.8438C27.8438 29.4315 28.0147 27.9416 28.0147 26.5982C28.0147 26.5982 30.3106 30.1642 36.5144 30.1642C43.0602 30.1642 47.5054 25.6213 47.5054 19.1243C47.5054 13.0671 43.4266 8.20662 36.5389 8.20662C30.0908 8.20662 28.088 11.6993 28.088 11.6993V0.0244259H23.3252V0ZM35.3176 11.3818C39.7629 11.3818 42.5961 14.6791 42.5961 19.0999C42.5961 23.8383 39.3233 26.9402 35.3665 26.9402C30.6281 26.9402 28.0636 23.2277 28.0636 19.1243C28.0636 15.3141 30.3595 11.3818 35.3176 11.3818Z" fill="#0064D2"/>
<path d="M58.9846 8.10938C49.1415 8.10938 48.5065 13.5072 48.5065 14.362H53.4158C53.4158 14.362 53.6845 11.2113 58.6671 11.2113C61.9155 11.2113 64.4068 12.7012 64.4068 15.5344V16.5602H58.6671C51.0466 16.5602 46.9922 18.7829 46.9922 23.3258C46.9922 27.7955 50.7291 30.2135 55.7606 30.2135C62.6238 30.2135 64.8464 26.4277 64.8464 26.4277C64.8464 27.942 64.9686 29.4319 64.9686 29.4319H69.3161C69.3161 29.4319 69.1451 27.6001 69.1451 26.4033V16.2183C69.1207 9.50157 63.7473 8.10938 58.9846 8.10938ZM64.4068 19.6133V20.9566C64.4068 22.7152 63.3077 27.1116 56.9085 27.1116C53.3914 27.1116 51.9015 25.353 51.9015 23.3258C51.9015 19.6133 56.9574 19.6133 64.4068 19.6133Z" fill="#F5AF02"/>
<path d="M66.4834 8.96484H72.0033L79.9168 24.8163L87.8059 8.96484H92.8129L78.4269 37.1995H73.1757L77.3278 29.3348L66.4834 8.96484Z" fill="#86B817"/>
</svg>
