<svg width="140" height="41" viewBox="0 0 140 41" fill="none" xmlns="http://www.w3.org/2000/svg">
<path d="M30.0728 7.6053C30.0446 7.40764 29.8752 7.30097 29.7309 7.28841C29.5897 7.27587 26.5878 7.0531 26.5878 7.0531C26.5878 7.0531 24.5049 4.98235 24.276 4.75331C24.047 4.52428 23.6015 4.5933 23.4259 4.6435C23.4008 4.64978 22.971 4.78469 22.259 5.00431C21.5657 3.00259 20.3361 1.16088 18.1748 1.16088C18.1152 1.16088 18.0525 1.16401 17.9929 1.16715C17.3749 0.354538 16.6158 0 15.9571 0C10.9225 0 8.5165 6.29697 7.76052 9.49722C5.80314 10.1028 4.41352 10.5357 4.23472 10.5891C3.14311 10.9311 3.1086 10.9656 2.96431 11.9947C2.85765 12.7759 0 34.8827 0 34.8827L22.2715 39.0556L34.3389 36.4452C34.3358 36.4452 30.1011 7.79983 30.0728 7.6053ZM21.0293 5.38709C20.471 5.55965 19.8342 5.75731 19.1441 5.97066C19.1441 5.83889 19.1441 5.70711 19.1441 5.56279C19.1441 4.3172 18.9716 3.3132 18.6955 2.51941C19.8091 2.6606 20.5525 3.92815 21.0293 5.38709ZM17.3153 2.76728C17.6259 3.54224 17.8266 4.65605 17.8266 6.16205C17.8266 6.23735 17.8266 6.30951 17.8266 6.38168C16.6001 6.76131 15.2701 7.17233 13.9338 7.58648C14.6835 4.69056 16.0857 3.29438 17.3153 2.76728ZM15.819 1.35226C16.0355 1.35226 16.2551 1.42443 16.4652 1.56875C14.8498 2.32803 13.1214 4.2419 12.3905 8.06338C11.324 8.39282 10.2794 8.71598 9.31326 9.01718C10.1696 6.10244 12.2023 1.35226 15.819 1.35226Z" fill="#95BF47"/>
<path d="M29.734 7.28803C29.5929 7.27548 26.5909 7.05272 26.5909 7.05272C26.5909 7.05272 24.508 4.98197 24.2791 4.75293C24.1944 4.66822 24.0783 4.62429 23.956 4.60547L22.2715 39.0552L34.3357 36.4448C34.3357 36.4448 30.101 7.79945 30.0728 7.60492C30.0477 7.40726 29.8752 7.29744 29.734 7.28803Z" fill="#5E8E3E"/>
<path d="M18.1745 13.9554L16.6876 18.3825C16.6876 18.3825 15.3827 17.6859 13.786 17.6859C11.4428 17.6859 11.3268 19.1574 11.3268 19.5277C11.3268 21.5482 16.5966 22.3232 16.5966 27.0608C16.5966 30.7881 14.2346 33.1852 11.0476 33.1852C7.22378 33.1852 5.26953 30.807 5.26953 30.807L6.29214 27.4247C6.29214 27.4247 8.30285 29.1504 9.99674 29.1504C11.104 29.1504 11.5557 28.2781 11.5557 27.6412C11.5557 25.0026 7.23319 24.8865 7.23319 20.5536C7.23319 16.9047 9.84931 13.375 15.1349 13.375C17.1675 13.3719 18.1745 13.9554 18.1745 13.9554Z" fill="white"/>
<path d="M48.4045 22.2531C47.1999 21.6005 46.582 21.0483 46.582 20.2922C46.582 19.3289 47.4415 18.7109 48.784 18.7109C50.3462 18.7109 51.7421 19.3635 51.7421 19.3635L52.8431 15.9938C52.8431 15.9938 51.8299 15.2031 48.8562 15.2031C44.7124 15.2031 41.8422 17.5751 41.8422 20.9134C41.8422 22.8053 43.1817 24.2485 44.9697 25.2808C46.4126 26.1059 46.9302 26.6895 46.9302 27.5492C46.9302 28.4434 46.2087 29.165 44.8661 29.165C42.868 29.165 40.9796 28.1328 40.9796 28.1328L39.8096 31.5024C39.8096 31.5024 41.5537 32.6727 44.4866 32.6727C48.7495 32.6727 51.8111 30.5737 51.8111 26.7931C51.808 24.7631 50.2615 23.3198 48.4045 22.2531Z" fill="black"/>
<path d="M65.3871 15.1711C63.2885 15.1711 61.6385 16.1688 60.3681 17.6811L60.2991 17.6465L62.1216 8.12109H57.3756L52.7676 32.3677H57.5136L59.0946 24.0784C59.7125 20.9503 61.328 19.0239 62.8431 19.0239C63.9096 19.0239 64.3205 19.7455 64.3205 20.7778C64.3205 21.4304 64.2515 22.221 64.1135 22.8768L62.3255 32.3677H67.0715L68.9285 22.5661C69.1356 21.5339 69.2736 20.2977 69.2736 19.4694C69.2736 16.7869 67.8652 15.1711 65.3871 15.1711Z" fill="black"/>
<path d="M80.0016 15.168C74.2926 15.168 70.5127 20.326 70.5127 26.0708C70.5127 29.7511 72.7806 32.7066 77.0467 32.7066C82.6522 32.7066 86.4321 27.6866 86.4321 21.8038C86.4321 18.4027 84.4371 15.168 80.0016 15.168ZM77.6647 29.064C76.0492 29.064 75.3622 27.6897 75.3622 25.9704C75.3622 23.2533 76.7707 18.8169 79.3492 18.8169C81.0336 18.8169 81.5826 20.2601 81.5826 21.672C81.5826 24.593 80.1741 29.064 77.6647 29.064Z" fill="black"/>
<path d="M98.5686 15.168C95.3659 15.168 93.5497 17.9886 93.5497 17.9886H93.4807L93.7567 15.4441H89.5628C89.3557 17.1634 88.9793 19.777 88.5998 21.7379L85.2998 39.104H90.0458L91.3508 32.0885H91.4543C91.4543 32.0885 92.4298 32.7066 94.2398 32.7066C99.8108 32.7066 103.456 26.9964 103.456 21.2202C103.453 18.0231 102.041 15.168 98.5686 15.168ZM94.0296 29.1299C92.7968 29.1299 92.0691 28.4427 92.0691 28.4427L92.8596 24.0063C93.4085 21.0476 94.9581 19.0898 96.6081 19.0898C98.051 19.0898 98.4996 20.4296 98.4996 21.7034C98.4996 24.7625 96.6771 29.1299 94.0296 29.1299Z" fill="black"/>
<path d="M110.225 8.36328C108.713 8.36328 107.509 9.56808 107.509 11.1149C107.509 12.5236 108.403 13.4868 109.742 13.4868H109.811C111.289 13.4868 112.562 12.4891 112.597 10.7352C112.597 9.36101 111.668 8.36328 110.225 8.36328Z" fill="black"/>
<path d="M103.591 32.3678H108.334L111.568 15.5508H106.787L103.591 32.3678Z" fill="black"/>
<path d="M123.635 15.5137H120.335L120.508 14.723C120.784 13.1072 121.747 11.6608 123.328 11.6608C124.172 11.6608 124.84 11.9024 124.84 11.9024L125.768 8.18759C125.768 8.18759 124.943 7.77344 123.19 7.77344C121.505 7.77344 119.821 8.25347 118.547 9.35474C116.932 10.729 116.176 12.7244 115.796 14.7199L115.658 15.5105H113.456L112.769 19.0873H114.971L112.462 32.362H117.208L119.717 19.0873H122.983L123.635 15.5137Z" fill="black"/>
<path d="M135.05 15.5508C135.05 15.5508 132.082 23.0243 130.752 27.1062H130.683C130.592 25.7916 129.513 15.5508 129.513 15.5508H124.529L127.384 30.9936C127.453 31.3387 127.418 31.5426 127.28 31.7842C126.731 32.851 125.803 33.8832 124.702 34.6393C123.808 35.2919 122.81 35.7061 122.02 35.9822L123.324 40.0076C124.287 39.8005 126.282 39.0099 127.967 37.4286C130.135 35.3986 132.126 32.2705 134.19 28.0067L140 15.5571H135.05V15.5508Z" fill="black"/>
</svg>
