<svg width="40" height="40" viewBox="0 0 40 40" fill="none" xmlns="http://www.w3.org/2000/svg">
<circle cx="20" cy="20" r="20" fill="#FF671B"/>
<path d="M22.0039 19.4727H21.9336V18.6641C21.9336 17.5979 21.0662 16.7305 20 16.7305C18.9338 16.7305 18.0664 17.5979 18.0664 18.6641V19.4727H17.9961C17.7049 19.4727 17.4688 19.7088 17.4688 20V22.7422C17.4688 23.0334 17.7049 23.2695 17.9961 23.2695H22.0039C22.2951 23.2695 22.5312 23.0334 22.5312 22.7422V20C22.5312 19.7088 22.2951 19.4727 22.0039 19.4727ZM19.1211 18.6641C19.1211 18.1794 19.5154 17.7852 20 17.7852C20.4846 17.7852 20.8789 18.1794 20.8789 18.6641V19.4727H19.1211V18.6641ZM21.4766 22.2148H18.5234V20.5273C18.8852 20.5273 21.2143 20.5273 21.4766 20.5273V22.2148Z" fill="white"/>
<path d="M27.2422 25.4844C26.9492 25.4844 26.673 25.5568 26.4299 25.6841L25.2037 24.458C26.2327 23.2585 26.8555 21.7006 26.8555 20C26.8555 18.2994 26.2327 16.7415 25.2037 15.5421L26.4299 14.3159C26.673 14.4432 26.9492 14.5156 27.2422 14.5156C28.2114 14.5156 29 13.7271 29 12.7578C29 11.7886 28.2114 11 27.2422 11C26.2729 11 25.4844 11.7886 25.4844 12.7578C25.4844 13.0508 25.5568 13.327 25.6841 13.5701L24.4579 14.7963C23.2585 13.7673 21.7006 13.1445 20 13.1445C18.2994 13.1445 16.7415 13.7673 15.5421 14.7963L14.3159 13.5701C14.4432 13.327 14.5156 13.0508 14.5156 12.7578C14.5156 11.7886 13.7271 11 12.7578 11C11.7886 11 11 11.7886 11 12.7578C11 13.7271 11.7886 14.5156 12.7578 14.5156C13.0508 14.5156 13.327 14.4432 13.5701 14.3159L14.7963 15.542C13.7673 16.7415 13.1445 18.2994 13.1445 20C13.1445 21.7006 13.7673 23.2585 14.7963 24.4579L13.5701 25.6841C13.327 25.5568 13.0508 25.4844 12.7578 25.4844C11.7886 25.4844 11 26.2729 11 27.2422C11 28.2114 11.7886 29 12.7578 29C13.7271 29 14.5156 28.2114 14.5156 27.2422C14.5156 26.9492 14.4432 26.673 14.3159 26.4299L15.5421 25.2037C16.7415 26.2327 18.2994 26.8555 20 26.8555C21.7006 26.8555 23.2585 26.2327 24.4579 25.2037L25.6841 26.4298C25.5568 26.673 25.4844 26.9492 25.4844 27.2422C25.4844 28.2114 26.2729 29 27.2422 29C28.2114 29 29 28.2114 29 27.2422C29 26.2729 28.2114 25.4844 27.2422 25.4844ZM27.2422 12.0547C27.6299 12.0547 27.9453 12.3701 27.9453 12.7578C27.9453 13.1455 27.6299 13.4609 27.2422 13.4609C26.8545 13.4609 26.5391 13.1455 26.5391 12.7578C26.5391 12.3701 26.8545 12.0547 27.2422 12.0547ZM12.7578 13.4609C12.3701 13.4609 12.0547 13.1455 12.0547 12.7578C12.0547 12.3701 12.3701 12.0547 12.7578 12.0547C13.1455 12.0547 13.4609 12.3701 13.4609 12.7578C13.4609 13.1455 13.1455 13.4609 12.7578 13.4609ZM12.7578 27.9453C12.3701 27.9453 12.0547 27.6299 12.0547 27.2422C12.0547 26.8545 12.3701 26.5391 12.7578 26.5391C13.1455 26.5391 13.4609 26.8545 13.4609 27.2422C13.4609 27.6299 13.1455 27.9453 12.7578 27.9453ZM20 25.8008C16.8014 25.8008 14.1992 23.1986 14.1992 20C14.1992 16.8014 16.8014 14.1992 20 14.1992C23.1986 14.1992 25.8008 16.8014 25.8008 20C25.8008 23.1986 23.1986 25.8008 20 25.8008ZM27.2422 27.9453C26.8545 27.9453 26.5391 27.6299 26.5391 27.2422C26.5391 26.8545 26.8545 26.5391 27.2422 26.5391C27.6299 26.5391 27.9453 26.8545 27.9453 27.2422C27.9453 27.6299 27.6299 27.9453 27.2422 27.9453Z" fill="white"/>
</svg>
