<svg width="414" height="237" viewBox="0 0 414 237" fill="none" xmlns="http://www.w3.org/2000/svg">
<g opacity="0.03">
<path d="M198.499 236.928C292.089 236.928 367.959 232.498 367.959 227.034C367.959 221.57 292.089 217.141 198.499 217.141C104.909 217.141 29.0391 221.57 29.0391 227.034C29.0391 232.498 104.909 236.928 198.499 236.928Z" fill="#4F9646"/>
</g>
<g opacity="0.5">
<path d="M380.219 227.038H386.643L395.383 178.758H388.959L380.219 227.038Z" fill="#152C1A"/>
<path opacity="0.2" d="M380.219 227.038H386.643L395.383 178.758H388.959L380.219 227.038Z" fill="white"/>
<path opacity="0.2" d="M380.219 227.038H384.895L393.635 178.758H388.959L380.219 227.038Z" fill="white"/>
<path d="M362.137 193.117H387.823C388.01 193.118 388.194 193.082 388.367 193.012C388.539 192.941 388.696 192.837 388.827 192.705C388.959 192.573 389.063 192.417 389.134 192.244C389.205 192.072 389.241 191.887 389.239 191.701C389.241 191.515 389.205 191.33 389.134 191.158C389.063 190.986 388.959 190.829 388.827 190.697C388.696 190.566 388.539 190.461 388.367 190.391C388.194 190.32 388.01 190.284 387.823 190.285H362.137C361.95 190.284 361.766 190.32 361.593 190.391C361.421 190.461 361.265 190.566 361.133 190.697C361.001 190.829 360.897 190.986 360.826 191.158C360.755 191.33 360.72 191.515 360.721 191.701C360.72 191.887 360.755 192.072 360.826 192.244C360.897 192.417 361.001 192.573 361.133 192.705C361.265 192.837 361.421 192.941 361.593 193.012C361.766 193.082 361.95 193.118 362.137 193.117Z" fill="#152C1A"/>
<path d="M359.279 209.286H384.975C385.351 209.283 385.711 209.132 385.976 208.865C386.242 208.599 386.391 208.238 386.391 207.861C386.388 207.486 386.238 207.128 385.973 206.863C385.708 206.598 385.35 206.448 384.975 206.445H359.279C358.904 206.448 358.546 206.598 358.281 206.863C358.015 207.128 357.866 207.486 357.863 207.861C357.863 208.238 358.012 208.599 358.277 208.865C358.543 209.132 358.903 209.283 359.279 209.286Z" fill="#152C1A"/>
<path d="M354 227.038H360.424L369.164 178.758H362.74L354 227.038Z" fill="#152C1A"/>
<path opacity="0.2" d="M354 227.038H360.424L369.164 178.758H362.74L354 227.038Z" fill="white"/>
<path opacity="0.2" d="M354 227.038H358.676L367.416 178.758H362.74L354 227.038Z" fill="white"/>
<path d="M413.738 227.038H407.314L398.574 178.758H404.998L413.738 227.038Z" fill="#152C1A"/>
<path opacity="0.4" d="M413.738 227.038H407.314L398.574 178.758H404.998L413.738 227.038Z" fill="white"/>
<path opacity="0.2" d="M411.99 227.038H407.314L398.574 178.758H403.25L411.99 227.038Z" fill="white"/>
<path d="M402.455 193.117H376.76C376.384 193.117 376.024 192.968 375.758 192.702C375.493 192.437 375.344 192.077 375.344 191.701C375.344 191.326 375.493 190.965 375.758 190.7C376.024 190.434 376.384 190.285 376.76 190.285H402.455C402.831 190.285 403.191 190.434 403.456 190.7C403.722 190.965 403.871 191.326 403.871 191.701C403.871 192.077 403.722 192.437 403.456 192.702C403.191 192.968 402.831 193.117 402.455 193.117Z" fill="#152C1A"/>
<path d="M405.304 209.286H379.617C379.43 209.286 379.246 209.249 379.073 209.177C378.901 209.105 378.744 209 378.613 208.868C378.481 208.736 378.377 208.578 378.306 208.406C378.236 208.233 378.2 208.048 378.201 207.861C378.201 207.486 378.35 207.126 378.616 206.86C378.881 206.594 379.242 206.445 379.617 206.445H405.304C405.679 206.445 406.04 206.594 406.305 206.86C406.571 207.126 406.72 207.486 406.72 207.861C406.721 208.048 406.685 208.233 406.615 208.406C406.544 208.578 406.44 208.736 406.308 208.868C406.177 209 406.02 209.105 405.848 209.177C405.675 209.249 405.491 209.286 405.304 209.286Z" fill="#152C1A"/>
<path opacity="0.2" d="M402.455 193.117H376.76C376.384 193.117 376.024 192.968 375.758 192.702C375.493 192.437 375.344 192.077 375.344 191.701C375.344 191.326 375.493 190.965 375.758 190.7C376.024 190.434 376.384 190.285 376.76 190.285H402.455C402.831 190.285 403.191 190.434 403.456 190.7C403.722 190.965 403.871 191.326 403.871 191.701C403.871 192.077 403.722 192.437 403.456 192.702C403.191 192.968 402.831 193.117 402.455 193.117Z" fill="white"/>
<path opacity="0.2" d="M405.304 209.286H379.617C379.43 209.286 379.246 209.249 379.073 209.177C378.901 209.105 378.744 209 378.613 208.868C378.481 208.736 378.377 208.578 378.306 208.406C378.236 208.233 378.2 208.048 378.201 207.861C378.201 207.486 378.35 207.126 378.616 206.86C378.881 206.594 379.242 206.445 379.617 206.445H405.304C405.679 206.445 406.04 206.594 406.305 206.86C406.571 207.126 406.72 207.486 406.72 207.861C406.721 208.048 406.685 208.233 406.615 208.406C406.544 208.578 406.44 208.736 406.308 208.868C406.177 209 406.02 209.105 405.848 209.177C405.675 209.249 405.491 209.286 405.304 209.286Z" fill="white"/>
<path d="M387.517 227.038H381.094L372.354 178.758H378.777L387.517 227.038Z" fill="#152C1A"/>
<path opacity="0.4" d="M387.517 227.038H381.094L372.354 178.758H378.777L387.517 227.038Z" fill="white"/>
<path opacity="0.2" d="M385.769 227.038H381.094L372.354 178.758H377.029L385.769 227.038Z" fill="white"/>
<path d="M407.497 176.449H361.097C360.522 176.449 360.057 176.915 360.057 177.489V180.015C360.057 180.59 360.522 181.055 361.097 181.055H407.497C408.072 181.055 408.537 180.59 408.537 180.015V177.489C408.537 176.915 408.072 176.449 407.497 176.449Z" fill="#152C1A"/>
<path opacity="0.2" d="M378.734 176.449H361.097C360.522 176.449 360.057 176.915 360.057 177.489V180.015C360.057 180.59 360.522 181.055 361.097 181.055H378.734C379.308 181.055 379.774 180.59 379.774 180.015V177.489C379.774 176.915 379.308 176.449 378.734 176.449Z" fill="white"/>
</g>
<g opacity="0.4">
<path d="M149.861 188.238H91.1719V226.406H149.861V188.238Z" fill="#407BFF"/>
<path d="M149.861 188.238H91.1719V226.406H149.861V188.238Z" fill="#FF4848"/>
<path d="M147.72 195.395H93.3223V224.499H147.72V195.395Z" fill="#E2F8E0"/>
<path d="M137.993 199.738H97.7539V200.988H137.993V199.738Z" fill="#919D94"/>
<path d="M117.061 203.578H97.7539V204.828H117.061V203.578Z" fill="#919D94"/>
<path d="M122.069 207.414H97.7539V208.664H122.069V207.414Z" fill="#919D94"/>
<path d="M106.319 211.242H97.7539V212.492H106.319V211.242Z" fill="#919D94"/>
<path d="M103.304 215.078H97.7539V216.328H103.304V215.078Z" fill="#919D94"/>
</g>
<path d="M222.386 227.037H174.613L182.698 163.523H214.302L222.386 227.037Z" fill="#407BFF"/>
<path d="M222.386 227.037H174.613L180.146 183.582L182.707 163.523H214.293L218.069 193.117L222.386 227.037Z" fill="#DBE6BA"/>
<path opacity="0.1" d="M218.067 193.117L180.145 183.582L182.705 163.523H214.292L218.067 193.117Z" fill="#758278"/>
<path d="M311.132 6.91016H85.8671C85.11 6.91016 84.3603 7.05941 83.6609 7.34941C82.9616 7.63941 82.3262 8.06445 81.7913 8.60021C81.2564 9.13597 80.8323 9.77194 80.5433 10.4717C80.2544 11.1715 80.1063 11.9214 80.1074 12.6785V165.174C80.1074 166.702 80.7142 168.167 81.7944 169.247C82.8745 170.327 84.3395 170.934 85.8671 170.934H311.132C312.659 170.934 314.124 170.327 315.205 169.247C316.285 168.167 316.891 166.702 316.891 165.174V12.696C316.895 11.9375 316.749 11.1857 316.461 10.4839C316.173 9.78203 315.749 9.14399 315.214 8.60637C314.679 8.06876 314.043 7.64217 313.342 7.35108C312.642 7.05999 311.89 6.91015 311.132 6.91016Z" fill="#407BFF"/>
<path d="M311.132 6.91016H85.8671C85.11 6.91016 84.3603 7.05941 83.6609 7.34941C82.9616 7.63941 82.3262 8.06445 81.7913 8.60021C81.2564 9.13597 80.8323 9.77194 80.5433 10.4717C80.2544 11.1715 80.1063 11.9214 80.1074 12.6785V165.174C80.1074 166.702 80.7142 168.167 81.7944 169.247C82.8745 170.327 84.3395 170.934 85.8671 170.934H311.132C312.659 170.934 314.124 170.327 315.205 169.247C316.285 168.167 316.891 166.702 316.891 165.174V12.696C316.895 11.9375 316.749 11.1857 316.461 10.4839C316.173 9.78203 315.749 9.14399 315.214 8.60637C314.679 8.06876 314.043 7.64217 313.342 7.35108C312.642 7.05999 311.89 6.91015 311.132 6.91016Z" fill="#DBE6BA"/>
<path d="M309.314 12.5547H87.6934V159.605H309.314V12.5547Z" fill="#F5F8F5"/>
<path d="M238.616 222.266H158.374C157.872 222.266 157.465 222.673 157.465 223.175V226.05C157.465 226.552 157.872 226.959 158.374 226.959H238.616C239.118 226.959 239.525 226.552 239.525 226.05V223.175C239.525 222.673 239.118 222.266 238.616 222.266Z" fill="#407BFF"/>
<path d="M238.616 222.266H158.374C157.872 222.266 157.465 222.673 157.465 223.175V226.05C157.465 226.552 157.872 226.959 158.374 226.959H238.616C239.118 226.959 239.525 226.552 239.525 226.05V223.175C239.525 222.673 239.118 222.266 238.616 222.266Z" fill="#DBE6BA"/>
<path opacity="0.2" d="M309.314 12.6953H87.6934V34.6152H309.314V12.6953Z" fill="#758278"/>
<path opacity="0.4" d="M182.662 34.8789H87.6934V159.607H182.662V34.8789Z" fill="#E4EAE3"/>
<path d="M275.203 66.6914V68.8764H273.018" stroke="white" stroke-miterlimit="10"/>
<path d="M268.401 68.875H196.82" stroke="#919D94" stroke-miterlimit="10" stroke-dasharray="5.28 5.28"/>
<path d="M194.513 68.8764H192.328V66.6914" stroke="white" stroke-miterlimit="10"/>
<path d="M192.328 62.7332V25.125" stroke="#919D94" stroke-miterlimit="10" stroke-dasharray="4.53 4.53"/>
<path d="M192.328 23.1499V20.9648H194.513" stroke="white" stroke-miterlimit="10"/>
<path d="M199.129 20.9648H270.71" stroke="#F5F8F5" stroke-miterlimit="10" stroke-dasharray="5.28 5.28"/>
<path d="M273.018 20.9648H275.203V23.1499" stroke="white" stroke-miterlimit="10"/>
<path d="M275.203 27.1094V64.7176" stroke="#919D94" stroke-miterlimit="10" stroke-dasharray="4.53 4.53"/>
<path d="M276.591 19.5742H273.82V22.3448H276.591V19.5742Z" fill="#407BFF" stroke="white" stroke-miterlimit="10"/>
<path d="M276.591 67.4961H273.82V70.2667H276.591V67.4961Z" fill="#FF9457" stroke="white" stroke-miterlimit="10"/>
<path d="M193.71 19.5742H190.939V22.3448H193.71V19.5742Z" fill="#407BFF" stroke="white" stroke-miterlimit="10"/>
<path d="M193.71 67.4961H190.939V70.2667H193.71V67.4961Z" fill="#FF9457" stroke="white" stroke-miterlimit="10"/>
<path d="M235.155 19.5742H232.385V22.3448H235.155V19.5742Z" fill="#FF9457" stroke="white" stroke-miterlimit="10"/>
<path d="M235.155 67.4961H232.385V70.2667H235.155V67.4961Z" fill="#FF9457" stroke="white" stroke-miterlimit="10"/>
<path d="M276.591 43.5312H273.82V46.3018H276.591V43.5312Z" fill="#FF9457" stroke="white" stroke-miterlimit="10"/>
<path d="M193.71 43.5312H190.939V46.3018H193.71V43.5312Z" fill="#FF9457" stroke="white" stroke-miterlimit="10"/>
<path opacity="0.7" d="M267.676 37.0547H247.39C246.478 37.0547 245.738 37.7942 245.738 38.7065V44.1341C245.738 45.0464 246.478 45.7859 247.39 45.7859H267.676C268.588 45.7859 269.328 45.0464 269.328 44.1341V38.7065C269.328 37.7942 268.588 37.0547 267.676 37.0547Z" fill="#919D94"/>
<path opacity="0.7" d="M232.717 37.0547H212.431C211.519 37.0547 210.779 37.7942 210.779 38.7065V44.1341C210.779 45.0464 211.519 45.7859 212.431 45.7859H232.717C233.629 45.7859 234.369 45.0464 234.369 44.1341V38.7065C234.369 37.7942 233.629 37.0547 232.717 37.0547Z" fill="#919D94"/>
<path opacity="0.7" d="M187.715 143.324H167.429C166.517 143.324 165.777 144.064 165.777 144.976V150.404C165.777 151.316 166.517 152.055 167.429 152.055H187.715C188.627 152.055 189.367 151.316 189.367 150.404V144.976C189.367 144.064 188.627 143.324 187.715 143.324Z" fill="#919D94"/>
<path d="M294.684 20.4922H302.06" stroke="white" stroke-width="1.5" stroke-linecap="round" stroke-linejoin="round"/>
<path d="M294.684 23.9883H302.06" stroke="white" stroke-width="1.5" stroke-linecap="round" stroke-linejoin="round"/>
<path d="M294.684 27.4844H302.06" stroke="white" stroke-width="1.5" stroke-linecap="round" stroke-linejoin="round"/>
<path opacity="0.5" d="M177.052 54.2109H102.719V128.545H177.052V54.2109Z" fill="white"/>
<path d="M133.832 60.2852V124.411" stroke="#FFE9DC" stroke-miterlimit="10"/>
<path d="M165.891 124.411C157.387 124.411 149.23 121.032 143.216 115.018C137.203 109.005 133.824 100.848 133.824 92.3435V92.3435C133.824 83.8411 137.202 75.6869 143.214 69.6748C149.226 63.6627 157.38 60.2852 165.883 60.2852V60.2852" stroke="#E4EAE3" stroke-miterlimit="10"/>
<path d="M167.28 58.9062H164.51V61.6768H167.28V58.9062Z" fill="white" stroke="#407BFF" stroke-miterlimit="10"/>
<path d="M167.28 123.02H164.51V125.79H167.28V123.02Z" fill="white" stroke="#407BFF" stroke-miterlimit="10"/>
<path d="M135.222 90.9609H132.451V93.7315H135.222V90.9609Z" fill="white" stroke="#407BFF" stroke-miterlimit="10"/>
<path d="M134.549 60.287C134.549 60.4287 134.507 60.5673 134.428 60.6851C134.349 60.803 134.237 60.8949 134.106 60.9491C133.975 61.0034 133.831 61.0175 133.692 60.9899C133.553 60.9622 133.425 60.894 133.325 60.7938C133.225 60.6935 133.157 60.5658 133.129 60.4268C133.101 60.2878 133.116 60.1437 133.17 60.0127C133.224 59.8818 133.316 59.7698 133.434 59.6911C133.552 59.6123 133.69 59.5703 133.832 59.5703C134.021 59.5726 134.202 59.6488 134.336 59.7827C134.47 59.9166 134.546 60.0976 134.549 60.287Z" fill="white" stroke="#407BFF" stroke-miterlimit="10"/>
<path d="M134.549 124.412C134.549 124.553 134.507 124.692 134.428 124.809C134.35 124.927 134.239 125.019 134.108 125.073C133.978 125.128 133.834 125.142 133.695 125.116C133.556 125.089 133.429 125.021 133.328 124.922C133.228 124.822 133.159 124.696 133.13 124.557C133.101 124.419 133.114 124.275 133.167 124.144C133.22 124.013 133.311 123.9 133.427 123.82C133.544 123.741 133.682 123.697 133.823 123.695C133.918 123.694 134.012 123.712 134.1 123.747C134.188 123.783 134.268 123.835 134.336 123.902C134.403 123.969 134.457 124.048 134.493 124.136C134.53 124.223 134.549 124.317 134.549 124.412Z" fill="white" stroke="#407BFF" stroke-miterlimit="10"/>
<path opacity="0.7" d="M256.996 144.38H234.491C232.766 144.38 231.112 143.695 229.893 142.476C228.673 141.256 227.988 139.602 227.988 137.878C227.988 136.153 228.673 134.499 229.893 133.28C231.112 132.06 232.766 131.375 234.491 131.375H256.996C258.721 131.375 260.375 132.06 261.594 133.28C262.814 134.499 263.499 136.153 263.499 137.878C263.499 139.602 262.814 141.256 261.594 142.476C260.375 143.695 258.721 144.38 256.996 144.38Z" fill="#919D94"/>
<path opacity="0.7" d="M276.766 88.9276H207.239C206.861 88.9276 206.499 88.7775 206.232 88.5103C205.965 88.2432 205.814 87.8808 205.814 87.503C205.821 87.1305 205.975 86.7758 206.241 86.5156C206.508 86.2555 206.867 86.1109 207.239 86.1133H276.757C276.944 86.1122 277.129 86.1479 277.302 86.2186C277.474 86.2892 277.631 86.3933 277.764 86.5249C277.896 86.6565 278.001 86.813 278.073 86.9853C278.145 87.1577 278.182 87.3425 278.182 87.5292C278.175 87.901 278.023 88.2553 277.758 88.5166C277.494 88.7779 277.138 88.9254 276.766 88.9276Z" fill="#E4EAE3"/>
<path opacity="0.7" d="M276.766 99.3014H207.239C207.052 99.3026 206.867 99.2668 206.695 99.1962C206.522 99.1256 206.365 99.0214 206.232 98.8898C206.1 98.7582 205.995 98.6018 205.923 98.4294C205.851 98.2571 205.814 98.0722 205.814 97.8856C205.814 97.5077 205.965 97.1454 206.232 96.8782C206.499 96.611 206.861 96.4609 207.239 96.4609H276.757C277.135 96.4609 277.497 96.611 277.764 96.8782C278.032 97.1454 278.182 97.5077 278.182 97.8856C278.182 98.2611 278.032 98.6212 277.767 98.8867C277.501 99.1523 277.141 99.3014 276.766 99.3014Z" fill="#E4EAE3"/>
<path opacity="0.7" d="M276.766 109.712H233.46C233.083 109.712 232.722 109.563 232.456 109.297C232.189 109.032 232.037 108.672 232.035 108.296C232.035 107.918 232.185 107.556 232.452 107.288C232.72 107.021 233.082 106.871 233.46 106.871H276.758C277.136 106.871 277.498 107.021 277.765 107.288C278.032 107.556 278.182 107.918 278.182 108.296C278.18 108.671 278.03 109.029 277.765 109.294C277.5 109.559 277.141 109.709 276.766 109.712Z" fill="#E4EAE3"/>
<path d="M99.6072 18.7695H94.6953V23.6814H99.6072V18.7695Z" fill="white"/>
<path d="M107.892 18.7695H105.497C104.802 18.7695 104.238 19.333 104.238 20.0281V22.4229C104.238 23.1179 104.802 23.6814 105.497 23.6814H107.892C108.587 23.6814 109.15 23.1179 109.15 22.4229V20.0281C109.15 19.333 108.587 18.7695 107.892 18.7695Z" fill="white"/>
<path d="M116.457 18.7695H116.037C114.797 18.7695 113.791 19.7752 113.791 21.0157V21.4352C113.791 22.6758 114.797 23.6814 116.037 23.6814H116.457C117.697 23.6814 118.703 22.6758 118.703 21.4352V21.0157C118.703 19.7752 117.697 18.7695 116.457 18.7695Z" fill="white"/>
<path opacity="0.9" d="M109.744 139.862V137.948L108.765 137.861C108.626 137.24 108.377 136.648 108.031 136.113L108.66 135.353L107.306 133.998L106.545 134.627C106.01 134.281 105.419 134.033 104.797 133.893L104.71 132.914H102.796L102.7 133.893C102.079 134.033 101.487 134.282 100.952 134.627L100.191 133.998L98.8366 135.353L99.4659 136.113C99.1131 136.644 98.864 137.237 98.7318 137.861L97.7441 137.948V139.862L98.7318 139.959C98.8646 140.582 99.1136 141.175 99.4659 141.707L98.8366 142.476L100.191 143.822L100.952 143.192C101.483 143.545 102.076 143.794 102.7 143.926L102.796 144.914H104.71L104.797 143.926C105.421 143.794 106.014 143.545 106.545 143.192L107.306 143.822L108.66 142.476L108.031 141.707C108.38 141.173 108.629 140.581 108.765 139.959L109.744 139.862ZM103.722 141.497C103.204 141.497 102.697 141.343 102.266 141.055C101.834 140.767 101.498 140.357 101.3 139.878C101.101 139.399 101.05 138.872 101.151 138.363C101.252 137.855 101.502 137.387 101.868 137.021C102.235 136.654 102.702 136.404 103.211 136.303C103.719 136.202 104.247 136.254 104.726 136.452C105.205 136.651 105.614 136.987 105.902 137.418C106.191 137.849 106.344 138.356 106.344 138.875C106.344 139.57 106.068 140.237 105.576 140.729C105.085 141.221 104.418 141.497 103.722 141.497Z" fill="white"/>
<path opacity="0.6" d="M117.506 145.265V143.797L116.736 143.718C116.632 143.226 116.436 142.758 116.16 142.337L116.649 141.734L115.592 140.677L114.997 141.175C114.574 140.898 114.103 140.702 113.608 140.598L113.538 139.82H112.034L111.964 140.598C111.469 140.702 110.998 140.898 110.575 141.175L109.98 140.677L108.914 141.734L109.412 142.337C109.136 142.758 108.94 143.226 108.836 143.718L108.066 143.797V145.292L108.836 145.37C108.94 145.862 109.136 146.331 109.412 146.751L108.914 147.354L109.98 148.412L110.575 147.914C110.998 148.19 111.469 148.386 111.964 148.49L112.034 149.259H113.538L113.608 148.49C114.103 148.386 114.574 148.19 114.997 147.914L115.592 148.412L116.649 147.354L116.16 146.751C116.436 146.331 116.632 145.862 116.736 145.37L117.506 145.265ZM112.786 146.55C112.383 146.552 111.988 146.434 111.652 146.211C111.316 145.988 111.054 145.671 110.898 145.299C110.743 144.927 110.701 144.517 110.779 144.122C110.857 143.726 111.05 143.362 111.334 143.077C111.619 142.791 111.981 142.596 112.377 142.517C112.772 142.438 113.182 142.478 113.555 142.631C113.927 142.785 114.246 143.046 114.47 143.381C114.694 143.716 114.814 144.111 114.814 144.514C114.815 144.781 114.763 145.045 114.662 145.292C114.56 145.539 114.411 145.764 114.223 145.953C114.034 146.142 113.811 146.292 113.564 146.395C113.317 146.497 113.053 146.55 112.786 146.55Z" fill="white"/>
<path opacity="0.4" d="M109.746 149.52V148.262L109.099 148.2C109.012 147.787 108.849 147.392 108.618 147.038L109.038 146.54L108.164 145.666L107.657 146.077C107.302 145.846 106.908 145.683 106.494 145.596L106.433 144.949H105.157L105.096 145.596C104.682 145.683 104.288 145.846 103.934 146.077L103.427 145.666L102.553 146.54L102.972 147.038C102.741 147.392 102.578 147.787 102.491 148.2L101.836 148.262V149.52L102.491 149.581C102.577 149.999 102.74 150.396 102.972 150.753L102.553 151.251L103.427 152.125L103.934 151.705C104.285 151.942 104.68 152.109 105.096 152.195L105.157 152.841H106.416L106.477 152.195C106.893 152.109 107.287 151.942 107.639 151.705L108.146 152.125L109.02 151.251L108.601 150.753C108.833 150.396 108.996 149.999 109.081 149.581L109.746 149.52ZM105.786 150.595C105.451 150.587 105.126 150.479 104.852 150.287C104.577 150.095 104.366 149.826 104.243 149.513C104.121 149.201 104.093 148.86 104.164 148.532C104.235 148.205 104.4 147.905 104.64 147.671C104.88 147.437 105.184 147.279 105.513 147.217C105.843 147.155 106.183 147.191 106.492 147.321C106.801 147.451 107.065 147.67 107.25 147.949C107.435 148.228 107.534 148.556 107.534 148.891C107.534 149.118 107.489 149.344 107.401 149.553C107.312 149.763 107.183 149.953 107.02 150.112C106.857 150.271 106.664 150.395 106.452 150.478C106.24 150.561 106.014 150.601 105.786 150.595Z" fill="white"/>
<path d="M274.695 20.4648L278.401 30.376L284.598 24.1706L274.695 20.4648Z" fill="#407BFF"/>
<path d="M280.664 25.0493L279.279 26.4336L282.351 29.5051L283.735 28.1208L280.664 25.0493Z" fill="#407BFF"/>
<path opacity="0.4" d="M284.598 24.1706L274.695 20.4648L278.401 30.376L280.813 27.9638L282.343 29.502L283.724 28.1211L282.194 26.5828L284.598 24.1706Z" fill="white"/>
<path d="M122.864 55.8902L132.19 59.3862L127.304 54.5005C127.123 54.6045 126.914 54.6463 126.707 54.6194C126.5 54.5926 126.308 54.4986 126.159 54.352C125.979 54.1712 125.877 53.9259 125.877 53.6702C125.877 53.4145 125.979 53.1693 126.159 52.9885C126.34 52.8077 126.585 52.7061 126.841 52.7061C127.097 52.7061 127.342 52.8077 127.523 52.9885C127.669 53.1368 127.763 53.3291 127.79 53.5359C127.817 53.7427 127.775 53.9527 127.671 54.1335L132.557 59.0191L129.061 49.6935L125.967 50.3753L125.853 49.2653L125.268 48.6797L121.842 52.1058L122.427 52.6913L123.546 52.805L122.864 55.8902Z" fill="#919D94"/>
<path d="M358.98 45.0352C362.082 48.6098 377.867 79.0163 374.817 86.1132C371.766 93.21 346.473 85.0294 346.473 85.0294L347.985 75.0046C347.985 75.0046 357.809 75.3542 358.753 74.419C359.696 73.4839 345.459 59.2726 345.459 59.2726L358.98 45.0352Z" fill="#A4C340"/>
<path d="M327.088 44.0025C325.34 45.2698 324.466 47.0703 325.165 48.0229L371.347 111.694C372.038 112.646 374.022 112.384 375.77 111.117C377.518 109.85 378.392 108.041 377.693 107.097L331.51 43.4169C330.82 42.473 328.845 42.7265 327.088 44.0025Z" fill="#263238"/>
<path opacity="0.7" d="M331.511 43.4189L377.693 107.09C378.384 108.034 377.518 109.834 375.77 111.11C374.022 112.386 372.038 112.631 371.357 111.687L325.174 48.0074C324.998 47.6755 324.92 47.3003 324.949 46.9256C324.979 46.551 325.115 46.1925 325.341 45.8923C325.576 45.4713 325.871 45.0858 326.215 44.7473C326.482 44.4707 326.775 44.2191 327.089 43.9957C328.845 42.7371 330.82 42.4749 331.511 43.4189Z" fill="white"/>
<path opacity="0.3" d="M377.692 107.091C378.383 108.034 377.518 109.835 375.77 111.111C374.022 112.387 372.038 112.632 371.356 111.688C370.971 111.163 371.924 110.368 372.483 109.223L325.34 45.9106C325.576 45.4896 325.87 45.1041 326.214 44.7656L372.405 108.445C372.676 108.17 372.968 107.915 373.279 107.685C375.027 106.409 377.002 106.147 377.692 107.091Z" fill="black"/>
<path d="M321.372 42.2388C319.895 43.812 319.388 45.7348 320.245 46.5476L377.667 100.307C378.541 101.111 380.42 100.482 381.897 98.9003C383.374 97.3183 383.881 95.4043 383.024 94.5827L325.602 40.8229C324.746 40.0276 322.849 40.6656 321.372 42.2388Z" fill="#407BFF"/>
<path opacity="0.7" d="M325.603 40.8318L383.025 94.5916C383.899 95.3869 383.374 97.3185 381.897 98.9004C380.42 100.482 378.524 101.103 377.667 100.308L320.245 46.5478C320.011 46.2531 319.865 45.8984 319.823 45.5242C319.781 45.1501 319.846 44.7718 320.009 44.4327C320.166 43.9746 320.384 43.5395 320.656 43.1392C320.872 42.8299 321.112 42.5377 321.373 42.2652C322.85 40.6658 324.746 40.0278 325.603 40.8318Z" fill="white"/>
<path opacity="0.3" d="M383.023 94.5912C383.897 95.3865 383.373 97.318 381.896 98.9C380.419 100.482 378.522 101.102 377.666 100.307C377.194 99.8614 377.98 98.9087 378.312 97.6851L320.008 44.4498C320.165 43.9916 320.382 43.5566 320.655 43.1562L378.085 96.9247C378.296 96.6141 378.533 96.3218 378.793 96.0507C380.27 94.4163 382.167 93.7871 383.023 94.5912Z" fill="black"/>
<path d="M335.173 213.806L330.803 213.875C326.355 192.978 323.208 167.116 321.25 147.609C320.944 144.55 320.665 141.657 320.376 138.956C320.263 137.671 320.149 136.439 320.044 135.25C319.52 129.386 319.17 124.762 318.943 121.861C318.786 119.763 318.707 118.609 318.707 118.609H334.596L334.448 122.639L333.923 135.932L333.871 137.453L333.539 146.237L332.988 161.191C338.416 182.254 335.173 213.806 335.173 213.806Z" fill="#F2CECA"/>
<path d="M370.656 212.687L366.347 213.5C357.721 191.938 349.619 164.328 344.349 145.039C343.536 142.05 342.784 139.253 342.111 136.719C342.111 136.588 342.05 136.465 342.015 136.343C340.687 131.309 339.664 127.297 339.026 124.754L338.266 121.668L353.823 118.977L354.697 125.532L355.999 135.146L356.253 137.033L357.127 143.597L359.495 161.2C368.48 181.039 370.656 212.687 370.656 212.687Z" fill="#F2CECA"/>
<path d="M322.246 228.332C323.061 227.67 323.987 227.161 324.982 226.828C324.982 226.828 327.962 223.874 329.404 214.977L333.302 213.954C333.965 213.796 334.66 213.845 335.294 214.093C335.929 214.342 336.472 214.778 336.851 215.344C336.958 215.502 337.041 215.676 337.096 215.86C337.297 216.814 337.437 217.78 337.515 218.753C337.733 222.006 337.754 225.269 337.576 228.524H336.868L336.589 222.406C336.484 220.317 334.884 222.764 334.43 225.028C333.975 227.292 333.005 229.651 328.443 229.765C323.112 229.844 320.9 229.634 322.246 228.332Z" fill="#152C1A"/>
<path d="M336.99 215.464C337.244 213.384 337.322 209.766 337.322 209.766L328.652 210.727C328.652 210.727 329.701 214.844 328.836 217.938C333.206 216.74 336.99 215.464 336.99 215.464Z" fill="#152C1A"/>
<path d="M357.522 228.331C358.336 227.673 359.263 227.166 360.257 226.836C360.257 226.836 363.237 223.882 364.671 214.985L368.578 213.962C369.24 213.804 369.935 213.853 370.57 214.101C371.204 214.349 371.747 214.786 372.126 215.352C372.234 215.51 372.316 215.684 372.371 215.867C372.572 216.822 372.712 217.788 372.79 218.76C373.007 222.013 373.024 225.277 372.843 228.532H372.178L371.899 222.414C371.794 220.325 370.194 222.772 369.74 225.036C369.286 227.299 368.315 229.659 363.744 229.773C358.387 229.843 356.176 229.633 357.522 228.331Z" fill="#152C1A"/>
<path d="M372.255 215.464C372.517 213.384 372.596 209.766 372.596 209.766L363.926 210.727C363.926 210.727 364.975 214.844 364.109 217.938C368.479 216.74 372.255 215.464 372.255 215.464Z" fill="#152C1A"/>
<path d="M357.548 130.869L341.055 132.975L340.417 133.054L337.026 120.626L336.152 133.946L318.48 133.019C310.614 86.8108 324.065 75.8945 324.065 75.8945L348.039 80.719C358.894 99.1779 356.315 120.626 356.315 120.626L357.548 130.869Z" fill="#FF9457"/>
<path d="M334.839 18.3253C334.839 20.1432 334.035 21.6115 333.091 21.6115C332.148 21.6115 331.291 20.1432 331.291 18.3253C331.291 16.5074 332.095 15.0391 333.091 15.0391C334.088 15.0391 334.839 16.5074 334.839 18.3253Z" stroke="#263238" stroke-width="0.5" stroke-linecap="round" stroke-linejoin="round"/>
<path d="M346.683 29.3014C346.619 29.3614 346.549 29.4141 346.473 29.4587C345.476 30.2191 344.339 30.7746 343.126 31.0931C339.586 31.9147 337.165 31.4253 335.583 29.8258C333.372 27.4223 332.822 23.166 333.136 18.0268C333.191 15.9819 333.569 13.9584 334.255 12.0312C334.255 12.0312 334.255 11.9525 334.255 11.9351C334.255 11.9176 334.307 11.7865 334.342 11.7166C334.776 10.6296 335.475 9.66874 336.376 8.92204C337.277 8.17535 338.35 7.6667 339.499 7.4427C340.495 7.22008 341.511 7.10579 342.532 7.10184C352.557 7.02318 354.357 23.6117 346.683 29.3014Z" fill="#F2CECA"/>
<path opacity="0.2" d="M346.474 29.4877C345.469 30.2039 344.331 30.712 343.127 30.9823C339.587 31.8038 337.166 31.2008 335.584 29.5751C337.702 30.099 339.934 29.9148 341.938 29.0507C342.678 28.7776 343.471 28.6751 344.256 28.7507C345.041 28.8264 345.799 29.0783 346.474 29.4877Z" fill="black"/>
<path d="M347.488 38.5341C348.109 41.3834 344.412 42.5458 344.412 42.5458C338.373 39.9238 337.254 36.7512 337.254 36.7512C342.297 34.1292 340.837 26.6914 340.837 26.6914L341.86 27.1983L349.053 28.6055C349.053 28.6055 347.06 32.4336 346.798 33.3076C345.435 37.8961 347.488 38.5341 347.488 38.5341Z" fill="#F2CECA"/>
<path d="M334.245 11.99C334.245 11.99 333.695 18.982 340.363 22.0323C340.363 22.0323 343.221 29.3302 347.425 29.4263C353.168 29.5662 358.219 21.4117 356.235 13.1C353.639 2.31483 337.304 1.44083 334.245 11.99Z" fill="#263238"/>
<path d="M336.973 20.0115C336.973 18.919 337.847 17.0749 339.595 17.3283C341.343 17.5818 342.339 21.9343 338.004 22.9044C337.348 23.0443 336.973 22.3101 336.973 20.0115Z" fill="#EBB376"/>
<path d="M346.474 4.52542C346.474 4.52542 339.779 2.82987 336.073 5.53053C331.747 8.67693 330.104 11.9282 335.199 16.9799C335.199 16.9799 346.447 13.3353 350.188 14.1045C352.375 14.5455 354.52 15.1682 356.603 15.9661C357.416 8.53709 350.214 3.00466 346.474 4.52542Z" fill="#152C1A"/>
<path d="M336.973 18.3258C336.973 18.3258 338.721 26.4191 335.977 33.3237C335.977 33.3237 351.883 38.8386 357.416 35.8408C362.948 32.843 357.879 22.7832 357.643 16.9799C357.407 11.1765 354.89 2.60256 346.473 4.52536C338.057 6.44816 336.973 18.3258 336.973 18.3258Z" fill="#152C1A"/>
<path d="M331.248 17.8086H337.969" stroke="#263238" stroke-width="0.5" stroke-linecap="round" stroke-linejoin="round"/>
<path d="M327.438 37.9033C327.438 37.9033 335.435 35.0541 347.487 38.5326C359.54 42.0111 359.994 47.1415 359.994 47.1415C359.994 47.1415 352.355 64.4554 351.149 84.0592L319.738 82.8881C319.738 82.8881 315.988 55.2172 327.438 37.9033Z" fill="#4F9646"/>
<path opacity="0.2" d="M327.001 60.426C327.001 60.426 325.699 68.3969 319.135 73.3088C319.073 68.6059 319.365 63.9051 320.009 59.2461L327.001 60.426Z" fill="black"/>
<path d="M292.294 37.3511L288.335 31.4778C288.335 31.4778 287.732 28.9257 286.963 28.3489C286.194 27.772 278.59 24.5295 277.672 24.5469C276.754 24.5644 276.798 30.4727 277.672 31.4778C278.546 32.4829 283.388 34.6329 284.664 34.8514C285.94 35.0699 285.311 34.8514 285.311 34.8514L288.807 41.8434L292.294 37.3511Z" fill="#F2CECA"/>
<path d="M327.437 37.9045C318.955 41.4567 310.772 45.6829 302.965 50.5425L290.179 33.0625C290.179 33.0625 286.735 34.1288 285.459 40.1244C285.459 40.1244 292.023 65.1296 300.553 67.6117C309.083 70.0939 327.018 60.3837 327.018 60.3837C327.018 60.3837 332.209 47.3961 327.437 37.9045Z" fill="#A4C340"/>
<path d="M28.2969 223.723H34.4573L34.9644 209.457H28.804L28.2969 223.723Z" fill="#F2CECA"/>
<path d="M35.3073 223.008H27.825C27.7017 223.006 27.5817 223.047 27.4859 223.125C27.3901 223.202 27.3247 223.311 27.3012 223.432L26.0874 228.911C26.0618 229.028 26.0596 229.149 26.0809 229.266C26.1022 229.384 26.1465 229.496 26.2115 229.597C26.2764 229.697 26.3606 229.784 26.4591 229.852C26.5577 229.92 26.6687 229.967 26.7858 229.992H26.9853C29.4046 229.95 31.1421 229.801 34.2016 229.801C36.0804 229.801 41.6838 230 44.311 230C46.9381 230 47.229 227.448 46.1732 227.215C41.4261 226.176 37.8596 224.721 36.3382 223.382C36.0543 223.132 35.6859 222.998 35.3073 223.008Z" fill="#152C1A"/>
<path d="M59.998 224.177L66.358 224.851L67.5468 211.15L61.1952 210.477L59.998 224.177Z" fill="#F2CECA"/>
<path d="M67.0228 222.809H59.5904C59.468 222.81 59.3495 222.852 59.2544 222.929C59.1592 223.006 59.093 223.113 59.0667 223.233L57.8529 228.72C57.823 228.835 57.8164 228.955 57.8334 229.073C57.8503 229.19 57.8905 229.304 57.9517 229.406C58.0128 229.508 58.0936 229.597 58.1894 229.667C58.2852 229.738 58.394 229.789 58.5096 229.817H58.7092C61.1284 229.775 62.866 229.626 65.9337 229.626C67.8043 229.626 73.416 229.817 76.0348 229.817C78.6536 229.817 78.9529 227.265 77.8971 227.032C73.15 226.001 69.5834 224.538 68.062 223.199C67.7764 222.944 67.4058 222.805 67.0228 222.809Z" fill="#152C1A"/>
<path d="M31.3247 84.3711H64.0223C67.1233 101.339 76.8503 161.372 69.8419 214.895L58.7764 213.524C58.7764 213.524 59.799 142.517 50.0388 116.254C48.9164 130.304 47.5447 145.252 46.4223 153.208C43.5791 172.787 37.4935 215.561 37.4935 215.561H26.2617C26.2617 215.561 28.5646 174.607 29.6287 155.37C30.7927 134.461 31.3247 88.6609 31.3247 84.3711Z" fill="#FF9457"/>
<path opacity="0.2" d="M50.0723 116.225C51.6767 120.827 52.8974 125.555 53.722 130.358C54.6365 117.888 50.9785 104.586 50.9785 104.586L50.0723 116.225Z" fill="black"/>
<path d="M30.4162 90.0547L29.668 94.0037C29.668 94.0037 52.5388 96.9633 66.7635 96.8802L66.2647 94.1699L30.4162 90.0547Z" fill="#407BFF"/>
<path d="M76.832 55.8623C76.832 55.8623 84.7383 80.8033 90.1339 82.466C95.5294 84.1287 109.255 63.5192 109.255 63.5192C109.255 63.5192 121.584 63.4028 122.133 62.5631C122.682 61.7234 118.932 53.0357 118.034 53.0274C117.137 53.019 106.395 57.0595 105.988 57.7412C105.581 58.4229 93.2515 70.2117 92.6862 69.8625C92.1208 69.5133 87.4319 54.6901 87.4319 54.6901L76.832 55.8623Z" fill="#F2CECA"/>
<path d="M110.885 62.1741C110.983 62.1541 111.08 62.1291 111.176 62.0993L111.034 62.0078C110.989 62.0671 110.939 62.1227 110.885 62.1741Z" fill="#B97964"/>
<path d="M72.3438 52.9888L73.3081 54.7596L77.8058 63.0732L78.7453 64.7942L91.3737 60.4045C91.3737 60.4045 86.1195 40.801 84.2988 38.7891L72.3438 52.9888Z" fill="#A4C340"/>
<path d="M84.2975 38.798C81.9182 36.0505 79.005 33.8156 75.735 32.2292C72.465 30.6428 68.9064 29.738 65.2758 29.5699C52.9051 28.9879 49.0143 30.2183 44.4917 34.2588C37.8824 40.1615 29.6602 90.9828 29.6602 90.9828C41.7226 94.3411 54.2533 95.7031 66.7557 95.0149C66.7557 95.0149 66.9053 80.8817 71.3697 71.3958C76.3977 60.8289 80.7165 49.9389 84.2975 38.798Z" fill="#4F9646"/>
<path opacity="0.4" d="M71.2871 50.7617L73.7479 51.0028L71.9439 52.3995L71.2871 50.7617Z" fill="white"/>
<path d="M61.6445 31.286C62.983 35.1102 67.9629 36.8561 70.5734 37.1055C71.5347 37.2571 72.5193 37.0886 73.3755 36.626C74.2317 36.1633 74.9122 35.4321 75.3122 34.5449C75.3122 34.5449 72.3276 33.0568 72.6269 31.3857C72.8383 30.3638 73.2571 29.3961 73.8573 28.5424C74.1681 28.055 74.5067 27.5859 74.8715 27.1375L70.0912 16.8867C69.027 21.3262 65.7598 29.856 61.6445 31.286Z" fill="#F2CECA"/>
<path opacity="0.2" d="M69.8979 21.625C67.6199 26.6132 70.8373 30.0467 72.6248 31.3603C72.8362 30.3384 73.255 29.3707 73.8552 28.517L69.8979 21.625Z" fill="black"/>
<path d="M85.927 8.30751C85.927 8.30751 87.4567 16.7542 83.0505 20.1378C78.6443 23.5215 78.1953 7.74219 78.1953 7.74219L85.927 8.30751Z" fill="#B97964"/>
<path opacity="0.4" d="M85.927 8.30751C85.927 8.30751 87.4567 16.7542 83.0505 20.1378C78.6443 23.5215 78.1953 7.74219 78.1953 7.74219L85.927 8.30751Z" fill="black"/>
<path d="M70.1743 27.2471C71.1568 28.6167 72.5616 29.626 74.173 30.1201C75.7845 30.6142 77.5136 30.5658 79.0949 29.9823C81.1602 29.2572 82.8704 27.7702 83.8752 25.8255C84.0166 25.5678 84.1413 25.2851 84.266 24.9941C86.3278 19.7482 86.7601 6.94518 81.2065 7.41906C76.6174 7.8098 72.128 6.39647 69.7836 10.3621C69.114 11.4902 68.7208 12.7608 68.6363 14.07C68.1375 20.1888 67.5555 23.7388 70.1743 27.2471Z" fill="#F2CECA"/>
<path d="M77.5565 17.0997C77.4568 17.5819 77.6896 18.0225 78.0138 18.0724C78.338 18.1223 78.6539 17.7482 78.7288 17.241C78.8036 16.7339 78.5874 16.3182 78.2715 16.2767C77.9556 16.2351 77.6314 16.6009 77.5565 17.0997Z" fill="#263238"/>
<path d="M83.1185 17.8862C83.0188 18.3684 83.2598 18.809 83.5758 18.8589C83.8917 18.9088 84.2159 18.5347 84.2824 18.0275C84.3489 17.5204 84.1494 17.1047 83.8252 17.0549C83.5009 17.005 83.185 17.4207 83.1185 17.8862Z" fill="#263238"/>
<path d="M81.314 17.8789C81.6886 19.465 82.2788 20.9923 83.0682 22.4181C82.6958 22.6117 82.2856 22.7216 81.8664 22.7403C81.4471 22.7589 81.0288 22.6859 80.6406 22.5262L81.314 17.8789Z" fill="#EABAB5"/>
<path d="M76.0934 15.049C76.1441 15.0642 76.198 15.0653 76.2492 15.0521C76.3005 15.0389 76.3472 15.012 76.3843 14.9742C76.6389 14.712 76.9508 14.5124 77.2956 14.3912C77.6404 14.27 78.0086 14.2306 78.3713 14.2759C78.4472 14.2909 78.526 14.2759 78.5911 14.234C78.6562 14.1922 78.7026 14.1267 78.7205 14.0514C78.729 14.0142 78.7298 13.9757 78.723 13.9382C78.7162 13.9007 78.7019 13.8649 78.681 13.8331C78.66 13.8012 78.6328 13.774 78.601 13.7529C78.5692 13.7318 78.5335 13.7174 78.496 13.7105C78.0442 13.6443 77.5832 13.685 77.15 13.8294C76.7168 13.9738 76.3236 14.2179 76.0019 14.5419C75.9481 14.5977 75.918 14.6722 75.918 14.7497C75.918 14.8273 75.9481 14.9018 76.0019 14.9576C76.0283 14.9919 76.059 15.0226 76.0934 15.049Z" fill="#263238"/>
<path d="M85.7781 16.3096C85.8317 16.3301 85.8909 16.3301 85.9444 16.3096C85.9814 16.3003 86.016 16.2833 86.0461 16.2598C86.0761 16.2363 86.1009 16.2067 86.1189 16.1731C86.1369 16.1395 86.1477 16.1024 86.1506 16.0644C86.1534 16.0263 86.1484 15.9881 86.1356 15.9522C86.0038 15.5088 85.7673 15.1037 85.4461 14.7709C85.1249 14.4381 84.7284 14.1875 84.29 14.04C84.2534 14.0287 84.215 14.0249 84.1769 14.0289C84.1388 14.0329 84.1019 14.0445 84.0685 14.0632C84.0351 14.0818 84.0058 14.1071 83.9824 14.1374C83.959 14.1677 83.9421 14.2025 83.9325 14.2396C83.912 14.3134 83.9214 14.3924 83.9588 14.4593C83.9961 14.5263 84.0584 14.5757 84.132 14.597C84.476 14.7236 84.7857 14.9284 85.0368 15.1953C85.2879 15.4623 85.4734 15.784 85.5786 16.1351C85.5951 16.1783 85.6219 16.2168 85.6566 16.2472C85.6914 16.2776 85.7331 16.2991 85.7781 16.3096Z" fill="#263238"/>
<path d="M76.7812 22.7422C76.7812 22.7422 77.8038 24.937 79.8906 24.8539" stroke="#263238" stroke-width="0.5" stroke-linecap="round" stroke-linejoin="round"/>
<path d="M74.13 7.20703L74.2131 9.91729C73.7392 10.0894 73.3479 10.4346 73.1181 10.8834C72.8883 11.3322 72.837 11.8514 72.9744 12.3366C73.6228 14.6644 72.0183 18.0397 70.1644 19.2702C70.1644 19.2702 70.1644 18.2891 69.333 18.4388C68.5016 18.5884 68.2439 23.693 69.6157 26.2619C69.6157 26.2619 66.681 23.56 65.808 18.0979C64.9767 13.0515 65.1346 9.85078 65.808 7.4315L74.13 7.20703Z" fill="#B97964"/>
<path d="M74.13 7.20703L74.2131 9.91729C73.7392 10.0894 73.3479 10.4346 73.1181 10.8834C72.8883 11.3322 72.837 11.8514 72.9744 12.3366C73.6228 14.6644 72.0183 18.0397 70.1644 19.2702C70.1644 19.2702 70.1644 18.2891 69.333 18.4388C68.5016 18.5884 68.2439 23.693 69.6157 26.2619C69.6157 26.2619 66.681 23.56 65.808 18.0979C64.9767 13.0515 65.1346 9.85078 65.808 7.4315L74.13 7.20703Z" fill="#152C1A"/>
<path d="M65.3437 10.4547C68.3106 10.7451 71.3047 10.5627 74.2144 9.9143C82.5862 8.25157 86.1528 11.3276 86.1528 11.3276C86.7321 10.8066 87.1884 10.1634 87.4889 9.44455C87.7894 8.72569 87.9265 7.94908 87.8904 7.17079C87.6493 4.75983 84.2989 4.35246 84.2989 4.35246C84.2989 4.35246 83.2929 1.63389 81.0732 0.810839C78.8534 -0.0122128 76.6254 2.04958 76.6254 2.04958C76.6254 2.04958 73.8569 -0.627421 70.6312 0.137435C69.5453 0.360256 68.5689 0.949197 67.8652 1.80573C67.1615 2.66227 66.7732 3.73446 66.7654 4.84296C66.7654 4.84296 62.9827 5.2254 63.0658 7.17079C63.1489 9.11618 65.3437 10.4547 65.3437 10.4547Z" fill="#152C1A"/>
<path d="M80.9141 17.879C80.9141 17.879 81.7953 17.3303 82.3191 17.9705" stroke="#263238" stroke-width="0.5" stroke-linecap="round" stroke-linejoin="round"/>
<path d="M65.2939 18.6534C65.7717 20.1156 66.8089 21.3291 68.1788 22.0288C69.9995 22.935 71.2964 21.4053 71.1135 19.4848C70.9472 17.7722 69.8083 15.195 67.788 15.0952C67.3568 15.0808 66.9288 15.1741 66.5428 15.3668C66.1568 15.5595 65.8249 15.8455 65.5772 16.1988C65.3296 16.5521 65.174 16.9616 65.1245 17.3902C65.0751 17.8188 65.1333 18.253 65.2939 18.6534Z" fill="#EABAB5"/>
<path opacity="0.2" d="M34.916 63.3694C42.7641 60.1105 48.9661 46.6506 48.9661 46.6506L44.51 43.957L38.4576 48.8205L37.9089 50.8407C37.0776 53.9251 36.2961 57.209 35.5479 60.5345C35.3317 61.4822 35.1239 62.43 34.916 63.3694Z" fill="black"/>
<path d="M43.0704 99.0138L3.83789 92.793L0.000973208 116.991L39.2335 123.212L43.0704 99.0138Z" fill="#A4C340"/>
<path d="M17.715 102.004L9.74219 106.136L16.0439 112.529" stroke="white" stroke-width="2" stroke-linecap="round" stroke-linejoin="round"/>
<path d="M25.3301 113.998L33.2946 109.866L27.0011 103.473" stroke="white" stroke-width="2" stroke-linecap="round" stroke-linejoin="round"/>
<path d="M18.8203 112.974L24.2242 103.039" stroke="white" stroke-width="2" stroke-linecap="round" stroke-linejoin="round"/>
<path d="M39.8119 36.4258C39.8119 36.4258 25.0219 51.2656 23.01 54.1505C20.9981 57.0353 17.1406 89.0179 17.1406 89.0179C17.1406 89.0179 16.3092 89.3006 16.2593 89.9906C16.2094 90.6807 16.1263 99.6594 16.2593 100.075C16.3923 100.491 23.1929 104.689 24.1989 103.692C25.2048 102.694 26.6015 92.5263 26.6015 92.5263L23.01 89.0179C23.01 89.0179 27.1668 65.4654 29.8023 61.6494C32.4377 57.8334 43.1789 49.6694 43.1789 49.6694L39.8119 36.4258Z" fill="#F2CECA"/>
<path d="M51.1758 30.4492C53.3291 35.0134 51.6913 44.624 47.7174 48.016C43.5127 51.5027 39.0677 54.6892 34.4155 57.5517L27.166 48.0492C27.166 48.0492 34.8811 40.517 39.5534 36.1773C42.7312 33.0967 46.7969 31.0929 51.1758 30.4492Z" fill="#A4C340"/>
</svg>
