<svg width="60" height="61" viewBox="0 0 60 61" fill="none" xmlns="http://www.w3.org/2000/svg">
<circle cx="30" cy="30.5898" r="30" fill="#F68D8D"/>
<g clip-path="url(#clip0)">
<path d="M39.7749 23.6349C39.4648 23.2011 39.1267 22.7881 38.7627 22.3984L37.668 23.4242C37.9869 23.7649 38.283 24.1264 38.5542 24.5062L39.7749 23.6349Z" fill="white"/>
<path d="M37.5977 21.3072C37.186 20.9698 36.7527 20.6597 36.3005 20.3789L35.5117 21.6536C35.9089 21.8991 36.2894 22.1706 36.6507 22.4664L37.5977 21.3072Z" fill="white"/>
<path d="M40.6149 24.9947L39.2892 25.6965C41.9941 30.8244 40.03 37.1741 34.9022 39.8791C29.7744 42.584 23.4246 40.6199 20.7197 35.4921C18.0147 30.3643 19.9788 24.0145 25.1066 21.3095C26.6156 20.5135 28.2959 20.0973 30.0019 20.0969C31.4746 20.0928 32.9313 20.4013 34.2759 21.0019L34.8877 19.6327C28.8363 16.9344 21.7433 19.6527 19.0449 25.7041C16.3466 31.7555 19.0647 38.8486 25.1162 41.5469C31.1676 44.2453 38.2607 41.5271 40.9591 35.4757C41.6441 33.9394 41.9984 32.2763 41.999 30.5943C41.9985 28.6432 41.5234 26.7214 40.6149 24.9947Z" fill="white"/>
<path d="M36.8184 28.9041C36.819 29.2357 36.742 29.5628 36.5935 29.8593L33.526 35.4469L31.0906 28.3439H32.2513V26.8443H27.7524V28.3439H29.5055L30.2021 30.3752L27.445 35.5714L24.9676 28.3439H26.2528V26.8443H21.7539V28.3439H23.3825L26.4672 37.3417H28.2023L30.8671 32.318L32.5917 37.3417H34.1956L37.7947 30.8033L37.9311 30.5304C38.8316 28.7324 38.104 26.5448 36.306 25.6443C36.0673 25.5247 35.8162 25.4318 35.5572 25.3672L35.1936 26.8218C36.1492 27.0602 36.8194 27.9191 36.8184 28.9041Z" fill="white"/>
</g>
<defs>
<clipPath id="clip0">
<rect width="24" height="24" fill="white" transform="translate(18 18.5898)"/>
</clipPath>
</defs>
</svg>
