<svg width="24" height="24" viewBox="0 0 24 24" fill="none" xmlns="http://www.w3.org/2000/svg">
<path d="M22.5 11.932C22.5 11.8805 22.5 11.8219 22.4977 11.7539C22.4953 11.5641 22.4906 11.3508 22.4859 11.1234C22.4672 10.4695 22.4344 9.81797 22.3828 9.20391C22.3125 8.35781 22.2094 7.65234 22.0687 7.12266C21.9204 6.56988 21.6295 6.06574 21.2252 5.66062C20.8209 5.25549 20.3173 4.96358 19.7648 4.81406C19.1016 4.63594 17.8031 4.52578 15.975 4.45781C15.1055 4.425 14.175 4.40391 13.2445 4.39219C12.9187 4.3875 12.6164 4.38516 12.3445 4.38281H11.6555C11.3836 4.38516 11.0813 4.3875 10.7555 4.39219C9.825 4.40391 8.89453 4.425 8.025 4.45781C6.19687 4.52812 4.89609 4.63828 4.23516 4.81406C3.6825 4.96322 3.17876 5.255 2.7744 5.66018C2.37004 6.06536 2.07928 6.5697 1.93125 7.12266C1.78828 7.65234 1.6875 8.35781 1.61719 9.20391C1.56562 9.81797 1.53281 10.4695 1.51406 11.1234C1.50703 11.3508 1.50469 11.5641 1.50234 11.7539C1.50234 11.8219 1.5 11.8805 1.5 11.932V12.0633C1.5 12.1148 1.5 12.1734 1.50234 12.2414C1.50469 12.4313 1.50937 12.6445 1.51406 12.8719C1.53281 13.5258 1.56562 14.1773 1.61719 14.7914C1.6875 15.6375 1.79063 16.343 1.93125 16.8727C2.23125 17.9953 3.1125 18.8813 4.23516 19.1813C4.89609 19.3594 6.19687 19.4695 8.025 19.5375C8.89453 19.5703 9.825 19.5914 10.7555 19.6031C11.0813 19.6078 11.3836 19.6102 11.6555 19.6125H12.3445C12.6164 19.6102 12.9187 19.6078 13.2445 19.6031C14.175 19.5914 15.1055 19.5703 15.975 19.5375C17.8031 19.4672 19.1039 19.357 19.7648 19.1813C20.8875 18.8813 21.7687 17.9977 22.0687 16.8727C22.2117 16.343 22.3125 15.6375 22.3828 14.7914C22.4344 14.1773 22.4672 13.5258 22.4859 12.8719C22.493 12.6445 22.4953 12.4313 22.4977 12.2414C22.4977 12.1734 22.5 12.1148 22.5 12.0633V11.932ZM20.8125 12.0539C20.8125 12.1031 20.8125 12.157 20.8102 12.2203C20.8078 12.4031 20.8031 12.6047 20.7984 12.8227C20.782 13.4461 20.7492 14.0695 20.7 14.6484C20.6367 15.4031 20.5477 16.0219 20.4375 16.4367C20.2922 16.9781 19.8656 17.407 19.3266 17.55C18.8344 17.6813 17.5945 17.7867 15.9094 17.85C15.0562 17.8828 14.1375 17.9039 13.2211 17.9156C12.9 17.9203 12.6023 17.9227 12.3352 17.9227H11.6648L10.7789 17.9156C9.8625 17.9039 8.94609 17.8828 8.09063 17.85C6.40547 17.7844 5.16328 17.6813 4.67344 17.55C4.13437 17.4047 3.70781 16.9781 3.5625 16.4367C3.45234 16.0219 3.36328 15.4031 3.3 14.6484C3.25078 14.0695 3.22031 13.4461 3.20156 12.8227C3.19453 12.6047 3.19219 12.4008 3.18984 12.2203C3.18984 12.157 3.1875 12.1008 3.1875 12.0539V11.9414C3.1875 11.8922 3.1875 11.8383 3.18984 11.775C3.19219 11.5922 3.19688 11.3906 3.20156 11.1727C3.21797 10.5492 3.25078 9.92578 3.3 9.34687C3.36328 8.59219 3.45234 7.97344 3.5625 7.55859C3.70781 7.01719 4.13437 6.58828 4.67344 6.44531C5.16562 6.31406 6.40547 6.20859 8.09063 6.14531C8.94375 6.1125 9.8625 6.09141 10.7789 6.07969C11.1 6.075 11.3977 6.07266 11.6648 6.07266H12.3352L13.2211 6.07969C14.1375 6.09141 15.0539 6.1125 15.9094 6.14531C17.5945 6.21094 18.8367 6.31406 19.3266 6.44531C19.8656 6.59063 20.2922 7.01719 20.4375 7.55859C20.5477 7.97344 20.6367 8.59219 20.7 9.34687C20.7492 9.92578 20.7797 10.5492 20.7984 11.1727C20.8055 11.3906 20.8078 11.5945 20.8102 11.775C20.8102 11.8383 20.8125 11.8945 20.8125 11.9414V12.0539ZM9.91406 15.1383L15.3516 11.9742L9.91406 8.85703V15.1383Z" fill="#919D94"/>
</svg>
